M48
; DRILL file {KiCad (6.0.5)} date Tue Mar 19 18:28:59 2024
; FORMAT={-:-/ absolute / inch / decimal}
; #@! TF.CreationDate,2024-03-19T18:28:59+03:00
; #@! TF.GenerationSoftware,Kicad,Pcbnew,(6.0.5)
; #@! TF.FileFunction,Plated,1,2,PTH
FMAT,2
INCH
; #@! TA.AperFunction,Plated,PTH,ComponentDrill
T1C0.0295
; #@! TA.AperFunction,Plated,PTH,ComponentDrill
T2C0.0315
; #@! TA.AperFunction,Plated,PTH,ComponentDrill
T3C0.0354
; #@! TA.AperFunction,Plated,PTH,ComponentDrill
T4C0.0394
; #@! TA.AperFunction,Plated,PTH,ComponentDrill
T5C0.0512
; #@! TA.AperFunction,Plated,PTH,ComponentDrill
T6C0.0598
; #@! TA.AperFunction,Plated,PTH,ComponentDrill
T7C0.0630
; #@! TA.AperFunction,Plated,PTH,ComponentDrill
T8C0.1693
%
G90
G05
T1
X5.0Y-2.8543
X5.0Y-2.9043
X5.0Y-2.9543
X5.0008Y-3.4854
X5.0008Y-3.5354
X5.0008Y-3.5854
X5.0346Y-4.0921
X5.0346Y-4.1421
X5.0346Y-4.1921
X5.0413Y-4.6965
X5.0413Y-4.7465
X5.0413Y-4.7965
X5.0598Y-5.3339
X5.0598Y-5.3839
X5.0598Y-5.4339
X5.6339Y-4.3402
X5.6839Y-4.3402
X5.7339Y-4.3402
X6.3339Y-4.3402
X6.3839Y-4.3402
X6.4339Y-4.3402
X7.0339Y-4.3402
X7.0839Y-4.3402
X7.1339Y-4.3402
T2
X3.6469Y-2.3
X3.6469Y-2.7
X4.05Y-2.3
X4.05Y-2.7
X4.45Y-2.3
X4.45Y-2.7
X4.8469Y-2.3
X4.8469Y-2.7
X5.05Y-2.3
X5.2Y-2.8543
X5.2Y-3.2543
X5.2008Y-3.4854
X5.2008Y-3.8854
X5.2346Y-4.0921
X5.2346Y-4.4921
X5.2413Y-4.6965
X5.2413Y-5.0965
X5.2598Y-5.3669
X5.2598Y-5.7669
X5.45Y-2.3
X5.55Y-2.3
X5.6339Y-4.1402
X5.95Y-2.3
X6.0339Y-4.1402
X6.05Y-2.3
X6.3339Y-4.1402
X6.45Y-2.3
X6.5469Y-2.3
X6.7339Y-4.1402
X6.9469Y-2.3
X7.0339Y-4.1402
X7.0469Y-2.3
X7.4339Y-4.1402
X7.4469Y-2.3
T3
X4.8Y-2.8543
X4.8Y-3.2543
X4.8008Y-3.4854
X4.8008Y-3.8854
X4.8299Y-5.3669
X4.8299Y-5.7669
X4.8346Y-4.0921
X4.8346Y-4.4921
X4.8413Y-4.6965
X4.8413Y-5.0965
X5.0Y-3.1543
X5.0Y-3.2543
X5.0008Y-3.7854
X5.0008Y-3.8854
X5.0299Y-5.6669
X5.0299Y-5.7669
X5.0346Y-4.3921
X5.0346Y-4.4921
X5.0413Y-4.9965
X5.0413Y-5.0965
X5.6669Y-4.5701
X5.9669Y-4.3701
X6.0669Y-4.3701
X6.0669Y-4.5701
X6.3669Y-4.5701
X6.6669Y-4.3701
X6.7669Y-4.3701
X6.7669Y-4.5701
X7.0669Y-4.5701
X7.3669Y-4.3701
X7.4669Y-4.3701
X7.4669Y-4.5701
T4
X4.5579Y-2.8161
X4.5579Y-3.2886
X4.5579Y-4.0539
X4.5579Y-4.5264
X4.5579Y-4.6583
X4.5579Y-5.1307
X4.5579Y-5.2618
X4.5579Y-5.7343
X4.5587Y-3.4472
X4.5587Y-3.9197
X5.5618Y-4.8421
X5.7502Y-3.4
X5.7504Y-2.7
X5.7504Y-2.8291
X5.8502Y-3.4
X5.8504Y-2.7
X5.8504Y-2.8291
X5.9502Y-3.4
X5.9504Y-2.7
X5.9504Y-2.8291
X6.0343Y-4.8421
X6.0502Y-3.4
X6.0504Y-2.7
X6.0504Y-2.8291
X6.1502Y-3.4
X6.1504Y-2.7
X6.1504Y-2.8291
X6.2502Y-3.4
X6.2504Y-2.7
X6.2504Y-2.8291
X6.2618Y-4.8421
X6.3502Y-3.4
X6.3504Y-2.7
X6.3504Y-2.8291
X6.4502Y-3.4
X6.4504Y-2.7
X6.4504Y-2.8291
X6.5502Y-3.4
X6.5504Y-2.7
X6.5504Y-2.8291
X6.6502Y-3.4
X6.6504Y-2.7
X6.6504Y-2.8291
X6.7343Y-4.8421
X6.7502Y-3.4
X6.7504Y-2.7
X6.7504Y-2.8291
X6.8502Y-3.4
X6.8504Y-2.7
X6.8504Y-2.8291
X6.9502Y-3.4
X6.9504Y-2.7
X6.9504Y-2.8291
X6.9618Y-4.8421
X7.0502Y-3.4
X7.0504Y-2.7
X7.0504Y-2.8291
X7.1502Y-3.4
X7.1504Y-2.7
X7.1504Y-2.8291
X7.2502Y-3.4
X7.2504Y-2.7
X7.2504Y-2.8291
X7.3502Y-3.4
X7.3504Y-2.7
X7.3504Y-2.8291
X7.4343Y-4.8421
X7.4502Y-3.4
X7.4504Y-2.7
X7.4504Y-2.8291
X7.5502Y-3.4
X7.5504Y-2.7
X7.5504Y-2.8291
X7.6502Y-3.4
X7.6504Y-2.7
X7.6504Y-2.8291
X7.6663Y-4.1917
X7.6663Y-5.8083
X7.8663Y-2.3917
X7.8663Y-4.0083
X8.338Y-4.1917
X8.338Y-5.8083
X8.538Y-2.3917
X8.538Y-4.0083
X8.6Y-4.8
X8.6Y-4.9
X8.6Y-5.0
T5
X4.0756Y-3.2906
X4.0756Y-4.5283
X4.0756Y-5.1327
X4.0756Y-5.7362
X4.0764Y-3.9217
X4.0776Y-2.8161
X4.0776Y-4.0539
X4.0776Y-4.6583
X4.0776Y-5.2618
X4.0783Y-3.4472
X4.6346Y-3.0543
X4.6346Y-4.2921
X4.6346Y-4.8965
X4.6346Y-5.5
X4.6354Y-3.6854
X5.5618Y-5.3224
X5.8Y-4.7654
X6.0362Y-5.3244
X6.2618Y-5.3224
X6.5Y-4.7654
X6.7362Y-5.3244
X6.9618Y-5.3224
X7.2Y-4.7654
X7.4362Y-5.3244
T6
X3.65Y-2.1
X3.7Y-2.8543
X3.7Y-3.0543
X3.7008Y-3.4854
X3.7008Y-3.6854
X3.7299Y-5.3
X3.7299Y-5.5
X3.7346Y-4.0921
X3.7346Y-4.2921
X3.7413Y-4.6965
X3.7413Y-4.8965
X3.85Y-2.1
X4.05Y-2.1
X4.25Y-2.1
X4.45Y-2.1
X4.65Y-2.1
X4.85Y-2.1
X5.05Y-2.1
X5.25Y-2.1
X5.45Y-2.1
X5.6Y-5.6701
X5.65Y-2.1
X5.8Y-5.6701
X5.85Y-2.1
X6.05Y-2.1
X6.25Y-2.1
X6.3Y-5.6701
X6.45Y-2.1
X6.5Y-5.6701
X6.65Y-2.1
X6.8469Y-2.1
X7.0Y-5.6701
X7.0469Y-2.1
X7.2Y-5.6701
X7.2469Y-2.1
X7.4469Y-2.1
X7.6469Y-2.1
X7.8469Y-2.1
X8.0469Y-2.1
X8.8Y-2.6
X8.8Y-2.8
X8.8Y-3.0
X8.8Y-3.2
X8.8Y-3.4
T7
X8.5559Y-5.4295
X8.674Y-5.2445
X8.7921Y-5.4295
T8
X3.25Y-1.95
X3.3Y-5.8
X8.8Y-1.95
X8.8Y-5.8
T0
M30
