%TF.GenerationSoftware,KiCad,Pcbnew,(6.0.5)*%
%TF.CreationDate,2024-03-19T18:28:54+03:00*%
%TF.ProjectId,gas_detection,6761735f-6465-4746-9563-74696f6e2e6b,rev?*%
%TF.SameCoordinates,Original*%
%TF.FileFunction,Copper,L2,Bot*%
%TF.FilePolarity,Positive*%
%FSLAX46Y46*%
G04 Gerber Fmt 4.6, Leading zero omitted, Abs format (unit mm)*
G04 Created by KiCad (PCBNEW (6.0.5)) date 2024-03-19 18:28:54*
%MOMM*%
%LPD*%
G01*
G04 APERTURE LIST*
%TA.AperFunction,ComponentPad*%
%ADD10R,1.050000X1.500000*%
%TD*%
%TA.AperFunction,ComponentPad*%
%ADD11O,1.050000X1.500000*%
%TD*%
%TA.AperFunction,ComponentPad*%
%ADD12C,1.600000*%
%TD*%
%TA.AperFunction,ComponentPad*%
%ADD13O,1.600000X1.600000*%
%TD*%
%TA.AperFunction,ComponentPad*%
%ADD14C,3.000000*%
%TD*%
%TA.AperFunction,ComponentPad*%
%ADD15C,2.500000*%
%TD*%
%TA.AperFunction,ComponentPad*%
%ADD16R,3.000000X3.000000*%
%TD*%
%TA.AperFunction,ComponentPad*%
%ADD17R,2.600000X2.600000*%
%TD*%
%TA.AperFunction,ComponentPad*%
%ADD18C,2.600000*%
%TD*%
%TA.AperFunction,ComponentPad*%
%ADD19C,7.500000*%
%TD*%
%TA.AperFunction,ComponentPad*%
%ADD20R,1.800000X1.800000*%
%TD*%
%TA.AperFunction,ComponentPad*%
%ADD21C,1.800000*%
%TD*%
%TA.AperFunction,ComponentPad*%
%ADD22R,1.700000X1.700000*%
%TD*%
%TA.AperFunction,ComponentPad*%
%ADD23O,1.700000X1.700000*%
%TD*%
%TA.AperFunction,ComponentPad*%
%ADD24R,1.500000X1.050000*%
%TD*%
%TA.AperFunction,ComponentPad*%
%ADD25O,1.500000X1.050000*%
%TD*%
%TA.AperFunction,ComponentPad*%
%ADD26O,1.800000X1.800000*%
%TD*%
%TA.AperFunction,ComponentPad*%
%ADD27R,2.500000X2.500000*%
%TD*%
%TA.AperFunction,Conductor*%
%ADD28C,0.600000*%
%TD*%
%TA.AperFunction,Conductor*%
%ADD29C,0.400000*%
%TD*%
G04 APERTURE END LIST*
D10*
%TO.P,Q7,1,E*%
%TO.N,GND*%
X160880000Y-110240000D03*
D11*
%TO.P,Q7,2,B*%
%TO.N,Net-(Q7-Pad2)*%
X162150000Y-110240000D03*
%TO.P,Q7,3,C*%
%TO.N,Net-(D11-Pad2)*%
X163420000Y-110240000D03*
%TD*%
D12*
%TO.P,R13,1*%
%TO.N,Float_Chamber4_min*%
X102870000Y-58420000D03*
D13*
%TO.P,R13,2*%
%TO.N,GND*%
X102870000Y-68580000D03*
%TD*%
D14*
%TO.P,K7,1*%
%TO.N,Net-(J14-Pad1)*%
X165100000Y-121040000D03*
D15*
%TO.P,K7,2*%
%TO.N,Net-(D11-Pad2)*%
X159050000Y-122990000D03*
D14*
%TO.P,K7,3*%
%TO.N,Net-(J14-Pad2)*%
X159050000Y-135190000D03*
%TO.P,K7,4*%
%TO.N,unconnected-(K7-Pad4)*%
X171100000Y-135240000D03*
D15*
%TO.P,K7,5*%
%TO.N,+5V*%
X171050000Y-122990000D03*
%TD*%
D14*
%TO.P,K6,1*%
%TO.N,Net-(J13-Pad1)*%
X147320000Y-121040000D03*
D15*
%TO.P,K6,2*%
%TO.N,Net-(D10-Pad2)*%
X141270000Y-122990000D03*
D14*
%TO.P,K6,3*%
%TO.N,Net-(J13-Pad2)*%
X141270000Y-135190000D03*
%TO.P,K6,4*%
%TO.N,unconnected-(K6-Pad4)*%
X153320000Y-135240000D03*
D15*
%TO.P,K6,5*%
%TO.N,+5V*%
X153270000Y-122990000D03*
%TD*%
D16*
%TO.P,J17,1,Pin_1*%
%TO.N,Float_Chamber2_min*%
X143510000Y-53340000D03*
D14*
%TO.P,J17,2,Pin_2*%
%TO.N,+3V3*%
X148590000Y-53340000D03*
%TD*%
D17*
%TO.P,J1,1*%
%TO.N,Net-(J1-Pad1)*%
X217320000Y-137910000D03*
D18*
%TO.P,J1,2*%
%TO.N,GND*%
X223320000Y-137910000D03*
%TO.P,J1,3*%
X220320000Y-133210000D03*
%TD*%
D16*
%TO.P,J12,1,Pin_1*%
%TO.N,Net-(J12-Pad1)*%
X94740000Y-139700000D03*
D14*
%TO.P,J12,2,Pin_2*%
%TO.N,Net-(J12-Pad2)*%
X94740000Y-134620000D03*
%TD*%
D19*
%TO.P,H4,1*%
%TO.N,N/C*%
X82550000Y-49530000D03*
%TD*%
D20*
%TO.P,D14,1,K*%
%TO.N,Net-(D14-Pad1)*%
X151560000Y-111000000D03*
D21*
%TO.P,D14,2,A*%
%TO.N,Solenoid2_Output*%
X154100000Y-111000000D03*
%TD*%
D16*
%TO.P,J11,1,Pin_1*%
%TO.N,Net-(J11-Pad1)*%
X95030000Y-124370000D03*
D14*
%TO.P,J11,2,Pin_2*%
%TO.N,Net-(J11-Pad2)*%
X95030000Y-119290000D03*
%TD*%
D12*
%TO.P,R2,1*%
%TO.N,Net-(D5-Pad1)*%
X132080000Y-82660000D03*
D13*
%TO.P,R2,2*%
%TO.N,Net-(Q1-Pad2)*%
X132080000Y-72500000D03*
%TD*%
D19*
%TO.P,H2,1*%
%TO.N,N/C*%
X83820000Y-147320000D03*
%TD*%
D22*
%TO.P,J2,1,Pin_1*%
%TO.N,Float_Chamber1_min*%
X146055000Y-86360000D03*
D23*
%TO.P,J2,2,Pin_2*%
%TO.N,Float_Chamber1_max*%
X148595000Y-86360000D03*
%TO.P,J2,3,Pin_3*%
%TO.N,Float_Chamber2_min*%
X151135000Y-86360000D03*
%TO.P,J2,4,Pin_4*%
%TO.N,Float_Chamber2_max*%
X153675000Y-86360000D03*
%TO.P,J2,5,Pin_5*%
%TO.N,Float_Chamber3_min*%
X156215000Y-86360000D03*
%TO.P,J2,6,Pin_6*%
%TO.N,Float_Chamber3_max*%
X158755000Y-86360000D03*
%TO.P,J2,7,Pin_7*%
%TO.N,Float_Chamber4_min*%
X161295000Y-86360000D03*
%TO.P,J2,8,Pin_8*%
%TO.N,Float_Chamber4_max*%
X163835000Y-86360000D03*
%TO.P,J2,9,Pin_9*%
%TO.N,Electrode1_Output*%
X166375000Y-86360000D03*
%TO.P,J2,10,Pin_10*%
%TO.N,Electrode2_Output*%
X168915000Y-86360000D03*
%TO.P,J2,11,Pin_11*%
%TO.N,Electrode3_Output*%
X171455000Y-86360000D03*
%TO.P,J2,12,Pin_12*%
%TO.N,Electrode4_Output*%
X173995000Y-86360000D03*
%TO.P,J2,13,Pin_13*%
%TO.N,Solenoid1_Output*%
X176535000Y-86360000D03*
%TO.P,J2,14,Pin_14*%
%TO.N,Solenoid2_Output*%
X179075000Y-86360000D03*
%TO.P,J2,15,Pin_15*%
%TO.N,Solenoid3_Output*%
X181615000Y-86360000D03*
%TO.P,J2,16,Pin_16*%
%TO.N,Solenoid4_Output*%
X184155000Y-86360000D03*
%TO.P,J2,17,Pin_17*%
%TO.N,OLED_SDA*%
X186695000Y-86360000D03*
%TO.P,J2,18,Pin_18*%
%TO.N,+5V*%
X189235000Y-86360000D03*
%TO.P,J2,19,Pin_19*%
%TO.N,GND*%
X191775000Y-86360000D03*
%TO.P,J2,20,Pin_20*%
%TO.N,+3V3*%
X194315000Y-86360000D03*
%TD*%
D19*
%TO.P,H3,1*%
%TO.N,N/C*%
X223520000Y-49530000D03*
%TD*%
D12*
%TO.P,R1,1*%
%TO.N,Gas_Pressure_Out*%
X178990000Y-58420000D03*
D13*
%TO.P,R1,2*%
%TO.N,GND*%
X189150000Y-58420000D03*
%TD*%
D24*
%TO.P,Q3,1,E*%
%TO.N,GND*%
X127880000Y-103940000D03*
D25*
%TO.P,Q3,2,B*%
%TO.N,Net-(Q3-Pad2)*%
X127880000Y-105210000D03*
%TO.P,Q3,3,C*%
%TO.N,Net-(D3-Pad2)*%
X127880000Y-106480000D03*
%TD*%
D16*
%TO.P,J20,1,Pin_1*%
%TO.N,Float_Chamber1_max*%
X153670000Y-53340000D03*
D14*
%TO.P,J20,2,Pin_2*%
%TO.N,+3V3*%
X158750000Y-53340000D03*
%TD*%
D16*
%TO.P,J9,1,Pin_1*%
%TO.N,Net-(J9-Pad1)*%
X94000000Y-93610000D03*
D14*
%TO.P,J9,2,Pin_2*%
%TO.N,Net-(J9-Pad2)*%
X94000000Y-88530000D03*
%TD*%
D20*
%TO.P,D5,1,K*%
%TO.N,Net-(D5-Pad1)*%
X127000000Y-80120000D03*
D21*
%TO.P,D5,2,A*%
%TO.N,Electrode1_Output*%
X127000000Y-82660000D03*
%TD*%
D14*
%TO.P,K2,1*%
%TO.N,Net-(J9-Pad1)*%
X117740000Y-93610000D03*
D15*
%TO.P,K2,2*%
%TO.N,Net-(D2-Pad2)*%
X115790000Y-87560000D03*
D14*
%TO.P,K2,3*%
%TO.N,Net-(J9-Pad2)*%
X103590000Y-87560000D03*
%TO.P,K2,4*%
%TO.N,unconnected-(K2-Pad4)*%
X103540000Y-99610000D03*
D15*
%TO.P,K2,5*%
%TO.N,+5V*%
X115790000Y-99560000D03*
%TD*%
D24*
%TO.P,Q4,1,E*%
%TO.N,GND*%
X128050000Y-119290000D03*
D25*
%TO.P,Q4,2,B*%
%TO.N,Net-(Q4-Pad2)*%
X128050000Y-120560000D03*
%TO.P,Q4,3,C*%
%TO.N,Net-(D4-Pad2)*%
X128050000Y-121830000D03*
%TD*%
D12*
%TO.P,R3,1*%
%TO.N,Net-(D6-Pad1)*%
X132100000Y-98690000D03*
D13*
%TO.P,R3,2*%
%TO.N,Net-(Q2-Pad2)*%
X132100000Y-88530000D03*
%TD*%
D20*
%TO.P,D16,1,K*%
%TO.N,Net-(D16-Pad1)*%
X187120000Y-111000000D03*
D21*
%TO.P,D16,2,A*%
%TO.N,Solenoid4_Output*%
X189660000Y-111000000D03*
%TD*%
D12*
%TO.P,R17,1*%
%TO.N,Float_Chamber4_max*%
X92630000Y-58420000D03*
D13*
%TO.P,R17,2*%
%TO.N,GND*%
X92630000Y-68580000D03*
%TD*%
D12*
%TO.P,R12,1*%
%TO.N,Float_Chamber3_min*%
X123110000Y-58420000D03*
D13*
%TO.P,R12,2*%
%TO.N,GND*%
X123110000Y-68580000D03*
%TD*%
D12*
%TO.P,R16,1*%
%TO.N,Float_Chamber3_max*%
X113030000Y-58420000D03*
D13*
%TO.P,R16,2*%
%TO.N,GND*%
X113030000Y-68580000D03*
%TD*%
D20*
%TO.P,D8,1,K*%
%TO.N,Net-(D8-Pad1)*%
X128050000Y-126910000D03*
D21*
%TO.P,D8,2,A*%
%TO.N,Electrode4_Output*%
X128050000Y-129450000D03*
%TD*%
D20*
%TO.P,D7,1,K*%
%TO.N,Net-(D7-Pad1)*%
X127880000Y-111560000D03*
D21*
%TO.P,D7,2,A*%
%TO.N,Electrode3_Output*%
X127880000Y-114100000D03*
%TD*%
D12*
%TO.P,R11,1*%
%TO.N,Float_Chamber2_min*%
X140970000Y-58420000D03*
D13*
%TO.P,R11,2*%
%TO.N,GND*%
X151130000Y-58420000D03*
%TD*%
D16*
%TO.P,J15,1,Pin_1*%
%TO.N,Net-(J15-Pad1)*%
X182880000Y-144020000D03*
D14*
%TO.P,J15,2,Pin_2*%
%TO.N,Net-(J15-Pad2)*%
X177800000Y-144020000D03*
%TD*%
%TO.P,K4,1*%
%TO.N,Net-(J11-Pad1)*%
X117720000Y-124370000D03*
D15*
%TO.P,K4,2*%
%TO.N,Net-(D4-Pad2)*%
X115770000Y-118320000D03*
D14*
%TO.P,K4,3*%
%TO.N,Net-(J11-Pad2)*%
X103570000Y-118320000D03*
%TO.P,K4,4*%
%TO.N,unconnected-(K4-Pad4)*%
X103520000Y-130370000D03*
D15*
%TO.P,K4,5*%
%TO.N,+5V*%
X115770000Y-130320000D03*
%TD*%
D12*
%TO.P,R4,1*%
%TO.N,Net-(D7-Pad1)*%
X132960000Y-114100000D03*
D13*
%TO.P,R4,2*%
%TO.N,Net-(Q3-Pad2)*%
X132960000Y-103940000D03*
%TD*%
D16*
%TO.P,J23,1,Pin_1*%
%TO.N,Float_Chamber4_max*%
X92710000Y-53340000D03*
D14*
%TO.P,J23,2,Pin_2*%
%TO.N,+3V3*%
X97790000Y-53340000D03*
%TD*%
D16*
%TO.P,J10,1,Pin_1*%
%TO.N,Net-(J10-Pad1)*%
X94860000Y-109020000D03*
D14*
%TO.P,J10,2,Pin_2*%
%TO.N,Net-(J10-Pad2)*%
X94860000Y-103940000D03*
%TD*%
D12*
%TO.P,R5,1*%
%TO.N,Net-(D8-Pad1)*%
X133130000Y-129450000D03*
D13*
%TO.P,R5,2*%
%TO.N,Net-(Q4-Pad2)*%
X133130000Y-119290000D03*
%TD*%
D22*
%TO.P,SW1,1,A*%
%TO.N,GND*%
X218440000Y-121920000D03*
D23*
%TO.P,SW1,2,B*%
%TO.N,Net-(J1-Pad1)*%
X218440000Y-124460000D03*
%TO.P,SW1,3,C*%
%TO.N,+24V*%
X218440000Y-127000000D03*
%TD*%
D16*
%TO.P,J18,1,Pin_1*%
%TO.N,Float_Chamber3_min*%
X123190000Y-53340000D03*
D14*
%TO.P,J18,2,Pin_2*%
%TO.N,+3V3*%
X128270000Y-53340000D03*
%TD*%
D20*
%TO.P,D1,1,K*%
%TO.N,+5V*%
X121920000Y-82660000D03*
D26*
%TO.P,D1,2,A*%
%TO.N,Net-(D1-Pad2)*%
X121920000Y-72500000D03*
%TD*%
D16*
%TO.P,J19,1,Pin_1*%
%TO.N,Float_Chamber4_min*%
X102870000Y-53340000D03*
D14*
%TO.P,J19,2,Pin_2*%
%TO.N,+3V3*%
X107950000Y-53340000D03*
%TD*%
D10*
%TO.P,Q6,1,E*%
%TO.N,GND*%
X143100000Y-110240000D03*
D11*
%TO.P,Q6,2,B*%
%TO.N,Net-(Q6-Pad2)*%
X144370000Y-110240000D03*
%TO.P,Q6,3,C*%
%TO.N,Net-(D10-Pad2)*%
X145640000Y-110240000D03*
%TD*%
D12*
%TO.P,R9,1*%
%TO.N,Net-(D16-Pad1)*%
X188820000Y-105160000D03*
D13*
%TO.P,R9,2*%
%TO.N,Net-(Q8-Pad2)*%
X178660000Y-105160000D03*
%TD*%
D27*
%TO.P,U1,1,IN+*%
%TO.N,+24V*%
X199805000Y-101810000D03*
%TO.P,U1,2,IN-*%
%TO.N,GND*%
X216865000Y-101810000D03*
%TO.P,U1,3,OUT+*%
%TO.N,+3V3*%
X199805000Y-60750000D03*
%TO.P,U1,4,OUT-*%
%TO.N,GND*%
X216865000Y-60750000D03*
%TD*%
D22*
%TO.P,J4,1,Pin_1*%
%TO.N,+5V*%
X146060000Y-71860000D03*
D23*
%TO.P,J4,2,Pin_2*%
%TO.N,GND*%
X148600000Y-71860000D03*
%TO.P,J4,3,Pin_3*%
%TO.N,+3V3*%
X151140000Y-71860000D03*
%TO.P,J4,4,Pin_4*%
%TO.N,OLED_SCL*%
X153680000Y-71860000D03*
%TO.P,J4,5,Pin_5*%
%TO.N,OLED_RST*%
X156220000Y-71860000D03*
%TO.P,J4,6,Pin_6*%
%TO.N,Gas_Pressure_Out*%
X158760000Y-71860000D03*
%TO.P,J4,7,Pin_7*%
%TO.N,/general_layout/PB0*%
X161300000Y-71860000D03*
%TO.P,J4,8,Pin_8*%
%TO.N,/general_layout/PA7*%
X163840000Y-71860000D03*
%TO.P,J4,9,Pin_9*%
%TO.N,/general_layout/PA6*%
X166380000Y-71860000D03*
%TO.P,J4,10,Pin_10*%
%TO.N,/general_layout/PA5*%
X168920000Y-71860000D03*
%TO.P,J4,11,Pin_11*%
%TO.N,/general_layout/PA4*%
X171460000Y-71860000D03*
%TO.P,J4,12,Pin_12*%
%TO.N,Gas_Flowrate_Tx*%
X174000000Y-71860000D03*
%TO.P,J4,13,Pin_13*%
%TO.N,Gas_Flowrate_Rx*%
X176540000Y-71860000D03*
%TO.P,J4,14,Pin_14*%
%TO.N,/general_layout/PA1*%
X179080000Y-71860000D03*
%TO.P,J4,15,Pin_15*%
%TO.N,/general_layout/PA0*%
X181620000Y-71860000D03*
%TO.P,J4,16,Pin_16*%
%TO.N,/general_layout/NRST*%
X184160000Y-71860000D03*
%TO.P,J4,17,Pin_17*%
%TO.N,/general_layout/PC15*%
X186700000Y-71860000D03*
%TO.P,J4,18,Pin_18*%
%TO.N,/general_layout/PC14*%
X189240000Y-71860000D03*
%TO.P,J4,19,Pin_19*%
%TO.N,/general_layout/PC13*%
X191780000Y-71860000D03*
%TO.P,J4,20,Pin_20*%
%TO.N,/general_layout/VB*%
X194320000Y-71860000D03*
%TD*%
D12*
%TO.P,R14,1*%
%TO.N,Float_Chamber1_max*%
X153670000Y-58420000D03*
D13*
%TO.P,R14,2*%
%TO.N,GND*%
X163830000Y-58420000D03*
%TD*%
D16*
%TO.P,J5,1,Pin_1*%
%TO.N,+5V*%
X223520000Y-66040000D03*
D14*
%TO.P,J5,2,Pin_2*%
%TO.N,GND*%
X223520000Y-71120000D03*
%TO.P,J5,3,Pin_3*%
%TO.N,OLED_RST*%
X223520000Y-76200000D03*
%TO.P,J5,4,Pin_4*%
%TO.N,OLED_SCL*%
X223520000Y-81280000D03*
%TO.P,J5,5,Pin_5*%
%TO.N,OLED_SDA*%
X223520000Y-86360000D03*
%TD*%
D16*
%TO.P,J13,1,Pin_1*%
%TO.N,Net-(J13-Pad1)*%
X147320000Y-144020000D03*
D14*
%TO.P,J13,2,Pin_2*%
%TO.N,Net-(J13-Pad2)*%
X142240000Y-144020000D03*
%TD*%
D20*
%TO.P,D4,1,K*%
%TO.N,+5V*%
X122970000Y-129450000D03*
D26*
%TO.P,D4,2,A*%
%TO.N,Net-(D4-Pad2)*%
X122970000Y-119290000D03*
%TD*%
D12*
%TO.P,R15,1*%
%TO.N,Float_Chamber2_max*%
X128270000Y-58420000D03*
D13*
%TO.P,R15,2*%
%TO.N,GND*%
X138430000Y-58420000D03*
%TD*%
D12*
%TO.P,R7,1*%
%TO.N,Net-(D14-Pad1)*%
X153260000Y-105160000D03*
D13*
%TO.P,R7,2*%
%TO.N,Net-(Q6-Pad2)*%
X143100000Y-105160000D03*
%TD*%
D16*
%TO.P,J22,1,Pin_1*%
%TO.N,Float_Chamber3_max*%
X113030000Y-53340000D03*
D14*
%TO.P,J22,2,Pin_2*%
%TO.N,+3V3*%
X118110000Y-53340000D03*
%TD*%
%TO.P,K1,1*%
%TO.N,Net-(J8-Pad1)*%
X117720000Y-77580000D03*
D15*
%TO.P,K1,2*%
%TO.N,Net-(D1-Pad2)*%
X115770000Y-71530000D03*
D14*
%TO.P,K1,3*%
%TO.N,Net-(J8-Pad2)*%
X103570000Y-71530000D03*
%TO.P,K1,4*%
%TO.N,unconnected-(K1-Pad4)*%
X103520000Y-83580000D03*
D15*
%TO.P,K1,5*%
%TO.N,+5V*%
X115770000Y-83530000D03*
%TD*%
D24*
%TO.P,Q1,1,E*%
%TO.N,GND*%
X127000000Y-72500000D03*
D25*
%TO.P,Q1,2,B*%
%TO.N,Net-(Q1-Pad2)*%
X127000000Y-73770000D03*
%TO.P,Q1,3,C*%
%TO.N,Net-(D1-Pad2)*%
X127000000Y-75040000D03*
%TD*%
D16*
%TO.P,J16,1,Pin_1*%
%TO.N,Float_Chamber1_min*%
X163830000Y-53340000D03*
D14*
%TO.P,J16,2,Pin_2*%
%TO.N,+3V3*%
X168910000Y-53340000D03*
%TD*%
D16*
%TO.P,J14,1,Pin_1*%
%TO.N,Net-(J14-Pad1)*%
X165100000Y-144020000D03*
D14*
%TO.P,J14,2,Pin_2*%
%TO.N,Net-(J14-Pad2)*%
X160020000Y-144020000D03*
%TD*%
D16*
%TO.P,J8,1,Pin_1*%
%TO.N,Net-(J8-Pad1)*%
X93980000Y-77580000D03*
D14*
%TO.P,J8,2,Pin_2*%
%TO.N,Net-(J8-Pad2)*%
X93980000Y-72500000D03*
%TD*%
D16*
%TO.P,J6,1,Pin_1*%
%TO.N,+24V*%
X173910000Y-53340000D03*
D14*
%TO.P,J6,2,Pin_2*%
%TO.N,Gas_Pressure_Out*%
X178990000Y-53340000D03*
%TO.P,J6,3,Pin_3*%
%TO.N,GND*%
X184070000Y-53340000D03*
%TD*%
D20*
%TO.P,D15,1,K*%
%TO.N,Net-(D15-Pad1)*%
X169340000Y-111000000D03*
D21*
%TO.P,D15,2,A*%
%TO.N,Solenoid3_Output*%
X171880000Y-111000000D03*
%TD*%
D12*
%TO.P,R6,1*%
%TO.N,Net-(D13-Pad1)*%
X133600000Y-146480000D03*
D13*
%TO.P,R6,2*%
%TO.N,Net-(Q5-Pad2)*%
X133600000Y-136320000D03*
%TD*%
D20*
%TO.P,D13,1,K*%
%TO.N,Net-(D13-Pad1)*%
X127760000Y-143940000D03*
D21*
%TO.P,D13,2,A*%
%TO.N,Solenoid1_Output*%
X127760000Y-146480000D03*
%TD*%
D14*
%TO.P,K8,1*%
%TO.N,Net-(J15-Pad1)*%
X182880000Y-121040000D03*
D15*
%TO.P,K8,2*%
%TO.N,Net-(D12-Pad2)*%
X176830000Y-122990000D03*
D14*
%TO.P,K8,3*%
%TO.N,Net-(J15-Pad2)*%
X176830000Y-135190000D03*
%TO.P,K8,4*%
%TO.N,unconnected-(K8-Pad4)*%
X188880000Y-135240000D03*
D15*
%TO.P,K8,5*%
%TO.N,+5V*%
X188830000Y-122990000D03*
%TD*%
D27*
%TO.P,U2,1,IN+*%
%TO.N,+24V*%
X194725000Y-147530000D03*
%TO.P,U2,2,IN-*%
%TO.N,GND*%
X211785000Y-147530000D03*
%TO.P,U2,3,OUT+*%
%TO.N,+5V*%
X194725000Y-106470000D03*
%TO.P,U2,4,OUT-*%
%TO.N,GND*%
X211785000Y-106470000D03*
%TD*%
D20*
%TO.P,D3,1,K*%
%TO.N,+5V*%
X122800000Y-114100000D03*
D26*
%TO.P,D3,2,A*%
%TO.N,Net-(D3-Pad2)*%
X122800000Y-103940000D03*
%TD*%
D14*
%TO.P,K5,1*%
%TO.N,Net-(J12-Pad1)*%
X117720000Y-139700000D03*
D15*
%TO.P,K5,2*%
%TO.N,Net-(D9-Pad2)*%
X115770000Y-133650000D03*
D14*
%TO.P,K5,3*%
%TO.N,Net-(J12-Pad2)*%
X103570000Y-133650000D03*
%TO.P,K5,4*%
%TO.N,unconnected-(K5-Pad4)*%
X103520000Y-145700000D03*
D15*
%TO.P,K5,5*%
%TO.N,+5V*%
X115770000Y-145650000D03*
%TD*%
D16*
%TO.P,J7,1,Pin_1*%
%TO.N,+3V3*%
X189150000Y-53340000D03*
D14*
%TO.P,J7,2,Pin_2*%
%TO.N,Gas_Flowrate_Tx*%
X194230000Y-53340000D03*
%TO.P,J7,3,Pin_3*%
%TO.N,Gas_Flowrate_Rx*%
X199310000Y-53340000D03*
%TO.P,J7,4,Pin_4*%
%TO.N,GND*%
X204390000Y-53340000D03*
%TD*%
D16*
%TO.P,J21,1,Pin_1*%
%TO.N,Float_Chamber2_max*%
X133350000Y-53340000D03*
D14*
%TO.P,J21,2,Pin_2*%
%TO.N,+3V3*%
X138430000Y-53340000D03*
%TD*%
D20*
%TO.P,D6,1,K*%
%TO.N,Net-(D6-Pad1)*%
X127020000Y-96150000D03*
D21*
%TO.P,D6,2,A*%
%TO.N,Electrode2_Output*%
X127020000Y-98690000D03*
%TD*%
D12*
%TO.P,R8,1*%
%TO.N,Net-(D15-Pad1)*%
X171040000Y-105160000D03*
D13*
%TO.P,R8,2*%
%TO.N,Net-(Q7-Pad2)*%
X160880000Y-105160000D03*
%TD*%
D22*
%TO.P,J3,1,Pin_1*%
%TO.N,+5V*%
X146060000Y-68580000D03*
D23*
%TO.P,J3,2,Pin_2*%
%TO.N,GND*%
X148600000Y-68580000D03*
%TO.P,J3,3,Pin_3*%
%TO.N,+3V3*%
X151140000Y-68580000D03*
%TO.P,J3,4,Pin_4*%
%TO.N,OLED_SCL*%
X153680000Y-68580000D03*
%TO.P,J3,5,Pin_5*%
%TO.N,OLED_RST*%
X156220000Y-68580000D03*
%TO.P,J3,6,Pin_6*%
%TO.N,Gas_Pressure_Out*%
X158760000Y-68580000D03*
%TO.P,J3,7,Pin_7*%
%TO.N,/general_layout/PB0*%
X161300000Y-68580000D03*
%TO.P,J3,8,Pin_8*%
%TO.N,/general_layout/PA7*%
X163840000Y-68580000D03*
%TO.P,J3,9,Pin_9*%
%TO.N,/general_layout/PA6*%
X166380000Y-68580000D03*
%TO.P,J3,10,Pin_10*%
%TO.N,/general_layout/PA5*%
X168920000Y-68580000D03*
%TO.P,J3,11,Pin_11*%
%TO.N,/general_layout/PA4*%
X171460000Y-68580000D03*
%TO.P,J3,12,Pin_12*%
%TO.N,Gas_Flowrate_Tx*%
X174000000Y-68580000D03*
%TO.P,J3,13,Pin_13*%
%TO.N,Gas_Flowrate_Rx*%
X176540000Y-68580000D03*
%TO.P,J3,14,Pin_14*%
%TO.N,/general_layout/PA1*%
X179080000Y-68580000D03*
%TO.P,J3,15,Pin_15*%
%TO.N,/general_layout/PA0*%
X181620000Y-68580000D03*
%TO.P,J3,16,Pin_16*%
%TO.N,/general_layout/NRST*%
X184160000Y-68580000D03*
%TO.P,J3,17,Pin_17*%
%TO.N,/general_layout/PC15*%
X186700000Y-68580000D03*
%TO.P,J3,18,Pin_18*%
%TO.N,/general_layout/PC14*%
X189240000Y-68580000D03*
%TO.P,J3,19,Pin_19*%
%TO.N,/general_layout/PC13*%
X191780000Y-68580000D03*
%TO.P,J3,20,Pin_20*%
%TO.N,/general_layout/VB*%
X194320000Y-68580000D03*
%TD*%
D19*
%TO.P,H1,1*%
%TO.N,N/C*%
X223520000Y-147320000D03*
%TD*%
D20*
%TO.P,D12,1,K*%
%TO.N,+5V*%
X189660000Y-116080000D03*
D26*
%TO.P,D12,2,A*%
%TO.N,Net-(D12-Pad2)*%
X179500000Y-116080000D03*
%TD*%
D20*
%TO.P,D11,1,K*%
%TO.N,+5V*%
X171880000Y-116080000D03*
D26*
%TO.P,D11,2,A*%
%TO.N,Net-(D11-Pad2)*%
X161720000Y-116080000D03*
%TD*%
D10*
%TO.P,Q8,1,E*%
%TO.N,GND*%
X178660000Y-110240000D03*
D11*
%TO.P,Q8,2,B*%
%TO.N,Net-(Q8-Pad2)*%
X179930000Y-110240000D03*
%TO.P,Q8,3,C*%
%TO.N,Net-(D12-Pad2)*%
X181200000Y-110240000D03*
%TD*%
D20*
%TO.P,D10,1,K*%
%TO.N,+5V*%
X154100000Y-116080000D03*
D26*
%TO.P,D10,2,A*%
%TO.N,Net-(D10-Pad2)*%
X143940000Y-116080000D03*
%TD*%
D24*
%TO.P,Q5,1,E*%
%TO.N,GND*%
X128520000Y-135480000D03*
D25*
%TO.P,Q5,2,B*%
%TO.N,Net-(Q5-Pad2)*%
X128520000Y-136750000D03*
%TO.P,Q5,3,C*%
%TO.N,Net-(D9-Pad2)*%
X128520000Y-138020000D03*
%TD*%
D14*
%TO.P,K3,1*%
%TO.N,Net-(J10-Pad1)*%
X117720000Y-109020000D03*
D15*
%TO.P,K3,2*%
%TO.N,Net-(D3-Pad2)*%
X115770000Y-102970000D03*
D14*
%TO.P,K3,3*%
%TO.N,Net-(J10-Pad2)*%
X103570000Y-102970000D03*
%TO.P,K3,4*%
%TO.N,unconnected-(K3-Pad4)*%
X103520000Y-115020000D03*
D15*
%TO.P,K3,5*%
%TO.N,+5V*%
X115770000Y-114970000D03*
%TD*%
D12*
%TO.P,R10,1*%
%TO.N,Float_Chamber1_min*%
X166290000Y-58420000D03*
D13*
%TO.P,R10,2*%
%TO.N,GND*%
X176450000Y-58420000D03*
%TD*%
D20*
%TO.P,D9,1,K*%
%TO.N,+5V*%
X122680000Y-146480000D03*
D26*
%TO.P,D9,2,A*%
%TO.N,Net-(D9-Pad2)*%
X122680000Y-136320000D03*
%TD*%
D20*
%TO.P,D2,1,K*%
%TO.N,+5V*%
X121940000Y-98690000D03*
D26*
%TO.P,D2,2,A*%
%TO.N,Net-(D2-Pad2)*%
X121940000Y-88530000D03*
%TD*%
D24*
%TO.P,Q2,1,E*%
%TO.N,GND*%
X127020000Y-88530000D03*
D25*
%TO.P,Q2,2,B*%
%TO.N,Net-(Q2-Pad2)*%
X127020000Y-89800000D03*
%TO.P,Q2,3,C*%
%TO.N,Net-(D2-Pad2)*%
X127020000Y-91070000D03*
%TD*%
D28*
%TO.N,GND*%
X223310000Y-101810000D02*
X216865000Y-101810000D01*
X226060000Y-73660000D02*
X226060000Y-99060000D01*
X226060000Y-99060000D02*
X223310000Y-101810000D01*
X223520000Y-71120000D02*
X226060000Y-73660000D01*
X165100000Y-63500000D02*
X163830000Y-62230000D01*
X175260000Y-63500000D02*
X165100000Y-63500000D01*
X176450000Y-62310000D02*
X175260000Y-63500000D01*
X176450000Y-58420000D02*
X176450000Y-62310000D01*
X163830000Y-62230000D02*
X162560000Y-63500000D01*
X163830000Y-58420000D02*
X163830000Y-62230000D01*
X162560000Y-63500000D02*
X148590000Y-63500000D01*
X138430000Y-63500000D02*
X148590000Y-63500000D01*
X151130000Y-60960000D02*
X148590000Y-63500000D01*
X148590000Y-63500000D02*
X148600000Y-63510000D01*
X148600000Y-63510000D02*
X148600000Y-68580000D01*
X151130000Y-58420000D02*
X151130000Y-60960000D01*
X138430000Y-63500000D02*
X138430000Y-58420000D01*
X133350000Y-68580000D02*
X138430000Y-63500000D01*
X123110000Y-68580000D02*
X133350000Y-68580000D01*
%TO.N,+5V*%
X152400000Y-132080000D02*
X125600000Y-132080000D01*
X153270000Y-131210000D02*
X152400000Y-132080000D01*
X153270000Y-122990000D02*
X153270000Y-131210000D01*
X125600000Y-132080000D02*
X122970000Y-129450000D01*
X107550000Y-145650000D02*
X115770000Y-145650000D01*
X106680000Y-144780000D02*
X107550000Y-145650000D01*
X106680000Y-130810000D02*
X106680000Y-144780000D01*
X107170000Y-130320000D02*
X106680000Y-130810000D01*
X107550000Y-130320000D02*
X107170000Y-130320000D01*
X107550000Y-130320000D02*
X115770000Y-130320000D01*
X106680000Y-129450000D02*
X107550000Y-130320000D01*
X106680000Y-115570000D02*
X106680000Y-129450000D01*
X107280000Y-114970000D02*
X106680000Y-115570000D01*
X107550000Y-114970000D02*
X107280000Y-114970000D01*
X107550000Y-114970000D02*
X115770000Y-114970000D01*
X106680000Y-114100000D02*
X107550000Y-114970000D01*
X106680000Y-100450000D02*
X106680000Y-114100000D01*
X107570000Y-99560000D02*
X106680000Y-100450000D01*
X106680000Y-98670000D02*
X107570000Y-99560000D01*
X106680000Y-90170000D02*
X106680000Y-98670000D01*
X107570000Y-99560000D02*
X115790000Y-99560000D01*
X115770000Y-83530000D02*
X113320000Y-83530000D01*
X113320000Y-83530000D02*
X106680000Y-90170000D01*
X159820000Y-129540000D02*
X153270000Y-122990000D01*
X188830000Y-128670000D02*
X187960000Y-129540000D01*
X170180000Y-129540000D02*
X159820000Y-129540000D01*
X177600000Y-129540000D02*
X171050000Y-122990000D01*
X188830000Y-122990000D02*
X188830000Y-128670000D01*
X171050000Y-122990000D02*
X171050000Y-128670000D01*
X171050000Y-128670000D02*
X170180000Y-129540000D01*
X187960000Y-129540000D02*
X177600000Y-129540000D01*
D29*
%TO.N,OLED_SCL*%
X153680000Y-74940000D02*
X153680000Y-71860000D01*
X187960000Y-78740000D02*
X157480000Y-78740000D01*
X223520000Y-81280000D02*
X190500000Y-81280000D01*
X157480000Y-78740000D02*
X153680000Y-74940000D01*
X190500000Y-81280000D02*
X187960000Y-78740000D01*
%TO.N,OLED_SDA*%
X218440000Y-91440000D02*
X190500000Y-91440000D01*
X190500000Y-91440000D02*
X186695000Y-87635000D01*
X186695000Y-87635000D02*
X186695000Y-86360000D01*
X223520000Y-86360000D02*
X218440000Y-91440000D01*
%TO.N,OLED_RST*%
X223520000Y-76200000D02*
X160560000Y-76200000D01*
X160560000Y-76200000D02*
X156220000Y-71860000D01*
D28*
%TO.N,+3V3*%
X189150000Y-53340000D02*
X186750489Y-50940489D01*
X186750489Y-50940489D02*
X171309511Y-50940489D01*
X171309511Y-50940489D02*
X168910000Y-53340000D01*
%TD*%
M02*
