%TF.GenerationSoftware,KiCad,Pcbnew,(6.0.5)*%
%TF.CreationDate,2024-03-19T18:28:54+03:00*%
%TF.ProjectId,gas_detection,6761735f-6465-4746-9563-74696f6e2e6b,rev?*%
%TF.SameCoordinates,Original*%
%TF.FileFunction,Legend,Top*%
%TF.FilePolarity,Positive*%
%FSLAX46Y46*%
G04 Gerber Fmt 4.6, Leading zero omitted, Abs format (unit mm)*
G04 Created by KiCad (PCBNEW (6.0.5)) date 2024-03-19 18:28:54*
%MOMM*%
%LPD*%
G01*
G04 APERTURE LIST*
%ADD10C,0.150000*%
%ADD11C,0.120000*%
G04 APERTURE END LIST*
D10*
%TO.C,Q7*%
X161974761Y-107227619D02*
X161879523Y-107180000D01*
X161784285Y-107084761D01*
X161641428Y-106941904D01*
X161546190Y-106894285D01*
X161450952Y-106894285D01*
X161498571Y-107132380D02*
X161403333Y-107084761D01*
X161308095Y-106989523D01*
X161260476Y-106799047D01*
X161260476Y-106465714D01*
X161308095Y-106275238D01*
X161403333Y-106180000D01*
X161498571Y-106132380D01*
X161689047Y-106132380D01*
X161784285Y-106180000D01*
X161879523Y-106275238D01*
X161927142Y-106465714D01*
X161927142Y-106799047D01*
X161879523Y-106989523D01*
X161784285Y-107084761D01*
X161689047Y-107132380D01*
X161498571Y-107132380D01*
X162260476Y-106132380D02*
X162927142Y-106132380D01*
X162498571Y-107132380D01*
%TO.C,R13*%
X105692380Y-64142857D02*
X105216190Y-64476190D01*
X105692380Y-64714285D02*
X104692380Y-64714285D01*
X104692380Y-64333333D01*
X104740000Y-64238095D01*
X104787619Y-64190476D01*
X104882857Y-64142857D01*
X105025714Y-64142857D01*
X105120952Y-64190476D01*
X105168571Y-64238095D01*
X105216190Y-64333333D01*
X105216190Y-64714285D01*
X105692380Y-63190476D02*
X105692380Y-63761904D01*
X105692380Y-63476190D02*
X104692380Y-63476190D01*
X104835238Y-63571428D01*
X104930476Y-63666666D01*
X104978095Y-63761904D01*
X104692380Y-62857142D02*
X104692380Y-62238095D01*
X105073333Y-62571428D01*
X105073333Y-62428571D01*
X105120952Y-62333333D01*
X105168571Y-62285714D01*
X105263809Y-62238095D01*
X105501904Y-62238095D01*
X105597142Y-62285714D01*
X105644761Y-62333333D01*
X105692380Y-62428571D01*
X105692380Y-62714285D01*
X105644761Y-62809523D01*
X105597142Y-62857142D01*
%TO.C,K7*%
X156352380Y-129878095D02*
X155352380Y-129878095D01*
X156352380Y-129306666D02*
X155780952Y-129735238D01*
X155352380Y-129306666D02*
X155923809Y-129878095D01*
X155352380Y-128973333D02*
X155352380Y-128306666D01*
X156352380Y-128735238D01*
%TO.C,K6*%
X138572380Y-129878095D02*
X137572380Y-129878095D01*
X138572380Y-129306666D02*
X138000952Y-129735238D01*
X137572380Y-129306666D02*
X138143809Y-129878095D01*
X137572380Y-128449523D02*
X137572380Y-128640000D01*
X137620000Y-128735238D01*
X137667619Y-128782857D01*
X137810476Y-128878095D01*
X138000952Y-128925714D01*
X138381904Y-128925714D01*
X138477142Y-128878095D01*
X138524761Y-128830476D01*
X138572380Y-128735238D01*
X138572380Y-128544761D01*
X138524761Y-128449523D01*
X138477142Y-128401904D01*
X138381904Y-128354285D01*
X138143809Y-128354285D01*
X138048571Y-128401904D01*
X138000952Y-128449523D01*
X137953333Y-128544761D01*
X137953333Y-128735238D01*
X138000952Y-128830476D01*
X138048571Y-128878095D01*
X138143809Y-128925714D01*
%TO.C,J17*%
X145240476Y-47712380D02*
X145240476Y-48426666D01*
X145192857Y-48569523D01*
X145097619Y-48664761D01*
X144954761Y-48712380D01*
X144859523Y-48712380D01*
X146240476Y-48712380D02*
X145669047Y-48712380D01*
X145954761Y-48712380D02*
X145954761Y-47712380D01*
X145859523Y-47855238D01*
X145764285Y-47950476D01*
X145669047Y-47998095D01*
X146573809Y-47712380D02*
X147240476Y-47712380D01*
X146811904Y-48712380D01*
%TO.C,J1*%
X225436666Y-131612380D02*
X225436666Y-132326666D01*
X225389047Y-132469523D01*
X225293809Y-132564761D01*
X225150952Y-132612380D01*
X225055714Y-132612380D01*
X226436666Y-132612380D02*
X225865238Y-132612380D01*
X226150952Y-132612380D02*
X226150952Y-131612380D01*
X226055714Y-131755238D01*
X225960476Y-131850476D01*
X225865238Y-131898095D01*
%TO.C,J12*%
X89112380Y-137969523D02*
X89826666Y-137969523D01*
X89969523Y-138017142D01*
X90064761Y-138112380D01*
X90112380Y-138255238D01*
X90112380Y-138350476D01*
X90112380Y-136969523D02*
X90112380Y-137540952D01*
X90112380Y-137255238D02*
X89112380Y-137255238D01*
X89255238Y-137350476D01*
X89350476Y-137445714D01*
X89398095Y-137540952D01*
X89207619Y-136588571D02*
X89160000Y-136540952D01*
X89112380Y-136445714D01*
X89112380Y-136207619D01*
X89160000Y-136112380D01*
X89207619Y-136064761D01*
X89302857Y-136017142D01*
X89398095Y-136017142D01*
X89540952Y-136064761D01*
X90112380Y-136636190D01*
X90112380Y-136017142D01*
%TO.C,H4*%
X81788095Y-45232380D02*
X81788095Y-44232380D01*
X81788095Y-44708571D02*
X82359523Y-44708571D01*
X82359523Y-45232380D02*
X82359523Y-44232380D01*
X83264285Y-44565714D02*
X83264285Y-45232380D01*
X83026190Y-44184761D02*
X82788095Y-44899047D01*
X83407142Y-44899047D01*
%TO.C,D14*%
X151615714Y-107492380D02*
X151615714Y-106492380D01*
X151853809Y-106492380D01*
X151996666Y-106540000D01*
X152091904Y-106635238D01*
X152139523Y-106730476D01*
X152187142Y-106920952D01*
X152187142Y-107063809D01*
X152139523Y-107254285D01*
X152091904Y-107349523D01*
X151996666Y-107444761D01*
X151853809Y-107492380D01*
X151615714Y-107492380D01*
X153139523Y-107492380D02*
X152568095Y-107492380D01*
X152853809Y-107492380D02*
X152853809Y-106492380D01*
X152758571Y-106635238D01*
X152663333Y-106730476D01*
X152568095Y-106778095D01*
X153996666Y-106825714D02*
X153996666Y-107492380D01*
X153758571Y-106444761D02*
X153520476Y-107159047D01*
X154139523Y-107159047D01*
%TO.C,J11*%
X89402380Y-122639523D02*
X90116666Y-122639523D01*
X90259523Y-122687142D01*
X90354761Y-122782380D01*
X90402380Y-122925238D01*
X90402380Y-123020476D01*
X90402380Y-121639523D02*
X90402380Y-122210952D01*
X90402380Y-121925238D02*
X89402380Y-121925238D01*
X89545238Y-122020476D01*
X89640476Y-122115714D01*
X89688095Y-122210952D01*
X90402380Y-120687142D02*
X90402380Y-121258571D01*
X90402380Y-120972857D02*
X89402380Y-120972857D01*
X89545238Y-121068095D01*
X89640476Y-121163333D01*
X89688095Y-121258571D01*
%TO.C,R2*%
X130162380Y-77746666D02*
X129686190Y-78080000D01*
X130162380Y-78318095D02*
X129162380Y-78318095D01*
X129162380Y-77937142D01*
X129210000Y-77841904D01*
X129257619Y-77794285D01*
X129352857Y-77746666D01*
X129495714Y-77746666D01*
X129590952Y-77794285D01*
X129638571Y-77841904D01*
X129686190Y-77937142D01*
X129686190Y-78318095D01*
X129257619Y-77365714D02*
X129210000Y-77318095D01*
X129162380Y-77222857D01*
X129162380Y-76984761D01*
X129210000Y-76889523D01*
X129257619Y-76841904D01*
X129352857Y-76794285D01*
X129448095Y-76794285D01*
X129590952Y-76841904D01*
X130162380Y-77413333D01*
X130162380Y-76794285D01*
%TO.C,H2*%
X84548095Y-142342380D02*
X84548095Y-141342380D01*
X84548095Y-141818571D02*
X85119523Y-141818571D01*
X85119523Y-142342380D02*
X85119523Y-141342380D01*
X85548095Y-141437619D02*
X85595714Y-141390000D01*
X85690952Y-141342380D01*
X85929047Y-141342380D01*
X86024285Y-141390000D01*
X86071904Y-141437619D01*
X86119523Y-141532857D01*
X86119523Y-141628095D01*
X86071904Y-141770952D01*
X85500476Y-142342380D01*
X86119523Y-142342380D01*
%TO.C,J2*%
X141692380Y-86693333D02*
X142406666Y-86693333D01*
X142549523Y-86740952D01*
X142644761Y-86836190D01*
X142692380Y-86979047D01*
X142692380Y-87074285D01*
X141787619Y-86264761D02*
X141740000Y-86217142D01*
X141692380Y-86121904D01*
X141692380Y-85883809D01*
X141740000Y-85788571D01*
X141787619Y-85740952D01*
X141882857Y-85693333D01*
X141978095Y-85693333D01*
X142120952Y-85740952D01*
X142692380Y-86312380D01*
X142692380Y-85693333D01*
%TO.C,H3*%
X222758095Y-44902380D02*
X222758095Y-43902380D01*
X222758095Y-44378571D02*
X223329523Y-44378571D01*
X223329523Y-44902380D02*
X223329523Y-43902380D01*
X223710476Y-43902380D02*
X224329523Y-43902380D01*
X223996190Y-44283333D01*
X224139047Y-44283333D01*
X224234285Y-44330952D01*
X224281904Y-44378571D01*
X224329523Y-44473809D01*
X224329523Y-44711904D01*
X224281904Y-44807142D01*
X224234285Y-44854761D01*
X224139047Y-44902380D01*
X223853333Y-44902380D01*
X223758095Y-44854761D01*
X223710476Y-44807142D01*
%TO.C,R1*%
X183903333Y-56502380D02*
X183570000Y-56026190D01*
X183331904Y-56502380D02*
X183331904Y-55502380D01*
X183712857Y-55502380D01*
X183808095Y-55550000D01*
X183855714Y-55597619D01*
X183903333Y-55692857D01*
X183903333Y-55835714D01*
X183855714Y-55930952D01*
X183808095Y-55978571D01*
X183712857Y-56026190D01*
X183331904Y-56026190D01*
X184855714Y-56502380D02*
X184284285Y-56502380D01*
X184570000Y-56502380D02*
X184570000Y-55502380D01*
X184474761Y-55645238D01*
X184379523Y-55740476D01*
X184284285Y-55788095D01*
%TO.C,Q3*%
X131987619Y-105225238D02*
X131940000Y-105320476D01*
X131844761Y-105415714D01*
X131701904Y-105558571D01*
X131654285Y-105653809D01*
X131654285Y-105749047D01*
X131892380Y-105701428D02*
X131844761Y-105796666D01*
X131749523Y-105891904D01*
X131559047Y-105939523D01*
X131225714Y-105939523D01*
X131035238Y-105891904D01*
X130940000Y-105796666D01*
X130892380Y-105701428D01*
X130892380Y-105510952D01*
X130940000Y-105415714D01*
X131035238Y-105320476D01*
X131225714Y-105272857D01*
X131559047Y-105272857D01*
X131749523Y-105320476D01*
X131844761Y-105415714D01*
X131892380Y-105510952D01*
X131892380Y-105701428D01*
X130892380Y-104939523D02*
X130892380Y-104320476D01*
X131273333Y-104653809D01*
X131273333Y-104510952D01*
X131320952Y-104415714D01*
X131368571Y-104368095D01*
X131463809Y-104320476D01*
X131701904Y-104320476D01*
X131797142Y-104368095D01*
X131844761Y-104415714D01*
X131892380Y-104510952D01*
X131892380Y-104796666D01*
X131844761Y-104891904D01*
X131797142Y-104939523D01*
%TO.C,J20*%
X155400476Y-47712380D02*
X155400476Y-48426666D01*
X155352857Y-48569523D01*
X155257619Y-48664761D01*
X155114761Y-48712380D01*
X155019523Y-48712380D01*
X155829047Y-47807619D02*
X155876666Y-47760000D01*
X155971904Y-47712380D01*
X156210000Y-47712380D01*
X156305238Y-47760000D01*
X156352857Y-47807619D01*
X156400476Y-47902857D01*
X156400476Y-47998095D01*
X156352857Y-48140952D01*
X155781428Y-48712380D01*
X156400476Y-48712380D01*
X157019523Y-47712380D02*
X157114761Y-47712380D01*
X157210000Y-47760000D01*
X157257619Y-47807619D01*
X157305238Y-47902857D01*
X157352857Y-48093333D01*
X157352857Y-48331428D01*
X157305238Y-48521904D01*
X157257619Y-48617142D01*
X157210000Y-48664761D01*
X157114761Y-48712380D01*
X157019523Y-48712380D01*
X156924285Y-48664761D01*
X156876666Y-48617142D01*
X156829047Y-48521904D01*
X156781428Y-48331428D01*
X156781428Y-48093333D01*
X156829047Y-47902857D01*
X156876666Y-47807619D01*
X156924285Y-47760000D01*
X157019523Y-47712380D01*
%TO.C,J9*%
X88372380Y-91403333D02*
X89086666Y-91403333D01*
X89229523Y-91450952D01*
X89324761Y-91546190D01*
X89372380Y-91689047D01*
X89372380Y-91784285D01*
X89372380Y-90879523D02*
X89372380Y-90689047D01*
X89324761Y-90593809D01*
X89277142Y-90546190D01*
X89134285Y-90450952D01*
X88943809Y-90403333D01*
X88562857Y-90403333D01*
X88467619Y-90450952D01*
X88420000Y-90498571D01*
X88372380Y-90593809D01*
X88372380Y-90784285D01*
X88420000Y-90879523D01*
X88467619Y-90927142D01*
X88562857Y-90974761D01*
X88800952Y-90974761D01*
X88896190Y-90927142D01*
X88943809Y-90879523D01*
X88991428Y-90784285D01*
X88991428Y-90593809D01*
X88943809Y-90498571D01*
X88896190Y-90450952D01*
X88800952Y-90403333D01*
%TO.C,D5*%
X131412380Y-82128095D02*
X130412380Y-82128095D01*
X130412380Y-81890000D01*
X130460000Y-81747142D01*
X130555238Y-81651904D01*
X130650476Y-81604285D01*
X130840952Y-81556666D01*
X130983809Y-81556666D01*
X131174285Y-81604285D01*
X131269523Y-81651904D01*
X131364761Y-81747142D01*
X131412380Y-81890000D01*
X131412380Y-82128095D01*
X130412380Y-80651904D02*
X130412380Y-81128095D01*
X130888571Y-81175714D01*
X130840952Y-81128095D01*
X130793333Y-81032857D01*
X130793333Y-80794761D01*
X130840952Y-80699523D01*
X130888571Y-80651904D01*
X130983809Y-80604285D01*
X131221904Y-80604285D01*
X131317142Y-80651904D01*
X131364761Y-80699523D01*
X131412380Y-80794761D01*
X131412380Y-81032857D01*
X131364761Y-81128095D01*
X131317142Y-81175714D01*
%TO.C,K2*%
X108901904Y-83502380D02*
X108901904Y-82502380D01*
X109473333Y-83502380D02*
X109044761Y-82930952D01*
X109473333Y-82502380D02*
X108901904Y-83073809D01*
X109854285Y-82597619D02*
X109901904Y-82550000D01*
X109997142Y-82502380D01*
X110235238Y-82502380D01*
X110330476Y-82550000D01*
X110378095Y-82597619D01*
X110425714Y-82692857D01*
X110425714Y-82788095D01*
X110378095Y-82930952D01*
X109806666Y-83502380D01*
X110425714Y-83502380D01*
%TO.C,Q4*%
X132157619Y-120575238D02*
X132110000Y-120670476D01*
X132014761Y-120765714D01*
X131871904Y-120908571D01*
X131824285Y-121003809D01*
X131824285Y-121099047D01*
X132062380Y-121051428D02*
X132014761Y-121146666D01*
X131919523Y-121241904D01*
X131729047Y-121289523D01*
X131395714Y-121289523D01*
X131205238Y-121241904D01*
X131110000Y-121146666D01*
X131062380Y-121051428D01*
X131062380Y-120860952D01*
X131110000Y-120765714D01*
X131205238Y-120670476D01*
X131395714Y-120622857D01*
X131729047Y-120622857D01*
X131919523Y-120670476D01*
X132014761Y-120765714D01*
X132062380Y-120860952D01*
X132062380Y-121051428D01*
X131395714Y-119765714D02*
X132062380Y-119765714D01*
X131014761Y-120003809D02*
X131729047Y-120241904D01*
X131729047Y-119622857D01*
%TO.C,R3*%
X130182380Y-93776666D02*
X129706190Y-94110000D01*
X130182380Y-94348095D02*
X129182380Y-94348095D01*
X129182380Y-93967142D01*
X129230000Y-93871904D01*
X129277619Y-93824285D01*
X129372857Y-93776666D01*
X129515714Y-93776666D01*
X129610952Y-93824285D01*
X129658571Y-93871904D01*
X129706190Y-93967142D01*
X129706190Y-94348095D01*
X129182380Y-93443333D02*
X129182380Y-92824285D01*
X129563333Y-93157619D01*
X129563333Y-93014761D01*
X129610952Y-92919523D01*
X129658571Y-92871904D01*
X129753809Y-92824285D01*
X129991904Y-92824285D01*
X130087142Y-92871904D01*
X130134761Y-92919523D01*
X130182380Y-93014761D01*
X130182380Y-93300476D01*
X130134761Y-93395714D01*
X130087142Y-93443333D01*
%TO.C,D16*%
X187175714Y-107492380D02*
X187175714Y-106492380D01*
X187413809Y-106492380D01*
X187556666Y-106540000D01*
X187651904Y-106635238D01*
X187699523Y-106730476D01*
X187747142Y-106920952D01*
X187747142Y-107063809D01*
X187699523Y-107254285D01*
X187651904Y-107349523D01*
X187556666Y-107444761D01*
X187413809Y-107492380D01*
X187175714Y-107492380D01*
X188699523Y-107492380D02*
X188128095Y-107492380D01*
X188413809Y-107492380D02*
X188413809Y-106492380D01*
X188318571Y-106635238D01*
X188223333Y-106730476D01*
X188128095Y-106778095D01*
X189556666Y-106492380D02*
X189366190Y-106492380D01*
X189270952Y-106540000D01*
X189223333Y-106587619D01*
X189128095Y-106730476D01*
X189080476Y-106920952D01*
X189080476Y-107301904D01*
X189128095Y-107397142D01*
X189175714Y-107444761D01*
X189270952Y-107492380D01*
X189461428Y-107492380D01*
X189556666Y-107444761D01*
X189604285Y-107397142D01*
X189651904Y-107301904D01*
X189651904Y-107063809D01*
X189604285Y-106968571D01*
X189556666Y-106920952D01*
X189461428Y-106873333D01*
X189270952Y-106873333D01*
X189175714Y-106920952D01*
X189128095Y-106968571D01*
X189080476Y-107063809D01*
%TO.C,R17*%
X95452380Y-64142857D02*
X94976190Y-64476190D01*
X95452380Y-64714285D02*
X94452380Y-64714285D01*
X94452380Y-64333333D01*
X94500000Y-64238095D01*
X94547619Y-64190476D01*
X94642857Y-64142857D01*
X94785714Y-64142857D01*
X94880952Y-64190476D01*
X94928571Y-64238095D01*
X94976190Y-64333333D01*
X94976190Y-64714285D01*
X95452380Y-63190476D02*
X95452380Y-63761904D01*
X95452380Y-63476190D02*
X94452380Y-63476190D01*
X94595238Y-63571428D01*
X94690476Y-63666666D01*
X94738095Y-63761904D01*
X94452380Y-62857142D02*
X94452380Y-62190476D01*
X95452380Y-62619047D01*
%TO.C,R12*%
X125932380Y-64142857D02*
X125456190Y-64476190D01*
X125932380Y-64714285D02*
X124932380Y-64714285D01*
X124932380Y-64333333D01*
X124980000Y-64238095D01*
X125027619Y-64190476D01*
X125122857Y-64142857D01*
X125265714Y-64142857D01*
X125360952Y-64190476D01*
X125408571Y-64238095D01*
X125456190Y-64333333D01*
X125456190Y-64714285D01*
X125932380Y-63190476D02*
X125932380Y-63761904D01*
X125932380Y-63476190D02*
X124932380Y-63476190D01*
X125075238Y-63571428D01*
X125170476Y-63666666D01*
X125218095Y-63761904D01*
X125027619Y-62809523D02*
X124980000Y-62761904D01*
X124932380Y-62666666D01*
X124932380Y-62428571D01*
X124980000Y-62333333D01*
X125027619Y-62285714D01*
X125122857Y-62238095D01*
X125218095Y-62238095D01*
X125360952Y-62285714D01*
X125932380Y-62857142D01*
X125932380Y-62238095D01*
%TO.C,R16*%
X115852380Y-64142857D02*
X115376190Y-64476190D01*
X115852380Y-64714285D02*
X114852380Y-64714285D01*
X114852380Y-64333333D01*
X114900000Y-64238095D01*
X114947619Y-64190476D01*
X115042857Y-64142857D01*
X115185714Y-64142857D01*
X115280952Y-64190476D01*
X115328571Y-64238095D01*
X115376190Y-64333333D01*
X115376190Y-64714285D01*
X115852380Y-63190476D02*
X115852380Y-63761904D01*
X115852380Y-63476190D02*
X114852380Y-63476190D01*
X114995238Y-63571428D01*
X115090476Y-63666666D01*
X115138095Y-63761904D01*
X114852380Y-62333333D02*
X114852380Y-62523809D01*
X114900000Y-62619047D01*
X114947619Y-62666666D01*
X115090476Y-62761904D01*
X115280952Y-62809523D01*
X115661904Y-62809523D01*
X115757142Y-62761904D01*
X115804761Y-62714285D01*
X115852380Y-62619047D01*
X115852380Y-62428571D01*
X115804761Y-62333333D01*
X115757142Y-62285714D01*
X115661904Y-62238095D01*
X115423809Y-62238095D01*
X115328571Y-62285714D01*
X115280952Y-62333333D01*
X115233333Y-62428571D01*
X115233333Y-62619047D01*
X115280952Y-62714285D01*
X115328571Y-62761904D01*
X115423809Y-62809523D01*
%TO.C,D8*%
X132462380Y-128918095D02*
X131462380Y-128918095D01*
X131462380Y-128680000D01*
X131510000Y-128537142D01*
X131605238Y-128441904D01*
X131700476Y-128394285D01*
X131890952Y-128346666D01*
X132033809Y-128346666D01*
X132224285Y-128394285D01*
X132319523Y-128441904D01*
X132414761Y-128537142D01*
X132462380Y-128680000D01*
X132462380Y-128918095D01*
X131890952Y-127775238D02*
X131843333Y-127870476D01*
X131795714Y-127918095D01*
X131700476Y-127965714D01*
X131652857Y-127965714D01*
X131557619Y-127918095D01*
X131510000Y-127870476D01*
X131462380Y-127775238D01*
X131462380Y-127584761D01*
X131510000Y-127489523D01*
X131557619Y-127441904D01*
X131652857Y-127394285D01*
X131700476Y-127394285D01*
X131795714Y-127441904D01*
X131843333Y-127489523D01*
X131890952Y-127584761D01*
X131890952Y-127775238D01*
X131938571Y-127870476D01*
X131986190Y-127918095D01*
X132081428Y-127965714D01*
X132271904Y-127965714D01*
X132367142Y-127918095D01*
X132414761Y-127870476D01*
X132462380Y-127775238D01*
X132462380Y-127584761D01*
X132414761Y-127489523D01*
X132367142Y-127441904D01*
X132271904Y-127394285D01*
X132081428Y-127394285D01*
X131986190Y-127441904D01*
X131938571Y-127489523D01*
X131890952Y-127584761D01*
%TO.C,D7*%
X132292380Y-113568095D02*
X131292380Y-113568095D01*
X131292380Y-113330000D01*
X131340000Y-113187142D01*
X131435238Y-113091904D01*
X131530476Y-113044285D01*
X131720952Y-112996666D01*
X131863809Y-112996666D01*
X132054285Y-113044285D01*
X132149523Y-113091904D01*
X132244761Y-113187142D01*
X132292380Y-113330000D01*
X132292380Y-113568095D01*
X131292380Y-112663333D02*
X131292380Y-111996666D01*
X132292380Y-112425238D01*
%TO.C,R11*%
X145407142Y-56502380D02*
X145073809Y-56026190D01*
X144835714Y-56502380D02*
X144835714Y-55502380D01*
X145216666Y-55502380D01*
X145311904Y-55550000D01*
X145359523Y-55597619D01*
X145407142Y-55692857D01*
X145407142Y-55835714D01*
X145359523Y-55930952D01*
X145311904Y-55978571D01*
X145216666Y-56026190D01*
X144835714Y-56026190D01*
X146359523Y-56502380D02*
X145788095Y-56502380D01*
X146073809Y-56502380D02*
X146073809Y-55502380D01*
X145978571Y-55645238D01*
X145883333Y-55740476D01*
X145788095Y-55788095D01*
X147311904Y-56502380D02*
X146740476Y-56502380D01*
X147026190Y-56502380D02*
X147026190Y-55502380D01*
X146930952Y-55645238D01*
X146835714Y-55740476D01*
X146740476Y-55788095D01*
%TO.C,J15*%
X179530476Y-148552380D02*
X179530476Y-149266666D01*
X179482857Y-149409523D01*
X179387619Y-149504761D01*
X179244761Y-149552380D01*
X179149523Y-149552380D01*
X180530476Y-149552380D02*
X179959047Y-149552380D01*
X180244761Y-149552380D02*
X180244761Y-148552380D01*
X180149523Y-148695238D01*
X180054285Y-148790476D01*
X179959047Y-148838095D01*
X181435238Y-148552380D02*
X180959047Y-148552380D01*
X180911428Y-149028571D01*
X180959047Y-148980952D01*
X181054285Y-148933333D01*
X181292380Y-148933333D01*
X181387619Y-148980952D01*
X181435238Y-149028571D01*
X181482857Y-149123809D01*
X181482857Y-149361904D01*
X181435238Y-149457142D01*
X181387619Y-149504761D01*
X181292380Y-149552380D01*
X181054285Y-149552380D01*
X180959047Y-149504761D01*
X180911428Y-149457142D01*
%TO.C,K4*%
X108881904Y-114352380D02*
X108881904Y-113352380D01*
X109453333Y-114352380D02*
X109024761Y-113780952D01*
X109453333Y-113352380D02*
X108881904Y-113923809D01*
X110310476Y-113685714D02*
X110310476Y-114352380D01*
X110072380Y-113304761D02*
X109834285Y-114019047D01*
X110453333Y-114019047D01*
%TO.C,R4*%
X131042380Y-109186666D02*
X130566190Y-109520000D01*
X131042380Y-109758095D02*
X130042380Y-109758095D01*
X130042380Y-109377142D01*
X130090000Y-109281904D01*
X130137619Y-109234285D01*
X130232857Y-109186666D01*
X130375714Y-109186666D01*
X130470952Y-109234285D01*
X130518571Y-109281904D01*
X130566190Y-109377142D01*
X130566190Y-109758095D01*
X130375714Y-108329523D02*
X131042380Y-108329523D01*
X129994761Y-108567619D02*
X130709047Y-108805714D01*
X130709047Y-108186666D01*
%TO.C,J23*%
X94440476Y-47712380D02*
X94440476Y-48426666D01*
X94392857Y-48569523D01*
X94297619Y-48664761D01*
X94154761Y-48712380D01*
X94059523Y-48712380D01*
X94869047Y-47807619D02*
X94916666Y-47760000D01*
X95011904Y-47712380D01*
X95250000Y-47712380D01*
X95345238Y-47760000D01*
X95392857Y-47807619D01*
X95440476Y-47902857D01*
X95440476Y-47998095D01*
X95392857Y-48140952D01*
X94821428Y-48712380D01*
X95440476Y-48712380D01*
X95773809Y-47712380D02*
X96392857Y-47712380D01*
X96059523Y-48093333D01*
X96202380Y-48093333D01*
X96297619Y-48140952D01*
X96345238Y-48188571D01*
X96392857Y-48283809D01*
X96392857Y-48521904D01*
X96345238Y-48617142D01*
X96297619Y-48664761D01*
X96202380Y-48712380D01*
X95916666Y-48712380D01*
X95821428Y-48664761D01*
X95773809Y-48617142D01*
%TO.C,J10*%
X89232380Y-107289523D02*
X89946666Y-107289523D01*
X90089523Y-107337142D01*
X90184761Y-107432380D01*
X90232380Y-107575238D01*
X90232380Y-107670476D01*
X90232380Y-106289523D02*
X90232380Y-106860952D01*
X90232380Y-106575238D02*
X89232380Y-106575238D01*
X89375238Y-106670476D01*
X89470476Y-106765714D01*
X89518095Y-106860952D01*
X89232380Y-105670476D02*
X89232380Y-105575238D01*
X89280000Y-105480000D01*
X89327619Y-105432380D01*
X89422857Y-105384761D01*
X89613333Y-105337142D01*
X89851428Y-105337142D01*
X90041904Y-105384761D01*
X90137142Y-105432380D01*
X90184761Y-105480000D01*
X90232380Y-105575238D01*
X90232380Y-105670476D01*
X90184761Y-105765714D01*
X90137142Y-105813333D01*
X90041904Y-105860952D01*
X89851428Y-105908571D01*
X89613333Y-105908571D01*
X89422857Y-105860952D01*
X89327619Y-105813333D01*
X89280000Y-105765714D01*
X89232380Y-105670476D01*
%TO.C,R5*%
X131212380Y-124536666D02*
X130736190Y-124870000D01*
X131212380Y-125108095D02*
X130212380Y-125108095D01*
X130212380Y-124727142D01*
X130260000Y-124631904D01*
X130307619Y-124584285D01*
X130402857Y-124536666D01*
X130545714Y-124536666D01*
X130640952Y-124584285D01*
X130688571Y-124631904D01*
X130736190Y-124727142D01*
X130736190Y-125108095D01*
X130212380Y-123631904D02*
X130212380Y-124108095D01*
X130688571Y-124155714D01*
X130640952Y-124108095D01*
X130593333Y-124012857D01*
X130593333Y-123774761D01*
X130640952Y-123679523D01*
X130688571Y-123631904D01*
X130783809Y-123584285D01*
X131021904Y-123584285D01*
X131117142Y-123631904D01*
X131164761Y-123679523D01*
X131212380Y-123774761D01*
X131212380Y-124012857D01*
X131164761Y-124108095D01*
X131117142Y-124155714D01*
%TO.C,SW1*%
X217106666Y-119994761D02*
X217249523Y-120042380D01*
X217487619Y-120042380D01*
X217582857Y-119994761D01*
X217630476Y-119947142D01*
X217678095Y-119851904D01*
X217678095Y-119756666D01*
X217630476Y-119661428D01*
X217582857Y-119613809D01*
X217487619Y-119566190D01*
X217297142Y-119518571D01*
X217201904Y-119470952D01*
X217154285Y-119423333D01*
X217106666Y-119328095D01*
X217106666Y-119232857D01*
X217154285Y-119137619D01*
X217201904Y-119090000D01*
X217297142Y-119042380D01*
X217535238Y-119042380D01*
X217678095Y-119090000D01*
X218011428Y-119042380D02*
X218249523Y-120042380D01*
X218440000Y-119328095D01*
X218630476Y-120042380D01*
X218868571Y-119042380D01*
X219773333Y-120042380D02*
X219201904Y-120042380D01*
X219487619Y-120042380D02*
X219487619Y-119042380D01*
X219392380Y-119185238D01*
X219297142Y-119280476D01*
X219201904Y-119328095D01*
%TO.C,J18*%
X124920476Y-47712380D02*
X124920476Y-48426666D01*
X124872857Y-48569523D01*
X124777619Y-48664761D01*
X124634761Y-48712380D01*
X124539523Y-48712380D01*
X125920476Y-48712380D02*
X125349047Y-48712380D01*
X125634761Y-48712380D02*
X125634761Y-47712380D01*
X125539523Y-47855238D01*
X125444285Y-47950476D01*
X125349047Y-47998095D01*
X126491904Y-48140952D02*
X126396666Y-48093333D01*
X126349047Y-48045714D01*
X126301428Y-47950476D01*
X126301428Y-47902857D01*
X126349047Y-47807619D01*
X126396666Y-47760000D01*
X126491904Y-47712380D01*
X126682380Y-47712380D01*
X126777619Y-47760000D01*
X126825238Y-47807619D01*
X126872857Y-47902857D01*
X126872857Y-47950476D01*
X126825238Y-48045714D01*
X126777619Y-48093333D01*
X126682380Y-48140952D01*
X126491904Y-48140952D01*
X126396666Y-48188571D01*
X126349047Y-48236190D01*
X126301428Y-48331428D01*
X126301428Y-48521904D01*
X126349047Y-48617142D01*
X126396666Y-48664761D01*
X126491904Y-48712380D01*
X126682380Y-48712380D01*
X126777619Y-48664761D01*
X126825238Y-48617142D01*
X126872857Y-48521904D01*
X126872857Y-48331428D01*
X126825238Y-48236190D01*
X126777619Y-48188571D01*
X126682380Y-48140952D01*
%TO.C,D1*%
X119902380Y-78318095D02*
X118902380Y-78318095D01*
X118902380Y-78080000D01*
X118950000Y-77937142D01*
X119045238Y-77841904D01*
X119140476Y-77794285D01*
X119330952Y-77746666D01*
X119473809Y-77746666D01*
X119664285Y-77794285D01*
X119759523Y-77841904D01*
X119854761Y-77937142D01*
X119902380Y-78080000D01*
X119902380Y-78318095D01*
X119902380Y-76794285D02*
X119902380Y-77365714D01*
X119902380Y-77080000D02*
X118902380Y-77080000D01*
X119045238Y-77175238D01*
X119140476Y-77270476D01*
X119188095Y-77365714D01*
X120472380Y-82921904D02*
X119472380Y-82921904D01*
X120472380Y-82350476D02*
X119900952Y-82779047D01*
X119472380Y-82350476D02*
X120043809Y-82921904D01*
%TO.C,J19*%
X104600476Y-47712380D02*
X104600476Y-48426666D01*
X104552857Y-48569523D01*
X104457619Y-48664761D01*
X104314761Y-48712380D01*
X104219523Y-48712380D01*
X105600476Y-48712380D02*
X105029047Y-48712380D01*
X105314761Y-48712380D02*
X105314761Y-47712380D01*
X105219523Y-47855238D01*
X105124285Y-47950476D01*
X105029047Y-47998095D01*
X106076666Y-48712380D02*
X106267142Y-48712380D01*
X106362380Y-48664761D01*
X106410000Y-48617142D01*
X106505238Y-48474285D01*
X106552857Y-48283809D01*
X106552857Y-47902857D01*
X106505238Y-47807619D01*
X106457619Y-47760000D01*
X106362380Y-47712380D01*
X106171904Y-47712380D01*
X106076666Y-47760000D01*
X106029047Y-47807619D01*
X105981428Y-47902857D01*
X105981428Y-48140952D01*
X106029047Y-48236190D01*
X106076666Y-48283809D01*
X106171904Y-48331428D01*
X106362380Y-48331428D01*
X106457619Y-48283809D01*
X106505238Y-48236190D01*
X106552857Y-48140952D01*
%TO.C,Q6*%
X144194761Y-107227619D02*
X144099523Y-107180000D01*
X144004285Y-107084761D01*
X143861428Y-106941904D01*
X143766190Y-106894285D01*
X143670952Y-106894285D01*
X143718571Y-107132380D02*
X143623333Y-107084761D01*
X143528095Y-106989523D01*
X143480476Y-106799047D01*
X143480476Y-106465714D01*
X143528095Y-106275238D01*
X143623333Y-106180000D01*
X143718571Y-106132380D01*
X143909047Y-106132380D01*
X144004285Y-106180000D01*
X144099523Y-106275238D01*
X144147142Y-106465714D01*
X144147142Y-106799047D01*
X144099523Y-106989523D01*
X144004285Y-107084761D01*
X143909047Y-107132380D01*
X143718571Y-107132380D01*
X145004285Y-106132380D02*
X144813809Y-106132380D01*
X144718571Y-106180000D01*
X144670952Y-106227619D01*
X144575714Y-106370476D01*
X144528095Y-106560952D01*
X144528095Y-106941904D01*
X144575714Y-107037142D01*
X144623333Y-107084761D01*
X144718571Y-107132380D01*
X144909047Y-107132380D01*
X145004285Y-107084761D01*
X145051904Y-107037142D01*
X145099523Y-106941904D01*
X145099523Y-106703809D01*
X145051904Y-106608571D01*
X145004285Y-106560952D01*
X144909047Y-106513333D01*
X144718571Y-106513333D01*
X144623333Y-106560952D01*
X144575714Y-106608571D01*
X144528095Y-106703809D01*
%TO.C,R9*%
X183573333Y-107982380D02*
X183240000Y-107506190D01*
X183001904Y-107982380D02*
X183001904Y-106982380D01*
X183382857Y-106982380D01*
X183478095Y-107030000D01*
X183525714Y-107077619D01*
X183573333Y-107172857D01*
X183573333Y-107315714D01*
X183525714Y-107410952D01*
X183478095Y-107458571D01*
X183382857Y-107506190D01*
X183001904Y-107506190D01*
X184049523Y-107982380D02*
X184240000Y-107982380D01*
X184335238Y-107934761D01*
X184382857Y-107887142D01*
X184478095Y-107744285D01*
X184525714Y-107553809D01*
X184525714Y-107172857D01*
X184478095Y-107077619D01*
X184430476Y-107030000D01*
X184335238Y-106982380D01*
X184144761Y-106982380D01*
X184049523Y-107030000D01*
X184001904Y-107077619D01*
X183954285Y-107172857D01*
X183954285Y-107410952D01*
X184001904Y-107506190D01*
X184049523Y-107553809D01*
X184144761Y-107601428D01*
X184335238Y-107601428D01*
X184430476Y-107553809D01*
X184478095Y-107506190D01*
X184525714Y-107410952D01*
%TO.C,U1*%
X202192380Y-82041904D02*
X203001904Y-82041904D01*
X203097142Y-81994285D01*
X203144761Y-81946666D01*
X203192380Y-81851428D01*
X203192380Y-81660952D01*
X203144761Y-81565714D01*
X203097142Y-81518095D01*
X203001904Y-81470476D01*
X202192380Y-81470476D01*
X203192380Y-80470476D02*
X203192380Y-81041904D01*
X203192380Y-80756190D02*
X202192380Y-80756190D01*
X202335238Y-80851428D01*
X202430476Y-80946666D01*
X202478095Y-81041904D01*
%TO.C,J4*%
X145507380Y-69653333D02*
X146221666Y-69653333D01*
X146364523Y-69700952D01*
X146459761Y-69796190D01*
X146507380Y-69939047D01*
X146507380Y-70034285D01*
X145840714Y-68748571D02*
X146507380Y-68748571D01*
X145459761Y-68986666D02*
X146174047Y-69224761D01*
X146174047Y-68605714D01*
%TO.C,R14*%
X158107142Y-56502380D02*
X157773809Y-56026190D01*
X157535714Y-56502380D02*
X157535714Y-55502380D01*
X157916666Y-55502380D01*
X158011904Y-55550000D01*
X158059523Y-55597619D01*
X158107142Y-55692857D01*
X158107142Y-55835714D01*
X158059523Y-55930952D01*
X158011904Y-55978571D01*
X157916666Y-56026190D01*
X157535714Y-56026190D01*
X159059523Y-56502380D02*
X158488095Y-56502380D01*
X158773809Y-56502380D02*
X158773809Y-55502380D01*
X158678571Y-55645238D01*
X158583333Y-55740476D01*
X158488095Y-55788095D01*
X159916666Y-55835714D02*
X159916666Y-56502380D01*
X159678571Y-55454761D02*
X159440476Y-56169047D01*
X160059523Y-56169047D01*
%TO.C,J5*%
X227522380Y-74063333D02*
X228236666Y-74063333D01*
X228379523Y-74110952D01*
X228474761Y-74206190D01*
X228522380Y-74349047D01*
X228522380Y-74444285D01*
X227522380Y-73110952D02*
X227522380Y-73587142D01*
X227998571Y-73634761D01*
X227950952Y-73587142D01*
X227903333Y-73491904D01*
X227903333Y-73253809D01*
X227950952Y-73158571D01*
X227998571Y-73110952D01*
X228093809Y-73063333D01*
X228331904Y-73063333D01*
X228427142Y-73110952D01*
X228474761Y-73158571D01*
X228522380Y-73253809D01*
X228522380Y-73491904D01*
X228474761Y-73587142D01*
X228427142Y-73634761D01*
%TO.C,J13*%
X143970476Y-148552380D02*
X143970476Y-149266666D01*
X143922857Y-149409523D01*
X143827619Y-149504761D01*
X143684761Y-149552380D01*
X143589523Y-149552380D01*
X144970476Y-149552380D02*
X144399047Y-149552380D01*
X144684761Y-149552380D02*
X144684761Y-148552380D01*
X144589523Y-148695238D01*
X144494285Y-148790476D01*
X144399047Y-148838095D01*
X145303809Y-148552380D02*
X145922857Y-148552380D01*
X145589523Y-148933333D01*
X145732380Y-148933333D01*
X145827619Y-148980952D01*
X145875238Y-149028571D01*
X145922857Y-149123809D01*
X145922857Y-149361904D01*
X145875238Y-149457142D01*
X145827619Y-149504761D01*
X145732380Y-149552380D01*
X145446666Y-149552380D01*
X145351428Y-149504761D01*
X145303809Y-149457142D01*
%TO.C,D4*%
X120952380Y-125108095D02*
X119952380Y-125108095D01*
X119952380Y-124870000D01*
X120000000Y-124727142D01*
X120095238Y-124631904D01*
X120190476Y-124584285D01*
X120380952Y-124536666D01*
X120523809Y-124536666D01*
X120714285Y-124584285D01*
X120809523Y-124631904D01*
X120904761Y-124727142D01*
X120952380Y-124870000D01*
X120952380Y-125108095D01*
X120285714Y-123679523D02*
X120952380Y-123679523D01*
X119904761Y-123917619D02*
X120619047Y-124155714D01*
X120619047Y-123536666D01*
X121522380Y-129711904D02*
X120522380Y-129711904D01*
X121522380Y-129140476D02*
X120950952Y-129569047D01*
X120522380Y-129140476D02*
X121093809Y-129711904D01*
%TO.C,R15*%
X132707142Y-56502380D02*
X132373809Y-56026190D01*
X132135714Y-56502380D02*
X132135714Y-55502380D01*
X132516666Y-55502380D01*
X132611904Y-55550000D01*
X132659523Y-55597619D01*
X132707142Y-55692857D01*
X132707142Y-55835714D01*
X132659523Y-55930952D01*
X132611904Y-55978571D01*
X132516666Y-56026190D01*
X132135714Y-56026190D01*
X133659523Y-56502380D02*
X133088095Y-56502380D01*
X133373809Y-56502380D02*
X133373809Y-55502380D01*
X133278571Y-55645238D01*
X133183333Y-55740476D01*
X133088095Y-55788095D01*
X134564285Y-55502380D02*
X134088095Y-55502380D01*
X134040476Y-55978571D01*
X134088095Y-55930952D01*
X134183333Y-55883333D01*
X134421428Y-55883333D01*
X134516666Y-55930952D01*
X134564285Y-55978571D01*
X134611904Y-56073809D01*
X134611904Y-56311904D01*
X134564285Y-56407142D01*
X134516666Y-56454761D01*
X134421428Y-56502380D01*
X134183333Y-56502380D01*
X134088095Y-56454761D01*
X134040476Y-56407142D01*
%TO.C,R7*%
X148013333Y-107982380D02*
X147680000Y-107506190D01*
X147441904Y-107982380D02*
X147441904Y-106982380D01*
X147822857Y-106982380D01*
X147918095Y-107030000D01*
X147965714Y-107077619D01*
X148013333Y-107172857D01*
X148013333Y-107315714D01*
X147965714Y-107410952D01*
X147918095Y-107458571D01*
X147822857Y-107506190D01*
X147441904Y-107506190D01*
X148346666Y-106982380D02*
X149013333Y-106982380D01*
X148584761Y-107982380D01*
%TO.C,J22*%
X114760476Y-47712380D02*
X114760476Y-48426666D01*
X114712857Y-48569523D01*
X114617619Y-48664761D01*
X114474761Y-48712380D01*
X114379523Y-48712380D01*
X115189047Y-47807619D02*
X115236666Y-47760000D01*
X115331904Y-47712380D01*
X115570000Y-47712380D01*
X115665238Y-47760000D01*
X115712857Y-47807619D01*
X115760476Y-47902857D01*
X115760476Y-47998095D01*
X115712857Y-48140952D01*
X115141428Y-48712380D01*
X115760476Y-48712380D01*
X116141428Y-47807619D02*
X116189047Y-47760000D01*
X116284285Y-47712380D01*
X116522380Y-47712380D01*
X116617619Y-47760000D01*
X116665238Y-47807619D01*
X116712857Y-47902857D01*
X116712857Y-47998095D01*
X116665238Y-48140952D01*
X116093809Y-48712380D01*
X116712857Y-48712380D01*
%TO.C,K1*%
X108881904Y-68832380D02*
X108881904Y-67832380D01*
X109453333Y-68832380D02*
X109024761Y-68260952D01*
X109453333Y-67832380D02*
X108881904Y-68403809D01*
X110405714Y-68832380D02*
X109834285Y-68832380D01*
X110120000Y-68832380D02*
X110120000Y-67832380D01*
X110024761Y-67975238D01*
X109929523Y-68070476D01*
X109834285Y-68118095D01*
%TO.C,Q1*%
X131107619Y-73785238D02*
X131060000Y-73880476D01*
X130964761Y-73975714D01*
X130821904Y-74118571D01*
X130774285Y-74213809D01*
X130774285Y-74309047D01*
X131012380Y-74261428D02*
X130964761Y-74356666D01*
X130869523Y-74451904D01*
X130679047Y-74499523D01*
X130345714Y-74499523D01*
X130155238Y-74451904D01*
X130060000Y-74356666D01*
X130012380Y-74261428D01*
X130012380Y-74070952D01*
X130060000Y-73975714D01*
X130155238Y-73880476D01*
X130345714Y-73832857D01*
X130679047Y-73832857D01*
X130869523Y-73880476D01*
X130964761Y-73975714D01*
X131012380Y-74070952D01*
X131012380Y-74261428D01*
X131012380Y-72880476D02*
X131012380Y-73451904D01*
X131012380Y-73166190D02*
X130012380Y-73166190D01*
X130155238Y-73261428D01*
X130250476Y-73356666D01*
X130298095Y-73451904D01*
%TO.C,J16*%
X165560476Y-47712380D02*
X165560476Y-48426666D01*
X165512857Y-48569523D01*
X165417619Y-48664761D01*
X165274761Y-48712380D01*
X165179523Y-48712380D01*
X166560476Y-48712380D02*
X165989047Y-48712380D01*
X166274761Y-48712380D02*
X166274761Y-47712380D01*
X166179523Y-47855238D01*
X166084285Y-47950476D01*
X165989047Y-47998095D01*
X167417619Y-47712380D02*
X167227142Y-47712380D01*
X167131904Y-47760000D01*
X167084285Y-47807619D01*
X166989047Y-47950476D01*
X166941428Y-48140952D01*
X166941428Y-48521904D01*
X166989047Y-48617142D01*
X167036666Y-48664761D01*
X167131904Y-48712380D01*
X167322380Y-48712380D01*
X167417619Y-48664761D01*
X167465238Y-48617142D01*
X167512857Y-48521904D01*
X167512857Y-48283809D01*
X167465238Y-48188571D01*
X167417619Y-48140952D01*
X167322380Y-48093333D01*
X167131904Y-48093333D01*
X167036666Y-48140952D01*
X166989047Y-48188571D01*
X166941428Y-48283809D01*
%TO.C,J14*%
X161750476Y-148552380D02*
X161750476Y-149266666D01*
X161702857Y-149409523D01*
X161607619Y-149504761D01*
X161464761Y-149552380D01*
X161369523Y-149552380D01*
X162750476Y-149552380D02*
X162179047Y-149552380D01*
X162464761Y-149552380D02*
X162464761Y-148552380D01*
X162369523Y-148695238D01*
X162274285Y-148790476D01*
X162179047Y-148838095D01*
X163607619Y-148885714D02*
X163607619Y-149552380D01*
X163369523Y-148504761D02*
X163131428Y-149219047D01*
X163750476Y-149219047D01*
%TO.C,J8*%
X88352380Y-75373333D02*
X89066666Y-75373333D01*
X89209523Y-75420952D01*
X89304761Y-75516190D01*
X89352380Y-75659047D01*
X89352380Y-75754285D01*
X88780952Y-74754285D02*
X88733333Y-74849523D01*
X88685714Y-74897142D01*
X88590476Y-74944761D01*
X88542857Y-74944761D01*
X88447619Y-74897142D01*
X88400000Y-74849523D01*
X88352380Y-74754285D01*
X88352380Y-74563809D01*
X88400000Y-74468571D01*
X88447619Y-74420952D01*
X88542857Y-74373333D01*
X88590476Y-74373333D01*
X88685714Y-74420952D01*
X88733333Y-74468571D01*
X88780952Y-74563809D01*
X88780952Y-74754285D01*
X88828571Y-74849523D01*
X88876190Y-74897142D01*
X88971428Y-74944761D01*
X89161904Y-74944761D01*
X89257142Y-74897142D01*
X89304761Y-74849523D01*
X89352380Y-74754285D01*
X89352380Y-74563809D01*
X89304761Y-74468571D01*
X89257142Y-74420952D01*
X89161904Y-74373333D01*
X88971428Y-74373333D01*
X88876190Y-74420952D01*
X88828571Y-74468571D01*
X88780952Y-74563809D01*
%TO.C,J6*%
X178626666Y-48142380D02*
X178626666Y-48856666D01*
X178579047Y-48999523D01*
X178483809Y-49094761D01*
X178340952Y-49142380D01*
X178245714Y-49142380D01*
X179531428Y-48142380D02*
X179340952Y-48142380D01*
X179245714Y-48190000D01*
X179198095Y-48237619D01*
X179102857Y-48380476D01*
X179055238Y-48570952D01*
X179055238Y-48951904D01*
X179102857Y-49047142D01*
X179150476Y-49094761D01*
X179245714Y-49142380D01*
X179436190Y-49142380D01*
X179531428Y-49094761D01*
X179579047Y-49047142D01*
X179626666Y-48951904D01*
X179626666Y-48713809D01*
X179579047Y-48618571D01*
X179531428Y-48570952D01*
X179436190Y-48523333D01*
X179245714Y-48523333D01*
X179150476Y-48570952D01*
X179102857Y-48618571D01*
X179055238Y-48713809D01*
%TO.C,D15*%
X169395714Y-107492380D02*
X169395714Y-106492380D01*
X169633809Y-106492380D01*
X169776666Y-106540000D01*
X169871904Y-106635238D01*
X169919523Y-106730476D01*
X169967142Y-106920952D01*
X169967142Y-107063809D01*
X169919523Y-107254285D01*
X169871904Y-107349523D01*
X169776666Y-107444761D01*
X169633809Y-107492380D01*
X169395714Y-107492380D01*
X170919523Y-107492380D02*
X170348095Y-107492380D01*
X170633809Y-107492380D02*
X170633809Y-106492380D01*
X170538571Y-106635238D01*
X170443333Y-106730476D01*
X170348095Y-106778095D01*
X171824285Y-106492380D02*
X171348095Y-106492380D01*
X171300476Y-106968571D01*
X171348095Y-106920952D01*
X171443333Y-106873333D01*
X171681428Y-106873333D01*
X171776666Y-106920952D01*
X171824285Y-106968571D01*
X171871904Y-107063809D01*
X171871904Y-107301904D01*
X171824285Y-107397142D01*
X171776666Y-107444761D01*
X171681428Y-107492380D01*
X171443333Y-107492380D01*
X171348095Y-107444761D01*
X171300476Y-107397142D01*
%TO.C,R6*%
X131682380Y-141566666D02*
X131206190Y-141900000D01*
X131682380Y-142138095D02*
X130682380Y-142138095D01*
X130682380Y-141757142D01*
X130730000Y-141661904D01*
X130777619Y-141614285D01*
X130872857Y-141566666D01*
X131015714Y-141566666D01*
X131110952Y-141614285D01*
X131158571Y-141661904D01*
X131206190Y-141757142D01*
X131206190Y-142138095D01*
X130682380Y-140709523D02*
X130682380Y-140900000D01*
X130730000Y-140995238D01*
X130777619Y-141042857D01*
X130920476Y-141138095D01*
X131110952Y-141185714D01*
X131491904Y-141185714D01*
X131587142Y-141138095D01*
X131634761Y-141090476D01*
X131682380Y-140995238D01*
X131682380Y-140804761D01*
X131634761Y-140709523D01*
X131587142Y-140661904D01*
X131491904Y-140614285D01*
X131253809Y-140614285D01*
X131158571Y-140661904D01*
X131110952Y-140709523D01*
X131063333Y-140804761D01*
X131063333Y-140995238D01*
X131110952Y-141090476D01*
X131158571Y-141138095D01*
X131253809Y-141185714D01*
%TO.C,D13*%
X132172380Y-146424285D02*
X131172380Y-146424285D01*
X131172380Y-146186190D01*
X131220000Y-146043333D01*
X131315238Y-145948095D01*
X131410476Y-145900476D01*
X131600952Y-145852857D01*
X131743809Y-145852857D01*
X131934285Y-145900476D01*
X132029523Y-145948095D01*
X132124761Y-146043333D01*
X132172380Y-146186190D01*
X132172380Y-146424285D01*
X132172380Y-144900476D02*
X132172380Y-145471904D01*
X132172380Y-145186190D02*
X131172380Y-145186190D01*
X131315238Y-145281428D01*
X131410476Y-145376666D01*
X131458095Y-145471904D01*
X131172380Y-144567142D02*
X131172380Y-143948095D01*
X131553333Y-144281428D01*
X131553333Y-144138571D01*
X131600952Y-144043333D01*
X131648571Y-143995714D01*
X131743809Y-143948095D01*
X131981904Y-143948095D01*
X132077142Y-143995714D01*
X132124761Y-144043333D01*
X132172380Y-144138571D01*
X132172380Y-144424285D01*
X132124761Y-144519523D01*
X132077142Y-144567142D01*
%TO.C,K8*%
X174132380Y-129878095D02*
X173132380Y-129878095D01*
X174132380Y-129306666D02*
X173560952Y-129735238D01*
X173132380Y-129306666D02*
X173703809Y-129878095D01*
X173560952Y-128735238D02*
X173513333Y-128830476D01*
X173465714Y-128878095D01*
X173370476Y-128925714D01*
X173322857Y-128925714D01*
X173227619Y-128878095D01*
X173180000Y-128830476D01*
X173132380Y-128735238D01*
X173132380Y-128544761D01*
X173180000Y-128449523D01*
X173227619Y-128401904D01*
X173322857Y-128354285D01*
X173370476Y-128354285D01*
X173465714Y-128401904D01*
X173513333Y-128449523D01*
X173560952Y-128544761D01*
X173560952Y-128735238D01*
X173608571Y-128830476D01*
X173656190Y-128878095D01*
X173751428Y-128925714D01*
X173941904Y-128925714D01*
X174037142Y-128878095D01*
X174084761Y-128830476D01*
X174132380Y-128735238D01*
X174132380Y-128544761D01*
X174084761Y-128449523D01*
X174037142Y-128401904D01*
X173941904Y-128354285D01*
X173751428Y-128354285D01*
X173656190Y-128401904D01*
X173608571Y-128449523D01*
X173560952Y-128544761D01*
%TO.C,U2*%
X195032380Y-127761904D02*
X195841904Y-127761904D01*
X195937142Y-127714285D01*
X195984761Y-127666666D01*
X196032380Y-127571428D01*
X196032380Y-127380952D01*
X195984761Y-127285714D01*
X195937142Y-127238095D01*
X195841904Y-127190476D01*
X195032380Y-127190476D01*
X195127619Y-126761904D02*
X195080000Y-126714285D01*
X195032380Y-126619047D01*
X195032380Y-126380952D01*
X195080000Y-126285714D01*
X195127619Y-126238095D01*
X195222857Y-126190476D01*
X195318095Y-126190476D01*
X195460952Y-126238095D01*
X196032380Y-126809523D01*
X196032380Y-126190476D01*
%TO.C,D3*%
X120782380Y-109758095D02*
X119782380Y-109758095D01*
X119782380Y-109520000D01*
X119830000Y-109377142D01*
X119925238Y-109281904D01*
X120020476Y-109234285D01*
X120210952Y-109186666D01*
X120353809Y-109186666D01*
X120544285Y-109234285D01*
X120639523Y-109281904D01*
X120734761Y-109377142D01*
X120782380Y-109520000D01*
X120782380Y-109758095D01*
X119782380Y-108853333D02*
X119782380Y-108234285D01*
X120163333Y-108567619D01*
X120163333Y-108424761D01*
X120210952Y-108329523D01*
X120258571Y-108281904D01*
X120353809Y-108234285D01*
X120591904Y-108234285D01*
X120687142Y-108281904D01*
X120734761Y-108329523D01*
X120782380Y-108424761D01*
X120782380Y-108710476D01*
X120734761Y-108805714D01*
X120687142Y-108853333D01*
X121352380Y-114361904D02*
X120352380Y-114361904D01*
X121352380Y-113790476D02*
X120780952Y-114219047D01*
X120352380Y-113790476D02*
X120923809Y-114361904D01*
%TO.C,K5*%
X108881904Y-129792380D02*
X108881904Y-128792380D01*
X109453333Y-129792380D02*
X109024761Y-129220952D01*
X109453333Y-128792380D02*
X108881904Y-129363809D01*
X110358095Y-128792380D02*
X109881904Y-128792380D01*
X109834285Y-129268571D01*
X109881904Y-129220952D01*
X109977142Y-129173333D01*
X110215238Y-129173333D01*
X110310476Y-129220952D01*
X110358095Y-129268571D01*
X110405714Y-129363809D01*
X110405714Y-129601904D01*
X110358095Y-129697142D01*
X110310476Y-129744761D01*
X110215238Y-129792380D01*
X109977142Y-129792380D01*
X109881904Y-129744761D01*
X109834285Y-129697142D01*
%TO.C,J7*%
X196416666Y-47992380D02*
X196416666Y-48706666D01*
X196369047Y-48849523D01*
X196273809Y-48944761D01*
X196130952Y-48992380D01*
X196035714Y-48992380D01*
X196797619Y-47992380D02*
X197464285Y-47992380D01*
X197035714Y-48992380D01*
%TO.C,J21*%
X135080476Y-47712380D02*
X135080476Y-48426666D01*
X135032857Y-48569523D01*
X134937619Y-48664761D01*
X134794761Y-48712380D01*
X134699523Y-48712380D01*
X135509047Y-47807619D02*
X135556666Y-47760000D01*
X135651904Y-47712380D01*
X135890000Y-47712380D01*
X135985238Y-47760000D01*
X136032857Y-47807619D01*
X136080476Y-47902857D01*
X136080476Y-47998095D01*
X136032857Y-48140952D01*
X135461428Y-48712380D01*
X136080476Y-48712380D01*
X137032857Y-48712380D02*
X136461428Y-48712380D01*
X136747142Y-48712380D02*
X136747142Y-47712380D01*
X136651904Y-47855238D01*
X136556666Y-47950476D01*
X136461428Y-47998095D01*
%TO.C,D6*%
X131432380Y-98158095D02*
X130432380Y-98158095D01*
X130432380Y-97920000D01*
X130480000Y-97777142D01*
X130575238Y-97681904D01*
X130670476Y-97634285D01*
X130860952Y-97586666D01*
X131003809Y-97586666D01*
X131194285Y-97634285D01*
X131289523Y-97681904D01*
X131384761Y-97777142D01*
X131432380Y-97920000D01*
X131432380Y-98158095D01*
X130432380Y-96729523D02*
X130432380Y-96920000D01*
X130480000Y-97015238D01*
X130527619Y-97062857D01*
X130670476Y-97158095D01*
X130860952Y-97205714D01*
X131241904Y-97205714D01*
X131337142Y-97158095D01*
X131384761Y-97110476D01*
X131432380Y-97015238D01*
X131432380Y-96824761D01*
X131384761Y-96729523D01*
X131337142Y-96681904D01*
X131241904Y-96634285D01*
X131003809Y-96634285D01*
X130908571Y-96681904D01*
X130860952Y-96729523D01*
X130813333Y-96824761D01*
X130813333Y-97015238D01*
X130860952Y-97110476D01*
X130908571Y-97158095D01*
X131003809Y-97205714D01*
%TO.C,R8*%
X165793333Y-107982380D02*
X165460000Y-107506190D01*
X165221904Y-107982380D02*
X165221904Y-106982380D01*
X165602857Y-106982380D01*
X165698095Y-107030000D01*
X165745714Y-107077619D01*
X165793333Y-107172857D01*
X165793333Y-107315714D01*
X165745714Y-107410952D01*
X165698095Y-107458571D01*
X165602857Y-107506190D01*
X165221904Y-107506190D01*
X166364761Y-107410952D02*
X166269523Y-107363333D01*
X166221904Y-107315714D01*
X166174285Y-107220476D01*
X166174285Y-107172857D01*
X166221904Y-107077619D01*
X166269523Y-107030000D01*
X166364761Y-106982380D01*
X166555238Y-106982380D01*
X166650476Y-107030000D01*
X166698095Y-107077619D01*
X166745714Y-107172857D01*
X166745714Y-107220476D01*
X166698095Y-107315714D01*
X166650476Y-107363333D01*
X166555238Y-107410952D01*
X166364761Y-107410952D01*
X166269523Y-107458571D01*
X166221904Y-107506190D01*
X166174285Y-107601428D01*
X166174285Y-107791904D01*
X166221904Y-107887142D01*
X166269523Y-107934761D01*
X166364761Y-107982380D01*
X166555238Y-107982380D01*
X166650476Y-107934761D01*
X166698095Y-107887142D01*
X166745714Y-107791904D01*
X166745714Y-107601428D01*
X166698095Y-107506190D01*
X166650476Y-107458571D01*
X166555238Y-107410952D01*
%TO.C,J3*%
X143182380Y-68913333D02*
X143896666Y-68913333D01*
X144039523Y-68960952D01*
X144134761Y-69056190D01*
X144182380Y-69199047D01*
X144182380Y-69294285D01*
X143182380Y-68532380D02*
X143182380Y-67913333D01*
X143563333Y-68246666D01*
X143563333Y-68103809D01*
X143610952Y-68008571D01*
X143658571Y-67960952D01*
X143753809Y-67913333D01*
X143991904Y-67913333D01*
X144087142Y-67960952D01*
X144134761Y-68008571D01*
X144182380Y-68103809D01*
X144182380Y-68389523D01*
X144134761Y-68484761D01*
X144087142Y-68532380D01*
%TO.C,H1*%
X222758095Y-143022380D02*
X222758095Y-142022380D01*
X222758095Y-142498571D02*
X223329523Y-142498571D01*
X223329523Y-143022380D02*
X223329523Y-142022380D01*
X224329523Y-143022380D02*
X223758095Y-143022380D01*
X224043809Y-143022380D02*
X224043809Y-142022380D01*
X223948571Y-142165238D01*
X223853333Y-142260476D01*
X223758095Y-142308095D01*
%TO.C,D12*%
X183365714Y-119002380D02*
X183365714Y-118002380D01*
X183603809Y-118002380D01*
X183746666Y-118050000D01*
X183841904Y-118145238D01*
X183889523Y-118240476D01*
X183937142Y-118430952D01*
X183937142Y-118573809D01*
X183889523Y-118764285D01*
X183841904Y-118859523D01*
X183746666Y-118954761D01*
X183603809Y-119002380D01*
X183365714Y-119002380D01*
X184889523Y-119002380D02*
X184318095Y-119002380D01*
X184603809Y-119002380D02*
X184603809Y-118002380D01*
X184508571Y-118145238D01*
X184413333Y-118240476D01*
X184318095Y-118288095D01*
X185270476Y-118097619D02*
X185318095Y-118050000D01*
X185413333Y-118002380D01*
X185651428Y-118002380D01*
X185746666Y-118050000D01*
X185794285Y-118097619D01*
X185841904Y-118192857D01*
X185841904Y-118288095D01*
X185794285Y-118430952D01*
X185222857Y-119002380D01*
X185841904Y-119002380D01*
X189398095Y-118432380D02*
X189398095Y-117432380D01*
X189969523Y-118432380D02*
X189540952Y-117860952D01*
X189969523Y-117432380D02*
X189398095Y-118003809D01*
%TO.C,D11*%
X165585714Y-119002380D02*
X165585714Y-118002380D01*
X165823809Y-118002380D01*
X165966666Y-118050000D01*
X166061904Y-118145238D01*
X166109523Y-118240476D01*
X166157142Y-118430952D01*
X166157142Y-118573809D01*
X166109523Y-118764285D01*
X166061904Y-118859523D01*
X165966666Y-118954761D01*
X165823809Y-119002380D01*
X165585714Y-119002380D01*
X167109523Y-119002380D02*
X166538095Y-119002380D01*
X166823809Y-119002380D02*
X166823809Y-118002380D01*
X166728571Y-118145238D01*
X166633333Y-118240476D01*
X166538095Y-118288095D01*
X168061904Y-119002380D02*
X167490476Y-119002380D01*
X167776190Y-119002380D02*
X167776190Y-118002380D01*
X167680952Y-118145238D01*
X167585714Y-118240476D01*
X167490476Y-118288095D01*
X171618095Y-118432380D02*
X171618095Y-117432380D01*
X172189523Y-118432380D02*
X171760952Y-117860952D01*
X172189523Y-117432380D02*
X171618095Y-118003809D01*
%TO.C,Q8*%
X179754761Y-107227619D02*
X179659523Y-107180000D01*
X179564285Y-107084761D01*
X179421428Y-106941904D01*
X179326190Y-106894285D01*
X179230952Y-106894285D01*
X179278571Y-107132380D02*
X179183333Y-107084761D01*
X179088095Y-106989523D01*
X179040476Y-106799047D01*
X179040476Y-106465714D01*
X179088095Y-106275238D01*
X179183333Y-106180000D01*
X179278571Y-106132380D01*
X179469047Y-106132380D01*
X179564285Y-106180000D01*
X179659523Y-106275238D01*
X179707142Y-106465714D01*
X179707142Y-106799047D01*
X179659523Y-106989523D01*
X179564285Y-107084761D01*
X179469047Y-107132380D01*
X179278571Y-107132380D01*
X180278571Y-106560952D02*
X180183333Y-106513333D01*
X180135714Y-106465714D01*
X180088095Y-106370476D01*
X180088095Y-106322857D01*
X180135714Y-106227619D01*
X180183333Y-106180000D01*
X180278571Y-106132380D01*
X180469047Y-106132380D01*
X180564285Y-106180000D01*
X180611904Y-106227619D01*
X180659523Y-106322857D01*
X180659523Y-106370476D01*
X180611904Y-106465714D01*
X180564285Y-106513333D01*
X180469047Y-106560952D01*
X180278571Y-106560952D01*
X180183333Y-106608571D01*
X180135714Y-106656190D01*
X180088095Y-106751428D01*
X180088095Y-106941904D01*
X180135714Y-107037142D01*
X180183333Y-107084761D01*
X180278571Y-107132380D01*
X180469047Y-107132380D01*
X180564285Y-107084761D01*
X180611904Y-107037142D01*
X180659523Y-106941904D01*
X180659523Y-106751428D01*
X180611904Y-106656190D01*
X180564285Y-106608571D01*
X180469047Y-106560952D01*
%TO.C,D10*%
X147805714Y-119002380D02*
X147805714Y-118002380D01*
X148043809Y-118002380D01*
X148186666Y-118050000D01*
X148281904Y-118145238D01*
X148329523Y-118240476D01*
X148377142Y-118430952D01*
X148377142Y-118573809D01*
X148329523Y-118764285D01*
X148281904Y-118859523D01*
X148186666Y-118954761D01*
X148043809Y-119002380D01*
X147805714Y-119002380D01*
X149329523Y-119002380D02*
X148758095Y-119002380D01*
X149043809Y-119002380D02*
X149043809Y-118002380D01*
X148948571Y-118145238D01*
X148853333Y-118240476D01*
X148758095Y-118288095D01*
X149948571Y-118002380D02*
X150043809Y-118002380D01*
X150139047Y-118050000D01*
X150186666Y-118097619D01*
X150234285Y-118192857D01*
X150281904Y-118383333D01*
X150281904Y-118621428D01*
X150234285Y-118811904D01*
X150186666Y-118907142D01*
X150139047Y-118954761D01*
X150043809Y-119002380D01*
X149948571Y-119002380D01*
X149853333Y-118954761D01*
X149805714Y-118907142D01*
X149758095Y-118811904D01*
X149710476Y-118621428D01*
X149710476Y-118383333D01*
X149758095Y-118192857D01*
X149805714Y-118097619D01*
X149853333Y-118050000D01*
X149948571Y-118002380D01*
X153838095Y-118432380D02*
X153838095Y-117432380D01*
X154409523Y-118432380D02*
X153980952Y-117860952D01*
X154409523Y-117432380D02*
X153838095Y-118003809D01*
%TO.C,Q5*%
X129067619Y-136765238D02*
X129020000Y-136860476D01*
X128924761Y-136955714D01*
X128781904Y-137098571D01*
X128734285Y-137193809D01*
X128734285Y-137289047D01*
X128972380Y-137241428D02*
X128924761Y-137336666D01*
X128829523Y-137431904D01*
X128639047Y-137479523D01*
X128305714Y-137479523D01*
X128115238Y-137431904D01*
X128020000Y-137336666D01*
X127972380Y-137241428D01*
X127972380Y-137050952D01*
X128020000Y-136955714D01*
X128115238Y-136860476D01*
X128305714Y-136812857D01*
X128639047Y-136812857D01*
X128829523Y-136860476D01*
X128924761Y-136955714D01*
X128972380Y-137050952D01*
X128972380Y-137241428D01*
X127972380Y-135908095D02*
X127972380Y-136384285D01*
X128448571Y-136431904D01*
X128400952Y-136384285D01*
X128353333Y-136289047D01*
X128353333Y-136050952D01*
X128400952Y-135955714D01*
X128448571Y-135908095D01*
X128543809Y-135860476D01*
X128781904Y-135860476D01*
X128877142Y-135908095D01*
X128924761Y-135955714D01*
X128972380Y-136050952D01*
X128972380Y-136289047D01*
X128924761Y-136384285D01*
X128877142Y-136431904D01*
%TO.C,K3*%
X108901904Y-99702380D02*
X108901904Y-98702380D01*
X109473333Y-99702380D02*
X109044761Y-99130952D01*
X109473333Y-98702380D02*
X108901904Y-99273809D01*
X109806666Y-98702380D02*
X110425714Y-98702380D01*
X110092380Y-99083333D01*
X110235238Y-99083333D01*
X110330476Y-99130952D01*
X110378095Y-99178571D01*
X110425714Y-99273809D01*
X110425714Y-99511904D01*
X110378095Y-99607142D01*
X110330476Y-99654761D01*
X110235238Y-99702380D01*
X109949523Y-99702380D01*
X109854285Y-99654761D01*
X109806666Y-99607142D01*
%TO.C,R10*%
X170727142Y-56502380D02*
X170393809Y-56026190D01*
X170155714Y-56502380D02*
X170155714Y-55502380D01*
X170536666Y-55502380D01*
X170631904Y-55550000D01*
X170679523Y-55597619D01*
X170727142Y-55692857D01*
X170727142Y-55835714D01*
X170679523Y-55930952D01*
X170631904Y-55978571D01*
X170536666Y-56026190D01*
X170155714Y-56026190D01*
X171679523Y-56502380D02*
X171108095Y-56502380D01*
X171393809Y-56502380D02*
X171393809Y-55502380D01*
X171298571Y-55645238D01*
X171203333Y-55740476D01*
X171108095Y-55788095D01*
X172298571Y-55502380D02*
X172393809Y-55502380D01*
X172489047Y-55550000D01*
X172536666Y-55597619D01*
X172584285Y-55692857D01*
X172631904Y-55883333D01*
X172631904Y-56121428D01*
X172584285Y-56311904D01*
X172536666Y-56407142D01*
X172489047Y-56454761D01*
X172393809Y-56502380D01*
X172298571Y-56502380D01*
X172203333Y-56454761D01*
X172155714Y-56407142D01*
X172108095Y-56311904D01*
X172060476Y-56121428D01*
X172060476Y-55883333D01*
X172108095Y-55692857D01*
X172155714Y-55597619D01*
X172203333Y-55550000D01*
X172298571Y-55502380D01*
%TO.C,D9*%
X120662380Y-142138095D02*
X119662380Y-142138095D01*
X119662380Y-141900000D01*
X119710000Y-141757142D01*
X119805238Y-141661904D01*
X119900476Y-141614285D01*
X120090952Y-141566666D01*
X120233809Y-141566666D01*
X120424285Y-141614285D01*
X120519523Y-141661904D01*
X120614761Y-141757142D01*
X120662380Y-141900000D01*
X120662380Y-142138095D01*
X120662380Y-141090476D02*
X120662380Y-140900000D01*
X120614761Y-140804761D01*
X120567142Y-140757142D01*
X120424285Y-140661904D01*
X120233809Y-140614285D01*
X119852857Y-140614285D01*
X119757619Y-140661904D01*
X119710000Y-140709523D01*
X119662380Y-140804761D01*
X119662380Y-140995238D01*
X119710000Y-141090476D01*
X119757619Y-141138095D01*
X119852857Y-141185714D01*
X120090952Y-141185714D01*
X120186190Y-141138095D01*
X120233809Y-141090476D01*
X120281428Y-140995238D01*
X120281428Y-140804761D01*
X120233809Y-140709523D01*
X120186190Y-140661904D01*
X120090952Y-140614285D01*
X121232380Y-146741904D02*
X120232380Y-146741904D01*
X121232380Y-146170476D02*
X120660952Y-146599047D01*
X120232380Y-146170476D02*
X120803809Y-146741904D01*
%TO.C,D2*%
X119922380Y-94348095D02*
X118922380Y-94348095D01*
X118922380Y-94110000D01*
X118970000Y-93967142D01*
X119065238Y-93871904D01*
X119160476Y-93824285D01*
X119350952Y-93776666D01*
X119493809Y-93776666D01*
X119684285Y-93824285D01*
X119779523Y-93871904D01*
X119874761Y-93967142D01*
X119922380Y-94110000D01*
X119922380Y-94348095D01*
X119017619Y-93395714D02*
X118970000Y-93348095D01*
X118922380Y-93252857D01*
X118922380Y-93014761D01*
X118970000Y-92919523D01*
X119017619Y-92871904D01*
X119112857Y-92824285D01*
X119208095Y-92824285D01*
X119350952Y-92871904D01*
X119922380Y-93443333D01*
X119922380Y-92824285D01*
X120492380Y-98951904D02*
X119492380Y-98951904D01*
X120492380Y-98380476D02*
X119920952Y-98809047D01*
X119492380Y-98380476D02*
X120063809Y-98951904D01*
%TO.C,Q2*%
X131127619Y-89815238D02*
X131080000Y-89910476D01*
X130984761Y-90005714D01*
X130841904Y-90148571D01*
X130794285Y-90243809D01*
X130794285Y-90339047D01*
X131032380Y-90291428D02*
X130984761Y-90386666D01*
X130889523Y-90481904D01*
X130699047Y-90529523D01*
X130365714Y-90529523D01*
X130175238Y-90481904D01*
X130080000Y-90386666D01*
X130032380Y-90291428D01*
X130032380Y-90100952D01*
X130080000Y-90005714D01*
X130175238Y-89910476D01*
X130365714Y-89862857D01*
X130699047Y-89862857D01*
X130889523Y-89910476D01*
X130984761Y-90005714D01*
X131032380Y-90100952D01*
X131032380Y-90291428D01*
X130127619Y-89481904D02*
X130080000Y-89434285D01*
X130032380Y-89339047D01*
X130032380Y-89100952D01*
X130080000Y-89005714D01*
X130127619Y-88958095D01*
X130222857Y-88910476D01*
X130318095Y-88910476D01*
X130460952Y-88958095D01*
X131032380Y-89529523D01*
X131032380Y-88910476D01*
D11*
%TO.C,Q7*%
X160130000Y-111940000D02*
X163980000Y-111940000D01*
X164018611Y-111930122D02*
G75*
G03*
X160130000Y-111940000I-1948611J1690122D01*
G01*
%TO.C,R13*%
X104240000Y-60230000D02*
X101500000Y-60230000D01*
X102870000Y-59460000D02*
X102870000Y-60230000D01*
X101500000Y-66770000D02*
X104240000Y-66770000D01*
X101500000Y-60230000D02*
X101500000Y-66770000D01*
X102870000Y-67540000D02*
X102870000Y-66770000D01*
X104240000Y-66770000D02*
X104240000Y-60230000D01*
%TO.C,K7*%
X161450000Y-130490000D02*
X161450000Y-123690000D01*
X172900000Y-119640000D02*
X166300000Y-119640000D01*
X169300000Y-135190000D02*
X166800000Y-135190000D01*
X163900000Y-119640000D02*
X157300000Y-119640000D01*
X165050000Y-123690000D02*
X161450000Y-123690000D01*
X160900000Y-135190000D02*
X163350000Y-135190000D01*
X166850000Y-125090000D02*
X166850000Y-129090000D01*
X165050000Y-131990000D02*
X167550000Y-136590000D01*
X165050000Y-130490000D02*
X161450000Y-130490000D01*
X165050000Y-123690000D02*
X165050000Y-122890000D01*
X163250000Y-125090000D02*
X166850000Y-125090000D01*
X165050000Y-130490000D02*
X165050000Y-131990000D01*
X163250000Y-129090000D02*
X163250000Y-125090000D01*
X171050000Y-127090000D02*
X166850000Y-127090000D01*
X159050000Y-124590000D02*
X159050000Y-127090000D01*
X172900000Y-119640000D02*
X172900000Y-139440000D01*
X163250000Y-127090000D02*
X159050000Y-127090000D01*
X166850000Y-129090000D02*
X163250000Y-129090000D01*
X157300000Y-139440000D02*
X157300000Y-119640000D01*
X171050000Y-127090000D02*
X171050000Y-124590000D01*
X163250000Y-129090000D02*
X166850000Y-125090000D01*
X172900000Y-139440000D02*
X157300000Y-139440000D01*
%TO.C,K6*%
X155120000Y-139440000D02*
X139520000Y-139440000D01*
X139520000Y-139440000D02*
X139520000Y-119640000D01*
X153270000Y-127090000D02*
X149070000Y-127090000D01*
X155120000Y-119640000D02*
X155120000Y-139440000D01*
X145470000Y-129090000D02*
X145470000Y-125090000D01*
X147270000Y-123690000D02*
X143670000Y-123690000D01*
X145470000Y-125090000D02*
X149070000Y-125090000D01*
X147270000Y-130490000D02*
X147270000Y-131990000D01*
X145470000Y-129090000D02*
X149070000Y-125090000D01*
X141270000Y-124590000D02*
X141270000Y-127090000D01*
X149070000Y-129090000D02*
X145470000Y-129090000D01*
X147270000Y-130490000D02*
X143670000Y-130490000D01*
X143670000Y-130490000D02*
X143670000Y-123690000D01*
X149070000Y-125090000D02*
X149070000Y-129090000D01*
X153270000Y-127090000D02*
X153270000Y-124590000D01*
X143120000Y-135190000D02*
X145570000Y-135190000D01*
X147270000Y-123690000D02*
X147270000Y-122890000D01*
X155120000Y-119640000D02*
X148520000Y-119640000D01*
X145470000Y-127090000D02*
X141270000Y-127090000D01*
X146120000Y-119640000D02*
X139520000Y-119640000D01*
X147270000Y-131990000D02*
X149770000Y-136590000D01*
X151520000Y-135190000D02*
X149020000Y-135190000D01*
%TO.C,J17*%
X151130000Y-57150000D02*
X151130000Y-49530000D01*
X140970000Y-57150000D02*
X151130000Y-57150000D01*
X151130000Y-49530000D02*
X140970000Y-49530000D01*
X140970000Y-49530000D02*
X140970000Y-57150000D01*
X151130000Y-55880000D02*
X140970000Y-55880000D01*
%TO.C,J1*%
X218020000Y-142750000D02*
X216280000Y-142750000D01*
X216280000Y-142750000D02*
X216280000Y-141010000D01*
X216520000Y-142510000D02*
X216520000Y-139710000D01*
X216520000Y-133310000D02*
X218520000Y-133310000D01*
X222120000Y-133310000D02*
X231120000Y-133310000D01*
X231120000Y-142510000D02*
X216520000Y-142510000D01*
X231120000Y-133310000D02*
X231120000Y-142510000D01*
X216520000Y-136110000D02*
X216520000Y-133310000D01*
%TO.C,J12*%
X90930000Y-132080000D02*
X90930000Y-142240000D01*
X97280000Y-132080000D02*
X97280000Y-142240000D01*
X90930000Y-142240000D02*
X98550000Y-142240000D01*
X98550000Y-142240000D02*
X98550000Y-132080000D01*
X98550000Y-132080000D02*
X90930000Y-132080000D01*
%TO.C,D14*%
X150270000Y-109455000D02*
X150270000Y-112545000D01*
X155820000Y-111000462D02*
G75*
G03*
X150270000Y-109455170I-2990000J462D01*
G01*
X150270000Y-112544830D02*
G75*
G03*
X155820000Y-110999538I2560000J1544830D01*
G01*
X155330000Y-111000000D02*
G75*
G03*
X155330000Y-111000000I-2500000J0D01*
G01*
%TO.C,J11*%
X97570000Y-116750000D02*
X97570000Y-126910000D01*
X98840000Y-116750000D02*
X91220000Y-116750000D01*
X91220000Y-126910000D02*
X98840000Y-126910000D01*
X98840000Y-126910000D02*
X98840000Y-116750000D01*
X91220000Y-116750000D02*
X91220000Y-126910000D01*
%TO.C,R2*%
X133450000Y-74310000D02*
X130710000Y-74310000D01*
X130710000Y-80850000D02*
X133450000Y-80850000D01*
X133450000Y-80850000D02*
X133450000Y-74310000D01*
X130710000Y-74310000D02*
X130710000Y-80850000D01*
X132080000Y-73540000D02*
X132080000Y-74310000D01*
X132080000Y-81620000D02*
X132080000Y-80850000D01*
%TO.C,J2*%
X147325000Y-87690000D02*
X147325000Y-85030000D01*
X147325000Y-87690000D02*
X195645000Y-87690000D01*
X144725000Y-87690000D02*
X144725000Y-86360000D01*
X147325000Y-85030000D02*
X195645000Y-85030000D01*
X146055000Y-87690000D02*
X144725000Y-87690000D01*
X195645000Y-87690000D02*
X195645000Y-85030000D01*
%TO.C,R1*%
X180030000Y-58420000D02*
X180800000Y-58420000D01*
X188110000Y-58420000D02*
X187340000Y-58420000D01*
X187340000Y-57050000D02*
X180800000Y-57050000D01*
X180800000Y-57050000D02*
X180800000Y-59790000D01*
X180800000Y-59790000D02*
X187340000Y-59790000D01*
X187340000Y-59790000D02*
X187340000Y-57050000D01*
%TO.C,Q3*%
X126180000Y-103190000D02*
X126180000Y-107040000D01*
X126189878Y-107078611D02*
G75*
G03*
X126180000Y-103190000I1690122J1948611D01*
G01*
%TO.C,J20*%
X151130000Y-57150000D02*
X161290000Y-57150000D01*
X161290000Y-57150000D02*
X161290000Y-49530000D01*
X161290000Y-55880000D02*
X151130000Y-55880000D01*
X151130000Y-49530000D02*
X151130000Y-57150000D01*
X161290000Y-49530000D02*
X151130000Y-49530000D01*
%TO.C,J9*%
X97810000Y-85990000D02*
X90190000Y-85990000D01*
X90190000Y-85990000D02*
X90190000Y-96150000D01*
X90190000Y-96150000D02*
X97810000Y-96150000D01*
X96540000Y-85990000D02*
X96540000Y-96150000D01*
X97810000Y-96150000D02*
X97810000Y-85990000D01*
%TO.C,D5*%
X128545000Y-78830000D02*
X125455000Y-78830000D01*
X125455170Y-78830000D02*
G75*
G03*
X127000462Y-84380000I1544830J-2560000D01*
G01*
X126999538Y-84380000D02*
G75*
G03*
X128544830Y-78830000I462J2990000D01*
G01*
X129500000Y-81390000D02*
G75*
G03*
X129500000Y-81390000I-2500000J0D01*
G01*
%TO.C,K2*%
X114190000Y-87560000D02*
X111690000Y-87560000D01*
X108290000Y-93560000D02*
X106790000Y-93560000D01*
X103590000Y-89410000D02*
X103590000Y-91860000D01*
X109690000Y-91760000D02*
X113690000Y-91760000D01*
X99340000Y-101410000D02*
X99340000Y-85810000D01*
X115090000Y-93560000D02*
X115890000Y-93560000D01*
X113690000Y-95360000D02*
X109690000Y-95360000D01*
X119140000Y-101410000D02*
X119140000Y-94810000D01*
X103590000Y-97810000D02*
X103590000Y-95310000D01*
X99340000Y-85810000D02*
X119140000Y-85810000D01*
X106790000Y-93560000D02*
X102190000Y-96060000D01*
X111690000Y-91760000D02*
X111690000Y-87560000D01*
X108290000Y-93560000D02*
X108290000Y-89960000D01*
X119140000Y-101410000D02*
X99340000Y-101410000D01*
X119140000Y-92410000D02*
X119140000Y-85810000D01*
X113690000Y-91760000D02*
X113690000Y-95360000D01*
X108290000Y-89960000D02*
X115090000Y-89960000D01*
X109690000Y-91760000D02*
X113690000Y-95360000D01*
X111690000Y-99560000D02*
X114190000Y-99560000D01*
X109690000Y-95360000D02*
X109690000Y-91760000D01*
X115090000Y-93560000D02*
X115090000Y-89960000D01*
X111690000Y-99560000D02*
X111690000Y-95360000D01*
%TO.C,Q4*%
X126350000Y-118540000D02*
X126350000Y-122390000D01*
X126359878Y-122428611D02*
G75*
G03*
X126350000Y-118540000I1690122J1948611D01*
G01*
%TO.C,R3*%
X132100000Y-89570000D02*
X132100000Y-90340000D01*
X130730000Y-90340000D02*
X130730000Y-96880000D01*
X133470000Y-96880000D02*
X133470000Y-90340000D01*
X133470000Y-90340000D02*
X130730000Y-90340000D01*
X130730000Y-96880000D02*
X133470000Y-96880000D01*
X132100000Y-97650000D02*
X132100000Y-96880000D01*
%TO.C,D16*%
X185830000Y-109455000D02*
X185830000Y-112545000D01*
X185830000Y-112544830D02*
G75*
G03*
X191380000Y-110999538I2560000J1544830D01*
G01*
X191380000Y-111000462D02*
G75*
G03*
X185830000Y-109455170I-2990000J462D01*
G01*
X190890000Y-111000000D02*
G75*
G03*
X190890000Y-111000000I-2500000J0D01*
G01*
%TO.C,R17*%
X92630000Y-67540000D02*
X92630000Y-66770000D01*
X94000000Y-66770000D02*
X94000000Y-60230000D01*
X92630000Y-59460000D02*
X92630000Y-60230000D01*
X91260000Y-66770000D02*
X94000000Y-66770000D01*
X91260000Y-60230000D02*
X91260000Y-66770000D01*
X94000000Y-60230000D02*
X91260000Y-60230000D01*
%TO.C,R12*%
X121740000Y-66770000D02*
X124480000Y-66770000D01*
X121740000Y-60230000D02*
X121740000Y-66770000D01*
X123110000Y-67540000D02*
X123110000Y-66770000D01*
X124480000Y-60230000D02*
X121740000Y-60230000D01*
X123110000Y-59460000D02*
X123110000Y-60230000D01*
X124480000Y-66770000D02*
X124480000Y-60230000D01*
%TO.C,R16*%
X111660000Y-66770000D02*
X114400000Y-66770000D01*
X113030000Y-67540000D02*
X113030000Y-66770000D01*
X111660000Y-60230000D02*
X111660000Y-66770000D01*
X113030000Y-59460000D02*
X113030000Y-60230000D01*
X114400000Y-60230000D02*
X111660000Y-60230000D01*
X114400000Y-66770000D02*
X114400000Y-60230000D01*
%TO.C,D8*%
X129595000Y-125620000D02*
X126505000Y-125620000D01*
X128049538Y-131170000D02*
G75*
G03*
X129594830Y-125620000I462J2990000D01*
G01*
X126505170Y-125620000D02*
G75*
G03*
X128050462Y-131170000I1544830J-2560000D01*
G01*
X130550000Y-128180000D02*
G75*
G03*
X130550000Y-128180000I-2500000J0D01*
G01*
%TO.C,D7*%
X129425000Y-110270000D02*
X126335000Y-110270000D01*
X126335170Y-110270000D02*
G75*
G03*
X127880462Y-115820000I1544830J-2560000D01*
G01*
X127879538Y-115820000D02*
G75*
G03*
X129424830Y-110270000I462J2990000D01*
G01*
X130380000Y-112830000D02*
G75*
G03*
X130380000Y-112830000I-2500000J0D01*
G01*
%TO.C,R11*%
X142780000Y-57050000D02*
X142780000Y-59790000D01*
X150090000Y-58420000D02*
X149320000Y-58420000D01*
X142010000Y-58420000D02*
X142780000Y-58420000D01*
X142780000Y-59790000D02*
X149320000Y-59790000D01*
X149320000Y-57050000D02*
X142780000Y-57050000D01*
X149320000Y-59790000D02*
X149320000Y-57050000D01*
%TO.C,J15*%
X175260000Y-141480000D02*
X185420000Y-141480000D01*
X185420000Y-147830000D02*
X185420000Y-140210000D01*
X185420000Y-140210000D02*
X175260000Y-140210000D01*
X175260000Y-147830000D02*
X185420000Y-147830000D01*
X175260000Y-140210000D02*
X175260000Y-147830000D01*
%TO.C,K4*%
X114170000Y-118320000D02*
X111670000Y-118320000D01*
X115070000Y-124320000D02*
X115070000Y-120720000D01*
X103570000Y-128570000D02*
X103570000Y-126070000D01*
X119120000Y-132170000D02*
X119120000Y-125570000D01*
X109670000Y-122520000D02*
X113670000Y-122520000D01*
X99320000Y-132170000D02*
X99320000Y-116570000D01*
X111670000Y-122520000D02*
X111670000Y-118320000D01*
X108270000Y-124320000D02*
X108270000Y-120720000D01*
X109670000Y-126120000D02*
X109670000Y-122520000D01*
X103570000Y-120170000D02*
X103570000Y-122620000D01*
X119120000Y-132170000D02*
X99320000Y-132170000D01*
X111670000Y-130320000D02*
X114170000Y-130320000D01*
X99320000Y-116570000D02*
X119120000Y-116570000D01*
X111670000Y-130320000D02*
X111670000Y-126120000D01*
X119120000Y-123170000D02*
X119120000Y-116570000D01*
X108270000Y-120720000D02*
X115070000Y-120720000D01*
X108270000Y-124320000D02*
X106770000Y-124320000D01*
X115070000Y-124320000D02*
X115870000Y-124320000D01*
X113670000Y-122520000D02*
X113670000Y-126120000D01*
X106770000Y-124320000D02*
X102170000Y-126820000D01*
X109670000Y-122520000D02*
X113670000Y-126120000D01*
X113670000Y-126120000D02*
X109670000Y-126120000D01*
%TO.C,R4*%
X131590000Y-105750000D02*
X131590000Y-112290000D01*
X134330000Y-105750000D02*
X131590000Y-105750000D01*
X132960000Y-113060000D02*
X132960000Y-112290000D01*
X134330000Y-112290000D02*
X134330000Y-105750000D01*
X132960000Y-104980000D02*
X132960000Y-105750000D01*
X131590000Y-112290000D02*
X134330000Y-112290000D01*
%TO.C,J23*%
X90170000Y-49530000D02*
X90170000Y-57150000D01*
X100330000Y-55880000D02*
X90170000Y-55880000D01*
X90170000Y-57150000D02*
X100330000Y-57150000D01*
X100330000Y-57150000D02*
X100330000Y-49530000D01*
X100330000Y-49530000D02*
X90170000Y-49530000D01*
%TO.C,J10*%
X98670000Y-111560000D02*
X98670000Y-101400000D01*
X91050000Y-101400000D02*
X91050000Y-111560000D01*
X91050000Y-111560000D02*
X98670000Y-111560000D01*
X98670000Y-101400000D02*
X91050000Y-101400000D01*
X97400000Y-101400000D02*
X97400000Y-111560000D01*
%TO.C,R5*%
X133130000Y-120330000D02*
X133130000Y-121100000D01*
X133130000Y-128410000D02*
X133130000Y-127640000D01*
X131760000Y-121100000D02*
X131760000Y-127640000D01*
X134500000Y-127640000D02*
X134500000Y-121100000D01*
X134500000Y-121100000D02*
X131760000Y-121100000D01*
X131760000Y-127640000D02*
X134500000Y-127640000D01*
%TO.C,SW1*%
X217110000Y-121920000D02*
X217110000Y-120590000D01*
X217110000Y-120590000D02*
X218440000Y-120590000D01*
X219770000Y-123190000D02*
X219770000Y-128330000D01*
X217110000Y-123190000D02*
X219770000Y-123190000D01*
X217110000Y-123190000D02*
X217110000Y-128330000D01*
X217110000Y-128330000D02*
X219770000Y-128330000D01*
%TO.C,J18*%
X130810000Y-57150000D02*
X130810000Y-49530000D01*
X130810000Y-49530000D02*
X120650000Y-49530000D01*
X120650000Y-49530000D02*
X120650000Y-57150000D01*
X130810000Y-55880000D02*
X120650000Y-55880000D01*
X120650000Y-57150000D02*
X130810000Y-57150000D01*
%TO.C,D1*%
X123390000Y-80300000D02*
X123390000Y-74860000D01*
X120450000Y-79280000D02*
X123390000Y-79280000D01*
X123390000Y-74860000D02*
X120450000Y-74860000D01*
X120450000Y-79520000D02*
X123390000Y-79520000D01*
X120450000Y-79400000D02*
X123390000Y-79400000D01*
X121920000Y-81520000D02*
X121920000Y-80300000D01*
X120450000Y-74860000D02*
X120450000Y-80300000D01*
X120450000Y-80300000D02*
X123390000Y-80300000D01*
X121920000Y-73640000D02*
X121920000Y-74860000D01*
%TO.C,J19*%
X100330000Y-57150000D02*
X110490000Y-57150000D01*
X110490000Y-57150000D02*
X110490000Y-49530000D01*
X100330000Y-49530000D02*
X100330000Y-57150000D01*
X110490000Y-49530000D02*
X100330000Y-49530000D01*
X110490000Y-55880000D02*
X100330000Y-55880000D01*
%TO.C,Q6*%
X142350000Y-111940000D02*
X146200000Y-111940000D01*
X146238611Y-111930122D02*
G75*
G03*
X142350000Y-111940000I-1948611J1690122D01*
G01*
%TO.C,R9*%
X187780000Y-105160000D02*
X187010000Y-105160000D01*
X179700000Y-105160000D02*
X180470000Y-105160000D01*
X180470000Y-103790000D02*
X180470000Y-106530000D01*
X187010000Y-103790000D02*
X180470000Y-103790000D01*
X180470000Y-106530000D02*
X187010000Y-106530000D01*
X187010000Y-106530000D02*
X187010000Y-103790000D01*
%TO.C,J4*%
X146060000Y-73190000D02*
X144730000Y-73190000D01*
X195650000Y-73190000D02*
X195650000Y-70530000D01*
X147330000Y-73190000D02*
X147330000Y-70530000D01*
X144730000Y-73190000D02*
X144730000Y-71860000D01*
X147330000Y-73190000D02*
X195650000Y-73190000D01*
X147330000Y-70530000D02*
X195650000Y-70530000D01*
%TO.C,R14*%
X162790000Y-58420000D02*
X162020000Y-58420000D01*
X155480000Y-57050000D02*
X155480000Y-59790000D01*
X155480000Y-59790000D02*
X162020000Y-59790000D01*
X162020000Y-59790000D02*
X162020000Y-57050000D01*
X162020000Y-57050000D02*
X155480000Y-57050000D01*
X154710000Y-58420000D02*
X155480000Y-58420000D01*
%TO.C,J5*%
X220980000Y-63500000D02*
X220980000Y-88900000D01*
X227330000Y-88900000D02*
X219710000Y-88900000D01*
X227330000Y-63500000D02*
X227330000Y-88900000D01*
X219710000Y-63500000D02*
X219710000Y-88900000D01*
X227330000Y-63500000D02*
X219710000Y-63500000D01*
%TO.C,J13*%
X139700000Y-141480000D02*
X149860000Y-141480000D01*
X139700000Y-147830000D02*
X149860000Y-147830000D01*
X149860000Y-140210000D02*
X139700000Y-140210000D01*
X149860000Y-147830000D02*
X149860000Y-140210000D01*
X139700000Y-140210000D02*
X139700000Y-147830000D01*
%TO.C,D4*%
X124440000Y-127090000D02*
X124440000Y-121650000D01*
X122970000Y-120430000D02*
X122970000Y-121650000D01*
X121500000Y-121650000D02*
X121500000Y-127090000D01*
X121500000Y-126070000D02*
X124440000Y-126070000D01*
X121500000Y-126310000D02*
X124440000Y-126310000D01*
X121500000Y-127090000D02*
X124440000Y-127090000D01*
X121500000Y-126190000D02*
X124440000Y-126190000D01*
X124440000Y-121650000D02*
X121500000Y-121650000D01*
X122970000Y-128310000D02*
X122970000Y-127090000D01*
%TO.C,R15*%
X136620000Y-59790000D02*
X136620000Y-57050000D01*
X130080000Y-57050000D02*
X130080000Y-59790000D01*
X136620000Y-57050000D02*
X130080000Y-57050000D01*
X130080000Y-59790000D02*
X136620000Y-59790000D01*
X129310000Y-58420000D02*
X130080000Y-58420000D01*
X137390000Y-58420000D02*
X136620000Y-58420000D01*
%TO.C,R7*%
X144140000Y-105160000D02*
X144910000Y-105160000D01*
X152220000Y-105160000D02*
X151450000Y-105160000D01*
X144910000Y-106530000D02*
X151450000Y-106530000D01*
X144910000Y-103790000D02*
X144910000Y-106530000D01*
X151450000Y-106530000D02*
X151450000Y-103790000D01*
X151450000Y-103790000D02*
X144910000Y-103790000D01*
%TO.C,J22*%
X110490000Y-57150000D02*
X120650000Y-57150000D01*
X110490000Y-49530000D02*
X110490000Y-57150000D01*
X120650000Y-57150000D02*
X120650000Y-49530000D01*
X120650000Y-49530000D02*
X110490000Y-49530000D01*
X120650000Y-55880000D02*
X110490000Y-55880000D01*
%TO.C,K1*%
X109670000Y-75730000D02*
X113670000Y-79330000D01*
X111670000Y-83530000D02*
X111670000Y-79330000D01*
X103570000Y-81780000D02*
X103570000Y-79280000D01*
X108270000Y-77530000D02*
X106770000Y-77530000D01*
X99320000Y-85380000D02*
X99320000Y-69780000D01*
X119120000Y-85380000D02*
X99320000Y-85380000D01*
X109670000Y-75730000D02*
X113670000Y-75730000D01*
X109670000Y-79330000D02*
X109670000Y-75730000D01*
X111670000Y-75730000D02*
X111670000Y-71530000D01*
X113670000Y-75730000D02*
X113670000Y-79330000D01*
X106770000Y-77530000D02*
X102170000Y-80030000D01*
X115070000Y-77530000D02*
X115070000Y-73930000D01*
X119120000Y-76380000D02*
X119120000Y-69780000D01*
X103570000Y-73380000D02*
X103570000Y-75830000D01*
X115070000Y-77530000D02*
X115870000Y-77530000D01*
X113670000Y-79330000D02*
X109670000Y-79330000D01*
X108270000Y-77530000D02*
X108270000Y-73930000D01*
X99320000Y-69780000D02*
X119120000Y-69780000D01*
X108270000Y-73930000D02*
X115070000Y-73930000D01*
X119120000Y-85380000D02*
X119120000Y-78780000D01*
X114170000Y-71530000D02*
X111670000Y-71530000D01*
X111670000Y-83530000D02*
X114170000Y-83530000D01*
%TO.C,Q1*%
X125300000Y-71750000D02*
X125300000Y-75600000D01*
X125309878Y-75638611D02*
G75*
G03*
X125300000Y-71750000I1690122J1948611D01*
G01*
%TO.C,J16*%
X171450000Y-49530000D02*
X161290000Y-49530000D01*
X161290000Y-49530000D02*
X161290000Y-57150000D01*
X171450000Y-57150000D02*
X171450000Y-49530000D01*
X171450000Y-55880000D02*
X161290000Y-55880000D01*
X161290000Y-57150000D02*
X171450000Y-57150000D01*
%TO.C,J14*%
X157480000Y-140210000D02*
X157480000Y-147830000D01*
X157480000Y-147830000D02*
X167640000Y-147830000D01*
X157480000Y-141480000D02*
X167640000Y-141480000D01*
X167640000Y-147830000D02*
X167640000Y-140210000D01*
X167640000Y-140210000D02*
X157480000Y-140210000D01*
%TO.C,J8*%
X90170000Y-69960000D02*
X90170000Y-80120000D01*
X97790000Y-69960000D02*
X90170000Y-69960000D01*
X96520000Y-69960000D02*
X96520000Y-80120000D01*
X97790000Y-80120000D02*
X97790000Y-69960000D01*
X90170000Y-80120000D02*
X97790000Y-80120000D01*
%TO.C,J6*%
X171370000Y-57150000D02*
X171370000Y-49530000D01*
X171370000Y-55880000D02*
X186610000Y-55880000D01*
X186610000Y-57150000D02*
X186610000Y-49530000D01*
X171370000Y-57150000D02*
X186610000Y-57150000D01*
X171370000Y-49530000D02*
X186610000Y-49530000D01*
%TO.C,D15*%
X168050000Y-109455000D02*
X168050000Y-112545000D01*
X173600000Y-111000462D02*
G75*
G03*
X168050000Y-109455170I-2990000J462D01*
G01*
X168050000Y-112544830D02*
G75*
G03*
X173600000Y-110999538I2560000J1544830D01*
G01*
X173110000Y-111000000D02*
G75*
G03*
X173110000Y-111000000I-2500000J0D01*
G01*
%TO.C,R6*%
X133600000Y-145440000D02*
X133600000Y-144670000D01*
X134970000Y-138130000D02*
X132230000Y-138130000D01*
X132230000Y-144670000D02*
X134970000Y-144670000D01*
X134970000Y-144670000D02*
X134970000Y-138130000D01*
X132230000Y-138130000D02*
X132230000Y-144670000D01*
X133600000Y-137360000D02*
X133600000Y-138130000D01*
%TO.C,D13*%
X129305000Y-142650000D02*
X126215000Y-142650000D01*
X126215170Y-142650000D02*
G75*
G03*
X127760462Y-148200000I1544830J-2560000D01*
G01*
X127759538Y-148200000D02*
G75*
G03*
X129304830Y-142650000I462J2990000D01*
G01*
X130260000Y-145210000D02*
G75*
G03*
X130260000Y-145210000I-2500000J0D01*
G01*
%TO.C,K8*%
X187080000Y-135190000D02*
X184580000Y-135190000D01*
X182830000Y-123690000D02*
X179230000Y-123690000D01*
X182830000Y-130490000D02*
X182830000Y-131990000D01*
X181030000Y-129090000D02*
X181030000Y-125090000D01*
X182830000Y-131990000D02*
X185330000Y-136590000D01*
X182830000Y-130490000D02*
X179230000Y-130490000D01*
X190680000Y-119640000D02*
X184080000Y-119640000D01*
X181680000Y-119640000D02*
X175080000Y-119640000D01*
X181030000Y-127090000D02*
X176830000Y-127090000D01*
X178680000Y-135190000D02*
X181130000Y-135190000D01*
X176830000Y-124590000D02*
X176830000Y-127090000D01*
X181030000Y-125090000D02*
X184630000Y-125090000D01*
X188830000Y-127090000D02*
X188830000Y-124590000D01*
X184630000Y-125090000D02*
X184630000Y-129090000D01*
X175080000Y-139440000D02*
X175080000Y-119640000D01*
X188830000Y-127090000D02*
X184630000Y-127090000D01*
X182830000Y-123690000D02*
X182830000Y-122890000D01*
X184630000Y-129090000D02*
X181030000Y-129090000D01*
X190680000Y-119640000D02*
X190680000Y-139440000D01*
X179230000Y-130490000D02*
X179230000Y-123690000D01*
X190680000Y-139440000D02*
X175080000Y-139440000D01*
X181030000Y-129090000D02*
X184630000Y-125090000D01*
%TO.C,D3*%
X122800000Y-105080000D02*
X122800000Y-106300000D01*
X121330000Y-110960000D02*
X124270000Y-110960000D01*
X124270000Y-111740000D02*
X124270000Y-106300000D01*
X121330000Y-110720000D02*
X124270000Y-110720000D01*
X124270000Y-106300000D02*
X121330000Y-106300000D01*
X121330000Y-110840000D02*
X124270000Y-110840000D01*
X122800000Y-112960000D02*
X122800000Y-111740000D01*
X121330000Y-106300000D02*
X121330000Y-111740000D01*
X121330000Y-111740000D02*
X124270000Y-111740000D01*
%TO.C,K5*%
X103570000Y-135500000D02*
X103570000Y-137950000D01*
X108270000Y-139650000D02*
X108270000Y-136050000D01*
X113670000Y-137850000D02*
X113670000Y-141450000D01*
X111670000Y-137850000D02*
X111670000Y-133650000D01*
X119120000Y-147500000D02*
X119120000Y-140900000D01*
X109670000Y-137850000D02*
X113670000Y-141450000D01*
X109670000Y-141450000D02*
X109670000Y-137850000D01*
X114170000Y-133650000D02*
X111670000Y-133650000D01*
X115070000Y-139650000D02*
X115070000Y-136050000D01*
X119120000Y-138500000D02*
X119120000Y-131900000D01*
X108270000Y-136050000D02*
X115070000Y-136050000D01*
X99320000Y-131900000D02*
X119120000Y-131900000D01*
X109670000Y-137850000D02*
X113670000Y-137850000D01*
X111670000Y-145650000D02*
X111670000Y-141450000D01*
X99320000Y-147500000D02*
X99320000Y-131900000D01*
X119120000Y-147500000D02*
X99320000Y-147500000D01*
X106770000Y-139650000D02*
X102170000Y-142150000D01*
X103570000Y-143900000D02*
X103570000Y-141400000D01*
X115070000Y-139650000D02*
X115870000Y-139650000D01*
X113670000Y-141450000D02*
X109670000Y-141450000D01*
X108270000Y-139650000D02*
X106770000Y-139650000D01*
X111670000Y-145650000D02*
X114170000Y-145650000D01*
%TO.C,J7*%
X206930000Y-55880000D02*
X186610000Y-55880000D01*
X186610000Y-49530000D02*
X186610000Y-57150000D01*
X186610000Y-49530000D02*
X206930000Y-49530000D01*
X206930000Y-57150000D02*
X206930000Y-49530000D01*
X186610000Y-57150000D02*
X206930000Y-57150000D01*
%TO.C,J21*%
X140970000Y-57150000D02*
X140970000Y-49530000D01*
X130810000Y-57150000D02*
X140970000Y-57150000D01*
X130810000Y-49530000D02*
X130810000Y-57150000D01*
X140970000Y-55880000D02*
X130810000Y-55880000D01*
X140970000Y-49530000D02*
X130810000Y-49530000D01*
%TO.C,D6*%
X128565000Y-94860000D02*
X125475000Y-94860000D01*
X127019538Y-100410000D02*
G75*
G03*
X128564830Y-94860000I462J2990000D01*
G01*
X125475170Y-94860000D02*
G75*
G03*
X127020462Y-100410000I1544830J-2560000D01*
G01*
X129520000Y-97420000D02*
G75*
G03*
X129520000Y-97420000I-2500000J0D01*
G01*
%TO.C,R8*%
X161920000Y-105160000D02*
X162690000Y-105160000D01*
X170000000Y-105160000D02*
X169230000Y-105160000D01*
X162690000Y-106530000D02*
X169230000Y-106530000D01*
X169230000Y-106530000D02*
X169230000Y-103790000D01*
X169230000Y-103790000D02*
X162690000Y-103790000D01*
X162690000Y-103790000D02*
X162690000Y-106530000D01*
%TO.C,J3*%
X147330000Y-69910000D02*
X195650000Y-69910000D01*
X146060000Y-69910000D02*
X144730000Y-69910000D01*
X144730000Y-69910000D02*
X144730000Y-68580000D01*
X147330000Y-67250000D02*
X195650000Y-67250000D01*
X147330000Y-69910000D02*
X147330000Y-67250000D01*
X195650000Y-69910000D02*
X195650000Y-67250000D01*
%TO.C,D12*%
X186280000Y-117550000D02*
X186280000Y-114610000D01*
X181860000Y-117550000D02*
X187300000Y-117550000D01*
X186400000Y-117550000D02*
X186400000Y-114610000D01*
X186520000Y-117550000D02*
X186520000Y-114610000D01*
X188520000Y-116080000D02*
X187300000Y-116080000D01*
X181860000Y-114610000D02*
X181860000Y-117550000D01*
X187300000Y-114610000D02*
X181860000Y-114610000D01*
X187300000Y-117550000D02*
X187300000Y-114610000D01*
X180640000Y-116080000D02*
X181860000Y-116080000D01*
%TO.C,D11*%
X169520000Y-114610000D02*
X164080000Y-114610000D01*
X168740000Y-117550000D02*
X168740000Y-114610000D01*
X168620000Y-117550000D02*
X168620000Y-114610000D01*
X169520000Y-117550000D02*
X169520000Y-114610000D01*
X162860000Y-116080000D02*
X164080000Y-116080000D01*
X164080000Y-114610000D02*
X164080000Y-117550000D01*
X170740000Y-116080000D02*
X169520000Y-116080000D01*
X168500000Y-117550000D02*
X168500000Y-114610000D01*
X164080000Y-117550000D02*
X169520000Y-117550000D01*
%TO.C,Q8*%
X177910000Y-111940000D02*
X181760000Y-111940000D01*
X181798611Y-111930122D02*
G75*
G03*
X177910000Y-111940000I-1948611J1690122D01*
G01*
%TO.C,D10*%
X151740000Y-114610000D02*
X146300000Y-114610000D01*
X150720000Y-117550000D02*
X150720000Y-114610000D01*
X150840000Y-117550000D02*
X150840000Y-114610000D01*
X145080000Y-116080000D02*
X146300000Y-116080000D01*
X151740000Y-117550000D02*
X151740000Y-114610000D01*
X152960000Y-116080000D02*
X151740000Y-116080000D01*
X150960000Y-117550000D02*
X150960000Y-114610000D01*
X146300000Y-114610000D02*
X146300000Y-117550000D01*
X146300000Y-117550000D02*
X151740000Y-117550000D01*
%TO.C,Q5*%
X126820000Y-134730000D02*
X126820000Y-138580000D01*
X126829878Y-138618611D02*
G75*
G03*
X126820000Y-134730000I1690122J1948611D01*
G01*
%TO.C,K3*%
X119120000Y-107820000D02*
X119120000Y-101220000D01*
X99320000Y-101220000D02*
X119120000Y-101220000D01*
X108270000Y-108970000D02*
X106770000Y-108970000D01*
X113670000Y-110770000D02*
X109670000Y-110770000D01*
X108270000Y-105370000D02*
X115070000Y-105370000D01*
X115070000Y-108970000D02*
X115070000Y-105370000D01*
X109670000Y-107170000D02*
X113670000Y-107170000D01*
X111670000Y-114970000D02*
X111670000Y-110770000D01*
X108270000Y-108970000D02*
X108270000Y-105370000D01*
X119120000Y-116820000D02*
X119120000Y-110220000D01*
X103570000Y-104820000D02*
X103570000Y-107270000D01*
X111670000Y-107170000D02*
X111670000Y-102970000D01*
X103570000Y-113220000D02*
X103570000Y-110720000D01*
X113670000Y-107170000D02*
X113670000Y-110770000D01*
X111670000Y-114970000D02*
X114170000Y-114970000D01*
X109670000Y-107170000D02*
X113670000Y-110770000D01*
X106770000Y-108970000D02*
X102170000Y-111470000D01*
X115070000Y-108970000D02*
X115870000Y-108970000D01*
X99320000Y-116820000D02*
X99320000Y-101220000D01*
X119120000Y-116820000D02*
X99320000Y-116820000D01*
X109670000Y-110770000D02*
X109670000Y-107170000D01*
X114170000Y-102970000D02*
X111670000Y-102970000D01*
%TO.C,R10*%
X168100000Y-57050000D02*
X168100000Y-59790000D01*
X175410000Y-58420000D02*
X174640000Y-58420000D01*
X168100000Y-59790000D02*
X174640000Y-59790000D01*
X167330000Y-58420000D02*
X168100000Y-58420000D01*
X174640000Y-57050000D02*
X168100000Y-57050000D01*
X174640000Y-59790000D02*
X174640000Y-57050000D01*
%TO.C,D9*%
X121210000Y-143220000D02*
X124150000Y-143220000D01*
X121210000Y-138680000D02*
X121210000Y-144120000D01*
X122680000Y-145340000D02*
X122680000Y-144120000D01*
X122680000Y-137460000D02*
X122680000Y-138680000D01*
X121210000Y-144120000D02*
X124150000Y-144120000D01*
X124150000Y-144120000D02*
X124150000Y-138680000D01*
X121210000Y-143340000D02*
X124150000Y-143340000D01*
X121210000Y-143100000D02*
X124150000Y-143100000D01*
X124150000Y-138680000D02*
X121210000Y-138680000D01*
%TO.C,D2*%
X121940000Y-89670000D02*
X121940000Y-90890000D01*
X120470000Y-95310000D02*
X123410000Y-95310000D01*
X121940000Y-97550000D02*
X121940000Y-96330000D01*
X120470000Y-90890000D02*
X120470000Y-96330000D01*
X123410000Y-90890000D02*
X120470000Y-90890000D01*
X123410000Y-96330000D02*
X123410000Y-90890000D01*
X120470000Y-96330000D02*
X123410000Y-96330000D01*
X120470000Y-95430000D02*
X123410000Y-95430000D01*
X120470000Y-95550000D02*
X123410000Y-95550000D01*
%TO.C,Q2*%
X125320000Y-87780000D02*
X125320000Y-91630000D01*
X125329878Y-91668611D02*
G75*
G03*
X125320000Y-87780000I1690122J1948611D01*
G01*
%TD*%
M02*
