%TF.GenerationSoftware,KiCad,Pcbnew,(6.0.5)*%
%TF.CreationDate,2024-03-19T18:28:54+03:00*%
%TF.ProjectId,gas_detection,6761735f-6465-4746-9563-74696f6e2e6b,rev?*%
%TF.SameCoordinates,Original*%
%TF.FileFunction,Copper,L1,Top*%
%TF.FilePolarity,Positive*%
%FSLAX46Y46*%
G04 Gerber Fmt 4.6, Leading zero omitted, Abs format (unit mm)*
G04 Created by KiCad (PCBNEW (6.0.5)) date 2024-03-19 18:28:54*
%MOMM*%
%LPD*%
G01*
G04 APERTURE LIST*
%TA.AperFunction,ComponentPad*%
%ADD10R,1.050000X1.500000*%
%TD*%
%TA.AperFunction,ComponentPad*%
%ADD11O,1.050000X1.500000*%
%TD*%
%TA.AperFunction,ComponentPad*%
%ADD12C,1.600000*%
%TD*%
%TA.AperFunction,ComponentPad*%
%ADD13O,1.600000X1.600000*%
%TD*%
%TA.AperFunction,ComponentPad*%
%ADD14C,3.000000*%
%TD*%
%TA.AperFunction,ComponentPad*%
%ADD15C,2.500000*%
%TD*%
%TA.AperFunction,ComponentPad*%
%ADD16R,3.000000X3.000000*%
%TD*%
%TA.AperFunction,ComponentPad*%
%ADD17R,2.600000X2.600000*%
%TD*%
%TA.AperFunction,ComponentPad*%
%ADD18C,2.600000*%
%TD*%
%TA.AperFunction,ComponentPad*%
%ADD19C,7.500000*%
%TD*%
%TA.AperFunction,ComponentPad*%
%ADD20R,1.800000X1.800000*%
%TD*%
%TA.AperFunction,ComponentPad*%
%ADD21C,1.800000*%
%TD*%
%TA.AperFunction,ComponentPad*%
%ADD22R,1.700000X1.700000*%
%TD*%
%TA.AperFunction,ComponentPad*%
%ADD23O,1.700000X1.700000*%
%TD*%
%TA.AperFunction,ComponentPad*%
%ADD24R,1.500000X1.050000*%
%TD*%
%TA.AperFunction,ComponentPad*%
%ADD25O,1.500000X1.050000*%
%TD*%
%TA.AperFunction,ComponentPad*%
%ADD26O,1.800000X1.800000*%
%TD*%
%TA.AperFunction,ComponentPad*%
%ADD27R,2.500000X2.500000*%
%TD*%
%TA.AperFunction,Conductor*%
%ADD28C,0.600000*%
%TD*%
%TA.AperFunction,Conductor*%
%ADD29C,0.400000*%
%TD*%
%TA.AperFunction,Conductor*%
%ADD30C,3.000000*%
%TD*%
G04 APERTURE END LIST*
D10*
%TO.P,Q7,1,E*%
%TO.N,GND*%
X160880000Y-110240000D03*
D11*
%TO.P,Q7,2,B*%
%TO.N,Net-(Q7-Pad2)*%
X162150000Y-110240000D03*
%TO.P,Q7,3,C*%
%TO.N,Net-(D11-Pad2)*%
X163420000Y-110240000D03*
%TD*%
D12*
%TO.P,R13,1*%
%TO.N,Float_Chamber4_min*%
X102870000Y-58420000D03*
D13*
%TO.P,R13,2*%
%TO.N,GND*%
X102870000Y-68580000D03*
%TD*%
D14*
%TO.P,K7,1*%
%TO.N,Net-(J14-Pad1)*%
X165100000Y-121040000D03*
D15*
%TO.P,K7,2*%
%TO.N,Net-(D11-Pad2)*%
X159050000Y-122990000D03*
D14*
%TO.P,K7,3*%
%TO.N,Net-(J14-Pad2)*%
X159050000Y-135190000D03*
%TO.P,K7,4*%
%TO.N,unconnected-(K7-Pad4)*%
X171100000Y-135240000D03*
D15*
%TO.P,K7,5*%
%TO.N,+5V*%
X171050000Y-122990000D03*
%TD*%
D14*
%TO.P,K6,1*%
%TO.N,Net-(J13-Pad1)*%
X147320000Y-121040000D03*
D15*
%TO.P,K6,2*%
%TO.N,Net-(D10-Pad2)*%
X141270000Y-122990000D03*
D14*
%TO.P,K6,3*%
%TO.N,Net-(J13-Pad2)*%
X141270000Y-135190000D03*
%TO.P,K6,4*%
%TO.N,unconnected-(K6-Pad4)*%
X153320000Y-135240000D03*
D15*
%TO.P,K6,5*%
%TO.N,+5V*%
X153270000Y-122990000D03*
%TD*%
D16*
%TO.P,J17,1,Pin_1*%
%TO.N,Float_Chamber2_min*%
X143510000Y-53340000D03*
D14*
%TO.P,J17,2,Pin_2*%
%TO.N,+3V3*%
X148590000Y-53340000D03*
%TD*%
D17*
%TO.P,J1,1*%
%TO.N,Net-(J1-Pad1)*%
X217320000Y-137910000D03*
D18*
%TO.P,J1,2*%
%TO.N,GND*%
X223320000Y-137910000D03*
%TO.P,J1,3*%
X220320000Y-133210000D03*
%TD*%
D16*
%TO.P,J12,1,Pin_1*%
%TO.N,Net-(J12-Pad1)*%
X94740000Y-139700000D03*
D14*
%TO.P,J12,2,Pin_2*%
%TO.N,Net-(J12-Pad2)*%
X94740000Y-134620000D03*
%TD*%
D19*
%TO.P,H4,1*%
%TO.N,N/C*%
X82550000Y-49530000D03*
%TD*%
D20*
%TO.P,D14,1,K*%
%TO.N,Net-(D14-Pad1)*%
X151560000Y-111000000D03*
D21*
%TO.P,D14,2,A*%
%TO.N,Solenoid2_Output*%
X154100000Y-111000000D03*
%TD*%
D16*
%TO.P,J11,1,Pin_1*%
%TO.N,Net-(J11-Pad1)*%
X95030000Y-124370000D03*
D14*
%TO.P,J11,2,Pin_2*%
%TO.N,Net-(J11-Pad2)*%
X95030000Y-119290000D03*
%TD*%
D12*
%TO.P,R2,1*%
%TO.N,Net-(D5-Pad1)*%
X132080000Y-82660000D03*
D13*
%TO.P,R2,2*%
%TO.N,Net-(Q1-Pad2)*%
X132080000Y-72500000D03*
%TD*%
D19*
%TO.P,H2,1*%
%TO.N,N/C*%
X83820000Y-147320000D03*
%TD*%
D22*
%TO.P,J2,1,Pin_1*%
%TO.N,Float_Chamber1_min*%
X146055000Y-86360000D03*
D23*
%TO.P,J2,2,Pin_2*%
%TO.N,Float_Chamber1_max*%
X148595000Y-86360000D03*
%TO.P,J2,3,Pin_3*%
%TO.N,Float_Chamber2_min*%
X151135000Y-86360000D03*
%TO.P,J2,4,Pin_4*%
%TO.N,Float_Chamber2_max*%
X153675000Y-86360000D03*
%TO.P,J2,5,Pin_5*%
%TO.N,Float_Chamber3_min*%
X156215000Y-86360000D03*
%TO.P,J2,6,Pin_6*%
%TO.N,Float_Chamber3_max*%
X158755000Y-86360000D03*
%TO.P,J2,7,Pin_7*%
%TO.N,Float_Chamber4_min*%
X161295000Y-86360000D03*
%TO.P,J2,8,Pin_8*%
%TO.N,Float_Chamber4_max*%
X163835000Y-86360000D03*
%TO.P,J2,9,Pin_9*%
%TO.N,Electrode1_Output*%
X166375000Y-86360000D03*
%TO.P,J2,10,Pin_10*%
%TO.N,Electrode2_Output*%
X168915000Y-86360000D03*
%TO.P,J2,11,Pin_11*%
%TO.N,Electrode3_Output*%
X171455000Y-86360000D03*
%TO.P,J2,12,Pin_12*%
%TO.N,Electrode4_Output*%
X173995000Y-86360000D03*
%TO.P,J2,13,Pin_13*%
%TO.N,Solenoid1_Output*%
X176535000Y-86360000D03*
%TO.P,J2,14,Pin_14*%
%TO.N,Solenoid2_Output*%
X179075000Y-86360000D03*
%TO.P,J2,15,Pin_15*%
%TO.N,Solenoid3_Output*%
X181615000Y-86360000D03*
%TO.P,J2,16,Pin_16*%
%TO.N,Solenoid4_Output*%
X184155000Y-86360000D03*
%TO.P,J2,17,Pin_17*%
%TO.N,OLED_SDA*%
X186695000Y-86360000D03*
%TO.P,J2,18,Pin_18*%
%TO.N,+5V*%
X189235000Y-86360000D03*
%TO.P,J2,19,Pin_19*%
%TO.N,GND*%
X191775000Y-86360000D03*
%TO.P,J2,20,Pin_20*%
%TO.N,+3V3*%
X194315000Y-86360000D03*
%TD*%
D19*
%TO.P,H3,1*%
%TO.N,N/C*%
X223520000Y-49530000D03*
%TD*%
D12*
%TO.P,R1,1*%
%TO.N,Gas_Pressure_Out*%
X178990000Y-58420000D03*
D13*
%TO.P,R1,2*%
%TO.N,GND*%
X189150000Y-58420000D03*
%TD*%
D24*
%TO.P,Q3,1,E*%
%TO.N,GND*%
X127880000Y-103940000D03*
D25*
%TO.P,Q3,2,B*%
%TO.N,Net-(Q3-Pad2)*%
X127880000Y-105210000D03*
%TO.P,Q3,3,C*%
%TO.N,Net-(D3-Pad2)*%
X127880000Y-106480000D03*
%TD*%
D16*
%TO.P,J20,1,Pin_1*%
%TO.N,Float_Chamber1_max*%
X153670000Y-53340000D03*
D14*
%TO.P,J20,2,Pin_2*%
%TO.N,+3V3*%
X158750000Y-53340000D03*
%TD*%
D16*
%TO.P,J9,1,Pin_1*%
%TO.N,Net-(J9-Pad1)*%
X94000000Y-93610000D03*
D14*
%TO.P,J9,2,Pin_2*%
%TO.N,Net-(J9-Pad2)*%
X94000000Y-88530000D03*
%TD*%
D20*
%TO.P,D5,1,K*%
%TO.N,Net-(D5-Pad1)*%
X127000000Y-80120000D03*
D21*
%TO.P,D5,2,A*%
%TO.N,Electrode1_Output*%
X127000000Y-82660000D03*
%TD*%
D14*
%TO.P,K2,1*%
%TO.N,Net-(J9-Pad1)*%
X117740000Y-93610000D03*
D15*
%TO.P,K2,2*%
%TO.N,Net-(D2-Pad2)*%
X115790000Y-87560000D03*
D14*
%TO.P,K2,3*%
%TO.N,Net-(J9-Pad2)*%
X103590000Y-87560000D03*
%TO.P,K2,4*%
%TO.N,unconnected-(K2-Pad4)*%
X103540000Y-99610000D03*
D15*
%TO.P,K2,5*%
%TO.N,+5V*%
X115790000Y-99560000D03*
%TD*%
D24*
%TO.P,Q4,1,E*%
%TO.N,GND*%
X128050000Y-119290000D03*
D25*
%TO.P,Q4,2,B*%
%TO.N,Net-(Q4-Pad2)*%
X128050000Y-120560000D03*
%TO.P,Q4,3,C*%
%TO.N,Net-(D4-Pad2)*%
X128050000Y-121830000D03*
%TD*%
D12*
%TO.P,R3,1*%
%TO.N,Net-(D6-Pad1)*%
X132100000Y-98690000D03*
D13*
%TO.P,R3,2*%
%TO.N,Net-(Q2-Pad2)*%
X132100000Y-88530000D03*
%TD*%
D20*
%TO.P,D16,1,K*%
%TO.N,Net-(D16-Pad1)*%
X187120000Y-111000000D03*
D21*
%TO.P,D16,2,A*%
%TO.N,Solenoid4_Output*%
X189660000Y-111000000D03*
%TD*%
D12*
%TO.P,R17,1*%
%TO.N,Float_Chamber4_max*%
X92630000Y-58420000D03*
D13*
%TO.P,R17,2*%
%TO.N,GND*%
X92630000Y-68580000D03*
%TD*%
D12*
%TO.P,R12,1*%
%TO.N,Float_Chamber3_min*%
X123110000Y-58420000D03*
D13*
%TO.P,R12,2*%
%TO.N,GND*%
X123110000Y-68580000D03*
%TD*%
D12*
%TO.P,R16,1*%
%TO.N,Float_Chamber3_max*%
X113030000Y-58420000D03*
D13*
%TO.P,R16,2*%
%TO.N,GND*%
X113030000Y-68580000D03*
%TD*%
D20*
%TO.P,D8,1,K*%
%TO.N,Net-(D8-Pad1)*%
X128050000Y-126910000D03*
D21*
%TO.P,D8,2,A*%
%TO.N,Electrode4_Output*%
X128050000Y-129450000D03*
%TD*%
D20*
%TO.P,D7,1,K*%
%TO.N,Net-(D7-Pad1)*%
X127880000Y-111560000D03*
D21*
%TO.P,D7,2,A*%
%TO.N,Electrode3_Output*%
X127880000Y-114100000D03*
%TD*%
D12*
%TO.P,R11,1*%
%TO.N,Float_Chamber2_min*%
X140970000Y-58420000D03*
D13*
%TO.P,R11,2*%
%TO.N,GND*%
X151130000Y-58420000D03*
%TD*%
D16*
%TO.P,J15,1,Pin_1*%
%TO.N,Net-(J15-Pad1)*%
X182880000Y-144020000D03*
D14*
%TO.P,J15,2,Pin_2*%
%TO.N,Net-(J15-Pad2)*%
X177800000Y-144020000D03*
%TD*%
%TO.P,K4,1*%
%TO.N,Net-(J11-Pad1)*%
X117720000Y-124370000D03*
D15*
%TO.P,K4,2*%
%TO.N,Net-(D4-Pad2)*%
X115770000Y-118320000D03*
D14*
%TO.P,K4,3*%
%TO.N,Net-(J11-Pad2)*%
X103570000Y-118320000D03*
%TO.P,K4,4*%
%TO.N,unconnected-(K4-Pad4)*%
X103520000Y-130370000D03*
D15*
%TO.P,K4,5*%
%TO.N,+5V*%
X115770000Y-130320000D03*
%TD*%
D12*
%TO.P,R4,1*%
%TO.N,Net-(D7-Pad1)*%
X132960000Y-114100000D03*
D13*
%TO.P,R4,2*%
%TO.N,Net-(Q3-Pad2)*%
X132960000Y-103940000D03*
%TD*%
D16*
%TO.P,J23,1,Pin_1*%
%TO.N,Float_Chamber4_max*%
X92710000Y-53340000D03*
D14*
%TO.P,J23,2,Pin_2*%
%TO.N,+3V3*%
X97790000Y-53340000D03*
%TD*%
D16*
%TO.P,J10,1,Pin_1*%
%TO.N,Net-(J10-Pad1)*%
X94860000Y-109020000D03*
D14*
%TO.P,J10,2,Pin_2*%
%TO.N,Net-(J10-Pad2)*%
X94860000Y-103940000D03*
%TD*%
D12*
%TO.P,R5,1*%
%TO.N,Net-(D8-Pad1)*%
X133130000Y-129450000D03*
D13*
%TO.P,R5,2*%
%TO.N,Net-(Q4-Pad2)*%
X133130000Y-119290000D03*
%TD*%
D22*
%TO.P,SW1,1,A*%
%TO.N,GND*%
X218440000Y-121920000D03*
D23*
%TO.P,SW1,2,B*%
%TO.N,Net-(J1-Pad1)*%
X218440000Y-124460000D03*
%TO.P,SW1,3,C*%
%TO.N,+24V*%
X218440000Y-127000000D03*
%TD*%
D16*
%TO.P,J18,1,Pin_1*%
%TO.N,Float_Chamber3_min*%
X123190000Y-53340000D03*
D14*
%TO.P,J18,2,Pin_2*%
%TO.N,+3V3*%
X128270000Y-53340000D03*
%TD*%
D20*
%TO.P,D1,1,K*%
%TO.N,+5V*%
X121920000Y-82660000D03*
D26*
%TO.P,D1,2,A*%
%TO.N,Net-(D1-Pad2)*%
X121920000Y-72500000D03*
%TD*%
D16*
%TO.P,J19,1,Pin_1*%
%TO.N,Float_Chamber4_min*%
X102870000Y-53340000D03*
D14*
%TO.P,J19,2,Pin_2*%
%TO.N,+3V3*%
X107950000Y-53340000D03*
%TD*%
D10*
%TO.P,Q6,1,E*%
%TO.N,GND*%
X143100000Y-110240000D03*
D11*
%TO.P,Q6,2,B*%
%TO.N,Net-(Q6-Pad2)*%
X144370000Y-110240000D03*
%TO.P,Q6,3,C*%
%TO.N,Net-(D10-Pad2)*%
X145640000Y-110240000D03*
%TD*%
D12*
%TO.P,R9,1*%
%TO.N,Net-(D16-Pad1)*%
X188820000Y-105160000D03*
D13*
%TO.P,R9,2*%
%TO.N,Net-(Q8-Pad2)*%
X178660000Y-105160000D03*
%TD*%
D27*
%TO.P,U1,1,IN+*%
%TO.N,+24V*%
X199805000Y-101810000D03*
%TO.P,U1,2,IN-*%
%TO.N,GND*%
X216865000Y-101810000D03*
%TO.P,U1,3,OUT+*%
%TO.N,+3V3*%
X199805000Y-60750000D03*
%TO.P,U1,4,OUT-*%
%TO.N,GND*%
X216865000Y-60750000D03*
%TD*%
D22*
%TO.P,J4,1,Pin_1*%
%TO.N,+5V*%
X146060000Y-71860000D03*
D23*
%TO.P,J4,2,Pin_2*%
%TO.N,GND*%
X148600000Y-71860000D03*
%TO.P,J4,3,Pin_3*%
%TO.N,+3V3*%
X151140000Y-71860000D03*
%TO.P,J4,4,Pin_4*%
%TO.N,OLED_SCL*%
X153680000Y-71860000D03*
%TO.P,J4,5,Pin_5*%
%TO.N,OLED_RST*%
X156220000Y-71860000D03*
%TO.P,J4,6,Pin_6*%
%TO.N,Gas_Pressure_Out*%
X158760000Y-71860000D03*
%TO.P,J4,7,Pin_7*%
%TO.N,/general_layout/PB0*%
X161300000Y-71860000D03*
%TO.P,J4,8,Pin_8*%
%TO.N,/general_layout/PA7*%
X163840000Y-71860000D03*
%TO.P,J4,9,Pin_9*%
%TO.N,/general_layout/PA6*%
X166380000Y-71860000D03*
%TO.P,J4,10,Pin_10*%
%TO.N,/general_layout/PA5*%
X168920000Y-71860000D03*
%TO.P,J4,11,Pin_11*%
%TO.N,/general_layout/PA4*%
X171460000Y-71860000D03*
%TO.P,J4,12,Pin_12*%
%TO.N,Gas_Flowrate_Tx*%
X174000000Y-71860000D03*
%TO.P,J4,13,Pin_13*%
%TO.N,Gas_Flowrate_Rx*%
X176540000Y-71860000D03*
%TO.P,J4,14,Pin_14*%
%TO.N,/general_layout/PA1*%
X179080000Y-71860000D03*
%TO.P,J4,15,Pin_15*%
%TO.N,/general_layout/PA0*%
X181620000Y-71860000D03*
%TO.P,J4,16,Pin_16*%
%TO.N,/general_layout/NRST*%
X184160000Y-71860000D03*
%TO.P,J4,17,Pin_17*%
%TO.N,/general_layout/PC15*%
X186700000Y-71860000D03*
%TO.P,J4,18,Pin_18*%
%TO.N,/general_layout/PC14*%
X189240000Y-71860000D03*
%TO.P,J4,19,Pin_19*%
%TO.N,/general_layout/PC13*%
X191780000Y-71860000D03*
%TO.P,J4,20,Pin_20*%
%TO.N,/general_layout/VB*%
X194320000Y-71860000D03*
%TD*%
D12*
%TO.P,R14,1*%
%TO.N,Float_Chamber1_max*%
X153670000Y-58420000D03*
D13*
%TO.P,R14,2*%
%TO.N,GND*%
X163830000Y-58420000D03*
%TD*%
D16*
%TO.P,J5,1,Pin_1*%
%TO.N,+5V*%
X223520000Y-66040000D03*
D14*
%TO.P,J5,2,Pin_2*%
%TO.N,GND*%
X223520000Y-71120000D03*
%TO.P,J5,3,Pin_3*%
%TO.N,OLED_RST*%
X223520000Y-76200000D03*
%TO.P,J5,4,Pin_4*%
%TO.N,OLED_SCL*%
X223520000Y-81280000D03*
%TO.P,J5,5,Pin_5*%
%TO.N,OLED_SDA*%
X223520000Y-86360000D03*
%TD*%
D16*
%TO.P,J13,1,Pin_1*%
%TO.N,Net-(J13-Pad1)*%
X147320000Y-144020000D03*
D14*
%TO.P,J13,2,Pin_2*%
%TO.N,Net-(J13-Pad2)*%
X142240000Y-144020000D03*
%TD*%
D20*
%TO.P,D4,1,K*%
%TO.N,+5V*%
X122970000Y-129450000D03*
D26*
%TO.P,D4,2,A*%
%TO.N,Net-(D4-Pad2)*%
X122970000Y-119290000D03*
%TD*%
D12*
%TO.P,R15,1*%
%TO.N,Float_Chamber2_max*%
X128270000Y-58420000D03*
D13*
%TO.P,R15,2*%
%TO.N,GND*%
X138430000Y-58420000D03*
%TD*%
D12*
%TO.P,R7,1*%
%TO.N,Net-(D14-Pad1)*%
X153260000Y-105160000D03*
D13*
%TO.P,R7,2*%
%TO.N,Net-(Q6-Pad2)*%
X143100000Y-105160000D03*
%TD*%
D16*
%TO.P,J22,1,Pin_1*%
%TO.N,Float_Chamber3_max*%
X113030000Y-53340000D03*
D14*
%TO.P,J22,2,Pin_2*%
%TO.N,+3V3*%
X118110000Y-53340000D03*
%TD*%
%TO.P,K1,1*%
%TO.N,Net-(J8-Pad1)*%
X117720000Y-77580000D03*
D15*
%TO.P,K1,2*%
%TO.N,Net-(D1-Pad2)*%
X115770000Y-71530000D03*
D14*
%TO.P,K1,3*%
%TO.N,Net-(J8-Pad2)*%
X103570000Y-71530000D03*
%TO.P,K1,4*%
%TO.N,unconnected-(K1-Pad4)*%
X103520000Y-83580000D03*
D15*
%TO.P,K1,5*%
%TO.N,+5V*%
X115770000Y-83530000D03*
%TD*%
D24*
%TO.P,Q1,1,E*%
%TO.N,GND*%
X127000000Y-72500000D03*
D25*
%TO.P,Q1,2,B*%
%TO.N,Net-(Q1-Pad2)*%
X127000000Y-73770000D03*
%TO.P,Q1,3,C*%
%TO.N,Net-(D1-Pad2)*%
X127000000Y-75040000D03*
%TD*%
D16*
%TO.P,J16,1,Pin_1*%
%TO.N,Float_Chamber1_min*%
X163830000Y-53340000D03*
D14*
%TO.P,J16,2,Pin_2*%
%TO.N,+3V3*%
X168910000Y-53340000D03*
%TD*%
D16*
%TO.P,J14,1,Pin_1*%
%TO.N,Net-(J14-Pad1)*%
X165100000Y-144020000D03*
D14*
%TO.P,J14,2,Pin_2*%
%TO.N,Net-(J14-Pad2)*%
X160020000Y-144020000D03*
%TD*%
D16*
%TO.P,J8,1,Pin_1*%
%TO.N,Net-(J8-Pad1)*%
X93980000Y-77580000D03*
D14*
%TO.P,J8,2,Pin_2*%
%TO.N,Net-(J8-Pad2)*%
X93980000Y-72500000D03*
%TD*%
D16*
%TO.P,J6,1,Pin_1*%
%TO.N,+24V*%
X173910000Y-53340000D03*
D14*
%TO.P,J6,2,Pin_2*%
%TO.N,Gas_Pressure_Out*%
X178990000Y-53340000D03*
%TO.P,J6,3,Pin_3*%
%TO.N,GND*%
X184070000Y-53340000D03*
%TD*%
D20*
%TO.P,D15,1,K*%
%TO.N,Net-(D15-Pad1)*%
X169340000Y-111000000D03*
D21*
%TO.P,D15,2,A*%
%TO.N,Solenoid3_Output*%
X171880000Y-111000000D03*
%TD*%
D12*
%TO.P,R6,1*%
%TO.N,Net-(D13-Pad1)*%
X133600000Y-146480000D03*
D13*
%TO.P,R6,2*%
%TO.N,Net-(Q5-Pad2)*%
X133600000Y-136320000D03*
%TD*%
D20*
%TO.P,D13,1,K*%
%TO.N,Net-(D13-Pad1)*%
X127760000Y-143940000D03*
D21*
%TO.P,D13,2,A*%
%TO.N,Solenoid1_Output*%
X127760000Y-146480000D03*
%TD*%
D14*
%TO.P,K8,1*%
%TO.N,Net-(J15-Pad1)*%
X182880000Y-121040000D03*
D15*
%TO.P,K8,2*%
%TO.N,Net-(D12-Pad2)*%
X176830000Y-122990000D03*
D14*
%TO.P,K8,3*%
%TO.N,Net-(J15-Pad2)*%
X176830000Y-135190000D03*
%TO.P,K8,4*%
%TO.N,unconnected-(K8-Pad4)*%
X188880000Y-135240000D03*
D15*
%TO.P,K8,5*%
%TO.N,+5V*%
X188830000Y-122990000D03*
%TD*%
D27*
%TO.P,U2,1,IN+*%
%TO.N,+24V*%
X194725000Y-147530000D03*
%TO.P,U2,2,IN-*%
%TO.N,GND*%
X211785000Y-147530000D03*
%TO.P,U2,3,OUT+*%
%TO.N,+5V*%
X194725000Y-106470000D03*
%TO.P,U2,4,OUT-*%
%TO.N,GND*%
X211785000Y-106470000D03*
%TD*%
D20*
%TO.P,D3,1,K*%
%TO.N,+5V*%
X122800000Y-114100000D03*
D26*
%TO.P,D3,2,A*%
%TO.N,Net-(D3-Pad2)*%
X122800000Y-103940000D03*
%TD*%
D14*
%TO.P,K5,1*%
%TO.N,Net-(J12-Pad1)*%
X117720000Y-139700000D03*
D15*
%TO.P,K5,2*%
%TO.N,Net-(D9-Pad2)*%
X115770000Y-133650000D03*
D14*
%TO.P,K5,3*%
%TO.N,Net-(J12-Pad2)*%
X103570000Y-133650000D03*
%TO.P,K5,4*%
%TO.N,unconnected-(K5-Pad4)*%
X103520000Y-145700000D03*
D15*
%TO.P,K5,5*%
%TO.N,+5V*%
X115770000Y-145650000D03*
%TD*%
D16*
%TO.P,J7,1,Pin_1*%
%TO.N,+3V3*%
X189150000Y-53340000D03*
D14*
%TO.P,J7,2,Pin_2*%
%TO.N,Gas_Flowrate_Tx*%
X194230000Y-53340000D03*
%TO.P,J7,3,Pin_3*%
%TO.N,Gas_Flowrate_Rx*%
X199310000Y-53340000D03*
%TO.P,J7,4,Pin_4*%
%TO.N,GND*%
X204390000Y-53340000D03*
%TD*%
D16*
%TO.P,J21,1,Pin_1*%
%TO.N,Float_Chamber2_max*%
X133350000Y-53340000D03*
D14*
%TO.P,J21,2,Pin_2*%
%TO.N,+3V3*%
X138430000Y-53340000D03*
%TD*%
D20*
%TO.P,D6,1,K*%
%TO.N,Net-(D6-Pad1)*%
X127020000Y-96150000D03*
D21*
%TO.P,D6,2,A*%
%TO.N,Electrode2_Output*%
X127020000Y-98690000D03*
%TD*%
D12*
%TO.P,R8,1*%
%TO.N,Net-(D15-Pad1)*%
X171040000Y-105160000D03*
D13*
%TO.P,R8,2*%
%TO.N,Net-(Q7-Pad2)*%
X160880000Y-105160000D03*
%TD*%
D22*
%TO.P,J3,1,Pin_1*%
%TO.N,+5V*%
X146060000Y-68580000D03*
D23*
%TO.P,J3,2,Pin_2*%
%TO.N,GND*%
X148600000Y-68580000D03*
%TO.P,J3,3,Pin_3*%
%TO.N,+3V3*%
X151140000Y-68580000D03*
%TO.P,J3,4,Pin_4*%
%TO.N,OLED_SCL*%
X153680000Y-68580000D03*
%TO.P,J3,5,Pin_5*%
%TO.N,OLED_RST*%
X156220000Y-68580000D03*
%TO.P,J3,6,Pin_6*%
%TO.N,Gas_Pressure_Out*%
X158760000Y-68580000D03*
%TO.P,J3,7,Pin_7*%
%TO.N,/general_layout/PB0*%
X161300000Y-68580000D03*
%TO.P,J3,8,Pin_8*%
%TO.N,/general_layout/PA7*%
X163840000Y-68580000D03*
%TO.P,J3,9,Pin_9*%
%TO.N,/general_layout/PA6*%
X166380000Y-68580000D03*
%TO.P,J3,10,Pin_10*%
%TO.N,/general_layout/PA5*%
X168920000Y-68580000D03*
%TO.P,J3,11,Pin_11*%
%TO.N,/general_layout/PA4*%
X171460000Y-68580000D03*
%TO.P,J3,12,Pin_12*%
%TO.N,Gas_Flowrate_Tx*%
X174000000Y-68580000D03*
%TO.P,J3,13,Pin_13*%
%TO.N,Gas_Flowrate_Rx*%
X176540000Y-68580000D03*
%TO.P,J3,14,Pin_14*%
%TO.N,/general_layout/PA1*%
X179080000Y-68580000D03*
%TO.P,J3,15,Pin_15*%
%TO.N,/general_layout/PA0*%
X181620000Y-68580000D03*
%TO.P,J3,16,Pin_16*%
%TO.N,/general_layout/NRST*%
X184160000Y-68580000D03*
%TO.P,J3,17,Pin_17*%
%TO.N,/general_layout/PC15*%
X186700000Y-68580000D03*
%TO.P,J3,18,Pin_18*%
%TO.N,/general_layout/PC14*%
X189240000Y-68580000D03*
%TO.P,J3,19,Pin_19*%
%TO.N,/general_layout/PC13*%
X191780000Y-68580000D03*
%TO.P,J3,20,Pin_20*%
%TO.N,/general_layout/VB*%
X194320000Y-68580000D03*
%TD*%
D19*
%TO.P,H1,1*%
%TO.N,N/C*%
X223520000Y-147320000D03*
%TD*%
D20*
%TO.P,D12,1,K*%
%TO.N,+5V*%
X189660000Y-116080000D03*
D26*
%TO.P,D12,2,A*%
%TO.N,Net-(D12-Pad2)*%
X179500000Y-116080000D03*
%TD*%
D20*
%TO.P,D11,1,K*%
%TO.N,+5V*%
X171880000Y-116080000D03*
D26*
%TO.P,D11,2,A*%
%TO.N,Net-(D11-Pad2)*%
X161720000Y-116080000D03*
%TD*%
D10*
%TO.P,Q8,1,E*%
%TO.N,GND*%
X178660000Y-110240000D03*
D11*
%TO.P,Q8,2,B*%
%TO.N,Net-(Q8-Pad2)*%
X179930000Y-110240000D03*
%TO.P,Q8,3,C*%
%TO.N,Net-(D12-Pad2)*%
X181200000Y-110240000D03*
%TD*%
D20*
%TO.P,D10,1,K*%
%TO.N,+5V*%
X154100000Y-116080000D03*
D26*
%TO.P,D10,2,A*%
%TO.N,Net-(D10-Pad2)*%
X143940000Y-116080000D03*
%TD*%
D24*
%TO.P,Q5,1,E*%
%TO.N,GND*%
X128520000Y-135480000D03*
D25*
%TO.P,Q5,2,B*%
%TO.N,Net-(Q5-Pad2)*%
X128520000Y-136750000D03*
%TO.P,Q5,3,C*%
%TO.N,Net-(D9-Pad2)*%
X128520000Y-138020000D03*
%TD*%
D14*
%TO.P,K3,1*%
%TO.N,Net-(J10-Pad1)*%
X117720000Y-109020000D03*
D15*
%TO.P,K3,2*%
%TO.N,Net-(D3-Pad2)*%
X115770000Y-102970000D03*
D14*
%TO.P,K3,3*%
%TO.N,Net-(J10-Pad2)*%
X103570000Y-102970000D03*
%TO.P,K3,4*%
%TO.N,unconnected-(K3-Pad4)*%
X103520000Y-115020000D03*
D15*
%TO.P,K3,5*%
%TO.N,+5V*%
X115770000Y-114970000D03*
%TD*%
D12*
%TO.P,R10,1*%
%TO.N,Float_Chamber1_min*%
X166290000Y-58420000D03*
D13*
%TO.P,R10,2*%
%TO.N,GND*%
X176450000Y-58420000D03*
%TD*%
D20*
%TO.P,D9,1,K*%
%TO.N,+5V*%
X122680000Y-146480000D03*
D26*
%TO.P,D9,2,A*%
%TO.N,Net-(D9-Pad2)*%
X122680000Y-136320000D03*
%TD*%
D20*
%TO.P,D2,1,K*%
%TO.N,+5V*%
X121940000Y-98690000D03*
D26*
%TO.P,D2,2,A*%
%TO.N,Net-(D2-Pad2)*%
X121940000Y-88530000D03*
%TD*%
D24*
%TO.P,Q2,1,E*%
%TO.N,GND*%
X127020000Y-88530000D03*
D25*
%TO.P,Q2,2,B*%
%TO.N,Net-(Q2-Pad2)*%
X127020000Y-89800000D03*
%TO.P,Q2,3,C*%
%TO.N,Net-(D2-Pad2)*%
X127020000Y-91070000D03*
%TD*%
D28*
%TO.N,GND*%
X211785000Y-103175000D02*
X211785000Y-106470000D01*
X213150000Y-101810000D02*
X211785000Y-103175000D01*
X216865000Y-101810000D02*
X213150000Y-101810000D01*
X184070000Y-57070000D02*
X184070000Y-53340000D01*
X185420000Y-58420000D02*
X184070000Y-57070000D01*
X189150000Y-58420000D02*
X185420000Y-58420000D01*
X177996089Y-50940489D02*
X181670489Y-50940489D01*
X176450000Y-52486578D02*
X177996089Y-50940489D01*
X176450000Y-58420000D02*
X176450000Y-52486578D01*
X181670489Y-50940489D02*
X184070000Y-53340000D01*
D29*
%TO.N,Gas_Flowrate_Rx*%
X176540000Y-67453534D02*
X176540000Y-68580000D01*
X193454015Y-61959519D02*
X182034014Y-61959520D01*
X195580000Y-59833534D02*
X193454015Y-61959519D01*
X182034014Y-61959520D02*
X176540000Y-67453534D01*
X195580000Y-57070000D02*
X195580000Y-59833534D01*
X199310000Y-53340000D02*
X195580000Y-57070000D01*
D28*
%TO.N,+24V*%
X173910000Y-50880000D02*
X173910000Y-53340000D01*
X175260000Y-49530000D02*
X173910000Y-50880000D01*
X226060000Y-93980000D02*
X228600000Y-91440000D01*
X228600000Y-91440000D02*
X228600000Y-63500000D01*
X199805000Y-97375000D02*
X203200000Y-93980000D01*
X203200000Y-93980000D02*
X226060000Y-93980000D01*
X228600000Y-63500000D02*
X214630000Y-49530000D01*
X199805000Y-101810000D02*
X199805000Y-97375000D01*
X214630000Y-49530000D02*
X175260000Y-49530000D01*
X202990000Y-142450000D02*
X199805000Y-142450000D01*
X218440000Y-127000000D02*
X202990000Y-142450000D01*
X199805000Y-142450000D02*
X194725000Y-147530000D01*
X199805000Y-101810000D02*
X199805000Y-142450000D01*
%TO.N,GND*%
X220980000Y-121920000D02*
X218440000Y-121920000D01*
X223449520Y-124389520D02*
X220980000Y-121920000D01*
X223449520Y-130080480D02*
X223449520Y-124389520D01*
X220320000Y-133210000D02*
X223449520Y-130080480D01*
%TO.N,Net-(J1-Pad1)*%
X222250000Y-125730000D02*
X220980000Y-124460000D01*
X218374183Y-129540000D02*
X220980000Y-129540000D01*
X220980000Y-129540000D02*
X222250000Y-128270000D01*
X222250000Y-128270000D02*
X222250000Y-125730000D01*
X217320000Y-130594183D02*
X218374183Y-129540000D01*
X220980000Y-124460000D02*
X218440000Y-124460000D01*
X217320000Y-137910000D02*
X217320000Y-130594183D01*
%TO.N,GND*%
X213700000Y-147530000D02*
X223320000Y-137910000D01*
X211785000Y-147530000D02*
X213700000Y-147530000D01*
X214325000Y-106470000D02*
X218440000Y-110585000D01*
X211785000Y-106470000D02*
X214325000Y-106470000D01*
X216865000Y-70155000D02*
X216865000Y-60750000D01*
X204390000Y-59610000D02*
X204390000Y-53340000D01*
X205530000Y-60750000D02*
X204390000Y-59610000D01*
X216865000Y-60750000D02*
X205530000Y-60750000D01*
X223029022Y-60750000D02*
X216865000Y-60750000D01*
X226060000Y-63780978D02*
X223029022Y-60750000D01*
X226060000Y-68580000D02*
X226060000Y-63780978D01*
X223520000Y-71120000D02*
X226060000Y-68580000D01*
%TO.N,+5V*%
X122970000Y-129450000D02*
X116640000Y-129450000D01*
X171880000Y-122160000D02*
X171050000Y-122990000D01*
X184155000Y-81280000D02*
X149860000Y-81280000D01*
X215900000Y-73660000D02*
X215900000Y-88900000D01*
X116600000Y-146480000D02*
X115770000Y-145650000D01*
X116640000Y-129450000D02*
X115770000Y-130320000D01*
X213360000Y-91440000D02*
X198950000Y-91440000D01*
X146060000Y-68580000D02*
X146060000Y-71860000D01*
X198950000Y-91440000D02*
X192185000Y-98205000D01*
X194725000Y-103930000D02*
X194725000Y-111015000D01*
X189660000Y-116080000D02*
X189660000Y-122160000D01*
X194725000Y-100745000D02*
X192185000Y-98205000D01*
X121920000Y-82660000D02*
X116640000Y-82660000D01*
X171880000Y-116080000D02*
X171880000Y-122160000D01*
X154100000Y-116080000D02*
X154100000Y-122160000D01*
X116640000Y-114100000D02*
X115770000Y-114970000D01*
X189235000Y-95255000D02*
X189235000Y-86360000D01*
X121940000Y-98690000D02*
X116660000Y-98690000D01*
X194725000Y-111015000D02*
X189660000Y-116080000D01*
X189660000Y-122160000D02*
X188830000Y-122990000D01*
X192185000Y-98205000D02*
X189235000Y-95255000D01*
X189235000Y-86360000D02*
X184155000Y-81280000D01*
X223520000Y-66040000D02*
X215900000Y-73660000D01*
X154100000Y-122160000D02*
X153270000Y-122990000D01*
X215900000Y-88900000D02*
X213360000Y-91440000D01*
X149860000Y-81280000D02*
X146060000Y-77480000D01*
X146060000Y-77480000D02*
X146060000Y-71860000D01*
X122800000Y-114100000D02*
X116640000Y-114100000D01*
X122680000Y-146480000D02*
X116600000Y-146480000D01*
X116660000Y-98690000D02*
X115790000Y-99560000D01*
X116640000Y-82660000D02*
X115770000Y-83530000D01*
X194725000Y-103930000D02*
X194725000Y-100745000D01*
D29*
%TO.N,Net-(D1-Pad2)*%
X127000000Y-75040000D02*
X124460000Y-75040000D01*
X115770000Y-71530000D02*
X120950000Y-71530000D01*
X120950000Y-71530000D02*
X121920000Y-72500000D01*
X124460000Y-75040000D02*
X121920000Y-72500000D01*
%TO.N,Net-(D2-Pad2)*%
X120970000Y-87560000D02*
X121940000Y-88530000D01*
X115790000Y-87560000D02*
X120970000Y-87560000D01*
X124480000Y-91070000D02*
X121940000Y-88530000D01*
X127020000Y-91070000D02*
X124480000Y-91070000D01*
%TO.N,Net-(D3-Pad2)*%
X115770000Y-102970000D02*
X121830000Y-102970000D01*
X125340000Y-106480000D02*
X122800000Y-103940000D01*
X121830000Y-102970000D02*
X122800000Y-103940000D01*
X127880000Y-106480000D02*
X125340000Y-106480000D01*
%TO.N,Net-(D4-Pad2)*%
X125510000Y-121830000D02*
X122970000Y-119290000D01*
X115770000Y-118320000D02*
X119460000Y-118320000D01*
X128050000Y-121830000D02*
X125510000Y-121830000D01*
%TO.N,Net-(D5-Pad1)*%
X129540000Y-80120000D02*
X132080000Y-82660000D01*
X127000000Y-80120000D02*
X129540000Y-80120000D01*
%TO.N,Electrode1_Output*%
X127000000Y-82660000D02*
X129161240Y-82660000D01*
X143021240Y-96520000D02*
X156215000Y-96520000D01*
X156215000Y-96520000D02*
X166375000Y-86360000D01*
X129161240Y-82660000D02*
X143021240Y-96520000D01*
%TO.N,Net-(D6-Pad1)*%
X129560000Y-96150000D02*
X132100000Y-98690000D01*
X127020000Y-96150000D02*
X129560000Y-96150000D01*
%TO.N,Electrode2_Output*%
X136160481Y-97519519D02*
X157755481Y-97519519D01*
X133390489Y-100289511D02*
X136160481Y-97519519D01*
X127020000Y-98690000D02*
X128619511Y-100289511D01*
X157755481Y-97519519D02*
X168915000Y-86360000D01*
X128619511Y-100289511D02*
X133390489Y-100289511D01*
%TO.N,Net-(D7-Pad1)*%
X130420000Y-111560000D02*
X132960000Y-114100000D01*
X127880000Y-111560000D02*
X130420000Y-111560000D01*
%TO.N,Electrode3_Output*%
X134620000Y-114702051D02*
X134620000Y-105410000D01*
X129479511Y-115699511D02*
X133622540Y-115699511D01*
X136033534Y-99060000D02*
X158750000Y-99060000D01*
X134620000Y-105410000D02*
X134620000Y-100473534D01*
X127880000Y-114100000D02*
X129479511Y-115699511D01*
X133622540Y-115699511D02*
X134620000Y-114702051D01*
X158755000Y-99060000D02*
X171455000Y-86360000D01*
X134620000Y-100473534D02*
X136033534Y-99060000D01*
%TO.N,Net-(D8-Pad1)*%
X128050000Y-126910000D02*
X130590000Y-126910000D01*
X130590000Y-126910000D02*
X133130000Y-129450000D01*
%TO.N,Electrode4_Output*%
X173995000Y-86360000D02*
X160295480Y-100059520D01*
X135890000Y-103996466D02*
X135890000Y-132080000D01*
X135890000Y-132080000D02*
X134620000Y-133350000D01*
X139826946Y-100059520D02*
X135890000Y-103996466D01*
X131950000Y-133350000D02*
X128050000Y-129450000D01*
X160295480Y-100059520D02*
X139826946Y-100059520D01*
X134620000Y-133350000D02*
X131950000Y-133350000D01*
%TO.N,Net-(D9-Pad2)*%
X120010000Y-133650000D02*
X122680000Y-136320000D01*
X124380000Y-138020000D02*
X122680000Y-136320000D01*
X128520000Y-138020000D02*
X124380000Y-138020000D01*
X115770000Y-133650000D02*
X120010000Y-133650000D01*
%TO.N,Net-(D10-Pad2)*%
X145640000Y-110240000D02*
X145640000Y-114380000D01*
X141270000Y-122990000D02*
X141270000Y-118750000D01*
X145640000Y-114380000D02*
X143940000Y-116080000D01*
X141270000Y-118750000D02*
X143940000Y-116080000D01*
%TO.N,Net-(D11-Pad2)*%
X159050000Y-118750000D02*
X161720000Y-116080000D01*
X159050000Y-122990000D02*
X159050000Y-118750000D01*
X163420000Y-110240000D02*
X163420000Y-114380000D01*
X163420000Y-114380000D02*
X161720000Y-116080000D01*
%TO.N,Net-(D12-Pad2)*%
X181200000Y-110240000D02*
X181200000Y-114380000D01*
X176830000Y-118750000D02*
X179500000Y-116080000D01*
X181200000Y-114380000D02*
X179500000Y-116080000D01*
X176830000Y-122990000D02*
X176830000Y-118750000D01*
%TO.N,Net-(D13-Pad1)*%
X131060000Y-143940000D02*
X133600000Y-146480000D01*
X127760000Y-143940000D02*
X131060000Y-143940000D01*
%TO.N,Solenoid1_Output*%
X137160000Y-145182051D02*
X133752051Y-148590000D01*
X176535000Y-86360000D02*
X161835960Y-101059040D01*
X137160000Y-104140000D02*
X137160000Y-145182051D01*
X161835960Y-101059040D02*
X140240960Y-101059040D01*
X140240960Y-101059040D02*
X137160000Y-104140000D01*
X129870000Y-148590000D02*
X127760000Y-146480000D01*
X133752051Y-148590000D02*
X129870000Y-148590000D01*
%TO.N,Net-(D14-Pad1)*%
X151560000Y-106860000D02*
X153260000Y-105160000D01*
X151560000Y-111000000D02*
X151560000Y-106860000D01*
%TO.N,Solenoid2_Output*%
X154940000Y-104598560D02*
X154940000Y-106680000D01*
X172868534Y-91440000D02*
X175260000Y-91440000D01*
X154940000Y-106680000D02*
X154100000Y-107520000D01*
X179075000Y-87625000D02*
X179075000Y-86360000D01*
X157480000Y-102058560D02*
X162249975Y-102058559D01*
X162249975Y-102058559D02*
X172868534Y-91440000D01*
X154100000Y-107520000D02*
X154100000Y-111000000D01*
X157480000Y-102058560D02*
X154940000Y-104598560D01*
X175260000Y-91440000D02*
X179075000Y-87625000D01*
%TO.N,Net-(D15-Pad1)*%
X169340000Y-106860000D02*
X171040000Y-105160000D01*
X169340000Y-111000000D02*
X169340000Y-106860000D01*
%TO.N,Solenoid3_Output*%
X171880000Y-106582051D02*
X181615000Y-96847051D01*
X171880000Y-111000000D02*
X171880000Y-106582051D01*
X181615000Y-96847051D02*
X181615000Y-86360000D01*
%TO.N,Net-(D16-Pad1)*%
X187120000Y-111000000D02*
X187120000Y-106860000D01*
X187120000Y-106860000D02*
X188820000Y-105160000D01*
%TO.N,Solenoid4_Output*%
X184155000Y-97795000D02*
X184155000Y-86360000D01*
X190560000Y-104200000D02*
X184155000Y-97795000D01*
X189660000Y-111000000D02*
X190560000Y-110100000D01*
X190560000Y-110100000D02*
X190560000Y-104200000D01*
D28*
%TO.N,GND*%
X126080489Y-117320489D02*
X127895480Y-119135480D01*
X148600000Y-77480000D02*
X148600000Y-71860000D01*
X168700489Y-115779511D02*
X168700489Y-145218533D01*
X149860000Y-146050000D02*
X149860000Y-116720978D01*
X152300489Y-114280489D02*
X156839511Y-114280489D01*
X126875480Y-72345480D02*
X127000000Y-72345480D01*
X124460000Y-81600978D02*
X124460000Y-85970000D01*
X93050498Y-111419502D02*
X92630489Y-111839511D01*
X123560489Y-96890489D02*
X124460000Y-97790000D01*
X124460000Y-100365480D02*
X127880000Y-103785480D01*
X178505480Y-110240000D02*
X175945969Y-112799511D01*
X92520009Y-80860489D02*
X123719511Y-80860489D01*
X92630489Y-126769511D02*
X92340480Y-127059520D01*
X92340480Y-127059520D02*
X92340480Y-141870480D01*
X137529520Y-146419520D02*
X149490480Y-146419520D01*
X125730000Y-132690000D02*
X128365480Y-135325480D01*
X171680489Y-112799511D02*
X168700489Y-115779511D01*
X126080489Y-113430978D02*
X126080489Y-117320489D01*
X92460480Y-96911476D02*
X92460480Y-111419502D01*
X191775000Y-87635000D02*
X191775000Y-86360000D01*
X92630000Y-68580000D02*
X91580489Y-69629511D01*
X127895480Y-119135480D02*
X128050000Y-119135480D01*
X100159520Y-149689520D02*
X134207487Y-149689520D01*
X137503503Y-146393503D02*
X137529520Y-146419520D01*
X216865000Y-70155000D02*
X213360000Y-73660000D01*
X218440000Y-121920000D02*
X218440000Y-110585000D01*
X223320000Y-137910000D02*
X223320000Y-136210000D01*
X175945969Y-112799511D02*
X171680489Y-112799511D01*
X92481467Y-96890489D02*
X123560489Y-96890489D01*
X223320000Y-136210000D02*
X220320000Y-133210000D01*
X91580489Y-69629511D02*
X91580489Y-79920969D01*
X210820000Y-88900000D02*
X193040000Y-88900000D01*
X92481467Y-96890489D02*
X92460480Y-96911476D01*
X213360000Y-86360000D02*
X210820000Y-88900000D01*
X134207487Y-149689520D02*
X137503503Y-146393503D01*
X92460480Y-111419502D02*
X93050498Y-111419502D01*
X191775000Y-86360000D02*
X185495480Y-80080480D01*
X149490480Y-146419520D02*
X149860000Y-146050000D01*
X128365480Y-135325480D02*
X128520000Y-135325480D01*
X92630489Y-126769511D02*
X123888533Y-126769511D01*
X167499502Y-146419520D02*
X150229520Y-146419520D01*
X193040000Y-88900000D02*
X191775000Y-87635000D01*
X127000000Y-72500000D02*
X127080000Y-72500000D01*
X124460000Y-85970000D02*
X126865480Y-88375480D01*
X138430000Y-114910000D02*
X143100000Y-110240000D01*
X124460000Y-97790000D02*
X124460000Y-100365480D01*
X102870000Y-68580000D02*
X113030000Y-68580000D01*
X150229520Y-146419520D02*
X149860000Y-146050000D01*
X160725480Y-110394520D02*
X160725480Y-110240000D01*
X149860000Y-116720978D02*
X152300489Y-114280489D01*
X213360000Y-73660000D02*
X213360000Y-86360000D01*
X185495480Y-80080480D02*
X151200480Y-80080480D01*
X151200480Y-80080480D02*
X148600000Y-77480000D01*
X92340480Y-141870480D02*
X100159520Y-149689520D01*
X168700489Y-145218533D02*
X167499502Y-146419520D01*
X123888533Y-126769511D02*
X125730000Y-128610978D01*
X137503503Y-146393503D02*
X138430000Y-145467007D01*
X91580489Y-79920969D02*
X92520009Y-80860489D01*
X91600480Y-96009502D02*
X92481467Y-96890489D01*
X123110000Y-68580000D02*
X126875480Y-72345480D01*
X92630000Y-68580000D02*
X102870000Y-68580000D01*
X138430000Y-145467007D02*
X138430000Y-114910000D01*
X91600480Y-81780018D02*
X91600480Y-96009502D01*
X148600000Y-68580000D02*
X148600000Y-71860000D01*
X92520009Y-80860489D02*
X91600480Y-81780018D01*
X124069013Y-111419502D02*
X126080489Y-113430978D01*
X123719511Y-80860489D02*
X124460000Y-81600978D01*
X156839511Y-114280489D02*
X160725480Y-110394520D01*
X92630489Y-111839511D02*
X92630489Y-126769511D01*
X93050498Y-111419502D02*
X124069013Y-111419502D01*
X113030000Y-68580000D02*
X123110000Y-68580000D01*
X126865480Y-88375480D02*
X127020000Y-88375480D01*
X125730000Y-128610978D02*
X125730000Y-132690000D01*
D29*
%TO.N,OLED_SCL*%
X153680000Y-68580000D02*
X153680000Y-71860000D01*
%TO.N,OLED_RST*%
X156220000Y-68580000D02*
X156220000Y-71860000D01*
%TO.N,Gas_Pressure_Out*%
X158967238Y-68580000D02*
X158760000Y-68580000D01*
X164047238Y-63500000D02*
X158967238Y-68580000D01*
X178990000Y-58420000D02*
X177390489Y-60019511D01*
X178990000Y-58420000D02*
X178990000Y-53340000D01*
X165100000Y-63500000D02*
X164047238Y-63500000D01*
X168580489Y-60019511D02*
X165100000Y-63500000D01*
X158760000Y-68580000D02*
X158760000Y-71860000D01*
X177390489Y-60019511D02*
X168580489Y-60019511D01*
D28*
%TO.N,+3V3*%
X146190489Y-50940489D02*
X140829511Y-50940489D01*
X168910000Y-53340000D02*
X166510489Y-50940489D01*
X156350489Y-50940489D02*
X150989511Y-50940489D01*
X135890000Y-50800000D02*
X138430000Y-53340000D01*
X120570000Y-50880000D02*
X118110000Y-53340000D01*
X161149511Y-50940489D02*
X158750000Y-53340000D01*
X128270000Y-53340000D02*
X125730000Y-50800000D01*
X115710489Y-50940489D02*
X110349511Y-50940489D01*
X105410000Y-50800000D02*
X107950000Y-53340000D01*
X128270000Y-53340000D02*
X130810000Y-50800000D01*
X148590000Y-53340000D02*
X146190489Y-50940489D01*
X158750000Y-53340000D02*
X156350489Y-50940489D01*
X154940000Y-78740000D02*
X151140000Y-74940000D01*
X194315000Y-86360000D02*
X186695000Y-78740000D01*
X199805000Y-80870000D02*
X199805000Y-60750000D01*
X199597737Y-50800000D02*
X201850000Y-53052263D01*
X166510489Y-50940489D02*
X161149511Y-50940489D01*
X201850000Y-53052263D02*
X201850000Y-58705000D01*
X201850000Y-58705000D02*
X199805000Y-60750000D01*
X151140000Y-74940000D02*
X151140000Y-71860000D01*
X110349511Y-50940489D02*
X107950000Y-53340000D01*
X118110000Y-53340000D02*
X115710489Y-50940489D01*
X199805000Y-80870000D02*
X194315000Y-86360000D01*
X150989511Y-50940489D02*
X148590000Y-53340000D01*
X186695000Y-78740000D02*
X154940000Y-78740000D01*
X189150000Y-53340000D02*
X191690000Y-50800000D01*
X130810000Y-50800000D02*
X135890000Y-50800000D01*
X151140000Y-68580000D02*
X151140000Y-71860000D01*
X140829511Y-50940489D02*
X138430000Y-53340000D01*
X100330000Y-50800000D02*
X105410000Y-50800000D01*
X120570000Y-50800000D02*
X120570000Y-50880000D01*
X191690000Y-50800000D02*
X199597737Y-50800000D01*
X125730000Y-50800000D02*
X120570000Y-50800000D01*
X97790000Y-53340000D02*
X100330000Y-50800000D01*
D29*
%TO.N,Gas_Flowrate_Rx*%
X176540000Y-68580000D02*
X176540000Y-71860000D01*
%TO.N,Gas_Flowrate_Tx*%
X181620000Y-60960000D02*
X193040000Y-60960000D01*
X194230000Y-59770000D02*
X194230000Y-53340000D01*
X174000000Y-68580000D02*
X174000000Y-71860000D01*
X193040000Y-60960000D02*
X194230000Y-59770000D01*
X174000000Y-68580000D02*
X181620000Y-60960000D01*
%TO.N,Float_Chamber1_min*%
X162560000Y-63500000D02*
X166290000Y-59770000D01*
X143510000Y-83815000D02*
X143510000Y-67830978D01*
X147840978Y-63500000D02*
X162560000Y-63500000D01*
X166290000Y-59770000D02*
X166290000Y-58420000D01*
X146055000Y-86360000D02*
X143510000Y-83815000D01*
X166290000Y-55800000D02*
X163830000Y-53340000D01*
X166290000Y-58420000D02*
X166290000Y-55800000D01*
X143510000Y-67830978D02*
X147840978Y-63500000D01*
%TO.N,Float_Chamber2_min*%
X144881964Y-89899520D02*
X141411932Y-86429488D01*
X142240000Y-58420000D02*
X143510000Y-57150000D01*
X141411932Y-58861932D02*
X140970000Y-58420000D01*
X147734015Y-89899519D02*
X144881964Y-89899520D01*
X143510000Y-57150000D02*
X143510000Y-53340000D01*
X141411932Y-86429488D02*
X141411932Y-58861932D01*
X151135000Y-86498534D02*
X147734015Y-89899519D01*
X140970000Y-58420000D02*
X142240000Y-58420000D01*
X151135000Y-86360000D02*
X151135000Y-86498534D01*
%TO.N,Float_Chamber3_min*%
X125730000Y-63041443D02*
X123110000Y-60421443D01*
X144053933Y-91898557D02*
X139412894Y-87257518D01*
X150676443Y-91898557D02*
X144053933Y-91898557D01*
X123110000Y-58420000D02*
X123110000Y-53420000D01*
X139412894Y-87257518D02*
X139412893Y-72942291D01*
X129512045Y-63041443D02*
X125730000Y-63041443D01*
X156215000Y-86360000D02*
X150676443Y-91898557D01*
X139412893Y-72942291D02*
X129512045Y-63041443D01*
X123110000Y-53420000D02*
X123190000Y-53340000D01*
X123110000Y-60421443D02*
X123110000Y-58420000D01*
%TO.N,Float_Chamber4_min*%
X137413853Y-73770319D02*
X128684015Y-65040481D01*
X102870000Y-63770480D02*
X102870000Y-58420000D01*
X102870000Y-53340000D02*
X102870000Y-58420000D01*
X137413853Y-88085545D02*
X137413853Y-73770319D01*
X104140000Y-65040480D02*
X102870000Y-63770480D01*
X143225903Y-93897595D02*
X137413853Y-88085545D01*
X153757405Y-93897595D02*
X143225903Y-93897595D01*
X128684015Y-65040481D02*
X104140000Y-65040480D01*
X161295000Y-86360000D02*
X153757405Y-93897595D01*
%TO.N,Float_Chamber1_max*%
X147320000Y-88900000D02*
X145295978Y-88900000D01*
X142510481Y-67416963D02*
X148143722Y-61783722D01*
X148595000Y-87625000D02*
X147320000Y-88900000D01*
X150306278Y-61783722D02*
X153670000Y-58420000D01*
X145295978Y-88900000D02*
X142510481Y-86114503D01*
X148595000Y-86360000D02*
X148595000Y-87625000D01*
X142510481Y-86114503D02*
X142510481Y-67416963D01*
X148143722Y-61783722D02*
X150306278Y-61783722D01*
X153670000Y-58420000D02*
X153670000Y-53340000D01*
%TO.N,Float_Chamber2_max*%
X153675000Y-86360000D02*
X149135962Y-90899038D01*
X140412413Y-86843503D02*
X140412413Y-70562413D01*
X133350000Y-55880000D02*
X133350000Y-53340000D01*
X140412413Y-70562413D02*
X128270000Y-58420000D01*
X130810000Y-58420000D02*
X133350000Y-55880000D01*
X149135962Y-90899038D02*
X144467948Y-90899038D01*
X128270000Y-58420000D02*
X130810000Y-58420000D01*
X144467948Y-90899038D02*
X140412413Y-86843503D01*
%TO.N,Float_Chamber4_max*%
X92630000Y-58420000D02*
X92630000Y-64690000D01*
X92630000Y-64690000D02*
X93980000Y-66040000D01*
X136414333Y-88499559D02*
X142811888Y-94897114D01*
X155297886Y-94897114D02*
X163835000Y-86360000D01*
X93980000Y-66040000D02*
X128270000Y-66040000D01*
X92630000Y-53420000D02*
X92710000Y-53340000D01*
X92630000Y-58420000D02*
X92630000Y-53420000D01*
X142811888Y-94897114D02*
X155297886Y-94897114D01*
X136414333Y-74184333D02*
X136414333Y-88499559D01*
X128270000Y-66040000D02*
X136414333Y-74184333D01*
%TO.N,Float_Chamber3_max*%
X129098030Y-64040962D02*
X114300000Y-64040961D01*
X138413373Y-87671531D02*
X138413373Y-73356305D01*
X158755000Y-86360000D02*
X152216924Y-92898076D01*
X114300000Y-64040961D02*
X113030000Y-62770961D01*
X113030000Y-62770961D02*
X113030000Y-58420000D01*
X138413373Y-73356305D02*
X129098030Y-64040962D01*
X143639918Y-92898076D02*
X138413373Y-87671531D01*
X113030000Y-58420000D02*
X113030000Y-53340000D01*
X112950000Y-53420000D02*
X113030000Y-53340000D01*
X152216924Y-92898076D02*
X143639918Y-92898076D01*
%TO.N,/general_layout/PB0*%
X161300000Y-68580000D02*
X161300000Y-71860000D01*
%TO.N,/general_layout/PA7*%
X163840000Y-68580000D02*
X163840000Y-71860000D01*
%TO.N,/general_layout/PA6*%
X166380000Y-68580000D02*
X166380000Y-71860000D01*
%TO.N,/general_layout/PA5*%
X168920000Y-68580000D02*
X168920000Y-71860000D01*
%TO.N,/general_layout/PA4*%
X171460000Y-68580000D02*
X171460000Y-71860000D01*
%TO.N,/general_layout/PA1*%
X179080000Y-68580000D02*
X179080000Y-71860000D01*
%TO.N,/general_layout/NRST*%
X184160000Y-68580000D02*
X184160000Y-71860000D01*
%TO.N,/general_layout/PC13*%
X191780000Y-68580000D02*
X191780000Y-71860000D01*
%TO.N,/general_layout/VB*%
X194320000Y-68580000D02*
X194320000Y-71860000D01*
%TO.N,Net-(Q1-Pad2)*%
X127000000Y-73770000D02*
X130810000Y-73770000D01*
X130810000Y-73770000D02*
X132080000Y-72500000D01*
%TO.N,Net-(Q2-Pad2)*%
X127020000Y-89800000D02*
X130830000Y-89800000D01*
X130830000Y-89800000D02*
X132100000Y-88530000D01*
%TO.N,Net-(Q3-Pad2)*%
X127880000Y-105210000D02*
X131690000Y-105210000D01*
X131690000Y-105210000D02*
X132960000Y-103940000D01*
%TO.N,Net-(Q4-Pad2)*%
X131860000Y-120560000D02*
X128050000Y-120560000D01*
X133130000Y-119290000D02*
X131860000Y-120560000D01*
%TO.N,Net-(Q5-Pad2)*%
X128520000Y-136750000D02*
X133170000Y-136750000D01*
X133170000Y-136750000D02*
X133600000Y-136320000D01*
%TO.N,Net-(Q6-Pad2)*%
X144370000Y-110240000D02*
X144370000Y-106430000D01*
X144370000Y-106430000D02*
X143100000Y-105160000D01*
%TO.N,Net-(Q7-Pad2)*%
X162150000Y-106430000D02*
X160880000Y-105160000D01*
X162150000Y-110240000D02*
X162150000Y-106430000D01*
%TO.N,Net-(Q8-Pad2)*%
X179930000Y-106430000D02*
X178660000Y-105160000D01*
X179930000Y-110240000D02*
X179930000Y-106430000D01*
D30*
%TO.N,Net-(J8-Pad1)*%
X93980000Y-77580000D02*
X117720000Y-77580000D01*
%TO.N,Net-(J8-Pad2)*%
X102600000Y-72500000D02*
X103570000Y-71530000D01*
X93980000Y-72500000D02*
X102600000Y-72500000D01*
%TO.N,Net-(J9-Pad1)*%
X94000000Y-93610000D02*
X117740000Y-93610000D01*
%TO.N,Net-(J9-Pad2)*%
X102620000Y-88530000D02*
X103590000Y-87560000D01*
X94000000Y-88530000D02*
X102620000Y-88530000D01*
%TO.N,Net-(J10-Pad1)*%
X94860000Y-109020000D02*
X117720000Y-109020000D01*
%TO.N,Net-(J10-Pad2)*%
X102600000Y-103940000D02*
X103570000Y-102970000D01*
X94860000Y-103940000D02*
X102600000Y-103940000D01*
%TO.N,Net-(J11-Pad1)*%
X95030000Y-124370000D02*
X117720000Y-124370000D01*
D29*
%TO.N,/general_layout/PC14*%
X189240000Y-68580000D02*
X189240000Y-71860000D01*
%TO.N,/general_layout/PC15*%
X186700000Y-68580000D02*
X186700000Y-71860000D01*
%TO.N,/general_layout/PA0*%
X181620000Y-68580000D02*
X181620000Y-71860000D01*
D30*
%TO.N,Net-(J11-Pad2)*%
X95030000Y-119290000D02*
X102600000Y-119290000D01*
X102600000Y-119290000D02*
X103570000Y-118320000D01*
%TO.N,Net-(J12-Pad1)*%
X94740000Y-139700000D02*
X117720000Y-139700000D01*
%TO.N,Net-(J12-Pad2)*%
X94740000Y-134620000D02*
X102600000Y-134620000D01*
X102600000Y-134620000D02*
X103570000Y-133650000D01*
%TO.N,Net-(J13-Pad1)*%
X147320000Y-121040000D02*
X147320000Y-144020000D01*
%TO.N,Net-(J13-Pad2)*%
X142240000Y-144020000D02*
X142240000Y-136071441D01*
X142240000Y-136071441D02*
X141358559Y-135190000D01*
%TO.N,Net-(J15-Pad2)*%
X177800000Y-144020000D02*
X177800000Y-136160000D01*
X177800000Y-136160000D02*
X176830000Y-135190000D01*
%TO.N,Net-(J15-Pad1)*%
X182880000Y-121040000D02*
X182880000Y-144020000D01*
%TO.N,Net-(J14-Pad2)*%
X160020000Y-136160000D02*
X159050000Y-135190000D01*
X160020000Y-144020000D02*
X160020000Y-136160000D01*
%TO.N,Net-(J14-Pad1)*%
X165100000Y-121040000D02*
X165100000Y-144020000D01*
%TD*%
M02*
