%TF.GenerationSoftware,KiCad,Pcbnew,8.0.1*%
%TF.CreationDate,2024-05-20T21:19:55+03:00*%
%TF.ProjectId,oxygen_harvester,6f787967-656e-45f6-9861-727665737465,rev?*%
%TF.SameCoordinates,Original*%
%TF.FileFunction,Copper,L2,Bot*%
%TF.FilePolarity,Positive*%
%FSLAX46Y46*%
G04 Gerber Fmt 4.6, Leading zero omitted, Abs format (unit mm)*
G04 Created by KiCad (PCBNEW 8.0.1) date 2024-05-20 21:19:55*
%MOMM*%
%LPD*%
G01*
G04 APERTURE LIST*
%TA.AperFunction,ComponentPad*%
%ADD10R,1.700000X1.700000*%
%TD*%
%TA.AperFunction,ComponentPad*%
%ADD11O,1.700000X1.700000*%
%TD*%
%TA.AperFunction,ComponentPad*%
%ADD12R,1.050000X1.500000*%
%TD*%
%TA.AperFunction,ComponentPad*%
%ADD13O,1.050000X1.500000*%
%TD*%
%TA.AperFunction,ComponentPad*%
%ADD14C,1.600000*%
%TD*%
%TA.AperFunction,ComponentPad*%
%ADD15O,1.600000X1.600000*%
%TD*%
%TA.AperFunction,ComponentPad*%
%ADD16C,3.000000*%
%TD*%
%TA.AperFunction,ComponentPad*%
%ADD17C,2.500000*%
%TD*%
%TA.AperFunction,ComponentPad*%
%ADD18R,3.000000X3.000000*%
%TD*%
%TA.AperFunction,ComponentPad*%
%ADD19R,2.600000X2.600000*%
%TD*%
%TA.AperFunction,ComponentPad*%
%ADD20C,2.600000*%
%TD*%
%TA.AperFunction,ComponentPad*%
%ADD21C,7.500000*%
%TD*%
%TA.AperFunction,ComponentPad*%
%ADD22R,1.800000X1.800000*%
%TD*%
%TA.AperFunction,ComponentPad*%
%ADD23C,1.800000*%
%TD*%
%TA.AperFunction,ComponentPad*%
%ADD24R,1.500000X1.050000*%
%TD*%
%TA.AperFunction,ComponentPad*%
%ADD25O,1.500000X1.050000*%
%TD*%
%TA.AperFunction,ComponentPad*%
%ADD26O,1.800000X1.800000*%
%TD*%
%TA.AperFunction,ComponentPad*%
%ADD27R,2.500000X2.500000*%
%TD*%
%TA.AperFunction,Conductor*%
%ADD28C,0.600000*%
%TD*%
%TA.AperFunction,Conductor*%
%ADD29C,0.400000*%
%TD*%
G04 APERTURE END LIST*
D10*
%TO.P,SW1,1,A*%
%TO.N,Net-(SW1-A)*%
X88900000Y-66040000D03*
D11*
%TO.P,SW1,2,B*%
%TO.N,+24V*%
X88900000Y-68580000D03*
%TO.P,SW1,3,C*%
%TO.N,GND*%
X88900000Y-71120000D03*
%TD*%
D10*
%TO.P,J4,1,Pin_1*%
%TO.N,+5V*%
X161280000Y-121180000D03*
D11*
%TO.P,J4,2,Pin_2*%
%TO.N,GND*%
X158740000Y-121180000D03*
%TO.P,J4,3,Pin_3*%
%TO.N,+3V3*%
X156200000Y-121180000D03*
%TO.P,J4,4,Pin_4*%
%TO.N,OLED_SCL*%
X153660000Y-121180000D03*
%TO.P,J4,5,Pin_5*%
%TO.N,/general_layout/PB2*%
X151120000Y-121180000D03*
%TO.P,J4,6,Pin_6*%
%TO.N,Gas_Pressure_Out*%
X148580000Y-121180000D03*
%TO.P,J4,7,Pin_7*%
%TO.N,/general_layout/PB0*%
X146040000Y-121180000D03*
%TO.P,J4,8,Pin_8*%
%TO.N,/general_layout/PA7*%
X143500000Y-121180000D03*
%TO.P,J4,9,Pin_9*%
%TO.N,/general_layout/PA6*%
X140960000Y-121180000D03*
%TO.P,J4,10,Pin_10*%
%TO.N,/general_layout/PA5*%
X138420000Y-121180000D03*
%TO.P,J4,11,Pin_11*%
%TO.N,/general_layout/PA4*%
X135880000Y-121180000D03*
%TO.P,J4,12,Pin_12*%
%TO.N,Gas_Flowrate_Tx*%
X133340000Y-121180000D03*
%TO.P,J4,13,Pin_13*%
%TO.N,Gas_Flowrate_Rx*%
X130800000Y-121180000D03*
%TO.P,J4,14,Pin_14*%
%TO.N,/general_layout/PA1*%
X128260000Y-121180000D03*
%TO.P,J4,15,Pin_15*%
%TO.N,/general_layout/PA0*%
X125720000Y-121180000D03*
%TO.P,J4,16,Pin_16*%
%TO.N,/general_layout/NRST*%
X123180000Y-121180000D03*
%TO.P,J4,17,Pin_17*%
%TO.N,/general_layout/PC15*%
X120640000Y-121180000D03*
%TO.P,J4,18,Pin_18*%
%TO.N,/general_layout/PC14*%
X118100000Y-121180000D03*
%TO.P,J4,19,Pin_19*%
%TO.N,/general_layout/PC13*%
X115560000Y-121180000D03*
%TO.P,J4,20,Pin_20*%
%TO.N,/general_layout/VB*%
X113020000Y-121180000D03*
%TD*%
D10*
%TO.P,J3,1,Pin_1*%
%TO.N,+5V*%
X161280000Y-124460000D03*
D11*
%TO.P,J3,2,Pin_2*%
%TO.N,GND*%
X158740000Y-124460000D03*
%TO.P,J3,3,Pin_3*%
%TO.N,+3V3*%
X156200000Y-124460000D03*
%TO.P,J3,4,Pin_4*%
%TO.N,OLED_SCL*%
X153660000Y-124460000D03*
%TO.P,J3,5,Pin_5*%
%TO.N,/general_layout/PB2*%
X151120000Y-124460000D03*
%TO.P,J3,6,Pin_6*%
%TO.N,Gas_Pressure_Out*%
X148580000Y-124460000D03*
%TO.P,J3,7,Pin_7*%
%TO.N,/general_layout/PB0*%
X146040000Y-124460000D03*
%TO.P,J3,8,Pin_8*%
%TO.N,/general_layout/PA7*%
X143500000Y-124460000D03*
%TO.P,J3,9,Pin_9*%
%TO.N,/general_layout/PA6*%
X140960000Y-124460000D03*
%TO.P,J3,10,Pin_10*%
%TO.N,/general_layout/PA5*%
X138420000Y-124460000D03*
%TO.P,J3,11,Pin_11*%
%TO.N,/general_layout/PA4*%
X135880000Y-124460000D03*
%TO.P,J3,12,Pin_12*%
%TO.N,Gas_Flowrate_Tx*%
X133340000Y-124460000D03*
%TO.P,J3,13,Pin_13*%
%TO.N,Gas_Flowrate_Rx*%
X130800000Y-124460000D03*
%TO.P,J3,14,Pin_14*%
%TO.N,/general_layout/PA1*%
X128260000Y-124460000D03*
%TO.P,J3,15,Pin_15*%
%TO.N,/general_layout/PA0*%
X125720000Y-124460000D03*
%TO.P,J3,16,Pin_16*%
%TO.N,/general_layout/NRST*%
X123180000Y-124460000D03*
%TO.P,J3,17,Pin_17*%
%TO.N,/general_layout/PC15*%
X120640000Y-124460000D03*
%TO.P,J3,18,Pin_18*%
%TO.N,/general_layout/PC14*%
X118100000Y-124460000D03*
%TO.P,J3,19,Pin_19*%
%TO.N,/general_layout/PC13*%
X115560000Y-124460000D03*
%TO.P,J3,20,Pin_20*%
%TO.N,/general_layout/VB*%
X113020000Y-124460000D03*
%TD*%
D10*
%TO.P,J2,1,Pin_1*%
%TO.N,Float_Chamber1_min*%
X161285000Y-106680000D03*
D11*
%TO.P,J2,2,Pin_2*%
%TO.N,Float_Chamber1_max*%
X158745000Y-106680000D03*
%TO.P,J2,3,Pin_3*%
%TO.N,Float_Chamber2_min*%
X156205000Y-106680000D03*
%TO.P,J2,4,Pin_4*%
%TO.N,Float_Chamber2_max*%
X153665000Y-106680000D03*
%TO.P,J2,5,Pin_5*%
%TO.N,Float_Chamber3_min*%
X151125000Y-106680000D03*
%TO.P,J2,6,Pin_6*%
%TO.N,Float_Chamber3_max*%
X148585000Y-106680000D03*
%TO.P,J2,7,Pin_7*%
%TO.N,Float_Chamber4_min*%
X146045000Y-106680000D03*
%TO.P,J2,8,Pin_8*%
%TO.N,Float_Chamber4_max*%
X143505000Y-106680000D03*
%TO.P,J2,9,Pin_9*%
%TO.N,Electrode1_Output*%
X140965000Y-106680000D03*
%TO.P,J2,10,Pin_10*%
%TO.N,Electrode2_Output*%
X138425000Y-106680000D03*
%TO.P,J2,11,Pin_11*%
%TO.N,Electrode3_Output*%
X135885000Y-106680000D03*
%TO.P,J2,12,Pin_12*%
%TO.N,Electrode4_Output*%
X133345000Y-106680000D03*
%TO.P,J2,13,Pin_13*%
%TO.N,Solenoid1_Output*%
X130805000Y-106680000D03*
%TO.P,J2,14,Pin_14*%
%TO.N,Solenoid2_Output*%
X128265000Y-106680000D03*
%TO.P,J2,15,Pin_15*%
%TO.N,Solenoid3_Output*%
X125725000Y-106680000D03*
%TO.P,J2,16,Pin_16*%
%TO.N,Solenoid4_Output*%
X123185000Y-106680000D03*
%TO.P,J2,17,Pin_17*%
%TO.N,OLED_SDA*%
X120645000Y-106680000D03*
%TO.P,J2,18,Pin_18*%
%TO.N,+5V*%
X118105000Y-106680000D03*
%TO.P,J2,19,Pin_19*%
%TO.N,GND*%
X115565000Y-106680000D03*
%TO.P,J2,20,Pin_20*%
%TO.N,+3V3*%
X113025000Y-106680000D03*
%TD*%
D12*
%TO.P,Q7,1,E*%
%TO.N,GND*%
X146460000Y-82800000D03*
D13*
%TO.P,Q7,2,B*%
%TO.N,Net-(Q7-B)*%
X145190000Y-82800000D03*
%TO.P,Q7,3,C*%
%TO.N,Net-(D11-A)*%
X143920000Y-82800000D03*
%TD*%
D14*
%TO.P,R13,1*%
%TO.N,Float_Chamber4_min*%
X204470000Y-134620000D03*
D15*
%TO.P,R13,2*%
%TO.N,GND*%
X204470000Y-124460000D03*
%TD*%
D16*
%TO.P,K7,1*%
%TO.N,Net-(J14-Pin_1)*%
X142240000Y-72000000D03*
D17*
%TO.P,K7,2*%
%TO.N,Net-(D11-A)*%
X148290000Y-70050000D03*
D16*
%TO.P,K7,3*%
%TO.N,Net-(J14-Pin_2)*%
X148290000Y-57850000D03*
%TO.P,K7,4*%
%TO.N,unconnected-(K7-Pad4)*%
X136240000Y-57800000D03*
D17*
%TO.P,K7,5*%
%TO.N,+5V*%
X136290000Y-70050000D03*
%TD*%
D16*
%TO.P,K6,1*%
%TO.N,Net-(J13-Pin_1)*%
X160020000Y-72000000D03*
D17*
%TO.P,K6,2*%
%TO.N,Net-(D10-A)*%
X166070000Y-70050000D03*
D16*
%TO.P,K6,3*%
%TO.N,Net-(J13-Pin_2)*%
X166070000Y-57850000D03*
%TO.P,K6,4*%
%TO.N,unconnected-(K6-Pad4)*%
X154020000Y-57800000D03*
D17*
%TO.P,K6,5*%
%TO.N,+5V*%
X154070000Y-70050000D03*
%TD*%
D18*
%TO.P,J17,1,Pin_1*%
%TO.N,Float_Chamber2_min*%
X163830000Y-139700000D03*
D16*
%TO.P,J17,2,Pin_2*%
%TO.N,+3V3*%
X158750000Y-139700000D03*
%TD*%
D19*
%TO.P,J1,1*%
%TO.N,Net-(SW1-A)*%
X90020000Y-55130000D03*
D20*
%TO.P,J1,2*%
%TO.N,GND*%
X84020000Y-55130000D03*
%TO.P,J1,3*%
X87020000Y-59830000D03*
%TD*%
D18*
%TO.P,J12,1,Pin_1*%
%TO.N,Net-(J12-Pin_1)*%
X212600000Y-53340000D03*
D16*
%TO.P,J12,2,Pin_2*%
%TO.N,Net-(J12-Pin_2)*%
X212600000Y-58420000D03*
%TD*%
D21*
%TO.P,H4,1*%
%TO.N,N/C*%
X224790000Y-143510000D03*
%TD*%
D22*
%TO.P,D14,1,K*%
%TO.N,Net-(D14-K)*%
X155780000Y-82040000D03*
D23*
%TO.P,D14,2,A*%
%TO.N,Solenoid2_Output*%
X153240000Y-82040000D03*
%TD*%
D18*
%TO.P,J11,1,Pin_1*%
%TO.N,Net-(J11-Pin_1)*%
X212310000Y-68670000D03*
D16*
%TO.P,J11,2,Pin_2*%
%TO.N,Net-(J11-Pin_2)*%
X212310000Y-73750000D03*
%TD*%
D14*
%TO.P,R2,1*%
%TO.N,Net-(D5-K)*%
X175260000Y-110380000D03*
D15*
%TO.P,R2,2*%
%TO.N,Net-(Q1-B)*%
X175260000Y-120540000D03*
%TD*%
D21*
%TO.P,H2,1*%
%TO.N,N/C*%
X223520000Y-45720000D03*
%TD*%
%TO.P,H3,1*%
%TO.N,N/C*%
X83820000Y-143510000D03*
%TD*%
D14*
%TO.P,R1,1*%
%TO.N,Gas_Pressure_Out*%
X128350000Y-134620000D03*
D15*
%TO.P,R1,2*%
%TO.N,GND*%
X118190000Y-134620000D03*
%TD*%
D24*
%TO.P,Q3,1,E*%
%TO.N,GND*%
X179460000Y-89100000D03*
D25*
%TO.P,Q3,2,B*%
%TO.N,Net-(Q3-B)*%
X179460000Y-87830000D03*
%TO.P,Q3,3,C*%
%TO.N,Net-(D3-A)*%
X179460000Y-86560000D03*
%TD*%
D18*
%TO.P,J20,1,Pin_1*%
%TO.N,Float_Chamber1_max*%
X153670000Y-139700000D03*
D16*
%TO.P,J20,2,Pin_2*%
%TO.N,+3V3*%
X148590000Y-139700000D03*
%TD*%
D18*
%TO.P,J9,1,Pin_1*%
%TO.N,Net-(J9-Pin_1)*%
X213340000Y-99430000D03*
D16*
%TO.P,J9,2,Pin_2*%
%TO.N,Net-(J9-Pin_2)*%
X213340000Y-104510000D03*
%TD*%
D22*
%TO.P,D5,1,K*%
%TO.N,Net-(D5-K)*%
X180340000Y-112920000D03*
D23*
%TO.P,D5,2,A*%
%TO.N,Electrode1_Output*%
X180340000Y-110380000D03*
%TD*%
D16*
%TO.P,K2,1*%
%TO.N,Net-(J9-Pin_1)*%
X189600000Y-99430000D03*
D17*
%TO.P,K2,2*%
%TO.N,Net-(D2-A)*%
X191550000Y-105480000D03*
D16*
%TO.P,K2,3*%
%TO.N,Net-(J9-Pin_2)*%
X203750000Y-105480000D03*
%TO.P,K2,4*%
%TO.N,unconnected-(K2-Pad4)*%
X203800000Y-93430000D03*
D17*
%TO.P,K2,5*%
%TO.N,+5V*%
X191550000Y-93480000D03*
%TD*%
D24*
%TO.P,Q4,1,E*%
%TO.N,GND*%
X179290000Y-73750000D03*
D25*
%TO.P,Q4,2,B*%
%TO.N,Net-(Q4-B)*%
X179290000Y-72480000D03*
%TO.P,Q4,3,C*%
%TO.N,Net-(D4-A)*%
X179290000Y-71210000D03*
%TD*%
D14*
%TO.P,R3,1*%
%TO.N,Net-(D6-K)*%
X175240000Y-94350000D03*
D15*
%TO.P,R3,2*%
%TO.N,Net-(Q2-B)*%
X175240000Y-104510000D03*
%TD*%
D22*
%TO.P,D16,1,K*%
%TO.N,Net-(D16-K)*%
X120220000Y-82040000D03*
D23*
%TO.P,D16,2,A*%
%TO.N,Solenoid4_Output*%
X117680000Y-82040000D03*
%TD*%
D14*
%TO.P,R17,1*%
%TO.N,Float_Chamber4_max*%
X214710000Y-134620000D03*
D15*
%TO.P,R17,2*%
%TO.N,GND*%
X214710000Y-124460000D03*
%TD*%
D14*
%TO.P,R12,1*%
%TO.N,Float_Chamber3_min*%
X184230000Y-134620000D03*
D15*
%TO.P,R12,2*%
%TO.N,GND*%
X184230000Y-124460000D03*
%TD*%
D14*
%TO.P,R16,1*%
%TO.N,Float_Chamber3_max*%
X194310000Y-134620000D03*
D15*
%TO.P,R16,2*%
%TO.N,GND*%
X194310000Y-124460000D03*
%TD*%
D22*
%TO.P,D8,1,K*%
%TO.N,Net-(D8-K)*%
X179290000Y-66130000D03*
D23*
%TO.P,D8,2,A*%
%TO.N,Electrode4_Output*%
X179290000Y-63590000D03*
%TD*%
D22*
%TO.P,D7,1,K*%
%TO.N,Net-(D7-K)*%
X179460000Y-81480000D03*
D23*
%TO.P,D7,2,A*%
%TO.N,Electrode3_Output*%
X179460000Y-78940000D03*
%TD*%
D14*
%TO.P,R11,1*%
%TO.N,Float_Chamber2_min*%
X166370000Y-134620000D03*
D15*
%TO.P,R11,2*%
%TO.N,GND*%
X156210000Y-134620000D03*
%TD*%
D18*
%TO.P,J15,1,Pin_1*%
%TO.N,Net-(J15-Pin_1)*%
X124460000Y-49020000D03*
D16*
%TO.P,J15,2,Pin_2*%
%TO.N,Net-(J15-Pin_2)*%
X129540000Y-49020000D03*
%TD*%
%TO.P,K4,1*%
%TO.N,Net-(J11-Pin_1)*%
X189620000Y-68670000D03*
D17*
%TO.P,K4,2*%
%TO.N,Net-(D4-A)*%
X191570000Y-74720000D03*
D16*
%TO.P,K4,3*%
%TO.N,Net-(J11-Pin_2)*%
X203770000Y-74720000D03*
%TO.P,K4,4*%
%TO.N,unconnected-(K4-Pad4)*%
X203820000Y-62670000D03*
D17*
%TO.P,K4,5*%
%TO.N,+5V*%
X191570000Y-62720000D03*
%TD*%
D14*
%TO.P,R4,1*%
%TO.N,Net-(D7-K)*%
X174380000Y-78940000D03*
D15*
%TO.P,R4,2*%
%TO.N,Net-(Q3-B)*%
X174380000Y-89100000D03*
%TD*%
D18*
%TO.P,J23,1,Pin_1*%
%TO.N,Float_Chamber4_max*%
X214630000Y-139700000D03*
D16*
%TO.P,J23,2,Pin_2*%
%TO.N,+3V3*%
X209550000Y-139700000D03*
%TD*%
D18*
%TO.P,J10,1,Pin_1*%
%TO.N,Net-(J10-Pin_1)*%
X212480000Y-84020000D03*
D16*
%TO.P,J10,2,Pin_2*%
%TO.N,Net-(J10-Pin_2)*%
X212480000Y-89100000D03*
%TD*%
D14*
%TO.P,R5,1*%
%TO.N,Net-(D8-K)*%
X174210000Y-63590000D03*
D15*
%TO.P,R5,2*%
%TO.N,Net-(Q4-B)*%
X174210000Y-73750000D03*
%TD*%
D18*
%TO.P,J18,1,Pin_1*%
%TO.N,Float_Chamber3_min*%
X184150000Y-139700000D03*
D16*
%TO.P,J18,2,Pin_2*%
%TO.N,+3V3*%
X179070000Y-139700000D03*
%TD*%
D22*
%TO.P,D1,1,K*%
%TO.N,+5V*%
X185420000Y-110380000D03*
D26*
%TO.P,D1,2,A*%
%TO.N,Net-(D1-A)*%
X185420000Y-120540000D03*
%TD*%
D18*
%TO.P,J19,1,Pin_1*%
%TO.N,Float_Chamber4_min*%
X204470000Y-139700000D03*
D16*
%TO.P,J19,2,Pin_2*%
%TO.N,+3V3*%
X199390000Y-139700000D03*
%TD*%
D12*
%TO.P,Q6,1,E*%
%TO.N,GND*%
X164240000Y-82800000D03*
D13*
%TO.P,Q6,2,B*%
%TO.N,Net-(Q6-B)*%
X162970000Y-82800000D03*
%TO.P,Q6,3,C*%
%TO.N,Net-(D10-A)*%
X161700000Y-82800000D03*
%TD*%
D14*
%TO.P,R9,1*%
%TO.N,Net-(D16-K)*%
X118520000Y-87880000D03*
D15*
%TO.P,R9,2*%
%TO.N,Net-(Q8-B)*%
X128680000Y-87880000D03*
%TD*%
D27*
%TO.P,U1,1,IN+*%
%TO.N,+24V*%
X107535000Y-91230000D03*
%TO.P,U1,2,IN-*%
%TO.N,GND*%
X90475000Y-91230000D03*
%TO.P,U1,3,OUT+*%
%TO.N,+3V3*%
X107535000Y-132290000D03*
%TO.P,U1,4,OUT-*%
%TO.N,GND*%
X90475000Y-132290000D03*
%TD*%
D14*
%TO.P,R14,1*%
%TO.N,Float_Chamber1_max*%
X153670000Y-134620000D03*
D15*
%TO.P,R14,2*%
%TO.N,GND*%
X143510000Y-134620000D03*
%TD*%
D18*
%TO.P,J13,1,Pin_1*%
%TO.N,Net-(J13-Pin_1)*%
X160020000Y-49020000D03*
D16*
%TO.P,J13,2,Pin_2*%
%TO.N,Net-(J13-Pin_2)*%
X165100000Y-49020000D03*
%TD*%
D22*
%TO.P,D4,1,K*%
%TO.N,+5V*%
X184370000Y-63590000D03*
D26*
%TO.P,D4,2,A*%
%TO.N,Net-(D4-A)*%
X184370000Y-73750000D03*
%TD*%
D14*
%TO.P,R15,1*%
%TO.N,Float_Chamber2_max*%
X179070000Y-134620000D03*
D15*
%TO.P,R15,2*%
%TO.N,GND*%
X168910000Y-134620000D03*
%TD*%
D18*
%TO.P,J5,1,Pin_1*%
%TO.N,+5V*%
X83820000Y-127000000D03*
D16*
%TO.P,J5,2,Pin_2*%
%TO.N,GND*%
X83820000Y-121920000D03*
%TO.P,J5,3,Pin_3*%
%TO.N,OLED_SCL*%
X83820000Y-116840000D03*
%TO.P,J5,4,Pin_4*%
%TO.N,OLED_SDA*%
X83820000Y-111760000D03*
%TD*%
D14*
%TO.P,R7,1*%
%TO.N,Net-(D14-K)*%
X154080000Y-87880000D03*
D15*
%TO.P,R7,2*%
%TO.N,Net-(Q6-B)*%
X164240000Y-87880000D03*
%TD*%
D18*
%TO.P,J22,1,Pin_1*%
%TO.N,Float_Chamber3_max*%
X194310000Y-139700000D03*
D16*
%TO.P,J22,2,Pin_2*%
%TO.N,+3V3*%
X189230000Y-139700000D03*
%TD*%
%TO.P,K1,1*%
%TO.N,Net-(J8-Pin_1)*%
X189620000Y-115460000D03*
D17*
%TO.P,K1,2*%
%TO.N,Net-(D1-A)*%
X191570000Y-121510000D03*
D16*
%TO.P,K1,3*%
%TO.N,Net-(J8-Pin_2)*%
X203770000Y-121510000D03*
%TO.P,K1,4*%
%TO.N,unconnected-(K1-Pad4)*%
X203820000Y-109460000D03*
D17*
%TO.P,K1,5*%
%TO.N,+5V*%
X191570000Y-109510000D03*
%TD*%
D24*
%TO.P,Q1,1,E*%
%TO.N,GND*%
X180340000Y-120540000D03*
D25*
%TO.P,Q1,2,B*%
%TO.N,Net-(Q1-B)*%
X180340000Y-119270000D03*
%TO.P,Q1,3,C*%
%TO.N,Net-(D1-A)*%
X180340000Y-118000000D03*
%TD*%
D18*
%TO.P,J16,1,Pin_1*%
%TO.N,Float_Chamber1_min*%
X143510000Y-139700000D03*
D16*
%TO.P,J16,2,Pin_2*%
%TO.N,+3V3*%
X138430000Y-139700000D03*
%TD*%
D18*
%TO.P,J14,1,Pin_1*%
%TO.N,Net-(J14-Pin_1)*%
X142240000Y-49020000D03*
D16*
%TO.P,J14,2,Pin_2*%
%TO.N,Net-(J14-Pin_2)*%
X147320000Y-49020000D03*
%TD*%
D18*
%TO.P,J8,1,Pin_1*%
%TO.N,Net-(J8-Pin_1)*%
X213360000Y-115460000D03*
D16*
%TO.P,J8,2,Pin_2*%
%TO.N,Net-(J8-Pin_2)*%
X213360000Y-120540000D03*
%TD*%
D18*
%TO.P,J6,1,Pin_1*%
%TO.N,+24V*%
X133430000Y-139700000D03*
D16*
%TO.P,J6,2,Pin_2*%
%TO.N,Gas_Pressure_Out*%
X128350000Y-139700000D03*
%TO.P,J6,3,Pin_3*%
%TO.N,GND*%
X123270000Y-139700000D03*
%TD*%
D22*
%TO.P,D15,1,K*%
%TO.N,Net-(D15-K)*%
X138000000Y-82040000D03*
D23*
%TO.P,D15,2,A*%
%TO.N,Solenoid3_Output*%
X135460000Y-82040000D03*
%TD*%
D14*
%TO.P,R6,1*%
%TO.N,Net-(D13-K)*%
X173740000Y-46560000D03*
D15*
%TO.P,R6,2*%
%TO.N,Net-(Q5-B)*%
X173740000Y-56720000D03*
%TD*%
D22*
%TO.P,D13,1,K*%
%TO.N,Net-(D13-K)*%
X179580000Y-49100000D03*
D23*
%TO.P,D13,2,A*%
%TO.N,Solenoid1_Output*%
X179580000Y-46560000D03*
%TD*%
D16*
%TO.P,K8,1*%
%TO.N,Net-(J15-Pin_1)*%
X124460000Y-72000000D03*
D17*
%TO.P,K8,2*%
%TO.N,Net-(D12-A)*%
X130510000Y-70050000D03*
D16*
%TO.P,K8,3*%
%TO.N,Net-(J15-Pin_2)*%
X130510000Y-57850000D03*
%TO.P,K8,4*%
%TO.N,unconnected-(K8-Pad4)*%
X118460000Y-57800000D03*
D17*
%TO.P,K8,5*%
%TO.N,+5V*%
X118510000Y-70050000D03*
%TD*%
D27*
%TO.P,U2,1,IN+*%
%TO.N,+24V*%
X112615000Y-45510000D03*
%TO.P,U2,2,IN-*%
%TO.N,GND*%
X95555000Y-45510000D03*
%TO.P,U2,3,OUT+*%
%TO.N,+5V*%
X112615000Y-86570000D03*
%TO.P,U2,4,OUT-*%
%TO.N,GND*%
X95555000Y-86570000D03*
%TD*%
D22*
%TO.P,D3,1,K*%
%TO.N,+5V*%
X184540000Y-78940000D03*
D26*
%TO.P,D3,2,A*%
%TO.N,Net-(D3-A)*%
X184540000Y-89100000D03*
%TD*%
D16*
%TO.P,K5,1*%
%TO.N,Net-(J12-Pin_1)*%
X189620000Y-53340000D03*
D17*
%TO.P,K5,2*%
%TO.N,Net-(D9-A)*%
X191570000Y-59390000D03*
D16*
%TO.P,K5,3*%
%TO.N,Net-(J12-Pin_2)*%
X203770000Y-59390000D03*
%TO.P,K5,4*%
%TO.N,unconnected-(K5-Pad4)*%
X203820000Y-47340000D03*
D17*
%TO.P,K5,5*%
%TO.N,+5V*%
X191570000Y-47390000D03*
%TD*%
D18*
%TO.P,J7,1,Pin_1*%
%TO.N,+3V3*%
X118190000Y-139700000D03*
D16*
%TO.P,J7,2,Pin_2*%
%TO.N,Gas_Flowrate_Tx*%
X113110000Y-139700000D03*
%TO.P,J7,3,Pin_3*%
%TO.N,Gas_Flowrate_Rx*%
X108030000Y-139700000D03*
%TO.P,J7,4,Pin_4*%
%TO.N,GND*%
X102950000Y-139700000D03*
%TD*%
D18*
%TO.P,J21,1,Pin_1*%
%TO.N,Float_Chamber2_max*%
X173990000Y-139700000D03*
D16*
%TO.P,J21,2,Pin_2*%
%TO.N,+3V3*%
X168910000Y-139700000D03*
%TD*%
D22*
%TO.P,D6,1,K*%
%TO.N,Net-(D6-K)*%
X180320000Y-96890000D03*
D23*
%TO.P,D6,2,A*%
%TO.N,Electrode2_Output*%
X180320000Y-94350000D03*
%TD*%
D14*
%TO.P,R8,1*%
%TO.N,Net-(D15-K)*%
X136300000Y-87880000D03*
D15*
%TO.P,R8,2*%
%TO.N,Net-(Q7-B)*%
X146460000Y-87880000D03*
%TD*%
D21*
%TO.P,H1,1*%
%TO.N,N/C*%
X83820000Y-45720000D03*
%TD*%
D22*
%TO.P,D12,1,K*%
%TO.N,+5V*%
X117680000Y-76960000D03*
D26*
%TO.P,D12,2,A*%
%TO.N,Net-(D12-A)*%
X127840000Y-76960000D03*
%TD*%
D22*
%TO.P,D11,1,K*%
%TO.N,+5V*%
X135460000Y-76960000D03*
D26*
%TO.P,D11,2,A*%
%TO.N,Net-(D11-A)*%
X145620000Y-76960000D03*
%TD*%
D12*
%TO.P,Q8,1,E*%
%TO.N,GND*%
X128680000Y-82800000D03*
D13*
%TO.P,Q8,2,B*%
%TO.N,Net-(Q8-B)*%
X127410000Y-82800000D03*
%TO.P,Q8,3,C*%
%TO.N,Net-(D12-A)*%
X126140000Y-82800000D03*
%TD*%
D22*
%TO.P,D10,1,K*%
%TO.N,+5V*%
X153240000Y-76960000D03*
D26*
%TO.P,D10,2,A*%
%TO.N,Net-(D10-A)*%
X163400000Y-76960000D03*
%TD*%
D24*
%TO.P,Q5,1,E*%
%TO.N,GND*%
X178820000Y-57560000D03*
D25*
%TO.P,Q5,2,B*%
%TO.N,Net-(Q5-B)*%
X178820000Y-56290000D03*
%TO.P,Q5,3,C*%
%TO.N,Net-(D9-A)*%
X178820000Y-55020000D03*
%TD*%
D16*
%TO.P,K3,1*%
%TO.N,Net-(J10-Pin_1)*%
X189620000Y-84020000D03*
D17*
%TO.P,K3,2*%
%TO.N,Net-(D3-A)*%
X191570000Y-90070000D03*
D16*
%TO.P,K3,3*%
%TO.N,Net-(J10-Pin_2)*%
X203770000Y-90070000D03*
%TO.P,K3,4*%
%TO.N,unconnected-(K3-Pad4)*%
X203820000Y-78020000D03*
D17*
%TO.P,K3,5*%
%TO.N,+5V*%
X191570000Y-78070000D03*
%TD*%
D14*
%TO.P,R10,1*%
%TO.N,Float_Chamber1_min*%
X141050000Y-134620000D03*
D15*
%TO.P,R10,2*%
%TO.N,GND*%
X130890000Y-134620000D03*
%TD*%
D22*
%TO.P,D9,1,K*%
%TO.N,+5V*%
X184660000Y-46560000D03*
D26*
%TO.P,D9,2,A*%
%TO.N,Net-(D9-A)*%
X184660000Y-56720000D03*
%TD*%
D22*
%TO.P,D2,1,K*%
%TO.N,+5V*%
X185400000Y-94350000D03*
D26*
%TO.P,D2,2,A*%
%TO.N,Net-(D2-A)*%
X185400000Y-104510000D03*
%TD*%
D24*
%TO.P,Q2,1,E*%
%TO.N,GND*%
X180320000Y-104510000D03*
D25*
%TO.P,Q2,2,B*%
%TO.N,Net-(Q2-B)*%
X180320000Y-103240000D03*
%TO.P,Q2,3,C*%
%TO.N,Net-(D2-A)*%
X180320000Y-101970000D03*
%TD*%
D28*
%TO.N,+5V*%
X200660000Y-102870000D02*
X200660000Y-94370000D01*
X147520000Y-63500000D02*
X154070000Y-70050000D01*
X118510000Y-64370000D02*
X119380000Y-63500000D01*
X194020000Y-109510000D02*
X200660000Y-102870000D01*
X137160000Y-63500000D02*
X147520000Y-63500000D01*
X129740000Y-63500000D02*
X136290000Y-70050000D01*
X200660000Y-92590000D02*
X200660000Y-78940000D01*
X118510000Y-70050000D02*
X118510000Y-64370000D01*
X199790000Y-62720000D02*
X191570000Y-62720000D01*
X199770000Y-93480000D02*
X200660000Y-92590000D01*
X200170000Y-62720000D02*
X200660000Y-62230000D01*
X200660000Y-63590000D02*
X199790000Y-62720000D01*
X200660000Y-48260000D02*
X199790000Y-47390000D01*
X200060000Y-78070000D02*
X200660000Y-77470000D01*
X199790000Y-47390000D02*
X191570000Y-47390000D01*
X200660000Y-77470000D02*
X200660000Y-63590000D01*
X154070000Y-61830000D02*
X154940000Y-60960000D01*
X200660000Y-62230000D02*
X200660000Y-48260000D01*
X199790000Y-78070000D02*
X191570000Y-78070000D01*
X154070000Y-70050000D02*
X154070000Y-61830000D01*
X199790000Y-62720000D02*
X200170000Y-62720000D01*
X136290000Y-70050000D02*
X136290000Y-64370000D01*
X200660000Y-94370000D02*
X199770000Y-93480000D01*
X136290000Y-64370000D02*
X137160000Y-63500000D01*
X199790000Y-78070000D02*
X200060000Y-78070000D01*
X119380000Y-63500000D02*
X129740000Y-63500000D01*
X199770000Y-93480000D02*
X191550000Y-93480000D01*
X181740000Y-60960000D02*
X184370000Y-63590000D01*
X154940000Y-60960000D02*
X181740000Y-60960000D01*
X191570000Y-109510000D02*
X194020000Y-109510000D01*
X200660000Y-78940000D02*
X199790000Y-78070000D01*
%TO.N,GND*%
X81280000Y-93980000D02*
X84030000Y-91230000D01*
X83820000Y-121920000D02*
X81280000Y-119380000D01*
X156210000Y-132080000D02*
X158750000Y-129540000D01*
X158740000Y-129530000D02*
X158740000Y-124460000D01*
X173990000Y-124460000D02*
X168910000Y-129540000D01*
X81280000Y-119380000D02*
X81280000Y-93980000D01*
X158750000Y-129540000D02*
X158740000Y-129530000D01*
X142240000Y-129540000D02*
X143510000Y-130810000D01*
X168910000Y-129540000D02*
X168910000Y-134620000D01*
X156210000Y-134620000D02*
X156210000Y-132080000D01*
X130890000Y-130730000D02*
X132080000Y-129540000D01*
X168910000Y-129540000D02*
X158750000Y-129540000D01*
X132080000Y-129540000D02*
X142240000Y-129540000D01*
X184230000Y-124460000D02*
X173990000Y-124460000D01*
X130890000Y-134620000D02*
X130890000Y-130730000D01*
X144780000Y-129540000D02*
X158750000Y-129540000D01*
X84030000Y-91230000D02*
X90475000Y-91230000D01*
X143510000Y-134620000D02*
X143510000Y-130810000D01*
X143510000Y-130810000D02*
X144780000Y-129540000D01*
D29*
%TO.N,OLED_SCL*%
X149860000Y-114300000D02*
X153660000Y-118100000D01*
X119380000Y-114300000D02*
X149860000Y-114300000D01*
X83820000Y-116840000D02*
X87630000Y-116840000D01*
X92710000Y-111760000D02*
X116840000Y-111760000D01*
X153660000Y-118100000D02*
X153660000Y-121180000D01*
X116840000Y-111760000D02*
X119380000Y-114300000D01*
X87630000Y-116840000D02*
X92710000Y-111760000D01*
%TO.N,OLED_SDA*%
X88900000Y-101600000D02*
X116840000Y-101600000D01*
X116840000Y-101600000D02*
X120645000Y-105405000D01*
X120645000Y-105405000D02*
X120645000Y-106680000D01*
X83820000Y-106680000D02*
X88900000Y-101600000D01*
X83820000Y-106680000D02*
X83820000Y-111760000D01*
D28*
%TO.N,+3V3*%
X118190000Y-139700000D02*
X120589511Y-142099511D01*
X120589511Y-142099511D02*
X136030489Y-142099511D01*
X136030489Y-142099511D02*
X138430000Y-139700000D01*
%TD*%
M02*
