%TF.GenerationSoftware,KiCad,Pcbnew,8.0.1*%
%TF.CreationDate,2024-05-20T21:19:55+03:00*%
%TF.ProjectId,oxygen_harvester,6f787967-656e-45f6-9861-727665737465,rev?*%
%TF.SameCoordinates,Original*%
%TF.FileFunction,Soldermask,Top*%
%TF.FilePolarity,Negative*%
%FSLAX46Y46*%
G04 Gerber Fmt 4.6, Leading zero omitted, Abs format (unit mm)*
G04 Created by KiCad (PCBNEW 8.0.1) date 2024-05-20 21:19:55*
%MOMM*%
%LPD*%
G01*
G04 APERTURE LIST*
%ADD10R,1.700000X1.700000*%
%ADD11O,1.700000X1.700000*%
%ADD12R,1.050000X1.500000*%
%ADD13O,1.050000X1.500000*%
%ADD14C,1.600000*%
%ADD15O,1.600000X1.600000*%
%ADD16C,3.000000*%
%ADD17C,2.500000*%
%ADD18R,3.000000X3.000000*%
%ADD19R,2.600000X2.600000*%
%ADD20C,2.600000*%
%ADD21C,7.500000*%
%ADD22R,1.800000X1.800000*%
%ADD23C,1.800000*%
%ADD24R,1.500000X1.050000*%
%ADD25O,1.500000X1.050000*%
%ADD26O,1.800000X1.800000*%
%ADD27R,2.500000X2.500000*%
G04 APERTURE END LIST*
D10*
%TO.C,SW1*%
X88900000Y-66040000D03*
D11*
X88900000Y-68580000D03*
X88900000Y-71120000D03*
%TD*%
D10*
%TO.C,J4*%
X161280000Y-121180000D03*
D11*
X158740000Y-121180000D03*
X156200000Y-121180000D03*
X153660000Y-121180000D03*
X151120000Y-121180000D03*
X148580000Y-121180000D03*
X146040000Y-121180000D03*
X143500000Y-121180000D03*
X140960000Y-121180000D03*
X138420000Y-121180000D03*
X135880000Y-121180000D03*
X133340000Y-121180000D03*
X130800000Y-121180000D03*
X128260000Y-121180000D03*
X125720000Y-121180000D03*
X123180000Y-121180000D03*
X120640000Y-121180000D03*
X118100000Y-121180000D03*
X115560000Y-121180000D03*
X113020000Y-121180000D03*
%TD*%
D10*
%TO.C,J3*%
X161280000Y-124460000D03*
D11*
X158740000Y-124460000D03*
X156200000Y-124460000D03*
X153660000Y-124460000D03*
X151120000Y-124460000D03*
X148580000Y-124460000D03*
X146040000Y-124460000D03*
X143500000Y-124460000D03*
X140960000Y-124460000D03*
X138420000Y-124460000D03*
X135880000Y-124460000D03*
X133340000Y-124460000D03*
X130800000Y-124460000D03*
X128260000Y-124460000D03*
X125720000Y-124460000D03*
X123180000Y-124460000D03*
X120640000Y-124460000D03*
X118100000Y-124460000D03*
X115560000Y-124460000D03*
X113020000Y-124460000D03*
%TD*%
D10*
%TO.C,J2*%
X161285000Y-106680000D03*
D11*
X158745000Y-106680000D03*
X156205000Y-106680000D03*
X153665000Y-106680000D03*
X151125000Y-106680000D03*
X148585000Y-106680000D03*
X146045000Y-106680000D03*
X143505000Y-106680000D03*
X140965000Y-106680000D03*
X138425000Y-106680000D03*
X135885000Y-106680000D03*
X133345000Y-106680000D03*
X130805000Y-106680000D03*
X128265000Y-106680000D03*
X125725000Y-106680000D03*
X123185000Y-106680000D03*
X120645000Y-106680000D03*
X118105000Y-106680000D03*
X115565000Y-106680000D03*
X113025000Y-106680000D03*
%TD*%
D12*
%TO.C,Q7*%
X146460000Y-82800000D03*
D13*
X145190000Y-82800000D03*
X143920000Y-82800000D03*
%TD*%
D14*
%TO.C,R13*%
X204470000Y-134620000D03*
D15*
X204470000Y-124460000D03*
%TD*%
D16*
%TO.C,K7*%
X142240000Y-72000000D03*
D17*
X148290000Y-70050000D03*
D16*
X148290000Y-57850000D03*
X136240000Y-57800000D03*
D17*
X136290000Y-70050000D03*
%TD*%
D16*
%TO.C,K6*%
X160020000Y-72000000D03*
D17*
X166070000Y-70050000D03*
D16*
X166070000Y-57850000D03*
X154020000Y-57800000D03*
D17*
X154070000Y-70050000D03*
%TD*%
D18*
%TO.C,J17*%
X163830000Y-139700000D03*
D16*
X158750000Y-139700000D03*
%TD*%
D19*
%TO.C,J1*%
X90020000Y-55130000D03*
D20*
X84020000Y-55130000D03*
X87020000Y-59830000D03*
%TD*%
D18*
%TO.C,J12*%
X212600000Y-53340000D03*
D16*
X212600000Y-58420000D03*
%TD*%
D21*
%TO.C,H4*%
X224790000Y-143510000D03*
%TD*%
D22*
%TO.C,D14*%
X155780000Y-82040000D03*
D23*
X153240000Y-82040000D03*
%TD*%
D18*
%TO.C,J11*%
X212310000Y-68670000D03*
D16*
X212310000Y-73750000D03*
%TD*%
D14*
%TO.C,R2*%
X175260000Y-110380000D03*
D15*
X175260000Y-120540000D03*
%TD*%
D21*
%TO.C,H2*%
X223520000Y-45720000D03*
%TD*%
%TO.C,H3*%
X83820000Y-143510000D03*
%TD*%
D14*
%TO.C,R1*%
X128350000Y-134620000D03*
D15*
X118190000Y-134620000D03*
%TD*%
D24*
%TO.C,Q3*%
X179460000Y-89100000D03*
D25*
X179460000Y-87830000D03*
X179460000Y-86560000D03*
%TD*%
D18*
%TO.C,J20*%
X153670000Y-139700000D03*
D16*
X148590000Y-139700000D03*
%TD*%
D18*
%TO.C,J9*%
X213340000Y-99430000D03*
D16*
X213340000Y-104510000D03*
%TD*%
D22*
%TO.C,D5*%
X180340000Y-112920000D03*
D23*
X180340000Y-110380000D03*
%TD*%
D16*
%TO.C,K2*%
X189600000Y-99430000D03*
D17*
X191550000Y-105480000D03*
D16*
X203750000Y-105480000D03*
X203800000Y-93430000D03*
D17*
X191550000Y-93480000D03*
%TD*%
D24*
%TO.C,Q4*%
X179290000Y-73750000D03*
D25*
X179290000Y-72480000D03*
X179290000Y-71210000D03*
%TD*%
D14*
%TO.C,R3*%
X175240000Y-94350000D03*
D15*
X175240000Y-104510000D03*
%TD*%
D22*
%TO.C,D16*%
X120220000Y-82040000D03*
D23*
X117680000Y-82040000D03*
%TD*%
D14*
%TO.C,R17*%
X214710000Y-134620000D03*
D15*
X214710000Y-124460000D03*
%TD*%
D14*
%TO.C,R12*%
X184230000Y-134620000D03*
D15*
X184230000Y-124460000D03*
%TD*%
D14*
%TO.C,R16*%
X194310000Y-134620000D03*
D15*
X194310000Y-124460000D03*
%TD*%
D22*
%TO.C,D8*%
X179290000Y-66130000D03*
D23*
X179290000Y-63590000D03*
%TD*%
D22*
%TO.C,D7*%
X179460000Y-81480000D03*
D23*
X179460000Y-78940000D03*
%TD*%
D14*
%TO.C,R11*%
X166370000Y-134620000D03*
D15*
X156210000Y-134620000D03*
%TD*%
D18*
%TO.C,J15*%
X124460000Y-49020000D03*
D16*
X129540000Y-49020000D03*
%TD*%
%TO.C,K4*%
X189620000Y-68670000D03*
D17*
X191570000Y-74720000D03*
D16*
X203770000Y-74720000D03*
X203820000Y-62670000D03*
D17*
X191570000Y-62720000D03*
%TD*%
D14*
%TO.C,R4*%
X174380000Y-78940000D03*
D15*
X174380000Y-89100000D03*
%TD*%
D18*
%TO.C,J23*%
X214630000Y-139700000D03*
D16*
X209550000Y-139700000D03*
%TD*%
D18*
%TO.C,J10*%
X212480000Y-84020000D03*
D16*
X212480000Y-89100000D03*
%TD*%
D14*
%TO.C,R5*%
X174210000Y-63590000D03*
D15*
X174210000Y-73750000D03*
%TD*%
D18*
%TO.C,J18*%
X184150000Y-139700000D03*
D16*
X179070000Y-139700000D03*
%TD*%
D22*
%TO.C,D1*%
X185420000Y-110380000D03*
D26*
X185420000Y-120540000D03*
%TD*%
D18*
%TO.C,J19*%
X204470000Y-139700000D03*
D16*
X199390000Y-139700000D03*
%TD*%
D12*
%TO.C,Q6*%
X164240000Y-82800000D03*
D13*
X162970000Y-82800000D03*
X161700000Y-82800000D03*
%TD*%
D14*
%TO.C,R9*%
X118520000Y-87880000D03*
D15*
X128680000Y-87880000D03*
%TD*%
D27*
%TO.C,U1*%
X107535000Y-91230000D03*
X90475000Y-91230000D03*
X107535000Y-132290000D03*
X90475000Y-132290000D03*
%TD*%
D14*
%TO.C,R14*%
X153670000Y-134620000D03*
D15*
X143510000Y-134620000D03*
%TD*%
D18*
%TO.C,J13*%
X160020000Y-49020000D03*
D16*
X165100000Y-49020000D03*
%TD*%
D22*
%TO.C,D4*%
X184370000Y-63590000D03*
D26*
X184370000Y-73750000D03*
%TD*%
D14*
%TO.C,R15*%
X179070000Y-134620000D03*
D15*
X168910000Y-134620000D03*
%TD*%
D18*
%TO.C,J5*%
X83820000Y-127000000D03*
D16*
X83820000Y-121920000D03*
X83820000Y-116840000D03*
X83820000Y-111760000D03*
%TD*%
D14*
%TO.C,R7*%
X154080000Y-87880000D03*
D15*
X164240000Y-87880000D03*
%TD*%
D18*
%TO.C,J22*%
X194310000Y-139700000D03*
D16*
X189230000Y-139700000D03*
%TD*%
%TO.C,K1*%
X189620000Y-115460000D03*
D17*
X191570000Y-121510000D03*
D16*
X203770000Y-121510000D03*
X203820000Y-109460000D03*
D17*
X191570000Y-109510000D03*
%TD*%
D24*
%TO.C,Q1*%
X180340000Y-120540000D03*
D25*
X180340000Y-119270000D03*
X180340000Y-118000000D03*
%TD*%
D18*
%TO.C,J16*%
X143510000Y-139700000D03*
D16*
X138430000Y-139700000D03*
%TD*%
D18*
%TO.C,J14*%
X142240000Y-49020000D03*
D16*
X147320000Y-49020000D03*
%TD*%
D18*
%TO.C,J8*%
X213360000Y-115460000D03*
D16*
X213360000Y-120540000D03*
%TD*%
D18*
%TO.C,J6*%
X133430000Y-139700000D03*
D16*
X128350000Y-139700000D03*
X123270000Y-139700000D03*
%TD*%
D22*
%TO.C,D15*%
X138000000Y-82040000D03*
D23*
X135460000Y-82040000D03*
%TD*%
D14*
%TO.C,R6*%
X173740000Y-46560000D03*
D15*
X173740000Y-56720000D03*
%TD*%
D22*
%TO.C,D13*%
X179580000Y-49100000D03*
D23*
X179580000Y-46560000D03*
%TD*%
D16*
%TO.C,K8*%
X124460000Y-72000000D03*
D17*
X130510000Y-70050000D03*
D16*
X130510000Y-57850000D03*
X118460000Y-57800000D03*
D17*
X118510000Y-70050000D03*
%TD*%
D27*
%TO.C,U2*%
X112615000Y-45510000D03*
X95555000Y-45510000D03*
X112615000Y-86570000D03*
X95555000Y-86570000D03*
%TD*%
D22*
%TO.C,D3*%
X184540000Y-78940000D03*
D26*
X184540000Y-89100000D03*
%TD*%
D16*
%TO.C,K5*%
X189620000Y-53340000D03*
D17*
X191570000Y-59390000D03*
D16*
X203770000Y-59390000D03*
X203820000Y-47340000D03*
D17*
X191570000Y-47390000D03*
%TD*%
D18*
%TO.C,J7*%
X118190000Y-139700000D03*
D16*
X113110000Y-139700000D03*
X108030000Y-139700000D03*
X102950000Y-139700000D03*
%TD*%
D18*
%TO.C,J21*%
X173990000Y-139700000D03*
D16*
X168910000Y-139700000D03*
%TD*%
D22*
%TO.C,D6*%
X180320000Y-96890000D03*
D23*
X180320000Y-94350000D03*
%TD*%
D14*
%TO.C,R8*%
X136300000Y-87880000D03*
D15*
X146460000Y-87880000D03*
%TD*%
D21*
%TO.C,H1*%
X83820000Y-45720000D03*
%TD*%
D22*
%TO.C,D12*%
X117680000Y-76960000D03*
D26*
X127840000Y-76960000D03*
%TD*%
D22*
%TO.C,D11*%
X135460000Y-76960000D03*
D26*
X145620000Y-76960000D03*
%TD*%
D12*
%TO.C,Q8*%
X128680000Y-82800000D03*
D13*
X127410000Y-82800000D03*
X126140000Y-82800000D03*
%TD*%
D22*
%TO.C,D10*%
X153240000Y-76960000D03*
D26*
X163400000Y-76960000D03*
%TD*%
D24*
%TO.C,Q5*%
X178820000Y-57560000D03*
D25*
X178820000Y-56290000D03*
X178820000Y-55020000D03*
%TD*%
D16*
%TO.C,K3*%
X189620000Y-84020000D03*
D17*
X191570000Y-90070000D03*
D16*
X203770000Y-90070000D03*
X203820000Y-78020000D03*
D17*
X191570000Y-78070000D03*
%TD*%
D14*
%TO.C,R10*%
X141050000Y-134620000D03*
D15*
X130890000Y-134620000D03*
%TD*%
D22*
%TO.C,D9*%
X184660000Y-46560000D03*
D26*
X184660000Y-56720000D03*
%TD*%
D22*
%TO.C,D2*%
X185400000Y-94350000D03*
D26*
X185400000Y-104510000D03*
%TD*%
D24*
%TO.C,Q2*%
X180320000Y-104510000D03*
D25*
X180320000Y-103240000D03*
X180320000Y-101970000D03*
%TD*%
M02*
