M48
; DRILL file {KiCad 8.0.1} date 2024-05-20T21:19:49+0300
; FORMAT={-:-/ absolute / inch / decimal}
; #@! TF.CreationDate,2024-05-20T21:19:49+03:00
; #@! TF.GenerationSoftware,Kicad,Pcbnew,8.0.1
; #@! TF.FileFunction,Plated,1,2,PTH
FMAT,2
INCH
; #@! TA.AperFunction,Plated,PTH,ComponentDrill
T1C0.0295
; #@! TA.AperFunction,Plated,PTH,ComponentDrill
T2C0.0315
; #@! TA.AperFunction,Plated,PTH,ComponentDrill
T3C0.0354
; #@! TA.AperFunction,Plated,PTH,ComponentDrill
T4C0.0394
; #@! TA.AperFunction,Plated,PTH,ComponentDrill
T5C0.0512
; #@! TA.AperFunction,Plated,PTH,ComponentDrill
T6C0.0598
; #@! TA.AperFunction,Plated,PTH,ComponentDrill
T7C0.0630
; #@! TA.AperFunction,Plated,PTH,ComponentDrill
T8C0.1693
%
G90
G05
T1
X4.9661Y-3.2598
X5.0161Y-3.2598
X5.0661Y-3.2598
X5.6661Y-3.2598
X5.7161Y-3.2598
X5.7661Y-3.2598
X6.3661Y-3.2598
X6.4161Y-3.2598
X6.4661Y-3.2598
X7.0402Y-2.1661
X7.0402Y-2.2161
X7.0402Y-2.2661
X7.0587Y-2.8035
X7.0587Y-2.8535
X7.0587Y-2.9035
X7.0654Y-3.4079
X7.0654Y-3.4579
X7.0654Y-3.5079
X7.0992Y-4.0146
X7.0992Y-4.0646
X7.0992Y-4.1146
X7.1Y-4.6457
X7.1Y-4.6957
X7.1Y-4.7457
T2
X4.6531Y-5.3
X4.6661Y-3.4598
X5.0531Y-5.3
X5.0661Y-3.4598
X5.1531Y-5.3
X5.3661Y-3.4598
X5.5531Y-5.3
X5.65Y-5.3
X5.7661Y-3.4598
X6.05Y-5.3
X6.0661Y-3.4598
X6.15Y-5.3
X6.4661Y-3.4598
X6.55Y-5.3
X6.65Y-5.3
X6.8402Y-1.8331
X6.8402Y-2.2331
X6.8587Y-2.5035
X6.8587Y-2.9035
X6.8654Y-3.1079
X6.8654Y-3.5079
X6.8992Y-3.7146
X6.8992Y-4.1146
X6.9Y-4.3457
X6.9Y-4.7457
X7.05Y-5.3
X7.2531Y-4.9
X7.2531Y-5.3
X7.65Y-4.9
X7.65Y-5.3
X8.05Y-4.9
X8.05Y-5.3
X8.4531Y-4.9
X8.4531Y-5.3
T3
X4.6331Y-3.0299
X4.6331Y-3.2299
X4.7331Y-3.2299
X5.0331Y-3.0299
X5.3331Y-3.0299
X5.3331Y-3.2299
X5.4331Y-3.2299
X5.7331Y-3.0299
X6.0331Y-3.0299
X6.0331Y-3.2299
X6.1331Y-3.2299
X6.4331Y-3.0299
X7.0587Y-2.5035
X7.0587Y-2.6035
X7.0654Y-3.1079
X7.0654Y-3.2079
X7.0701Y-1.8331
X7.0701Y-1.9331
X7.0992Y-3.7146
X7.0992Y-3.8146
X7.1Y-4.3457
X7.1Y-4.4457
X7.2587Y-2.5035
X7.2587Y-2.9035
X7.2654Y-3.1079
X7.2654Y-3.5079
X7.2701Y-1.8331
X7.2701Y-2.2331
X7.2992Y-3.7146
X7.2992Y-4.1146
X7.3Y-4.3457
X7.3Y-4.7457
T4
X3.5Y-2.6
X3.5Y-2.7
X3.5Y-2.8
X3.562Y-3.5917
X3.562Y-5.2083
X3.762Y-1.7917
X3.762Y-3.4083
X4.2337Y-3.5917
X4.2337Y-5.2083
X4.4337Y-1.7917
X4.4337Y-3.4083
X4.4496Y-4.7709
X4.4496Y-4.9
X4.4498Y-4.2
X4.5496Y-4.7709
X4.5496Y-4.9
X4.5498Y-4.2
X4.6496Y-4.7709
X4.6496Y-4.9
X4.6498Y-4.2
X4.6657Y-2.7579
X4.7496Y-4.7709
X4.7496Y-4.9
X4.7498Y-4.2
X4.8496Y-4.7709
X4.8496Y-4.9
X4.8498Y-4.2
X4.9496Y-4.7709
X4.9496Y-4.9
X4.9498Y-4.2
X5.0496Y-4.7709
X5.0496Y-4.9
X5.0498Y-4.2
X5.1382Y-2.7579
X5.1496Y-4.7709
X5.1496Y-4.9
X5.1498Y-4.2
X5.2496Y-4.7709
X5.2496Y-4.9
X5.2498Y-4.2
X5.3496Y-4.7709
X5.3496Y-4.9
X5.3498Y-4.2
X5.3657Y-2.7579
X5.4496Y-4.7709
X5.4496Y-4.9
X5.4498Y-4.2
X5.5496Y-4.7709
X5.5496Y-4.9
X5.5498Y-4.2
X5.6496Y-4.7709
X5.6496Y-4.9
X5.6498Y-4.2
X5.7496Y-4.7709
X5.7496Y-4.9
X5.7498Y-4.2
X5.8382Y-2.7579
X5.8496Y-4.7709
X5.8496Y-4.9
X5.8498Y-4.2
X5.9496Y-4.7709
X5.9496Y-4.9
X5.9498Y-4.2
X6.0496Y-4.7709
X6.0496Y-4.9
X6.0498Y-4.2
X6.0657Y-2.7579
X6.1496Y-4.7709
X6.1496Y-4.9
X6.1498Y-4.2
X6.2496Y-4.7709
X6.2496Y-4.9
X6.2498Y-4.2
X6.3496Y-4.7709
X6.3496Y-4.9
X6.3498Y-4.2
X6.5382Y-2.7579
X7.5413Y-3.6803
X7.5413Y-4.1528
X7.5421Y-1.8657
X7.5421Y-2.3382
X7.5421Y-2.4693
X7.5421Y-2.9417
X7.5421Y-3.0736
X7.5421Y-3.5461
X7.5421Y-4.3114
X7.5421Y-4.7839
T5
X4.6638Y-2.2756
X4.9Y-2.8346
X5.1382Y-2.2776
X5.3638Y-2.2756
X5.6Y-2.8346
X5.8382Y-2.2776
X6.0638Y-2.2756
X6.3Y-2.8346
X6.5382Y-2.2776
X7.4646Y-3.9146
X7.4654Y-2.1
X7.4654Y-2.7035
X7.4654Y-3.3079
X7.4654Y-4.5457
X8.0217Y-4.1528
X8.0224Y-2.3382
X8.0224Y-2.9417
X8.0224Y-3.5461
X8.0224Y-4.7839
X8.0236Y-3.6783
X8.0244Y-1.8638
X8.0244Y-2.4673
X8.0244Y-3.0717
X8.0244Y-4.3094
T6
X3.3Y-4.4
X3.3Y-4.6
X3.3Y-4.8
X3.3Y-5.0
X4.0531Y-5.5
X4.2531Y-5.5
X4.4531Y-5.5
X4.6531Y-5.5
X4.8531Y-5.5
X4.9Y-1.9299
X5.0531Y-5.5
X5.1Y-1.9299
X5.2531Y-5.5
X5.45Y-5.5
X5.6Y-1.9299
X5.65Y-5.5
X5.8Y-1.9299
X5.85Y-5.5
X6.05Y-5.5
X6.25Y-5.5
X6.3Y-1.9299
X6.45Y-5.5
X6.5Y-1.9299
X6.65Y-5.5
X6.85Y-5.5
X7.05Y-5.5
X7.25Y-5.5
X7.45Y-5.5
X7.65Y-5.5
X7.85Y-5.5
X8.05Y-5.5
X8.25Y-5.5
X8.3587Y-2.7035
X8.3587Y-2.9035
X8.3654Y-3.3079
X8.3654Y-3.5079
X8.3701Y-2.1
X8.3701Y-2.3
X8.3992Y-3.9146
X8.3992Y-4.1146
X8.4Y-4.5457
X8.4Y-4.7457
X8.45Y-5.5
T7
X3.3079Y-2.1705
X3.426Y-2.3555
X3.5441Y-2.1705
T8
X3.3Y-1.8
X3.3Y-5.65
X8.8Y-1.8
X8.85Y-5.65
M30
