%TF.GenerationSoftware,KiCad,Pcbnew,8.0.1*%
%TF.CreationDate,2024-04-18T20:35:38+03:00*%
%TF.ProjectId,oxygen_harvester,6f787967-656e-45f6-9861-727665737465,rev?*%
%TF.SameCoordinates,Original*%
%TF.FileFunction,Legend,Top*%
%TF.FilePolarity,Positive*%
%FSLAX46Y46*%
G04 Gerber Fmt 4.6, Leading zero omitted, Abs format (unit mm)*
G04 Created by KiCad (PCBNEW 8.0.1) date 2024-04-18 20:35:38*
%MOMM*%
%LPD*%
G01*
G04 APERTURE LIST*
%ADD10C,0.150000*%
%ADD11C,0.120000*%
G04 APERTURE END LIST*
D10*
X161974761Y-107230057D02*
X161879523Y-107182438D01*
X161879523Y-107182438D02*
X161784285Y-107087200D01*
X161784285Y-107087200D02*
X161641428Y-106944342D01*
X161641428Y-106944342D02*
X161546190Y-106896723D01*
X161546190Y-106896723D02*
X161450952Y-106896723D01*
X161498571Y-107134819D02*
X161403333Y-107087200D01*
X161403333Y-107087200D02*
X161308095Y-106991961D01*
X161308095Y-106991961D02*
X161260476Y-106801485D01*
X161260476Y-106801485D02*
X161260476Y-106468152D01*
X161260476Y-106468152D02*
X161308095Y-106277676D01*
X161308095Y-106277676D02*
X161403333Y-106182438D01*
X161403333Y-106182438D02*
X161498571Y-106134819D01*
X161498571Y-106134819D02*
X161689047Y-106134819D01*
X161689047Y-106134819D02*
X161784285Y-106182438D01*
X161784285Y-106182438D02*
X161879523Y-106277676D01*
X161879523Y-106277676D02*
X161927142Y-106468152D01*
X161927142Y-106468152D02*
X161927142Y-106801485D01*
X161927142Y-106801485D02*
X161879523Y-106991961D01*
X161879523Y-106991961D02*
X161784285Y-107087200D01*
X161784285Y-107087200D02*
X161689047Y-107134819D01*
X161689047Y-107134819D02*
X161498571Y-107134819D01*
X162260476Y-106134819D02*
X162927142Y-106134819D01*
X162927142Y-106134819D02*
X162498571Y-107134819D01*
X105694819Y-64142857D02*
X105218628Y-64476190D01*
X105694819Y-64714285D02*
X104694819Y-64714285D01*
X104694819Y-64714285D02*
X104694819Y-64333333D01*
X104694819Y-64333333D02*
X104742438Y-64238095D01*
X104742438Y-64238095D02*
X104790057Y-64190476D01*
X104790057Y-64190476D02*
X104885295Y-64142857D01*
X104885295Y-64142857D02*
X105028152Y-64142857D01*
X105028152Y-64142857D02*
X105123390Y-64190476D01*
X105123390Y-64190476D02*
X105171009Y-64238095D01*
X105171009Y-64238095D02*
X105218628Y-64333333D01*
X105218628Y-64333333D02*
X105218628Y-64714285D01*
X105694819Y-63190476D02*
X105694819Y-63761904D01*
X105694819Y-63476190D02*
X104694819Y-63476190D01*
X104694819Y-63476190D02*
X104837676Y-63571428D01*
X104837676Y-63571428D02*
X104932914Y-63666666D01*
X104932914Y-63666666D02*
X104980533Y-63761904D01*
X104694819Y-62857142D02*
X104694819Y-62238095D01*
X104694819Y-62238095D02*
X105075771Y-62571428D01*
X105075771Y-62571428D02*
X105075771Y-62428571D01*
X105075771Y-62428571D02*
X105123390Y-62333333D01*
X105123390Y-62333333D02*
X105171009Y-62285714D01*
X105171009Y-62285714D02*
X105266247Y-62238095D01*
X105266247Y-62238095D02*
X105504342Y-62238095D01*
X105504342Y-62238095D02*
X105599580Y-62285714D01*
X105599580Y-62285714D02*
X105647200Y-62333333D01*
X105647200Y-62333333D02*
X105694819Y-62428571D01*
X105694819Y-62428571D02*
X105694819Y-62714285D01*
X105694819Y-62714285D02*
X105647200Y-62809523D01*
X105647200Y-62809523D02*
X105599580Y-62857142D01*
X156354819Y-129878094D02*
X155354819Y-129878094D01*
X156354819Y-129306666D02*
X155783390Y-129735237D01*
X155354819Y-129306666D02*
X155926247Y-129878094D01*
X155354819Y-128973332D02*
X155354819Y-128306666D01*
X155354819Y-128306666D02*
X156354819Y-128735237D01*
X138574819Y-129878094D02*
X137574819Y-129878094D01*
X138574819Y-129306666D02*
X138003390Y-129735237D01*
X137574819Y-129306666D02*
X138146247Y-129878094D01*
X137574819Y-128449523D02*
X137574819Y-128639999D01*
X137574819Y-128639999D02*
X137622438Y-128735237D01*
X137622438Y-128735237D02*
X137670057Y-128782856D01*
X137670057Y-128782856D02*
X137812914Y-128878094D01*
X137812914Y-128878094D02*
X138003390Y-128925713D01*
X138003390Y-128925713D02*
X138384342Y-128925713D01*
X138384342Y-128925713D02*
X138479580Y-128878094D01*
X138479580Y-128878094D02*
X138527200Y-128830475D01*
X138527200Y-128830475D02*
X138574819Y-128735237D01*
X138574819Y-128735237D02*
X138574819Y-128544761D01*
X138574819Y-128544761D02*
X138527200Y-128449523D01*
X138527200Y-128449523D02*
X138479580Y-128401904D01*
X138479580Y-128401904D02*
X138384342Y-128354285D01*
X138384342Y-128354285D02*
X138146247Y-128354285D01*
X138146247Y-128354285D02*
X138051009Y-128401904D01*
X138051009Y-128401904D02*
X138003390Y-128449523D01*
X138003390Y-128449523D02*
X137955771Y-128544761D01*
X137955771Y-128544761D02*
X137955771Y-128735237D01*
X137955771Y-128735237D02*
X138003390Y-128830475D01*
X138003390Y-128830475D02*
X138051009Y-128878094D01*
X138051009Y-128878094D02*
X138146247Y-128925713D01*
X145240476Y-47714819D02*
X145240476Y-48429104D01*
X145240476Y-48429104D02*
X145192857Y-48571961D01*
X145192857Y-48571961D02*
X145097619Y-48667200D01*
X145097619Y-48667200D02*
X144954762Y-48714819D01*
X144954762Y-48714819D02*
X144859524Y-48714819D01*
X146240476Y-48714819D02*
X145669048Y-48714819D01*
X145954762Y-48714819D02*
X145954762Y-47714819D01*
X145954762Y-47714819D02*
X145859524Y-47857676D01*
X145859524Y-47857676D02*
X145764286Y-47952914D01*
X145764286Y-47952914D02*
X145669048Y-48000533D01*
X146573810Y-47714819D02*
X147240476Y-47714819D01*
X147240476Y-47714819D02*
X146811905Y-48714819D01*
X225436666Y-131614819D02*
X225436666Y-132329104D01*
X225436666Y-132329104D02*
X225389047Y-132471961D01*
X225389047Y-132471961D02*
X225293809Y-132567200D01*
X225293809Y-132567200D02*
X225150952Y-132614819D01*
X225150952Y-132614819D02*
X225055714Y-132614819D01*
X226436666Y-132614819D02*
X225865238Y-132614819D01*
X226150952Y-132614819D02*
X226150952Y-131614819D01*
X226150952Y-131614819D02*
X226055714Y-131757676D01*
X226055714Y-131757676D02*
X225960476Y-131852914D01*
X225960476Y-131852914D02*
X225865238Y-131900533D01*
X89114819Y-137969523D02*
X89829104Y-137969523D01*
X89829104Y-137969523D02*
X89971961Y-138017142D01*
X89971961Y-138017142D02*
X90067200Y-138112380D01*
X90067200Y-138112380D02*
X90114819Y-138255237D01*
X90114819Y-138255237D02*
X90114819Y-138350475D01*
X90114819Y-136969523D02*
X90114819Y-137540951D01*
X90114819Y-137255237D02*
X89114819Y-137255237D01*
X89114819Y-137255237D02*
X89257676Y-137350475D01*
X89257676Y-137350475D02*
X89352914Y-137445713D01*
X89352914Y-137445713D02*
X89400533Y-137540951D01*
X89210057Y-136588570D02*
X89162438Y-136540951D01*
X89162438Y-136540951D02*
X89114819Y-136445713D01*
X89114819Y-136445713D02*
X89114819Y-136207618D01*
X89114819Y-136207618D02*
X89162438Y-136112380D01*
X89162438Y-136112380D02*
X89210057Y-136064761D01*
X89210057Y-136064761D02*
X89305295Y-136017142D01*
X89305295Y-136017142D02*
X89400533Y-136017142D01*
X89400533Y-136017142D02*
X89543390Y-136064761D01*
X89543390Y-136064761D02*
X90114819Y-136636189D01*
X90114819Y-136636189D02*
X90114819Y-136017142D01*
X81788095Y-45234819D02*
X81788095Y-44234819D01*
X81788095Y-44711009D02*
X82359523Y-44711009D01*
X82359523Y-45234819D02*
X82359523Y-44234819D01*
X83264285Y-44568152D02*
X83264285Y-45234819D01*
X83026190Y-44187200D02*
X82788095Y-44901485D01*
X82788095Y-44901485D02*
X83407142Y-44901485D01*
X151615714Y-107494819D02*
X151615714Y-106494819D01*
X151615714Y-106494819D02*
X151853809Y-106494819D01*
X151853809Y-106494819D02*
X151996666Y-106542438D01*
X151996666Y-106542438D02*
X152091904Y-106637676D01*
X152091904Y-106637676D02*
X152139523Y-106732914D01*
X152139523Y-106732914D02*
X152187142Y-106923390D01*
X152187142Y-106923390D02*
X152187142Y-107066247D01*
X152187142Y-107066247D02*
X152139523Y-107256723D01*
X152139523Y-107256723D02*
X152091904Y-107351961D01*
X152091904Y-107351961D02*
X151996666Y-107447200D01*
X151996666Y-107447200D02*
X151853809Y-107494819D01*
X151853809Y-107494819D02*
X151615714Y-107494819D01*
X153139523Y-107494819D02*
X152568095Y-107494819D01*
X152853809Y-107494819D02*
X152853809Y-106494819D01*
X152853809Y-106494819D02*
X152758571Y-106637676D01*
X152758571Y-106637676D02*
X152663333Y-106732914D01*
X152663333Y-106732914D02*
X152568095Y-106780533D01*
X153996666Y-106828152D02*
X153996666Y-107494819D01*
X153758571Y-106447200D02*
X153520476Y-107161485D01*
X153520476Y-107161485D02*
X154139523Y-107161485D01*
X89404819Y-122639523D02*
X90119104Y-122639523D01*
X90119104Y-122639523D02*
X90261961Y-122687142D01*
X90261961Y-122687142D02*
X90357200Y-122782380D01*
X90357200Y-122782380D02*
X90404819Y-122925237D01*
X90404819Y-122925237D02*
X90404819Y-123020475D01*
X90404819Y-121639523D02*
X90404819Y-122210951D01*
X90404819Y-121925237D02*
X89404819Y-121925237D01*
X89404819Y-121925237D02*
X89547676Y-122020475D01*
X89547676Y-122020475D02*
X89642914Y-122115713D01*
X89642914Y-122115713D02*
X89690533Y-122210951D01*
X90404819Y-120687142D02*
X90404819Y-121258570D01*
X90404819Y-120972856D02*
X89404819Y-120972856D01*
X89404819Y-120972856D02*
X89547676Y-121068094D01*
X89547676Y-121068094D02*
X89642914Y-121163332D01*
X89642914Y-121163332D02*
X89690533Y-121258570D01*
X130164819Y-77746666D02*
X129688628Y-78079999D01*
X130164819Y-78318094D02*
X129164819Y-78318094D01*
X129164819Y-78318094D02*
X129164819Y-77937142D01*
X129164819Y-77937142D02*
X129212438Y-77841904D01*
X129212438Y-77841904D02*
X129260057Y-77794285D01*
X129260057Y-77794285D02*
X129355295Y-77746666D01*
X129355295Y-77746666D02*
X129498152Y-77746666D01*
X129498152Y-77746666D02*
X129593390Y-77794285D01*
X129593390Y-77794285D02*
X129641009Y-77841904D01*
X129641009Y-77841904D02*
X129688628Y-77937142D01*
X129688628Y-77937142D02*
X129688628Y-78318094D01*
X129260057Y-77365713D02*
X129212438Y-77318094D01*
X129212438Y-77318094D02*
X129164819Y-77222856D01*
X129164819Y-77222856D02*
X129164819Y-76984761D01*
X129164819Y-76984761D02*
X129212438Y-76889523D01*
X129212438Y-76889523D02*
X129260057Y-76841904D01*
X129260057Y-76841904D02*
X129355295Y-76794285D01*
X129355295Y-76794285D02*
X129450533Y-76794285D01*
X129450533Y-76794285D02*
X129593390Y-76841904D01*
X129593390Y-76841904D02*
X130164819Y-77413332D01*
X130164819Y-77413332D02*
X130164819Y-76794285D01*
X84548095Y-142344819D02*
X84548095Y-141344819D01*
X84548095Y-141821009D02*
X85119523Y-141821009D01*
X85119523Y-142344819D02*
X85119523Y-141344819D01*
X85548095Y-141440057D02*
X85595714Y-141392438D01*
X85595714Y-141392438D02*
X85690952Y-141344819D01*
X85690952Y-141344819D02*
X85929047Y-141344819D01*
X85929047Y-141344819D02*
X86024285Y-141392438D01*
X86024285Y-141392438D02*
X86071904Y-141440057D01*
X86071904Y-141440057D02*
X86119523Y-141535295D01*
X86119523Y-141535295D02*
X86119523Y-141630533D01*
X86119523Y-141630533D02*
X86071904Y-141773390D01*
X86071904Y-141773390D02*
X85500476Y-142344819D01*
X85500476Y-142344819D02*
X86119523Y-142344819D01*
X141694819Y-86693333D02*
X142409104Y-86693333D01*
X142409104Y-86693333D02*
X142551961Y-86740952D01*
X142551961Y-86740952D02*
X142647200Y-86836190D01*
X142647200Y-86836190D02*
X142694819Y-86979047D01*
X142694819Y-86979047D02*
X142694819Y-87074285D01*
X141790057Y-86264761D02*
X141742438Y-86217142D01*
X141742438Y-86217142D02*
X141694819Y-86121904D01*
X141694819Y-86121904D02*
X141694819Y-85883809D01*
X141694819Y-85883809D02*
X141742438Y-85788571D01*
X141742438Y-85788571D02*
X141790057Y-85740952D01*
X141790057Y-85740952D02*
X141885295Y-85693333D01*
X141885295Y-85693333D02*
X141980533Y-85693333D01*
X141980533Y-85693333D02*
X142123390Y-85740952D01*
X142123390Y-85740952D02*
X142694819Y-86312380D01*
X142694819Y-86312380D02*
X142694819Y-85693333D01*
X222758095Y-44904819D02*
X222758095Y-43904819D01*
X222758095Y-44381009D02*
X223329523Y-44381009D01*
X223329523Y-44904819D02*
X223329523Y-43904819D01*
X223710476Y-43904819D02*
X224329523Y-43904819D01*
X224329523Y-43904819D02*
X223996190Y-44285771D01*
X223996190Y-44285771D02*
X224139047Y-44285771D01*
X224139047Y-44285771D02*
X224234285Y-44333390D01*
X224234285Y-44333390D02*
X224281904Y-44381009D01*
X224281904Y-44381009D02*
X224329523Y-44476247D01*
X224329523Y-44476247D02*
X224329523Y-44714342D01*
X224329523Y-44714342D02*
X224281904Y-44809580D01*
X224281904Y-44809580D02*
X224234285Y-44857200D01*
X224234285Y-44857200D02*
X224139047Y-44904819D01*
X224139047Y-44904819D02*
X223853333Y-44904819D01*
X223853333Y-44904819D02*
X223758095Y-44857200D01*
X223758095Y-44857200D02*
X223710476Y-44809580D01*
X183903333Y-56504819D02*
X183570000Y-56028628D01*
X183331905Y-56504819D02*
X183331905Y-55504819D01*
X183331905Y-55504819D02*
X183712857Y-55504819D01*
X183712857Y-55504819D02*
X183808095Y-55552438D01*
X183808095Y-55552438D02*
X183855714Y-55600057D01*
X183855714Y-55600057D02*
X183903333Y-55695295D01*
X183903333Y-55695295D02*
X183903333Y-55838152D01*
X183903333Y-55838152D02*
X183855714Y-55933390D01*
X183855714Y-55933390D02*
X183808095Y-55981009D01*
X183808095Y-55981009D02*
X183712857Y-56028628D01*
X183712857Y-56028628D02*
X183331905Y-56028628D01*
X184855714Y-56504819D02*
X184284286Y-56504819D01*
X184570000Y-56504819D02*
X184570000Y-55504819D01*
X184570000Y-55504819D02*
X184474762Y-55647676D01*
X184474762Y-55647676D02*
X184379524Y-55742914D01*
X184379524Y-55742914D02*
X184284286Y-55790533D01*
X131990057Y-105225238D02*
X131942438Y-105320476D01*
X131942438Y-105320476D02*
X131847200Y-105415714D01*
X131847200Y-105415714D02*
X131704342Y-105558571D01*
X131704342Y-105558571D02*
X131656723Y-105653809D01*
X131656723Y-105653809D02*
X131656723Y-105749047D01*
X131894819Y-105701428D02*
X131847200Y-105796666D01*
X131847200Y-105796666D02*
X131751961Y-105891904D01*
X131751961Y-105891904D02*
X131561485Y-105939523D01*
X131561485Y-105939523D02*
X131228152Y-105939523D01*
X131228152Y-105939523D02*
X131037676Y-105891904D01*
X131037676Y-105891904D02*
X130942438Y-105796666D01*
X130942438Y-105796666D02*
X130894819Y-105701428D01*
X130894819Y-105701428D02*
X130894819Y-105510952D01*
X130894819Y-105510952D02*
X130942438Y-105415714D01*
X130942438Y-105415714D02*
X131037676Y-105320476D01*
X131037676Y-105320476D02*
X131228152Y-105272857D01*
X131228152Y-105272857D02*
X131561485Y-105272857D01*
X131561485Y-105272857D02*
X131751961Y-105320476D01*
X131751961Y-105320476D02*
X131847200Y-105415714D01*
X131847200Y-105415714D02*
X131894819Y-105510952D01*
X131894819Y-105510952D02*
X131894819Y-105701428D01*
X130894819Y-104939523D02*
X130894819Y-104320476D01*
X130894819Y-104320476D02*
X131275771Y-104653809D01*
X131275771Y-104653809D02*
X131275771Y-104510952D01*
X131275771Y-104510952D02*
X131323390Y-104415714D01*
X131323390Y-104415714D02*
X131371009Y-104368095D01*
X131371009Y-104368095D02*
X131466247Y-104320476D01*
X131466247Y-104320476D02*
X131704342Y-104320476D01*
X131704342Y-104320476D02*
X131799580Y-104368095D01*
X131799580Y-104368095D02*
X131847200Y-104415714D01*
X131847200Y-104415714D02*
X131894819Y-104510952D01*
X131894819Y-104510952D02*
X131894819Y-104796666D01*
X131894819Y-104796666D02*
X131847200Y-104891904D01*
X131847200Y-104891904D02*
X131799580Y-104939523D01*
X155400476Y-47714819D02*
X155400476Y-48429104D01*
X155400476Y-48429104D02*
X155352857Y-48571961D01*
X155352857Y-48571961D02*
X155257619Y-48667200D01*
X155257619Y-48667200D02*
X155114762Y-48714819D01*
X155114762Y-48714819D02*
X155019524Y-48714819D01*
X155829048Y-47810057D02*
X155876667Y-47762438D01*
X155876667Y-47762438D02*
X155971905Y-47714819D01*
X155971905Y-47714819D02*
X156210000Y-47714819D01*
X156210000Y-47714819D02*
X156305238Y-47762438D01*
X156305238Y-47762438D02*
X156352857Y-47810057D01*
X156352857Y-47810057D02*
X156400476Y-47905295D01*
X156400476Y-47905295D02*
X156400476Y-48000533D01*
X156400476Y-48000533D02*
X156352857Y-48143390D01*
X156352857Y-48143390D02*
X155781429Y-48714819D01*
X155781429Y-48714819D02*
X156400476Y-48714819D01*
X157019524Y-47714819D02*
X157114762Y-47714819D01*
X157114762Y-47714819D02*
X157210000Y-47762438D01*
X157210000Y-47762438D02*
X157257619Y-47810057D01*
X157257619Y-47810057D02*
X157305238Y-47905295D01*
X157305238Y-47905295D02*
X157352857Y-48095771D01*
X157352857Y-48095771D02*
X157352857Y-48333866D01*
X157352857Y-48333866D02*
X157305238Y-48524342D01*
X157305238Y-48524342D02*
X157257619Y-48619580D01*
X157257619Y-48619580D02*
X157210000Y-48667200D01*
X157210000Y-48667200D02*
X157114762Y-48714819D01*
X157114762Y-48714819D02*
X157019524Y-48714819D01*
X157019524Y-48714819D02*
X156924286Y-48667200D01*
X156924286Y-48667200D02*
X156876667Y-48619580D01*
X156876667Y-48619580D02*
X156829048Y-48524342D01*
X156829048Y-48524342D02*
X156781429Y-48333866D01*
X156781429Y-48333866D02*
X156781429Y-48095771D01*
X156781429Y-48095771D02*
X156829048Y-47905295D01*
X156829048Y-47905295D02*
X156876667Y-47810057D01*
X156876667Y-47810057D02*
X156924286Y-47762438D01*
X156924286Y-47762438D02*
X157019524Y-47714819D01*
X88374819Y-91403333D02*
X89089104Y-91403333D01*
X89089104Y-91403333D02*
X89231961Y-91450952D01*
X89231961Y-91450952D02*
X89327200Y-91546190D01*
X89327200Y-91546190D02*
X89374819Y-91689047D01*
X89374819Y-91689047D02*
X89374819Y-91784285D01*
X89374819Y-90879523D02*
X89374819Y-90689047D01*
X89374819Y-90689047D02*
X89327200Y-90593809D01*
X89327200Y-90593809D02*
X89279580Y-90546190D01*
X89279580Y-90546190D02*
X89136723Y-90450952D01*
X89136723Y-90450952D02*
X88946247Y-90403333D01*
X88946247Y-90403333D02*
X88565295Y-90403333D01*
X88565295Y-90403333D02*
X88470057Y-90450952D01*
X88470057Y-90450952D02*
X88422438Y-90498571D01*
X88422438Y-90498571D02*
X88374819Y-90593809D01*
X88374819Y-90593809D02*
X88374819Y-90784285D01*
X88374819Y-90784285D02*
X88422438Y-90879523D01*
X88422438Y-90879523D02*
X88470057Y-90927142D01*
X88470057Y-90927142D02*
X88565295Y-90974761D01*
X88565295Y-90974761D02*
X88803390Y-90974761D01*
X88803390Y-90974761D02*
X88898628Y-90927142D01*
X88898628Y-90927142D02*
X88946247Y-90879523D01*
X88946247Y-90879523D02*
X88993866Y-90784285D01*
X88993866Y-90784285D02*
X88993866Y-90593809D01*
X88993866Y-90593809D02*
X88946247Y-90498571D01*
X88946247Y-90498571D02*
X88898628Y-90450952D01*
X88898628Y-90450952D02*
X88803390Y-90403333D01*
X131414819Y-82128094D02*
X130414819Y-82128094D01*
X130414819Y-82128094D02*
X130414819Y-81889999D01*
X130414819Y-81889999D02*
X130462438Y-81747142D01*
X130462438Y-81747142D02*
X130557676Y-81651904D01*
X130557676Y-81651904D02*
X130652914Y-81604285D01*
X130652914Y-81604285D02*
X130843390Y-81556666D01*
X130843390Y-81556666D02*
X130986247Y-81556666D01*
X130986247Y-81556666D02*
X131176723Y-81604285D01*
X131176723Y-81604285D02*
X131271961Y-81651904D01*
X131271961Y-81651904D02*
X131367200Y-81747142D01*
X131367200Y-81747142D02*
X131414819Y-81889999D01*
X131414819Y-81889999D02*
X131414819Y-82128094D01*
X130414819Y-80651904D02*
X130414819Y-81128094D01*
X130414819Y-81128094D02*
X130891009Y-81175713D01*
X130891009Y-81175713D02*
X130843390Y-81128094D01*
X130843390Y-81128094D02*
X130795771Y-81032856D01*
X130795771Y-81032856D02*
X130795771Y-80794761D01*
X130795771Y-80794761D02*
X130843390Y-80699523D01*
X130843390Y-80699523D02*
X130891009Y-80651904D01*
X130891009Y-80651904D02*
X130986247Y-80604285D01*
X130986247Y-80604285D02*
X131224342Y-80604285D01*
X131224342Y-80604285D02*
X131319580Y-80651904D01*
X131319580Y-80651904D02*
X131367200Y-80699523D01*
X131367200Y-80699523D02*
X131414819Y-80794761D01*
X131414819Y-80794761D02*
X131414819Y-81032856D01*
X131414819Y-81032856D02*
X131367200Y-81128094D01*
X131367200Y-81128094D02*
X131319580Y-81175713D01*
X108901905Y-83504819D02*
X108901905Y-82504819D01*
X109473333Y-83504819D02*
X109044762Y-82933390D01*
X109473333Y-82504819D02*
X108901905Y-83076247D01*
X109854286Y-82600057D02*
X109901905Y-82552438D01*
X109901905Y-82552438D02*
X109997143Y-82504819D01*
X109997143Y-82504819D02*
X110235238Y-82504819D01*
X110235238Y-82504819D02*
X110330476Y-82552438D01*
X110330476Y-82552438D02*
X110378095Y-82600057D01*
X110378095Y-82600057D02*
X110425714Y-82695295D01*
X110425714Y-82695295D02*
X110425714Y-82790533D01*
X110425714Y-82790533D02*
X110378095Y-82933390D01*
X110378095Y-82933390D02*
X109806667Y-83504819D01*
X109806667Y-83504819D02*
X110425714Y-83504819D01*
X132160057Y-120575238D02*
X132112438Y-120670476D01*
X132112438Y-120670476D02*
X132017200Y-120765714D01*
X132017200Y-120765714D02*
X131874342Y-120908571D01*
X131874342Y-120908571D02*
X131826723Y-121003809D01*
X131826723Y-121003809D02*
X131826723Y-121099047D01*
X132064819Y-121051428D02*
X132017200Y-121146666D01*
X132017200Y-121146666D02*
X131921961Y-121241904D01*
X131921961Y-121241904D02*
X131731485Y-121289523D01*
X131731485Y-121289523D02*
X131398152Y-121289523D01*
X131398152Y-121289523D02*
X131207676Y-121241904D01*
X131207676Y-121241904D02*
X131112438Y-121146666D01*
X131112438Y-121146666D02*
X131064819Y-121051428D01*
X131064819Y-121051428D02*
X131064819Y-120860952D01*
X131064819Y-120860952D02*
X131112438Y-120765714D01*
X131112438Y-120765714D02*
X131207676Y-120670476D01*
X131207676Y-120670476D02*
X131398152Y-120622857D01*
X131398152Y-120622857D02*
X131731485Y-120622857D01*
X131731485Y-120622857D02*
X131921961Y-120670476D01*
X131921961Y-120670476D02*
X132017200Y-120765714D01*
X132017200Y-120765714D02*
X132064819Y-120860952D01*
X132064819Y-120860952D02*
X132064819Y-121051428D01*
X131398152Y-119765714D02*
X132064819Y-119765714D01*
X131017200Y-120003809D02*
X131731485Y-120241904D01*
X131731485Y-120241904D02*
X131731485Y-119622857D01*
X130184819Y-93776666D02*
X129708628Y-94109999D01*
X130184819Y-94348094D02*
X129184819Y-94348094D01*
X129184819Y-94348094D02*
X129184819Y-93967142D01*
X129184819Y-93967142D02*
X129232438Y-93871904D01*
X129232438Y-93871904D02*
X129280057Y-93824285D01*
X129280057Y-93824285D02*
X129375295Y-93776666D01*
X129375295Y-93776666D02*
X129518152Y-93776666D01*
X129518152Y-93776666D02*
X129613390Y-93824285D01*
X129613390Y-93824285D02*
X129661009Y-93871904D01*
X129661009Y-93871904D02*
X129708628Y-93967142D01*
X129708628Y-93967142D02*
X129708628Y-94348094D01*
X129184819Y-93443332D02*
X129184819Y-92824285D01*
X129184819Y-92824285D02*
X129565771Y-93157618D01*
X129565771Y-93157618D02*
X129565771Y-93014761D01*
X129565771Y-93014761D02*
X129613390Y-92919523D01*
X129613390Y-92919523D02*
X129661009Y-92871904D01*
X129661009Y-92871904D02*
X129756247Y-92824285D01*
X129756247Y-92824285D02*
X129994342Y-92824285D01*
X129994342Y-92824285D02*
X130089580Y-92871904D01*
X130089580Y-92871904D02*
X130137200Y-92919523D01*
X130137200Y-92919523D02*
X130184819Y-93014761D01*
X130184819Y-93014761D02*
X130184819Y-93300475D01*
X130184819Y-93300475D02*
X130137200Y-93395713D01*
X130137200Y-93395713D02*
X130089580Y-93443332D01*
X187175714Y-107494819D02*
X187175714Y-106494819D01*
X187175714Y-106494819D02*
X187413809Y-106494819D01*
X187413809Y-106494819D02*
X187556666Y-106542438D01*
X187556666Y-106542438D02*
X187651904Y-106637676D01*
X187651904Y-106637676D02*
X187699523Y-106732914D01*
X187699523Y-106732914D02*
X187747142Y-106923390D01*
X187747142Y-106923390D02*
X187747142Y-107066247D01*
X187747142Y-107066247D02*
X187699523Y-107256723D01*
X187699523Y-107256723D02*
X187651904Y-107351961D01*
X187651904Y-107351961D02*
X187556666Y-107447200D01*
X187556666Y-107447200D02*
X187413809Y-107494819D01*
X187413809Y-107494819D02*
X187175714Y-107494819D01*
X188699523Y-107494819D02*
X188128095Y-107494819D01*
X188413809Y-107494819D02*
X188413809Y-106494819D01*
X188413809Y-106494819D02*
X188318571Y-106637676D01*
X188318571Y-106637676D02*
X188223333Y-106732914D01*
X188223333Y-106732914D02*
X188128095Y-106780533D01*
X189556666Y-106494819D02*
X189366190Y-106494819D01*
X189366190Y-106494819D02*
X189270952Y-106542438D01*
X189270952Y-106542438D02*
X189223333Y-106590057D01*
X189223333Y-106590057D02*
X189128095Y-106732914D01*
X189128095Y-106732914D02*
X189080476Y-106923390D01*
X189080476Y-106923390D02*
X189080476Y-107304342D01*
X189080476Y-107304342D02*
X189128095Y-107399580D01*
X189128095Y-107399580D02*
X189175714Y-107447200D01*
X189175714Y-107447200D02*
X189270952Y-107494819D01*
X189270952Y-107494819D02*
X189461428Y-107494819D01*
X189461428Y-107494819D02*
X189556666Y-107447200D01*
X189556666Y-107447200D02*
X189604285Y-107399580D01*
X189604285Y-107399580D02*
X189651904Y-107304342D01*
X189651904Y-107304342D02*
X189651904Y-107066247D01*
X189651904Y-107066247D02*
X189604285Y-106971009D01*
X189604285Y-106971009D02*
X189556666Y-106923390D01*
X189556666Y-106923390D02*
X189461428Y-106875771D01*
X189461428Y-106875771D02*
X189270952Y-106875771D01*
X189270952Y-106875771D02*
X189175714Y-106923390D01*
X189175714Y-106923390D02*
X189128095Y-106971009D01*
X189128095Y-106971009D02*
X189080476Y-107066247D01*
X95454819Y-64142857D02*
X94978628Y-64476190D01*
X95454819Y-64714285D02*
X94454819Y-64714285D01*
X94454819Y-64714285D02*
X94454819Y-64333333D01*
X94454819Y-64333333D02*
X94502438Y-64238095D01*
X94502438Y-64238095D02*
X94550057Y-64190476D01*
X94550057Y-64190476D02*
X94645295Y-64142857D01*
X94645295Y-64142857D02*
X94788152Y-64142857D01*
X94788152Y-64142857D02*
X94883390Y-64190476D01*
X94883390Y-64190476D02*
X94931009Y-64238095D01*
X94931009Y-64238095D02*
X94978628Y-64333333D01*
X94978628Y-64333333D02*
X94978628Y-64714285D01*
X95454819Y-63190476D02*
X95454819Y-63761904D01*
X95454819Y-63476190D02*
X94454819Y-63476190D01*
X94454819Y-63476190D02*
X94597676Y-63571428D01*
X94597676Y-63571428D02*
X94692914Y-63666666D01*
X94692914Y-63666666D02*
X94740533Y-63761904D01*
X94454819Y-62857142D02*
X94454819Y-62190476D01*
X94454819Y-62190476D02*
X95454819Y-62619047D01*
X125934819Y-64142857D02*
X125458628Y-64476190D01*
X125934819Y-64714285D02*
X124934819Y-64714285D01*
X124934819Y-64714285D02*
X124934819Y-64333333D01*
X124934819Y-64333333D02*
X124982438Y-64238095D01*
X124982438Y-64238095D02*
X125030057Y-64190476D01*
X125030057Y-64190476D02*
X125125295Y-64142857D01*
X125125295Y-64142857D02*
X125268152Y-64142857D01*
X125268152Y-64142857D02*
X125363390Y-64190476D01*
X125363390Y-64190476D02*
X125411009Y-64238095D01*
X125411009Y-64238095D02*
X125458628Y-64333333D01*
X125458628Y-64333333D02*
X125458628Y-64714285D01*
X125934819Y-63190476D02*
X125934819Y-63761904D01*
X125934819Y-63476190D02*
X124934819Y-63476190D01*
X124934819Y-63476190D02*
X125077676Y-63571428D01*
X125077676Y-63571428D02*
X125172914Y-63666666D01*
X125172914Y-63666666D02*
X125220533Y-63761904D01*
X125030057Y-62809523D02*
X124982438Y-62761904D01*
X124982438Y-62761904D02*
X124934819Y-62666666D01*
X124934819Y-62666666D02*
X124934819Y-62428571D01*
X124934819Y-62428571D02*
X124982438Y-62333333D01*
X124982438Y-62333333D02*
X125030057Y-62285714D01*
X125030057Y-62285714D02*
X125125295Y-62238095D01*
X125125295Y-62238095D02*
X125220533Y-62238095D01*
X125220533Y-62238095D02*
X125363390Y-62285714D01*
X125363390Y-62285714D02*
X125934819Y-62857142D01*
X125934819Y-62857142D02*
X125934819Y-62238095D01*
X217106667Y-129737200D02*
X217249524Y-129784819D01*
X217249524Y-129784819D02*
X217487619Y-129784819D01*
X217487619Y-129784819D02*
X217582857Y-129737200D01*
X217582857Y-129737200D02*
X217630476Y-129689580D01*
X217630476Y-129689580D02*
X217678095Y-129594342D01*
X217678095Y-129594342D02*
X217678095Y-129499104D01*
X217678095Y-129499104D02*
X217630476Y-129403866D01*
X217630476Y-129403866D02*
X217582857Y-129356247D01*
X217582857Y-129356247D02*
X217487619Y-129308628D01*
X217487619Y-129308628D02*
X217297143Y-129261009D01*
X217297143Y-129261009D02*
X217201905Y-129213390D01*
X217201905Y-129213390D02*
X217154286Y-129165771D01*
X217154286Y-129165771D02*
X217106667Y-129070533D01*
X217106667Y-129070533D02*
X217106667Y-128975295D01*
X217106667Y-128975295D02*
X217154286Y-128880057D01*
X217154286Y-128880057D02*
X217201905Y-128832438D01*
X217201905Y-128832438D02*
X217297143Y-128784819D01*
X217297143Y-128784819D02*
X217535238Y-128784819D01*
X217535238Y-128784819D02*
X217678095Y-128832438D01*
X218011429Y-128784819D02*
X218249524Y-129784819D01*
X218249524Y-129784819D02*
X218440000Y-129070533D01*
X218440000Y-129070533D02*
X218630476Y-129784819D01*
X218630476Y-129784819D02*
X218868572Y-128784819D01*
X219773333Y-129784819D02*
X219201905Y-129784819D01*
X219487619Y-129784819D02*
X219487619Y-128784819D01*
X219487619Y-128784819D02*
X219392381Y-128927676D01*
X219392381Y-128927676D02*
X219297143Y-129022914D01*
X219297143Y-129022914D02*
X219201905Y-129070533D01*
X115854819Y-64142857D02*
X115378628Y-64476190D01*
X115854819Y-64714285D02*
X114854819Y-64714285D01*
X114854819Y-64714285D02*
X114854819Y-64333333D01*
X114854819Y-64333333D02*
X114902438Y-64238095D01*
X114902438Y-64238095D02*
X114950057Y-64190476D01*
X114950057Y-64190476D02*
X115045295Y-64142857D01*
X115045295Y-64142857D02*
X115188152Y-64142857D01*
X115188152Y-64142857D02*
X115283390Y-64190476D01*
X115283390Y-64190476D02*
X115331009Y-64238095D01*
X115331009Y-64238095D02*
X115378628Y-64333333D01*
X115378628Y-64333333D02*
X115378628Y-64714285D01*
X115854819Y-63190476D02*
X115854819Y-63761904D01*
X115854819Y-63476190D02*
X114854819Y-63476190D01*
X114854819Y-63476190D02*
X114997676Y-63571428D01*
X114997676Y-63571428D02*
X115092914Y-63666666D01*
X115092914Y-63666666D02*
X115140533Y-63761904D01*
X114854819Y-62333333D02*
X114854819Y-62523809D01*
X114854819Y-62523809D02*
X114902438Y-62619047D01*
X114902438Y-62619047D02*
X114950057Y-62666666D01*
X114950057Y-62666666D02*
X115092914Y-62761904D01*
X115092914Y-62761904D02*
X115283390Y-62809523D01*
X115283390Y-62809523D02*
X115664342Y-62809523D01*
X115664342Y-62809523D02*
X115759580Y-62761904D01*
X115759580Y-62761904D02*
X115807200Y-62714285D01*
X115807200Y-62714285D02*
X115854819Y-62619047D01*
X115854819Y-62619047D02*
X115854819Y-62428571D01*
X115854819Y-62428571D02*
X115807200Y-62333333D01*
X115807200Y-62333333D02*
X115759580Y-62285714D01*
X115759580Y-62285714D02*
X115664342Y-62238095D01*
X115664342Y-62238095D02*
X115426247Y-62238095D01*
X115426247Y-62238095D02*
X115331009Y-62285714D01*
X115331009Y-62285714D02*
X115283390Y-62333333D01*
X115283390Y-62333333D02*
X115235771Y-62428571D01*
X115235771Y-62428571D02*
X115235771Y-62619047D01*
X115235771Y-62619047D02*
X115283390Y-62714285D01*
X115283390Y-62714285D02*
X115331009Y-62761904D01*
X115331009Y-62761904D02*
X115426247Y-62809523D01*
X132464819Y-128918094D02*
X131464819Y-128918094D01*
X131464819Y-128918094D02*
X131464819Y-128679999D01*
X131464819Y-128679999D02*
X131512438Y-128537142D01*
X131512438Y-128537142D02*
X131607676Y-128441904D01*
X131607676Y-128441904D02*
X131702914Y-128394285D01*
X131702914Y-128394285D02*
X131893390Y-128346666D01*
X131893390Y-128346666D02*
X132036247Y-128346666D01*
X132036247Y-128346666D02*
X132226723Y-128394285D01*
X132226723Y-128394285D02*
X132321961Y-128441904D01*
X132321961Y-128441904D02*
X132417200Y-128537142D01*
X132417200Y-128537142D02*
X132464819Y-128679999D01*
X132464819Y-128679999D02*
X132464819Y-128918094D01*
X131893390Y-127775237D02*
X131845771Y-127870475D01*
X131845771Y-127870475D02*
X131798152Y-127918094D01*
X131798152Y-127918094D02*
X131702914Y-127965713D01*
X131702914Y-127965713D02*
X131655295Y-127965713D01*
X131655295Y-127965713D02*
X131560057Y-127918094D01*
X131560057Y-127918094D02*
X131512438Y-127870475D01*
X131512438Y-127870475D02*
X131464819Y-127775237D01*
X131464819Y-127775237D02*
X131464819Y-127584761D01*
X131464819Y-127584761D02*
X131512438Y-127489523D01*
X131512438Y-127489523D02*
X131560057Y-127441904D01*
X131560057Y-127441904D02*
X131655295Y-127394285D01*
X131655295Y-127394285D02*
X131702914Y-127394285D01*
X131702914Y-127394285D02*
X131798152Y-127441904D01*
X131798152Y-127441904D02*
X131845771Y-127489523D01*
X131845771Y-127489523D02*
X131893390Y-127584761D01*
X131893390Y-127584761D02*
X131893390Y-127775237D01*
X131893390Y-127775237D02*
X131941009Y-127870475D01*
X131941009Y-127870475D02*
X131988628Y-127918094D01*
X131988628Y-127918094D02*
X132083866Y-127965713D01*
X132083866Y-127965713D02*
X132274342Y-127965713D01*
X132274342Y-127965713D02*
X132369580Y-127918094D01*
X132369580Y-127918094D02*
X132417200Y-127870475D01*
X132417200Y-127870475D02*
X132464819Y-127775237D01*
X132464819Y-127775237D02*
X132464819Y-127584761D01*
X132464819Y-127584761D02*
X132417200Y-127489523D01*
X132417200Y-127489523D02*
X132369580Y-127441904D01*
X132369580Y-127441904D02*
X132274342Y-127394285D01*
X132274342Y-127394285D02*
X132083866Y-127394285D01*
X132083866Y-127394285D02*
X131988628Y-127441904D01*
X131988628Y-127441904D02*
X131941009Y-127489523D01*
X131941009Y-127489523D02*
X131893390Y-127584761D01*
X132294819Y-113568094D02*
X131294819Y-113568094D01*
X131294819Y-113568094D02*
X131294819Y-113329999D01*
X131294819Y-113329999D02*
X131342438Y-113187142D01*
X131342438Y-113187142D02*
X131437676Y-113091904D01*
X131437676Y-113091904D02*
X131532914Y-113044285D01*
X131532914Y-113044285D02*
X131723390Y-112996666D01*
X131723390Y-112996666D02*
X131866247Y-112996666D01*
X131866247Y-112996666D02*
X132056723Y-113044285D01*
X132056723Y-113044285D02*
X132151961Y-113091904D01*
X132151961Y-113091904D02*
X132247200Y-113187142D01*
X132247200Y-113187142D02*
X132294819Y-113329999D01*
X132294819Y-113329999D02*
X132294819Y-113568094D01*
X131294819Y-112663332D02*
X131294819Y-111996666D01*
X131294819Y-111996666D02*
X132294819Y-112425237D01*
X145407142Y-56504819D02*
X145073809Y-56028628D01*
X144835714Y-56504819D02*
X144835714Y-55504819D01*
X144835714Y-55504819D02*
X145216666Y-55504819D01*
X145216666Y-55504819D02*
X145311904Y-55552438D01*
X145311904Y-55552438D02*
X145359523Y-55600057D01*
X145359523Y-55600057D02*
X145407142Y-55695295D01*
X145407142Y-55695295D02*
X145407142Y-55838152D01*
X145407142Y-55838152D02*
X145359523Y-55933390D01*
X145359523Y-55933390D02*
X145311904Y-55981009D01*
X145311904Y-55981009D02*
X145216666Y-56028628D01*
X145216666Y-56028628D02*
X144835714Y-56028628D01*
X146359523Y-56504819D02*
X145788095Y-56504819D01*
X146073809Y-56504819D02*
X146073809Y-55504819D01*
X146073809Y-55504819D02*
X145978571Y-55647676D01*
X145978571Y-55647676D02*
X145883333Y-55742914D01*
X145883333Y-55742914D02*
X145788095Y-55790533D01*
X147311904Y-56504819D02*
X146740476Y-56504819D01*
X147026190Y-56504819D02*
X147026190Y-55504819D01*
X147026190Y-55504819D02*
X146930952Y-55647676D01*
X146930952Y-55647676D02*
X146835714Y-55742914D01*
X146835714Y-55742914D02*
X146740476Y-55790533D01*
X179530476Y-148554819D02*
X179530476Y-149269104D01*
X179530476Y-149269104D02*
X179482857Y-149411961D01*
X179482857Y-149411961D02*
X179387619Y-149507200D01*
X179387619Y-149507200D02*
X179244762Y-149554819D01*
X179244762Y-149554819D02*
X179149524Y-149554819D01*
X180530476Y-149554819D02*
X179959048Y-149554819D01*
X180244762Y-149554819D02*
X180244762Y-148554819D01*
X180244762Y-148554819D02*
X180149524Y-148697676D01*
X180149524Y-148697676D02*
X180054286Y-148792914D01*
X180054286Y-148792914D02*
X179959048Y-148840533D01*
X181435238Y-148554819D02*
X180959048Y-148554819D01*
X180959048Y-148554819D02*
X180911429Y-149031009D01*
X180911429Y-149031009D02*
X180959048Y-148983390D01*
X180959048Y-148983390D02*
X181054286Y-148935771D01*
X181054286Y-148935771D02*
X181292381Y-148935771D01*
X181292381Y-148935771D02*
X181387619Y-148983390D01*
X181387619Y-148983390D02*
X181435238Y-149031009D01*
X181435238Y-149031009D02*
X181482857Y-149126247D01*
X181482857Y-149126247D02*
X181482857Y-149364342D01*
X181482857Y-149364342D02*
X181435238Y-149459580D01*
X181435238Y-149459580D02*
X181387619Y-149507200D01*
X181387619Y-149507200D02*
X181292381Y-149554819D01*
X181292381Y-149554819D02*
X181054286Y-149554819D01*
X181054286Y-149554819D02*
X180959048Y-149507200D01*
X180959048Y-149507200D02*
X180911429Y-149459580D01*
X108881905Y-114354819D02*
X108881905Y-113354819D01*
X109453333Y-114354819D02*
X109024762Y-113783390D01*
X109453333Y-113354819D02*
X108881905Y-113926247D01*
X110310476Y-113688152D02*
X110310476Y-114354819D01*
X110072381Y-113307200D02*
X109834286Y-114021485D01*
X109834286Y-114021485D02*
X110453333Y-114021485D01*
X131044819Y-109186666D02*
X130568628Y-109519999D01*
X131044819Y-109758094D02*
X130044819Y-109758094D01*
X130044819Y-109758094D02*
X130044819Y-109377142D01*
X130044819Y-109377142D02*
X130092438Y-109281904D01*
X130092438Y-109281904D02*
X130140057Y-109234285D01*
X130140057Y-109234285D02*
X130235295Y-109186666D01*
X130235295Y-109186666D02*
X130378152Y-109186666D01*
X130378152Y-109186666D02*
X130473390Y-109234285D01*
X130473390Y-109234285D02*
X130521009Y-109281904D01*
X130521009Y-109281904D02*
X130568628Y-109377142D01*
X130568628Y-109377142D02*
X130568628Y-109758094D01*
X130378152Y-108329523D02*
X131044819Y-108329523D01*
X129997200Y-108567618D02*
X130711485Y-108805713D01*
X130711485Y-108805713D02*
X130711485Y-108186666D01*
X94440476Y-47714819D02*
X94440476Y-48429104D01*
X94440476Y-48429104D02*
X94392857Y-48571961D01*
X94392857Y-48571961D02*
X94297619Y-48667200D01*
X94297619Y-48667200D02*
X94154762Y-48714819D01*
X94154762Y-48714819D02*
X94059524Y-48714819D01*
X94869048Y-47810057D02*
X94916667Y-47762438D01*
X94916667Y-47762438D02*
X95011905Y-47714819D01*
X95011905Y-47714819D02*
X95250000Y-47714819D01*
X95250000Y-47714819D02*
X95345238Y-47762438D01*
X95345238Y-47762438D02*
X95392857Y-47810057D01*
X95392857Y-47810057D02*
X95440476Y-47905295D01*
X95440476Y-47905295D02*
X95440476Y-48000533D01*
X95440476Y-48000533D02*
X95392857Y-48143390D01*
X95392857Y-48143390D02*
X94821429Y-48714819D01*
X94821429Y-48714819D02*
X95440476Y-48714819D01*
X95773810Y-47714819D02*
X96392857Y-47714819D01*
X96392857Y-47714819D02*
X96059524Y-48095771D01*
X96059524Y-48095771D02*
X96202381Y-48095771D01*
X96202381Y-48095771D02*
X96297619Y-48143390D01*
X96297619Y-48143390D02*
X96345238Y-48191009D01*
X96345238Y-48191009D02*
X96392857Y-48286247D01*
X96392857Y-48286247D02*
X96392857Y-48524342D01*
X96392857Y-48524342D02*
X96345238Y-48619580D01*
X96345238Y-48619580D02*
X96297619Y-48667200D01*
X96297619Y-48667200D02*
X96202381Y-48714819D01*
X96202381Y-48714819D02*
X95916667Y-48714819D01*
X95916667Y-48714819D02*
X95821429Y-48667200D01*
X95821429Y-48667200D02*
X95773810Y-48619580D01*
X89234819Y-107289523D02*
X89949104Y-107289523D01*
X89949104Y-107289523D02*
X90091961Y-107337142D01*
X90091961Y-107337142D02*
X90187200Y-107432380D01*
X90187200Y-107432380D02*
X90234819Y-107575237D01*
X90234819Y-107575237D02*
X90234819Y-107670475D01*
X90234819Y-106289523D02*
X90234819Y-106860951D01*
X90234819Y-106575237D02*
X89234819Y-106575237D01*
X89234819Y-106575237D02*
X89377676Y-106670475D01*
X89377676Y-106670475D02*
X89472914Y-106765713D01*
X89472914Y-106765713D02*
X89520533Y-106860951D01*
X89234819Y-105670475D02*
X89234819Y-105575237D01*
X89234819Y-105575237D02*
X89282438Y-105479999D01*
X89282438Y-105479999D02*
X89330057Y-105432380D01*
X89330057Y-105432380D02*
X89425295Y-105384761D01*
X89425295Y-105384761D02*
X89615771Y-105337142D01*
X89615771Y-105337142D02*
X89853866Y-105337142D01*
X89853866Y-105337142D02*
X90044342Y-105384761D01*
X90044342Y-105384761D02*
X90139580Y-105432380D01*
X90139580Y-105432380D02*
X90187200Y-105479999D01*
X90187200Y-105479999D02*
X90234819Y-105575237D01*
X90234819Y-105575237D02*
X90234819Y-105670475D01*
X90234819Y-105670475D02*
X90187200Y-105765713D01*
X90187200Y-105765713D02*
X90139580Y-105813332D01*
X90139580Y-105813332D02*
X90044342Y-105860951D01*
X90044342Y-105860951D02*
X89853866Y-105908570D01*
X89853866Y-105908570D02*
X89615771Y-105908570D01*
X89615771Y-105908570D02*
X89425295Y-105860951D01*
X89425295Y-105860951D02*
X89330057Y-105813332D01*
X89330057Y-105813332D02*
X89282438Y-105765713D01*
X89282438Y-105765713D02*
X89234819Y-105670475D01*
X131214819Y-124536666D02*
X130738628Y-124869999D01*
X131214819Y-125108094D02*
X130214819Y-125108094D01*
X130214819Y-125108094D02*
X130214819Y-124727142D01*
X130214819Y-124727142D02*
X130262438Y-124631904D01*
X130262438Y-124631904D02*
X130310057Y-124584285D01*
X130310057Y-124584285D02*
X130405295Y-124536666D01*
X130405295Y-124536666D02*
X130548152Y-124536666D01*
X130548152Y-124536666D02*
X130643390Y-124584285D01*
X130643390Y-124584285D02*
X130691009Y-124631904D01*
X130691009Y-124631904D02*
X130738628Y-124727142D01*
X130738628Y-124727142D02*
X130738628Y-125108094D01*
X130214819Y-123631904D02*
X130214819Y-124108094D01*
X130214819Y-124108094D02*
X130691009Y-124155713D01*
X130691009Y-124155713D02*
X130643390Y-124108094D01*
X130643390Y-124108094D02*
X130595771Y-124012856D01*
X130595771Y-124012856D02*
X130595771Y-123774761D01*
X130595771Y-123774761D02*
X130643390Y-123679523D01*
X130643390Y-123679523D02*
X130691009Y-123631904D01*
X130691009Y-123631904D02*
X130786247Y-123584285D01*
X130786247Y-123584285D02*
X131024342Y-123584285D01*
X131024342Y-123584285D02*
X131119580Y-123631904D01*
X131119580Y-123631904D02*
X131167200Y-123679523D01*
X131167200Y-123679523D02*
X131214819Y-123774761D01*
X131214819Y-123774761D02*
X131214819Y-124012856D01*
X131214819Y-124012856D02*
X131167200Y-124108094D01*
X131167200Y-124108094D02*
X131119580Y-124155713D01*
X124920476Y-47714819D02*
X124920476Y-48429104D01*
X124920476Y-48429104D02*
X124872857Y-48571961D01*
X124872857Y-48571961D02*
X124777619Y-48667200D01*
X124777619Y-48667200D02*
X124634762Y-48714819D01*
X124634762Y-48714819D02*
X124539524Y-48714819D01*
X125920476Y-48714819D02*
X125349048Y-48714819D01*
X125634762Y-48714819D02*
X125634762Y-47714819D01*
X125634762Y-47714819D02*
X125539524Y-47857676D01*
X125539524Y-47857676D02*
X125444286Y-47952914D01*
X125444286Y-47952914D02*
X125349048Y-48000533D01*
X126491905Y-48143390D02*
X126396667Y-48095771D01*
X126396667Y-48095771D02*
X126349048Y-48048152D01*
X126349048Y-48048152D02*
X126301429Y-47952914D01*
X126301429Y-47952914D02*
X126301429Y-47905295D01*
X126301429Y-47905295D02*
X126349048Y-47810057D01*
X126349048Y-47810057D02*
X126396667Y-47762438D01*
X126396667Y-47762438D02*
X126491905Y-47714819D01*
X126491905Y-47714819D02*
X126682381Y-47714819D01*
X126682381Y-47714819D02*
X126777619Y-47762438D01*
X126777619Y-47762438D02*
X126825238Y-47810057D01*
X126825238Y-47810057D02*
X126872857Y-47905295D01*
X126872857Y-47905295D02*
X126872857Y-47952914D01*
X126872857Y-47952914D02*
X126825238Y-48048152D01*
X126825238Y-48048152D02*
X126777619Y-48095771D01*
X126777619Y-48095771D02*
X126682381Y-48143390D01*
X126682381Y-48143390D02*
X126491905Y-48143390D01*
X126491905Y-48143390D02*
X126396667Y-48191009D01*
X126396667Y-48191009D02*
X126349048Y-48238628D01*
X126349048Y-48238628D02*
X126301429Y-48333866D01*
X126301429Y-48333866D02*
X126301429Y-48524342D01*
X126301429Y-48524342D02*
X126349048Y-48619580D01*
X126349048Y-48619580D02*
X126396667Y-48667200D01*
X126396667Y-48667200D02*
X126491905Y-48714819D01*
X126491905Y-48714819D02*
X126682381Y-48714819D01*
X126682381Y-48714819D02*
X126777619Y-48667200D01*
X126777619Y-48667200D02*
X126825238Y-48619580D01*
X126825238Y-48619580D02*
X126872857Y-48524342D01*
X126872857Y-48524342D02*
X126872857Y-48333866D01*
X126872857Y-48333866D02*
X126825238Y-48238628D01*
X126825238Y-48238628D02*
X126777619Y-48191009D01*
X126777619Y-48191009D02*
X126682381Y-48143390D01*
X119904819Y-78318094D02*
X118904819Y-78318094D01*
X118904819Y-78318094D02*
X118904819Y-78079999D01*
X118904819Y-78079999D02*
X118952438Y-77937142D01*
X118952438Y-77937142D02*
X119047676Y-77841904D01*
X119047676Y-77841904D02*
X119142914Y-77794285D01*
X119142914Y-77794285D02*
X119333390Y-77746666D01*
X119333390Y-77746666D02*
X119476247Y-77746666D01*
X119476247Y-77746666D02*
X119666723Y-77794285D01*
X119666723Y-77794285D02*
X119761961Y-77841904D01*
X119761961Y-77841904D02*
X119857200Y-77937142D01*
X119857200Y-77937142D02*
X119904819Y-78079999D01*
X119904819Y-78079999D02*
X119904819Y-78318094D01*
X119904819Y-76794285D02*
X119904819Y-77365713D01*
X119904819Y-77079999D02*
X118904819Y-77079999D01*
X118904819Y-77079999D02*
X119047676Y-77175237D01*
X119047676Y-77175237D02*
X119142914Y-77270475D01*
X119142914Y-77270475D02*
X119190533Y-77365713D01*
X120474819Y-82921904D02*
X119474819Y-82921904D01*
X120474819Y-82350476D02*
X119903390Y-82779047D01*
X119474819Y-82350476D02*
X120046247Y-82921904D01*
X104600476Y-47714819D02*
X104600476Y-48429104D01*
X104600476Y-48429104D02*
X104552857Y-48571961D01*
X104552857Y-48571961D02*
X104457619Y-48667200D01*
X104457619Y-48667200D02*
X104314762Y-48714819D01*
X104314762Y-48714819D02*
X104219524Y-48714819D01*
X105600476Y-48714819D02*
X105029048Y-48714819D01*
X105314762Y-48714819D02*
X105314762Y-47714819D01*
X105314762Y-47714819D02*
X105219524Y-47857676D01*
X105219524Y-47857676D02*
X105124286Y-47952914D01*
X105124286Y-47952914D02*
X105029048Y-48000533D01*
X106076667Y-48714819D02*
X106267143Y-48714819D01*
X106267143Y-48714819D02*
X106362381Y-48667200D01*
X106362381Y-48667200D02*
X106410000Y-48619580D01*
X106410000Y-48619580D02*
X106505238Y-48476723D01*
X106505238Y-48476723D02*
X106552857Y-48286247D01*
X106552857Y-48286247D02*
X106552857Y-47905295D01*
X106552857Y-47905295D02*
X106505238Y-47810057D01*
X106505238Y-47810057D02*
X106457619Y-47762438D01*
X106457619Y-47762438D02*
X106362381Y-47714819D01*
X106362381Y-47714819D02*
X106171905Y-47714819D01*
X106171905Y-47714819D02*
X106076667Y-47762438D01*
X106076667Y-47762438D02*
X106029048Y-47810057D01*
X106029048Y-47810057D02*
X105981429Y-47905295D01*
X105981429Y-47905295D02*
X105981429Y-48143390D01*
X105981429Y-48143390D02*
X106029048Y-48238628D01*
X106029048Y-48238628D02*
X106076667Y-48286247D01*
X106076667Y-48286247D02*
X106171905Y-48333866D01*
X106171905Y-48333866D02*
X106362381Y-48333866D01*
X106362381Y-48333866D02*
X106457619Y-48286247D01*
X106457619Y-48286247D02*
X106505238Y-48238628D01*
X106505238Y-48238628D02*
X106552857Y-48143390D01*
X144194761Y-107230057D02*
X144099523Y-107182438D01*
X144099523Y-107182438D02*
X144004285Y-107087200D01*
X144004285Y-107087200D02*
X143861428Y-106944342D01*
X143861428Y-106944342D02*
X143766190Y-106896723D01*
X143766190Y-106896723D02*
X143670952Y-106896723D01*
X143718571Y-107134819D02*
X143623333Y-107087200D01*
X143623333Y-107087200D02*
X143528095Y-106991961D01*
X143528095Y-106991961D02*
X143480476Y-106801485D01*
X143480476Y-106801485D02*
X143480476Y-106468152D01*
X143480476Y-106468152D02*
X143528095Y-106277676D01*
X143528095Y-106277676D02*
X143623333Y-106182438D01*
X143623333Y-106182438D02*
X143718571Y-106134819D01*
X143718571Y-106134819D02*
X143909047Y-106134819D01*
X143909047Y-106134819D02*
X144004285Y-106182438D01*
X144004285Y-106182438D02*
X144099523Y-106277676D01*
X144099523Y-106277676D02*
X144147142Y-106468152D01*
X144147142Y-106468152D02*
X144147142Y-106801485D01*
X144147142Y-106801485D02*
X144099523Y-106991961D01*
X144099523Y-106991961D02*
X144004285Y-107087200D01*
X144004285Y-107087200D02*
X143909047Y-107134819D01*
X143909047Y-107134819D02*
X143718571Y-107134819D01*
X145004285Y-106134819D02*
X144813809Y-106134819D01*
X144813809Y-106134819D02*
X144718571Y-106182438D01*
X144718571Y-106182438D02*
X144670952Y-106230057D01*
X144670952Y-106230057D02*
X144575714Y-106372914D01*
X144575714Y-106372914D02*
X144528095Y-106563390D01*
X144528095Y-106563390D02*
X144528095Y-106944342D01*
X144528095Y-106944342D02*
X144575714Y-107039580D01*
X144575714Y-107039580D02*
X144623333Y-107087200D01*
X144623333Y-107087200D02*
X144718571Y-107134819D01*
X144718571Y-107134819D02*
X144909047Y-107134819D01*
X144909047Y-107134819D02*
X145004285Y-107087200D01*
X145004285Y-107087200D02*
X145051904Y-107039580D01*
X145051904Y-107039580D02*
X145099523Y-106944342D01*
X145099523Y-106944342D02*
X145099523Y-106706247D01*
X145099523Y-106706247D02*
X145051904Y-106611009D01*
X145051904Y-106611009D02*
X145004285Y-106563390D01*
X145004285Y-106563390D02*
X144909047Y-106515771D01*
X144909047Y-106515771D02*
X144718571Y-106515771D01*
X144718571Y-106515771D02*
X144623333Y-106563390D01*
X144623333Y-106563390D02*
X144575714Y-106611009D01*
X144575714Y-106611009D02*
X144528095Y-106706247D01*
X183573333Y-107984819D02*
X183240000Y-107508628D01*
X183001905Y-107984819D02*
X183001905Y-106984819D01*
X183001905Y-106984819D02*
X183382857Y-106984819D01*
X183382857Y-106984819D02*
X183478095Y-107032438D01*
X183478095Y-107032438D02*
X183525714Y-107080057D01*
X183525714Y-107080057D02*
X183573333Y-107175295D01*
X183573333Y-107175295D02*
X183573333Y-107318152D01*
X183573333Y-107318152D02*
X183525714Y-107413390D01*
X183525714Y-107413390D02*
X183478095Y-107461009D01*
X183478095Y-107461009D02*
X183382857Y-107508628D01*
X183382857Y-107508628D02*
X183001905Y-107508628D01*
X184049524Y-107984819D02*
X184240000Y-107984819D01*
X184240000Y-107984819D02*
X184335238Y-107937200D01*
X184335238Y-107937200D02*
X184382857Y-107889580D01*
X184382857Y-107889580D02*
X184478095Y-107746723D01*
X184478095Y-107746723D02*
X184525714Y-107556247D01*
X184525714Y-107556247D02*
X184525714Y-107175295D01*
X184525714Y-107175295D02*
X184478095Y-107080057D01*
X184478095Y-107080057D02*
X184430476Y-107032438D01*
X184430476Y-107032438D02*
X184335238Y-106984819D01*
X184335238Y-106984819D02*
X184144762Y-106984819D01*
X184144762Y-106984819D02*
X184049524Y-107032438D01*
X184049524Y-107032438D02*
X184001905Y-107080057D01*
X184001905Y-107080057D02*
X183954286Y-107175295D01*
X183954286Y-107175295D02*
X183954286Y-107413390D01*
X183954286Y-107413390D02*
X184001905Y-107508628D01*
X184001905Y-107508628D02*
X184049524Y-107556247D01*
X184049524Y-107556247D02*
X184144762Y-107603866D01*
X184144762Y-107603866D02*
X184335238Y-107603866D01*
X184335238Y-107603866D02*
X184430476Y-107556247D01*
X184430476Y-107556247D02*
X184478095Y-107508628D01*
X184478095Y-107508628D02*
X184525714Y-107413390D01*
X202194819Y-82041904D02*
X203004342Y-82041904D01*
X203004342Y-82041904D02*
X203099580Y-81994285D01*
X203099580Y-81994285D02*
X203147200Y-81946666D01*
X203147200Y-81946666D02*
X203194819Y-81851428D01*
X203194819Y-81851428D02*
X203194819Y-81660952D01*
X203194819Y-81660952D02*
X203147200Y-81565714D01*
X203147200Y-81565714D02*
X203099580Y-81518095D01*
X203099580Y-81518095D02*
X203004342Y-81470476D01*
X203004342Y-81470476D02*
X202194819Y-81470476D01*
X203194819Y-80470476D02*
X203194819Y-81041904D01*
X203194819Y-80756190D02*
X202194819Y-80756190D01*
X202194819Y-80756190D02*
X202337676Y-80851428D01*
X202337676Y-80851428D02*
X202432914Y-80946666D01*
X202432914Y-80946666D02*
X202480533Y-81041904D01*
X145509819Y-69653333D02*
X146224104Y-69653333D01*
X146224104Y-69653333D02*
X146366961Y-69700952D01*
X146366961Y-69700952D02*
X146462200Y-69796190D01*
X146462200Y-69796190D02*
X146509819Y-69939047D01*
X146509819Y-69939047D02*
X146509819Y-70034285D01*
X145843152Y-68748571D02*
X146509819Y-68748571D01*
X145462200Y-68986666D02*
X146176485Y-69224761D01*
X146176485Y-69224761D02*
X146176485Y-68605714D01*
X158107142Y-56504819D02*
X157773809Y-56028628D01*
X157535714Y-56504819D02*
X157535714Y-55504819D01*
X157535714Y-55504819D02*
X157916666Y-55504819D01*
X157916666Y-55504819D02*
X158011904Y-55552438D01*
X158011904Y-55552438D02*
X158059523Y-55600057D01*
X158059523Y-55600057D02*
X158107142Y-55695295D01*
X158107142Y-55695295D02*
X158107142Y-55838152D01*
X158107142Y-55838152D02*
X158059523Y-55933390D01*
X158059523Y-55933390D02*
X158011904Y-55981009D01*
X158011904Y-55981009D02*
X157916666Y-56028628D01*
X157916666Y-56028628D02*
X157535714Y-56028628D01*
X159059523Y-56504819D02*
X158488095Y-56504819D01*
X158773809Y-56504819D02*
X158773809Y-55504819D01*
X158773809Y-55504819D02*
X158678571Y-55647676D01*
X158678571Y-55647676D02*
X158583333Y-55742914D01*
X158583333Y-55742914D02*
X158488095Y-55790533D01*
X159916666Y-55838152D02*
X159916666Y-56504819D01*
X159678571Y-55457200D02*
X159440476Y-56171485D01*
X159440476Y-56171485D02*
X160059523Y-56171485D01*
X143970476Y-148554819D02*
X143970476Y-149269104D01*
X143970476Y-149269104D02*
X143922857Y-149411961D01*
X143922857Y-149411961D02*
X143827619Y-149507200D01*
X143827619Y-149507200D02*
X143684762Y-149554819D01*
X143684762Y-149554819D02*
X143589524Y-149554819D01*
X144970476Y-149554819D02*
X144399048Y-149554819D01*
X144684762Y-149554819D02*
X144684762Y-148554819D01*
X144684762Y-148554819D02*
X144589524Y-148697676D01*
X144589524Y-148697676D02*
X144494286Y-148792914D01*
X144494286Y-148792914D02*
X144399048Y-148840533D01*
X145303810Y-148554819D02*
X145922857Y-148554819D01*
X145922857Y-148554819D02*
X145589524Y-148935771D01*
X145589524Y-148935771D02*
X145732381Y-148935771D01*
X145732381Y-148935771D02*
X145827619Y-148983390D01*
X145827619Y-148983390D02*
X145875238Y-149031009D01*
X145875238Y-149031009D02*
X145922857Y-149126247D01*
X145922857Y-149126247D02*
X145922857Y-149364342D01*
X145922857Y-149364342D02*
X145875238Y-149459580D01*
X145875238Y-149459580D02*
X145827619Y-149507200D01*
X145827619Y-149507200D02*
X145732381Y-149554819D01*
X145732381Y-149554819D02*
X145446667Y-149554819D01*
X145446667Y-149554819D02*
X145351429Y-149507200D01*
X145351429Y-149507200D02*
X145303810Y-149459580D01*
X120954819Y-125108094D02*
X119954819Y-125108094D01*
X119954819Y-125108094D02*
X119954819Y-124869999D01*
X119954819Y-124869999D02*
X120002438Y-124727142D01*
X120002438Y-124727142D02*
X120097676Y-124631904D01*
X120097676Y-124631904D02*
X120192914Y-124584285D01*
X120192914Y-124584285D02*
X120383390Y-124536666D01*
X120383390Y-124536666D02*
X120526247Y-124536666D01*
X120526247Y-124536666D02*
X120716723Y-124584285D01*
X120716723Y-124584285D02*
X120811961Y-124631904D01*
X120811961Y-124631904D02*
X120907200Y-124727142D01*
X120907200Y-124727142D02*
X120954819Y-124869999D01*
X120954819Y-124869999D02*
X120954819Y-125108094D01*
X120288152Y-123679523D02*
X120954819Y-123679523D01*
X119907200Y-123917618D02*
X120621485Y-124155713D01*
X120621485Y-124155713D02*
X120621485Y-123536666D01*
X121524819Y-129711904D02*
X120524819Y-129711904D01*
X121524819Y-129140476D02*
X120953390Y-129569047D01*
X120524819Y-129140476D02*
X121096247Y-129711904D01*
X132707142Y-56504819D02*
X132373809Y-56028628D01*
X132135714Y-56504819D02*
X132135714Y-55504819D01*
X132135714Y-55504819D02*
X132516666Y-55504819D01*
X132516666Y-55504819D02*
X132611904Y-55552438D01*
X132611904Y-55552438D02*
X132659523Y-55600057D01*
X132659523Y-55600057D02*
X132707142Y-55695295D01*
X132707142Y-55695295D02*
X132707142Y-55838152D01*
X132707142Y-55838152D02*
X132659523Y-55933390D01*
X132659523Y-55933390D02*
X132611904Y-55981009D01*
X132611904Y-55981009D02*
X132516666Y-56028628D01*
X132516666Y-56028628D02*
X132135714Y-56028628D01*
X133659523Y-56504819D02*
X133088095Y-56504819D01*
X133373809Y-56504819D02*
X133373809Y-55504819D01*
X133373809Y-55504819D02*
X133278571Y-55647676D01*
X133278571Y-55647676D02*
X133183333Y-55742914D01*
X133183333Y-55742914D02*
X133088095Y-55790533D01*
X134564285Y-55504819D02*
X134088095Y-55504819D01*
X134088095Y-55504819D02*
X134040476Y-55981009D01*
X134040476Y-55981009D02*
X134088095Y-55933390D01*
X134088095Y-55933390D02*
X134183333Y-55885771D01*
X134183333Y-55885771D02*
X134421428Y-55885771D01*
X134421428Y-55885771D02*
X134516666Y-55933390D01*
X134516666Y-55933390D02*
X134564285Y-55981009D01*
X134564285Y-55981009D02*
X134611904Y-56076247D01*
X134611904Y-56076247D02*
X134611904Y-56314342D01*
X134611904Y-56314342D02*
X134564285Y-56409580D01*
X134564285Y-56409580D02*
X134516666Y-56457200D01*
X134516666Y-56457200D02*
X134421428Y-56504819D01*
X134421428Y-56504819D02*
X134183333Y-56504819D01*
X134183333Y-56504819D02*
X134088095Y-56457200D01*
X134088095Y-56457200D02*
X134040476Y-56409580D01*
X227774819Y-73973333D02*
X228489104Y-73973333D01*
X228489104Y-73973333D02*
X228631961Y-74020952D01*
X228631961Y-74020952D02*
X228727200Y-74116190D01*
X228727200Y-74116190D02*
X228774819Y-74259047D01*
X228774819Y-74259047D02*
X228774819Y-74354285D01*
X227774819Y-73020952D02*
X227774819Y-73497142D01*
X227774819Y-73497142D02*
X228251009Y-73544761D01*
X228251009Y-73544761D02*
X228203390Y-73497142D01*
X228203390Y-73497142D02*
X228155771Y-73401904D01*
X228155771Y-73401904D02*
X228155771Y-73163809D01*
X228155771Y-73163809D02*
X228203390Y-73068571D01*
X228203390Y-73068571D02*
X228251009Y-73020952D01*
X228251009Y-73020952D02*
X228346247Y-72973333D01*
X228346247Y-72973333D02*
X228584342Y-72973333D01*
X228584342Y-72973333D02*
X228679580Y-73020952D01*
X228679580Y-73020952D02*
X228727200Y-73068571D01*
X228727200Y-73068571D02*
X228774819Y-73163809D01*
X228774819Y-73163809D02*
X228774819Y-73401904D01*
X228774819Y-73401904D02*
X228727200Y-73497142D01*
X228727200Y-73497142D02*
X228679580Y-73544761D01*
X148013333Y-107984819D02*
X147680000Y-107508628D01*
X147441905Y-107984819D02*
X147441905Y-106984819D01*
X147441905Y-106984819D02*
X147822857Y-106984819D01*
X147822857Y-106984819D02*
X147918095Y-107032438D01*
X147918095Y-107032438D02*
X147965714Y-107080057D01*
X147965714Y-107080057D02*
X148013333Y-107175295D01*
X148013333Y-107175295D02*
X148013333Y-107318152D01*
X148013333Y-107318152D02*
X147965714Y-107413390D01*
X147965714Y-107413390D02*
X147918095Y-107461009D01*
X147918095Y-107461009D02*
X147822857Y-107508628D01*
X147822857Y-107508628D02*
X147441905Y-107508628D01*
X148346667Y-106984819D02*
X149013333Y-106984819D01*
X149013333Y-106984819D02*
X148584762Y-107984819D01*
X114760476Y-47714819D02*
X114760476Y-48429104D01*
X114760476Y-48429104D02*
X114712857Y-48571961D01*
X114712857Y-48571961D02*
X114617619Y-48667200D01*
X114617619Y-48667200D02*
X114474762Y-48714819D01*
X114474762Y-48714819D02*
X114379524Y-48714819D01*
X115189048Y-47810057D02*
X115236667Y-47762438D01*
X115236667Y-47762438D02*
X115331905Y-47714819D01*
X115331905Y-47714819D02*
X115570000Y-47714819D01*
X115570000Y-47714819D02*
X115665238Y-47762438D01*
X115665238Y-47762438D02*
X115712857Y-47810057D01*
X115712857Y-47810057D02*
X115760476Y-47905295D01*
X115760476Y-47905295D02*
X115760476Y-48000533D01*
X115760476Y-48000533D02*
X115712857Y-48143390D01*
X115712857Y-48143390D02*
X115141429Y-48714819D01*
X115141429Y-48714819D02*
X115760476Y-48714819D01*
X116141429Y-47810057D02*
X116189048Y-47762438D01*
X116189048Y-47762438D02*
X116284286Y-47714819D01*
X116284286Y-47714819D02*
X116522381Y-47714819D01*
X116522381Y-47714819D02*
X116617619Y-47762438D01*
X116617619Y-47762438D02*
X116665238Y-47810057D01*
X116665238Y-47810057D02*
X116712857Y-47905295D01*
X116712857Y-47905295D02*
X116712857Y-48000533D01*
X116712857Y-48000533D02*
X116665238Y-48143390D01*
X116665238Y-48143390D02*
X116093810Y-48714819D01*
X116093810Y-48714819D02*
X116712857Y-48714819D01*
X108881905Y-68834819D02*
X108881905Y-67834819D01*
X109453333Y-68834819D02*
X109024762Y-68263390D01*
X109453333Y-67834819D02*
X108881905Y-68406247D01*
X110405714Y-68834819D02*
X109834286Y-68834819D01*
X110120000Y-68834819D02*
X110120000Y-67834819D01*
X110120000Y-67834819D02*
X110024762Y-67977676D01*
X110024762Y-67977676D02*
X109929524Y-68072914D01*
X109929524Y-68072914D02*
X109834286Y-68120533D01*
X131110057Y-73785238D02*
X131062438Y-73880476D01*
X131062438Y-73880476D02*
X130967200Y-73975714D01*
X130967200Y-73975714D02*
X130824342Y-74118571D01*
X130824342Y-74118571D02*
X130776723Y-74213809D01*
X130776723Y-74213809D02*
X130776723Y-74309047D01*
X131014819Y-74261428D02*
X130967200Y-74356666D01*
X130967200Y-74356666D02*
X130871961Y-74451904D01*
X130871961Y-74451904D02*
X130681485Y-74499523D01*
X130681485Y-74499523D02*
X130348152Y-74499523D01*
X130348152Y-74499523D02*
X130157676Y-74451904D01*
X130157676Y-74451904D02*
X130062438Y-74356666D01*
X130062438Y-74356666D02*
X130014819Y-74261428D01*
X130014819Y-74261428D02*
X130014819Y-74070952D01*
X130014819Y-74070952D02*
X130062438Y-73975714D01*
X130062438Y-73975714D02*
X130157676Y-73880476D01*
X130157676Y-73880476D02*
X130348152Y-73832857D01*
X130348152Y-73832857D02*
X130681485Y-73832857D01*
X130681485Y-73832857D02*
X130871961Y-73880476D01*
X130871961Y-73880476D02*
X130967200Y-73975714D01*
X130967200Y-73975714D02*
X131014819Y-74070952D01*
X131014819Y-74070952D02*
X131014819Y-74261428D01*
X131014819Y-72880476D02*
X131014819Y-73451904D01*
X131014819Y-73166190D02*
X130014819Y-73166190D01*
X130014819Y-73166190D02*
X130157676Y-73261428D01*
X130157676Y-73261428D02*
X130252914Y-73356666D01*
X130252914Y-73356666D02*
X130300533Y-73451904D01*
X165560476Y-47714819D02*
X165560476Y-48429104D01*
X165560476Y-48429104D02*
X165512857Y-48571961D01*
X165512857Y-48571961D02*
X165417619Y-48667200D01*
X165417619Y-48667200D02*
X165274762Y-48714819D01*
X165274762Y-48714819D02*
X165179524Y-48714819D01*
X166560476Y-48714819D02*
X165989048Y-48714819D01*
X166274762Y-48714819D02*
X166274762Y-47714819D01*
X166274762Y-47714819D02*
X166179524Y-47857676D01*
X166179524Y-47857676D02*
X166084286Y-47952914D01*
X166084286Y-47952914D02*
X165989048Y-48000533D01*
X167417619Y-47714819D02*
X167227143Y-47714819D01*
X167227143Y-47714819D02*
X167131905Y-47762438D01*
X167131905Y-47762438D02*
X167084286Y-47810057D01*
X167084286Y-47810057D02*
X166989048Y-47952914D01*
X166989048Y-47952914D02*
X166941429Y-48143390D01*
X166941429Y-48143390D02*
X166941429Y-48524342D01*
X166941429Y-48524342D02*
X166989048Y-48619580D01*
X166989048Y-48619580D02*
X167036667Y-48667200D01*
X167036667Y-48667200D02*
X167131905Y-48714819D01*
X167131905Y-48714819D02*
X167322381Y-48714819D01*
X167322381Y-48714819D02*
X167417619Y-48667200D01*
X167417619Y-48667200D02*
X167465238Y-48619580D01*
X167465238Y-48619580D02*
X167512857Y-48524342D01*
X167512857Y-48524342D02*
X167512857Y-48286247D01*
X167512857Y-48286247D02*
X167465238Y-48191009D01*
X167465238Y-48191009D02*
X167417619Y-48143390D01*
X167417619Y-48143390D02*
X167322381Y-48095771D01*
X167322381Y-48095771D02*
X167131905Y-48095771D01*
X167131905Y-48095771D02*
X167036667Y-48143390D01*
X167036667Y-48143390D02*
X166989048Y-48191009D01*
X166989048Y-48191009D02*
X166941429Y-48286247D01*
X161750476Y-148554819D02*
X161750476Y-149269104D01*
X161750476Y-149269104D02*
X161702857Y-149411961D01*
X161702857Y-149411961D02*
X161607619Y-149507200D01*
X161607619Y-149507200D02*
X161464762Y-149554819D01*
X161464762Y-149554819D02*
X161369524Y-149554819D01*
X162750476Y-149554819D02*
X162179048Y-149554819D01*
X162464762Y-149554819D02*
X162464762Y-148554819D01*
X162464762Y-148554819D02*
X162369524Y-148697676D01*
X162369524Y-148697676D02*
X162274286Y-148792914D01*
X162274286Y-148792914D02*
X162179048Y-148840533D01*
X163607619Y-148888152D02*
X163607619Y-149554819D01*
X163369524Y-148507200D02*
X163131429Y-149221485D01*
X163131429Y-149221485D02*
X163750476Y-149221485D01*
X88354819Y-75373333D02*
X89069104Y-75373333D01*
X89069104Y-75373333D02*
X89211961Y-75420952D01*
X89211961Y-75420952D02*
X89307200Y-75516190D01*
X89307200Y-75516190D02*
X89354819Y-75659047D01*
X89354819Y-75659047D02*
X89354819Y-75754285D01*
X88783390Y-74754285D02*
X88735771Y-74849523D01*
X88735771Y-74849523D02*
X88688152Y-74897142D01*
X88688152Y-74897142D02*
X88592914Y-74944761D01*
X88592914Y-74944761D02*
X88545295Y-74944761D01*
X88545295Y-74944761D02*
X88450057Y-74897142D01*
X88450057Y-74897142D02*
X88402438Y-74849523D01*
X88402438Y-74849523D02*
X88354819Y-74754285D01*
X88354819Y-74754285D02*
X88354819Y-74563809D01*
X88354819Y-74563809D02*
X88402438Y-74468571D01*
X88402438Y-74468571D02*
X88450057Y-74420952D01*
X88450057Y-74420952D02*
X88545295Y-74373333D01*
X88545295Y-74373333D02*
X88592914Y-74373333D01*
X88592914Y-74373333D02*
X88688152Y-74420952D01*
X88688152Y-74420952D02*
X88735771Y-74468571D01*
X88735771Y-74468571D02*
X88783390Y-74563809D01*
X88783390Y-74563809D02*
X88783390Y-74754285D01*
X88783390Y-74754285D02*
X88831009Y-74849523D01*
X88831009Y-74849523D02*
X88878628Y-74897142D01*
X88878628Y-74897142D02*
X88973866Y-74944761D01*
X88973866Y-74944761D02*
X89164342Y-74944761D01*
X89164342Y-74944761D02*
X89259580Y-74897142D01*
X89259580Y-74897142D02*
X89307200Y-74849523D01*
X89307200Y-74849523D02*
X89354819Y-74754285D01*
X89354819Y-74754285D02*
X89354819Y-74563809D01*
X89354819Y-74563809D02*
X89307200Y-74468571D01*
X89307200Y-74468571D02*
X89259580Y-74420952D01*
X89259580Y-74420952D02*
X89164342Y-74373333D01*
X89164342Y-74373333D02*
X88973866Y-74373333D01*
X88973866Y-74373333D02*
X88878628Y-74420952D01*
X88878628Y-74420952D02*
X88831009Y-74468571D01*
X88831009Y-74468571D02*
X88783390Y-74563809D01*
X178626666Y-48144819D02*
X178626666Y-48859104D01*
X178626666Y-48859104D02*
X178579047Y-49001961D01*
X178579047Y-49001961D02*
X178483809Y-49097200D01*
X178483809Y-49097200D02*
X178340952Y-49144819D01*
X178340952Y-49144819D02*
X178245714Y-49144819D01*
X179531428Y-48144819D02*
X179340952Y-48144819D01*
X179340952Y-48144819D02*
X179245714Y-48192438D01*
X179245714Y-48192438D02*
X179198095Y-48240057D01*
X179198095Y-48240057D02*
X179102857Y-48382914D01*
X179102857Y-48382914D02*
X179055238Y-48573390D01*
X179055238Y-48573390D02*
X179055238Y-48954342D01*
X179055238Y-48954342D02*
X179102857Y-49049580D01*
X179102857Y-49049580D02*
X179150476Y-49097200D01*
X179150476Y-49097200D02*
X179245714Y-49144819D01*
X179245714Y-49144819D02*
X179436190Y-49144819D01*
X179436190Y-49144819D02*
X179531428Y-49097200D01*
X179531428Y-49097200D02*
X179579047Y-49049580D01*
X179579047Y-49049580D02*
X179626666Y-48954342D01*
X179626666Y-48954342D02*
X179626666Y-48716247D01*
X179626666Y-48716247D02*
X179579047Y-48621009D01*
X179579047Y-48621009D02*
X179531428Y-48573390D01*
X179531428Y-48573390D02*
X179436190Y-48525771D01*
X179436190Y-48525771D02*
X179245714Y-48525771D01*
X179245714Y-48525771D02*
X179150476Y-48573390D01*
X179150476Y-48573390D02*
X179102857Y-48621009D01*
X179102857Y-48621009D02*
X179055238Y-48716247D01*
X169395714Y-107494819D02*
X169395714Y-106494819D01*
X169395714Y-106494819D02*
X169633809Y-106494819D01*
X169633809Y-106494819D02*
X169776666Y-106542438D01*
X169776666Y-106542438D02*
X169871904Y-106637676D01*
X169871904Y-106637676D02*
X169919523Y-106732914D01*
X169919523Y-106732914D02*
X169967142Y-106923390D01*
X169967142Y-106923390D02*
X169967142Y-107066247D01*
X169967142Y-107066247D02*
X169919523Y-107256723D01*
X169919523Y-107256723D02*
X169871904Y-107351961D01*
X169871904Y-107351961D02*
X169776666Y-107447200D01*
X169776666Y-107447200D02*
X169633809Y-107494819D01*
X169633809Y-107494819D02*
X169395714Y-107494819D01*
X170919523Y-107494819D02*
X170348095Y-107494819D01*
X170633809Y-107494819D02*
X170633809Y-106494819D01*
X170633809Y-106494819D02*
X170538571Y-106637676D01*
X170538571Y-106637676D02*
X170443333Y-106732914D01*
X170443333Y-106732914D02*
X170348095Y-106780533D01*
X171824285Y-106494819D02*
X171348095Y-106494819D01*
X171348095Y-106494819D02*
X171300476Y-106971009D01*
X171300476Y-106971009D02*
X171348095Y-106923390D01*
X171348095Y-106923390D02*
X171443333Y-106875771D01*
X171443333Y-106875771D02*
X171681428Y-106875771D01*
X171681428Y-106875771D02*
X171776666Y-106923390D01*
X171776666Y-106923390D02*
X171824285Y-106971009D01*
X171824285Y-106971009D02*
X171871904Y-107066247D01*
X171871904Y-107066247D02*
X171871904Y-107304342D01*
X171871904Y-107304342D02*
X171824285Y-107399580D01*
X171824285Y-107399580D02*
X171776666Y-107447200D01*
X171776666Y-107447200D02*
X171681428Y-107494819D01*
X171681428Y-107494819D02*
X171443333Y-107494819D01*
X171443333Y-107494819D02*
X171348095Y-107447200D01*
X171348095Y-107447200D02*
X171300476Y-107399580D01*
X131684819Y-141566666D02*
X131208628Y-141899999D01*
X131684819Y-142138094D02*
X130684819Y-142138094D01*
X130684819Y-142138094D02*
X130684819Y-141757142D01*
X130684819Y-141757142D02*
X130732438Y-141661904D01*
X130732438Y-141661904D02*
X130780057Y-141614285D01*
X130780057Y-141614285D02*
X130875295Y-141566666D01*
X130875295Y-141566666D02*
X131018152Y-141566666D01*
X131018152Y-141566666D02*
X131113390Y-141614285D01*
X131113390Y-141614285D02*
X131161009Y-141661904D01*
X131161009Y-141661904D02*
X131208628Y-141757142D01*
X131208628Y-141757142D02*
X131208628Y-142138094D01*
X130684819Y-140709523D02*
X130684819Y-140899999D01*
X130684819Y-140899999D02*
X130732438Y-140995237D01*
X130732438Y-140995237D02*
X130780057Y-141042856D01*
X130780057Y-141042856D02*
X130922914Y-141138094D01*
X130922914Y-141138094D02*
X131113390Y-141185713D01*
X131113390Y-141185713D02*
X131494342Y-141185713D01*
X131494342Y-141185713D02*
X131589580Y-141138094D01*
X131589580Y-141138094D02*
X131637200Y-141090475D01*
X131637200Y-141090475D02*
X131684819Y-140995237D01*
X131684819Y-140995237D02*
X131684819Y-140804761D01*
X131684819Y-140804761D02*
X131637200Y-140709523D01*
X131637200Y-140709523D02*
X131589580Y-140661904D01*
X131589580Y-140661904D02*
X131494342Y-140614285D01*
X131494342Y-140614285D02*
X131256247Y-140614285D01*
X131256247Y-140614285D02*
X131161009Y-140661904D01*
X131161009Y-140661904D02*
X131113390Y-140709523D01*
X131113390Y-140709523D02*
X131065771Y-140804761D01*
X131065771Y-140804761D02*
X131065771Y-140995237D01*
X131065771Y-140995237D02*
X131113390Y-141090475D01*
X131113390Y-141090475D02*
X131161009Y-141138094D01*
X131161009Y-141138094D02*
X131256247Y-141185713D01*
X132174819Y-146424285D02*
X131174819Y-146424285D01*
X131174819Y-146424285D02*
X131174819Y-146186190D01*
X131174819Y-146186190D02*
X131222438Y-146043333D01*
X131222438Y-146043333D02*
X131317676Y-145948095D01*
X131317676Y-145948095D02*
X131412914Y-145900476D01*
X131412914Y-145900476D02*
X131603390Y-145852857D01*
X131603390Y-145852857D02*
X131746247Y-145852857D01*
X131746247Y-145852857D02*
X131936723Y-145900476D01*
X131936723Y-145900476D02*
X132031961Y-145948095D01*
X132031961Y-145948095D02*
X132127200Y-146043333D01*
X132127200Y-146043333D02*
X132174819Y-146186190D01*
X132174819Y-146186190D02*
X132174819Y-146424285D01*
X132174819Y-144900476D02*
X132174819Y-145471904D01*
X132174819Y-145186190D02*
X131174819Y-145186190D01*
X131174819Y-145186190D02*
X131317676Y-145281428D01*
X131317676Y-145281428D02*
X131412914Y-145376666D01*
X131412914Y-145376666D02*
X131460533Y-145471904D01*
X131174819Y-144567142D02*
X131174819Y-143948095D01*
X131174819Y-143948095D02*
X131555771Y-144281428D01*
X131555771Y-144281428D02*
X131555771Y-144138571D01*
X131555771Y-144138571D02*
X131603390Y-144043333D01*
X131603390Y-144043333D02*
X131651009Y-143995714D01*
X131651009Y-143995714D02*
X131746247Y-143948095D01*
X131746247Y-143948095D02*
X131984342Y-143948095D01*
X131984342Y-143948095D02*
X132079580Y-143995714D01*
X132079580Y-143995714D02*
X132127200Y-144043333D01*
X132127200Y-144043333D02*
X132174819Y-144138571D01*
X132174819Y-144138571D02*
X132174819Y-144424285D01*
X132174819Y-144424285D02*
X132127200Y-144519523D01*
X132127200Y-144519523D02*
X132079580Y-144567142D01*
X174134819Y-129878094D02*
X173134819Y-129878094D01*
X174134819Y-129306666D02*
X173563390Y-129735237D01*
X173134819Y-129306666D02*
X173706247Y-129878094D01*
X173563390Y-128735237D02*
X173515771Y-128830475D01*
X173515771Y-128830475D02*
X173468152Y-128878094D01*
X173468152Y-128878094D02*
X173372914Y-128925713D01*
X173372914Y-128925713D02*
X173325295Y-128925713D01*
X173325295Y-128925713D02*
X173230057Y-128878094D01*
X173230057Y-128878094D02*
X173182438Y-128830475D01*
X173182438Y-128830475D02*
X173134819Y-128735237D01*
X173134819Y-128735237D02*
X173134819Y-128544761D01*
X173134819Y-128544761D02*
X173182438Y-128449523D01*
X173182438Y-128449523D02*
X173230057Y-128401904D01*
X173230057Y-128401904D02*
X173325295Y-128354285D01*
X173325295Y-128354285D02*
X173372914Y-128354285D01*
X173372914Y-128354285D02*
X173468152Y-128401904D01*
X173468152Y-128401904D02*
X173515771Y-128449523D01*
X173515771Y-128449523D02*
X173563390Y-128544761D01*
X173563390Y-128544761D02*
X173563390Y-128735237D01*
X173563390Y-128735237D02*
X173611009Y-128830475D01*
X173611009Y-128830475D02*
X173658628Y-128878094D01*
X173658628Y-128878094D02*
X173753866Y-128925713D01*
X173753866Y-128925713D02*
X173944342Y-128925713D01*
X173944342Y-128925713D02*
X174039580Y-128878094D01*
X174039580Y-128878094D02*
X174087200Y-128830475D01*
X174087200Y-128830475D02*
X174134819Y-128735237D01*
X174134819Y-128735237D02*
X174134819Y-128544761D01*
X174134819Y-128544761D02*
X174087200Y-128449523D01*
X174087200Y-128449523D02*
X174039580Y-128401904D01*
X174039580Y-128401904D02*
X173944342Y-128354285D01*
X173944342Y-128354285D02*
X173753866Y-128354285D01*
X173753866Y-128354285D02*
X173658628Y-128401904D01*
X173658628Y-128401904D02*
X173611009Y-128449523D01*
X173611009Y-128449523D02*
X173563390Y-128544761D01*
X195034819Y-127761904D02*
X195844342Y-127761904D01*
X195844342Y-127761904D02*
X195939580Y-127714285D01*
X195939580Y-127714285D02*
X195987200Y-127666666D01*
X195987200Y-127666666D02*
X196034819Y-127571428D01*
X196034819Y-127571428D02*
X196034819Y-127380952D01*
X196034819Y-127380952D02*
X195987200Y-127285714D01*
X195987200Y-127285714D02*
X195939580Y-127238095D01*
X195939580Y-127238095D02*
X195844342Y-127190476D01*
X195844342Y-127190476D02*
X195034819Y-127190476D01*
X195130057Y-126761904D02*
X195082438Y-126714285D01*
X195082438Y-126714285D02*
X195034819Y-126619047D01*
X195034819Y-126619047D02*
X195034819Y-126380952D01*
X195034819Y-126380952D02*
X195082438Y-126285714D01*
X195082438Y-126285714D02*
X195130057Y-126238095D01*
X195130057Y-126238095D02*
X195225295Y-126190476D01*
X195225295Y-126190476D02*
X195320533Y-126190476D01*
X195320533Y-126190476D02*
X195463390Y-126238095D01*
X195463390Y-126238095D02*
X196034819Y-126809523D01*
X196034819Y-126809523D02*
X196034819Y-126190476D01*
X120784819Y-109758094D02*
X119784819Y-109758094D01*
X119784819Y-109758094D02*
X119784819Y-109519999D01*
X119784819Y-109519999D02*
X119832438Y-109377142D01*
X119832438Y-109377142D02*
X119927676Y-109281904D01*
X119927676Y-109281904D02*
X120022914Y-109234285D01*
X120022914Y-109234285D02*
X120213390Y-109186666D01*
X120213390Y-109186666D02*
X120356247Y-109186666D01*
X120356247Y-109186666D02*
X120546723Y-109234285D01*
X120546723Y-109234285D02*
X120641961Y-109281904D01*
X120641961Y-109281904D02*
X120737200Y-109377142D01*
X120737200Y-109377142D02*
X120784819Y-109519999D01*
X120784819Y-109519999D02*
X120784819Y-109758094D01*
X119784819Y-108853332D02*
X119784819Y-108234285D01*
X119784819Y-108234285D02*
X120165771Y-108567618D01*
X120165771Y-108567618D02*
X120165771Y-108424761D01*
X120165771Y-108424761D02*
X120213390Y-108329523D01*
X120213390Y-108329523D02*
X120261009Y-108281904D01*
X120261009Y-108281904D02*
X120356247Y-108234285D01*
X120356247Y-108234285D02*
X120594342Y-108234285D01*
X120594342Y-108234285D02*
X120689580Y-108281904D01*
X120689580Y-108281904D02*
X120737200Y-108329523D01*
X120737200Y-108329523D02*
X120784819Y-108424761D01*
X120784819Y-108424761D02*
X120784819Y-108710475D01*
X120784819Y-108710475D02*
X120737200Y-108805713D01*
X120737200Y-108805713D02*
X120689580Y-108853332D01*
X121354819Y-114361904D02*
X120354819Y-114361904D01*
X121354819Y-113790476D02*
X120783390Y-114219047D01*
X120354819Y-113790476D02*
X120926247Y-114361904D01*
X108881905Y-129794819D02*
X108881905Y-128794819D01*
X109453333Y-129794819D02*
X109024762Y-129223390D01*
X109453333Y-128794819D02*
X108881905Y-129366247D01*
X110358095Y-128794819D02*
X109881905Y-128794819D01*
X109881905Y-128794819D02*
X109834286Y-129271009D01*
X109834286Y-129271009D02*
X109881905Y-129223390D01*
X109881905Y-129223390D02*
X109977143Y-129175771D01*
X109977143Y-129175771D02*
X110215238Y-129175771D01*
X110215238Y-129175771D02*
X110310476Y-129223390D01*
X110310476Y-129223390D02*
X110358095Y-129271009D01*
X110358095Y-129271009D02*
X110405714Y-129366247D01*
X110405714Y-129366247D02*
X110405714Y-129604342D01*
X110405714Y-129604342D02*
X110358095Y-129699580D01*
X110358095Y-129699580D02*
X110310476Y-129747200D01*
X110310476Y-129747200D02*
X110215238Y-129794819D01*
X110215238Y-129794819D02*
X109977143Y-129794819D01*
X109977143Y-129794819D02*
X109881905Y-129747200D01*
X109881905Y-129747200D02*
X109834286Y-129699580D01*
X196416666Y-47994819D02*
X196416666Y-48709104D01*
X196416666Y-48709104D02*
X196369047Y-48851961D01*
X196369047Y-48851961D02*
X196273809Y-48947200D01*
X196273809Y-48947200D02*
X196130952Y-48994819D01*
X196130952Y-48994819D02*
X196035714Y-48994819D01*
X196797619Y-47994819D02*
X197464285Y-47994819D01*
X197464285Y-47994819D02*
X197035714Y-48994819D01*
X135080476Y-47714819D02*
X135080476Y-48429104D01*
X135080476Y-48429104D02*
X135032857Y-48571961D01*
X135032857Y-48571961D02*
X134937619Y-48667200D01*
X134937619Y-48667200D02*
X134794762Y-48714819D01*
X134794762Y-48714819D02*
X134699524Y-48714819D01*
X135509048Y-47810057D02*
X135556667Y-47762438D01*
X135556667Y-47762438D02*
X135651905Y-47714819D01*
X135651905Y-47714819D02*
X135890000Y-47714819D01*
X135890000Y-47714819D02*
X135985238Y-47762438D01*
X135985238Y-47762438D02*
X136032857Y-47810057D01*
X136032857Y-47810057D02*
X136080476Y-47905295D01*
X136080476Y-47905295D02*
X136080476Y-48000533D01*
X136080476Y-48000533D02*
X136032857Y-48143390D01*
X136032857Y-48143390D02*
X135461429Y-48714819D01*
X135461429Y-48714819D02*
X136080476Y-48714819D01*
X137032857Y-48714819D02*
X136461429Y-48714819D01*
X136747143Y-48714819D02*
X136747143Y-47714819D01*
X136747143Y-47714819D02*
X136651905Y-47857676D01*
X136651905Y-47857676D02*
X136556667Y-47952914D01*
X136556667Y-47952914D02*
X136461429Y-48000533D01*
X131434819Y-98158094D02*
X130434819Y-98158094D01*
X130434819Y-98158094D02*
X130434819Y-97919999D01*
X130434819Y-97919999D02*
X130482438Y-97777142D01*
X130482438Y-97777142D02*
X130577676Y-97681904D01*
X130577676Y-97681904D02*
X130672914Y-97634285D01*
X130672914Y-97634285D02*
X130863390Y-97586666D01*
X130863390Y-97586666D02*
X131006247Y-97586666D01*
X131006247Y-97586666D02*
X131196723Y-97634285D01*
X131196723Y-97634285D02*
X131291961Y-97681904D01*
X131291961Y-97681904D02*
X131387200Y-97777142D01*
X131387200Y-97777142D02*
X131434819Y-97919999D01*
X131434819Y-97919999D02*
X131434819Y-98158094D01*
X130434819Y-96729523D02*
X130434819Y-96919999D01*
X130434819Y-96919999D02*
X130482438Y-97015237D01*
X130482438Y-97015237D02*
X130530057Y-97062856D01*
X130530057Y-97062856D02*
X130672914Y-97158094D01*
X130672914Y-97158094D02*
X130863390Y-97205713D01*
X130863390Y-97205713D02*
X131244342Y-97205713D01*
X131244342Y-97205713D02*
X131339580Y-97158094D01*
X131339580Y-97158094D02*
X131387200Y-97110475D01*
X131387200Y-97110475D02*
X131434819Y-97015237D01*
X131434819Y-97015237D02*
X131434819Y-96824761D01*
X131434819Y-96824761D02*
X131387200Y-96729523D01*
X131387200Y-96729523D02*
X131339580Y-96681904D01*
X131339580Y-96681904D02*
X131244342Y-96634285D01*
X131244342Y-96634285D02*
X131006247Y-96634285D01*
X131006247Y-96634285D02*
X130911009Y-96681904D01*
X130911009Y-96681904D02*
X130863390Y-96729523D01*
X130863390Y-96729523D02*
X130815771Y-96824761D01*
X130815771Y-96824761D02*
X130815771Y-97015237D01*
X130815771Y-97015237D02*
X130863390Y-97110475D01*
X130863390Y-97110475D02*
X130911009Y-97158094D01*
X130911009Y-97158094D02*
X131006247Y-97205713D01*
X165793333Y-107984819D02*
X165460000Y-107508628D01*
X165221905Y-107984819D02*
X165221905Y-106984819D01*
X165221905Y-106984819D02*
X165602857Y-106984819D01*
X165602857Y-106984819D02*
X165698095Y-107032438D01*
X165698095Y-107032438D02*
X165745714Y-107080057D01*
X165745714Y-107080057D02*
X165793333Y-107175295D01*
X165793333Y-107175295D02*
X165793333Y-107318152D01*
X165793333Y-107318152D02*
X165745714Y-107413390D01*
X165745714Y-107413390D02*
X165698095Y-107461009D01*
X165698095Y-107461009D02*
X165602857Y-107508628D01*
X165602857Y-107508628D02*
X165221905Y-107508628D01*
X166364762Y-107413390D02*
X166269524Y-107365771D01*
X166269524Y-107365771D02*
X166221905Y-107318152D01*
X166221905Y-107318152D02*
X166174286Y-107222914D01*
X166174286Y-107222914D02*
X166174286Y-107175295D01*
X166174286Y-107175295D02*
X166221905Y-107080057D01*
X166221905Y-107080057D02*
X166269524Y-107032438D01*
X166269524Y-107032438D02*
X166364762Y-106984819D01*
X166364762Y-106984819D02*
X166555238Y-106984819D01*
X166555238Y-106984819D02*
X166650476Y-107032438D01*
X166650476Y-107032438D02*
X166698095Y-107080057D01*
X166698095Y-107080057D02*
X166745714Y-107175295D01*
X166745714Y-107175295D02*
X166745714Y-107222914D01*
X166745714Y-107222914D02*
X166698095Y-107318152D01*
X166698095Y-107318152D02*
X166650476Y-107365771D01*
X166650476Y-107365771D02*
X166555238Y-107413390D01*
X166555238Y-107413390D02*
X166364762Y-107413390D01*
X166364762Y-107413390D02*
X166269524Y-107461009D01*
X166269524Y-107461009D02*
X166221905Y-107508628D01*
X166221905Y-107508628D02*
X166174286Y-107603866D01*
X166174286Y-107603866D02*
X166174286Y-107794342D01*
X166174286Y-107794342D02*
X166221905Y-107889580D01*
X166221905Y-107889580D02*
X166269524Y-107937200D01*
X166269524Y-107937200D02*
X166364762Y-107984819D01*
X166364762Y-107984819D02*
X166555238Y-107984819D01*
X166555238Y-107984819D02*
X166650476Y-107937200D01*
X166650476Y-107937200D02*
X166698095Y-107889580D01*
X166698095Y-107889580D02*
X166745714Y-107794342D01*
X166745714Y-107794342D02*
X166745714Y-107603866D01*
X166745714Y-107603866D02*
X166698095Y-107508628D01*
X166698095Y-107508628D02*
X166650476Y-107461009D01*
X166650476Y-107461009D02*
X166555238Y-107413390D01*
X143184819Y-68913333D02*
X143899104Y-68913333D01*
X143899104Y-68913333D02*
X144041961Y-68960952D01*
X144041961Y-68960952D02*
X144137200Y-69056190D01*
X144137200Y-69056190D02*
X144184819Y-69199047D01*
X144184819Y-69199047D02*
X144184819Y-69294285D01*
X143184819Y-68532380D02*
X143184819Y-67913333D01*
X143184819Y-67913333D02*
X143565771Y-68246666D01*
X143565771Y-68246666D02*
X143565771Y-68103809D01*
X143565771Y-68103809D02*
X143613390Y-68008571D01*
X143613390Y-68008571D02*
X143661009Y-67960952D01*
X143661009Y-67960952D02*
X143756247Y-67913333D01*
X143756247Y-67913333D02*
X143994342Y-67913333D01*
X143994342Y-67913333D02*
X144089580Y-67960952D01*
X144089580Y-67960952D02*
X144137200Y-68008571D01*
X144137200Y-68008571D02*
X144184819Y-68103809D01*
X144184819Y-68103809D02*
X144184819Y-68389523D01*
X144184819Y-68389523D02*
X144137200Y-68484761D01*
X144137200Y-68484761D02*
X144089580Y-68532380D01*
X222758095Y-143024819D02*
X222758095Y-142024819D01*
X222758095Y-142501009D02*
X223329523Y-142501009D01*
X223329523Y-143024819D02*
X223329523Y-142024819D01*
X224329523Y-143024819D02*
X223758095Y-143024819D01*
X224043809Y-143024819D02*
X224043809Y-142024819D01*
X224043809Y-142024819D02*
X223948571Y-142167676D01*
X223948571Y-142167676D02*
X223853333Y-142262914D01*
X223853333Y-142262914D02*
X223758095Y-142310533D01*
X183365714Y-119004819D02*
X183365714Y-118004819D01*
X183365714Y-118004819D02*
X183603809Y-118004819D01*
X183603809Y-118004819D02*
X183746666Y-118052438D01*
X183746666Y-118052438D02*
X183841904Y-118147676D01*
X183841904Y-118147676D02*
X183889523Y-118242914D01*
X183889523Y-118242914D02*
X183937142Y-118433390D01*
X183937142Y-118433390D02*
X183937142Y-118576247D01*
X183937142Y-118576247D02*
X183889523Y-118766723D01*
X183889523Y-118766723D02*
X183841904Y-118861961D01*
X183841904Y-118861961D02*
X183746666Y-118957200D01*
X183746666Y-118957200D02*
X183603809Y-119004819D01*
X183603809Y-119004819D02*
X183365714Y-119004819D01*
X184889523Y-119004819D02*
X184318095Y-119004819D01*
X184603809Y-119004819D02*
X184603809Y-118004819D01*
X184603809Y-118004819D02*
X184508571Y-118147676D01*
X184508571Y-118147676D02*
X184413333Y-118242914D01*
X184413333Y-118242914D02*
X184318095Y-118290533D01*
X185270476Y-118100057D02*
X185318095Y-118052438D01*
X185318095Y-118052438D02*
X185413333Y-118004819D01*
X185413333Y-118004819D02*
X185651428Y-118004819D01*
X185651428Y-118004819D02*
X185746666Y-118052438D01*
X185746666Y-118052438D02*
X185794285Y-118100057D01*
X185794285Y-118100057D02*
X185841904Y-118195295D01*
X185841904Y-118195295D02*
X185841904Y-118290533D01*
X185841904Y-118290533D02*
X185794285Y-118433390D01*
X185794285Y-118433390D02*
X185222857Y-119004819D01*
X185222857Y-119004819D02*
X185841904Y-119004819D01*
X189398095Y-118434819D02*
X189398095Y-117434819D01*
X189969523Y-118434819D02*
X189540952Y-117863390D01*
X189969523Y-117434819D02*
X189398095Y-118006247D01*
X165585714Y-119004819D02*
X165585714Y-118004819D01*
X165585714Y-118004819D02*
X165823809Y-118004819D01*
X165823809Y-118004819D02*
X165966666Y-118052438D01*
X165966666Y-118052438D02*
X166061904Y-118147676D01*
X166061904Y-118147676D02*
X166109523Y-118242914D01*
X166109523Y-118242914D02*
X166157142Y-118433390D01*
X166157142Y-118433390D02*
X166157142Y-118576247D01*
X166157142Y-118576247D02*
X166109523Y-118766723D01*
X166109523Y-118766723D02*
X166061904Y-118861961D01*
X166061904Y-118861961D02*
X165966666Y-118957200D01*
X165966666Y-118957200D02*
X165823809Y-119004819D01*
X165823809Y-119004819D02*
X165585714Y-119004819D01*
X167109523Y-119004819D02*
X166538095Y-119004819D01*
X166823809Y-119004819D02*
X166823809Y-118004819D01*
X166823809Y-118004819D02*
X166728571Y-118147676D01*
X166728571Y-118147676D02*
X166633333Y-118242914D01*
X166633333Y-118242914D02*
X166538095Y-118290533D01*
X168061904Y-119004819D02*
X167490476Y-119004819D01*
X167776190Y-119004819D02*
X167776190Y-118004819D01*
X167776190Y-118004819D02*
X167680952Y-118147676D01*
X167680952Y-118147676D02*
X167585714Y-118242914D01*
X167585714Y-118242914D02*
X167490476Y-118290533D01*
X171618095Y-118434819D02*
X171618095Y-117434819D01*
X172189523Y-118434819D02*
X171760952Y-117863390D01*
X172189523Y-117434819D02*
X171618095Y-118006247D01*
X179754761Y-107230057D02*
X179659523Y-107182438D01*
X179659523Y-107182438D02*
X179564285Y-107087200D01*
X179564285Y-107087200D02*
X179421428Y-106944342D01*
X179421428Y-106944342D02*
X179326190Y-106896723D01*
X179326190Y-106896723D02*
X179230952Y-106896723D01*
X179278571Y-107134819D02*
X179183333Y-107087200D01*
X179183333Y-107087200D02*
X179088095Y-106991961D01*
X179088095Y-106991961D02*
X179040476Y-106801485D01*
X179040476Y-106801485D02*
X179040476Y-106468152D01*
X179040476Y-106468152D02*
X179088095Y-106277676D01*
X179088095Y-106277676D02*
X179183333Y-106182438D01*
X179183333Y-106182438D02*
X179278571Y-106134819D01*
X179278571Y-106134819D02*
X179469047Y-106134819D01*
X179469047Y-106134819D02*
X179564285Y-106182438D01*
X179564285Y-106182438D02*
X179659523Y-106277676D01*
X179659523Y-106277676D02*
X179707142Y-106468152D01*
X179707142Y-106468152D02*
X179707142Y-106801485D01*
X179707142Y-106801485D02*
X179659523Y-106991961D01*
X179659523Y-106991961D02*
X179564285Y-107087200D01*
X179564285Y-107087200D02*
X179469047Y-107134819D01*
X179469047Y-107134819D02*
X179278571Y-107134819D01*
X180278571Y-106563390D02*
X180183333Y-106515771D01*
X180183333Y-106515771D02*
X180135714Y-106468152D01*
X180135714Y-106468152D02*
X180088095Y-106372914D01*
X180088095Y-106372914D02*
X180088095Y-106325295D01*
X180088095Y-106325295D02*
X180135714Y-106230057D01*
X180135714Y-106230057D02*
X180183333Y-106182438D01*
X180183333Y-106182438D02*
X180278571Y-106134819D01*
X180278571Y-106134819D02*
X180469047Y-106134819D01*
X180469047Y-106134819D02*
X180564285Y-106182438D01*
X180564285Y-106182438D02*
X180611904Y-106230057D01*
X180611904Y-106230057D02*
X180659523Y-106325295D01*
X180659523Y-106325295D02*
X180659523Y-106372914D01*
X180659523Y-106372914D02*
X180611904Y-106468152D01*
X180611904Y-106468152D02*
X180564285Y-106515771D01*
X180564285Y-106515771D02*
X180469047Y-106563390D01*
X180469047Y-106563390D02*
X180278571Y-106563390D01*
X180278571Y-106563390D02*
X180183333Y-106611009D01*
X180183333Y-106611009D02*
X180135714Y-106658628D01*
X180135714Y-106658628D02*
X180088095Y-106753866D01*
X180088095Y-106753866D02*
X180088095Y-106944342D01*
X180088095Y-106944342D02*
X180135714Y-107039580D01*
X180135714Y-107039580D02*
X180183333Y-107087200D01*
X180183333Y-107087200D02*
X180278571Y-107134819D01*
X180278571Y-107134819D02*
X180469047Y-107134819D01*
X180469047Y-107134819D02*
X180564285Y-107087200D01*
X180564285Y-107087200D02*
X180611904Y-107039580D01*
X180611904Y-107039580D02*
X180659523Y-106944342D01*
X180659523Y-106944342D02*
X180659523Y-106753866D01*
X180659523Y-106753866D02*
X180611904Y-106658628D01*
X180611904Y-106658628D02*
X180564285Y-106611009D01*
X180564285Y-106611009D02*
X180469047Y-106563390D01*
X147805714Y-119004819D02*
X147805714Y-118004819D01*
X147805714Y-118004819D02*
X148043809Y-118004819D01*
X148043809Y-118004819D02*
X148186666Y-118052438D01*
X148186666Y-118052438D02*
X148281904Y-118147676D01*
X148281904Y-118147676D02*
X148329523Y-118242914D01*
X148329523Y-118242914D02*
X148377142Y-118433390D01*
X148377142Y-118433390D02*
X148377142Y-118576247D01*
X148377142Y-118576247D02*
X148329523Y-118766723D01*
X148329523Y-118766723D02*
X148281904Y-118861961D01*
X148281904Y-118861961D02*
X148186666Y-118957200D01*
X148186666Y-118957200D02*
X148043809Y-119004819D01*
X148043809Y-119004819D02*
X147805714Y-119004819D01*
X149329523Y-119004819D02*
X148758095Y-119004819D01*
X149043809Y-119004819D02*
X149043809Y-118004819D01*
X149043809Y-118004819D02*
X148948571Y-118147676D01*
X148948571Y-118147676D02*
X148853333Y-118242914D01*
X148853333Y-118242914D02*
X148758095Y-118290533D01*
X149948571Y-118004819D02*
X150043809Y-118004819D01*
X150043809Y-118004819D02*
X150139047Y-118052438D01*
X150139047Y-118052438D02*
X150186666Y-118100057D01*
X150186666Y-118100057D02*
X150234285Y-118195295D01*
X150234285Y-118195295D02*
X150281904Y-118385771D01*
X150281904Y-118385771D02*
X150281904Y-118623866D01*
X150281904Y-118623866D02*
X150234285Y-118814342D01*
X150234285Y-118814342D02*
X150186666Y-118909580D01*
X150186666Y-118909580D02*
X150139047Y-118957200D01*
X150139047Y-118957200D02*
X150043809Y-119004819D01*
X150043809Y-119004819D02*
X149948571Y-119004819D01*
X149948571Y-119004819D02*
X149853333Y-118957200D01*
X149853333Y-118957200D02*
X149805714Y-118909580D01*
X149805714Y-118909580D02*
X149758095Y-118814342D01*
X149758095Y-118814342D02*
X149710476Y-118623866D01*
X149710476Y-118623866D02*
X149710476Y-118385771D01*
X149710476Y-118385771D02*
X149758095Y-118195295D01*
X149758095Y-118195295D02*
X149805714Y-118100057D01*
X149805714Y-118100057D02*
X149853333Y-118052438D01*
X149853333Y-118052438D02*
X149948571Y-118004819D01*
X153838095Y-118434819D02*
X153838095Y-117434819D01*
X154409523Y-118434819D02*
X153980952Y-117863390D01*
X154409523Y-117434819D02*
X153838095Y-118006247D01*
X129070057Y-136765238D02*
X129022438Y-136860476D01*
X129022438Y-136860476D02*
X128927200Y-136955714D01*
X128927200Y-136955714D02*
X128784342Y-137098571D01*
X128784342Y-137098571D02*
X128736723Y-137193809D01*
X128736723Y-137193809D02*
X128736723Y-137289047D01*
X128974819Y-137241428D02*
X128927200Y-137336666D01*
X128927200Y-137336666D02*
X128831961Y-137431904D01*
X128831961Y-137431904D02*
X128641485Y-137479523D01*
X128641485Y-137479523D02*
X128308152Y-137479523D01*
X128308152Y-137479523D02*
X128117676Y-137431904D01*
X128117676Y-137431904D02*
X128022438Y-137336666D01*
X128022438Y-137336666D02*
X127974819Y-137241428D01*
X127974819Y-137241428D02*
X127974819Y-137050952D01*
X127974819Y-137050952D02*
X128022438Y-136955714D01*
X128022438Y-136955714D02*
X128117676Y-136860476D01*
X128117676Y-136860476D02*
X128308152Y-136812857D01*
X128308152Y-136812857D02*
X128641485Y-136812857D01*
X128641485Y-136812857D02*
X128831961Y-136860476D01*
X128831961Y-136860476D02*
X128927200Y-136955714D01*
X128927200Y-136955714D02*
X128974819Y-137050952D01*
X128974819Y-137050952D02*
X128974819Y-137241428D01*
X127974819Y-135908095D02*
X127974819Y-136384285D01*
X127974819Y-136384285D02*
X128451009Y-136431904D01*
X128451009Y-136431904D02*
X128403390Y-136384285D01*
X128403390Y-136384285D02*
X128355771Y-136289047D01*
X128355771Y-136289047D02*
X128355771Y-136050952D01*
X128355771Y-136050952D02*
X128403390Y-135955714D01*
X128403390Y-135955714D02*
X128451009Y-135908095D01*
X128451009Y-135908095D02*
X128546247Y-135860476D01*
X128546247Y-135860476D02*
X128784342Y-135860476D01*
X128784342Y-135860476D02*
X128879580Y-135908095D01*
X128879580Y-135908095D02*
X128927200Y-135955714D01*
X128927200Y-135955714D02*
X128974819Y-136050952D01*
X128974819Y-136050952D02*
X128974819Y-136289047D01*
X128974819Y-136289047D02*
X128927200Y-136384285D01*
X128927200Y-136384285D02*
X128879580Y-136431904D01*
X108901905Y-99704819D02*
X108901905Y-98704819D01*
X109473333Y-99704819D02*
X109044762Y-99133390D01*
X109473333Y-98704819D02*
X108901905Y-99276247D01*
X109806667Y-98704819D02*
X110425714Y-98704819D01*
X110425714Y-98704819D02*
X110092381Y-99085771D01*
X110092381Y-99085771D02*
X110235238Y-99085771D01*
X110235238Y-99085771D02*
X110330476Y-99133390D01*
X110330476Y-99133390D02*
X110378095Y-99181009D01*
X110378095Y-99181009D02*
X110425714Y-99276247D01*
X110425714Y-99276247D02*
X110425714Y-99514342D01*
X110425714Y-99514342D02*
X110378095Y-99609580D01*
X110378095Y-99609580D02*
X110330476Y-99657200D01*
X110330476Y-99657200D02*
X110235238Y-99704819D01*
X110235238Y-99704819D02*
X109949524Y-99704819D01*
X109949524Y-99704819D02*
X109854286Y-99657200D01*
X109854286Y-99657200D02*
X109806667Y-99609580D01*
X170727142Y-56504819D02*
X170393809Y-56028628D01*
X170155714Y-56504819D02*
X170155714Y-55504819D01*
X170155714Y-55504819D02*
X170536666Y-55504819D01*
X170536666Y-55504819D02*
X170631904Y-55552438D01*
X170631904Y-55552438D02*
X170679523Y-55600057D01*
X170679523Y-55600057D02*
X170727142Y-55695295D01*
X170727142Y-55695295D02*
X170727142Y-55838152D01*
X170727142Y-55838152D02*
X170679523Y-55933390D01*
X170679523Y-55933390D02*
X170631904Y-55981009D01*
X170631904Y-55981009D02*
X170536666Y-56028628D01*
X170536666Y-56028628D02*
X170155714Y-56028628D01*
X171679523Y-56504819D02*
X171108095Y-56504819D01*
X171393809Y-56504819D02*
X171393809Y-55504819D01*
X171393809Y-55504819D02*
X171298571Y-55647676D01*
X171298571Y-55647676D02*
X171203333Y-55742914D01*
X171203333Y-55742914D02*
X171108095Y-55790533D01*
X172298571Y-55504819D02*
X172393809Y-55504819D01*
X172393809Y-55504819D02*
X172489047Y-55552438D01*
X172489047Y-55552438D02*
X172536666Y-55600057D01*
X172536666Y-55600057D02*
X172584285Y-55695295D01*
X172584285Y-55695295D02*
X172631904Y-55885771D01*
X172631904Y-55885771D02*
X172631904Y-56123866D01*
X172631904Y-56123866D02*
X172584285Y-56314342D01*
X172584285Y-56314342D02*
X172536666Y-56409580D01*
X172536666Y-56409580D02*
X172489047Y-56457200D01*
X172489047Y-56457200D02*
X172393809Y-56504819D01*
X172393809Y-56504819D02*
X172298571Y-56504819D01*
X172298571Y-56504819D02*
X172203333Y-56457200D01*
X172203333Y-56457200D02*
X172155714Y-56409580D01*
X172155714Y-56409580D02*
X172108095Y-56314342D01*
X172108095Y-56314342D02*
X172060476Y-56123866D01*
X172060476Y-56123866D02*
X172060476Y-55885771D01*
X172060476Y-55885771D02*
X172108095Y-55695295D01*
X172108095Y-55695295D02*
X172155714Y-55600057D01*
X172155714Y-55600057D02*
X172203333Y-55552438D01*
X172203333Y-55552438D02*
X172298571Y-55504819D01*
X120664819Y-142138094D02*
X119664819Y-142138094D01*
X119664819Y-142138094D02*
X119664819Y-141899999D01*
X119664819Y-141899999D02*
X119712438Y-141757142D01*
X119712438Y-141757142D02*
X119807676Y-141661904D01*
X119807676Y-141661904D02*
X119902914Y-141614285D01*
X119902914Y-141614285D02*
X120093390Y-141566666D01*
X120093390Y-141566666D02*
X120236247Y-141566666D01*
X120236247Y-141566666D02*
X120426723Y-141614285D01*
X120426723Y-141614285D02*
X120521961Y-141661904D01*
X120521961Y-141661904D02*
X120617200Y-141757142D01*
X120617200Y-141757142D02*
X120664819Y-141899999D01*
X120664819Y-141899999D02*
X120664819Y-142138094D01*
X120664819Y-141090475D02*
X120664819Y-140899999D01*
X120664819Y-140899999D02*
X120617200Y-140804761D01*
X120617200Y-140804761D02*
X120569580Y-140757142D01*
X120569580Y-140757142D02*
X120426723Y-140661904D01*
X120426723Y-140661904D02*
X120236247Y-140614285D01*
X120236247Y-140614285D02*
X119855295Y-140614285D01*
X119855295Y-140614285D02*
X119760057Y-140661904D01*
X119760057Y-140661904D02*
X119712438Y-140709523D01*
X119712438Y-140709523D02*
X119664819Y-140804761D01*
X119664819Y-140804761D02*
X119664819Y-140995237D01*
X119664819Y-140995237D02*
X119712438Y-141090475D01*
X119712438Y-141090475D02*
X119760057Y-141138094D01*
X119760057Y-141138094D02*
X119855295Y-141185713D01*
X119855295Y-141185713D02*
X120093390Y-141185713D01*
X120093390Y-141185713D02*
X120188628Y-141138094D01*
X120188628Y-141138094D02*
X120236247Y-141090475D01*
X120236247Y-141090475D02*
X120283866Y-140995237D01*
X120283866Y-140995237D02*
X120283866Y-140804761D01*
X120283866Y-140804761D02*
X120236247Y-140709523D01*
X120236247Y-140709523D02*
X120188628Y-140661904D01*
X120188628Y-140661904D02*
X120093390Y-140614285D01*
X121234819Y-146741904D02*
X120234819Y-146741904D01*
X121234819Y-146170476D02*
X120663390Y-146599047D01*
X120234819Y-146170476D02*
X120806247Y-146741904D01*
X119924819Y-94348094D02*
X118924819Y-94348094D01*
X118924819Y-94348094D02*
X118924819Y-94109999D01*
X118924819Y-94109999D02*
X118972438Y-93967142D01*
X118972438Y-93967142D02*
X119067676Y-93871904D01*
X119067676Y-93871904D02*
X119162914Y-93824285D01*
X119162914Y-93824285D02*
X119353390Y-93776666D01*
X119353390Y-93776666D02*
X119496247Y-93776666D01*
X119496247Y-93776666D02*
X119686723Y-93824285D01*
X119686723Y-93824285D02*
X119781961Y-93871904D01*
X119781961Y-93871904D02*
X119877200Y-93967142D01*
X119877200Y-93967142D02*
X119924819Y-94109999D01*
X119924819Y-94109999D02*
X119924819Y-94348094D01*
X119020057Y-93395713D02*
X118972438Y-93348094D01*
X118972438Y-93348094D02*
X118924819Y-93252856D01*
X118924819Y-93252856D02*
X118924819Y-93014761D01*
X118924819Y-93014761D02*
X118972438Y-92919523D01*
X118972438Y-92919523D02*
X119020057Y-92871904D01*
X119020057Y-92871904D02*
X119115295Y-92824285D01*
X119115295Y-92824285D02*
X119210533Y-92824285D01*
X119210533Y-92824285D02*
X119353390Y-92871904D01*
X119353390Y-92871904D02*
X119924819Y-93443332D01*
X119924819Y-93443332D02*
X119924819Y-92824285D01*
X120494819Y-98951904D02*
X119494819Y-98951904D01*
X120494819Y-98380476D02*
X119923390Y-98809047D01*
X119494819Y-98380476D02*
X120066247Y-98951904D01*
X131130057Y-89815238D02*
X131082438Y-89910476D01*
X131082438Y-89910476D02*
X130987200Y-90005714D01*
X130987200Y-90005714D02*
X130844342Y-90148571D01*
X130844342Y-90148571D02*
X130796723Y-90243809D01*
X130796723Y-90243809D02*
X130796723Y-90339047D01*
X131034819Y-90291428D02*
X130987200Y-90386666D01*
X130987200Y-90386666D02*
X130891961Y-90481904D01*
X130891961Y-90481904D02*
X130701485Y-90529523D01*
X130701485Y-90529523D02*
X130368152Y-90529523D01*
X130368152Y-90529523D02*
X130177676Y-90481904D01*
X130177676Y-90481904D02*
X130082438Y-90386666D01*
X130082438Y-90386666D02*
X130034819Y-90291428D01*
X130034819Y-90291428D02*
X130034819Y-90100952D01*
X130034819Y-90100952D02*
X130082438Y-90005714D01*
X130082438Y-90005714D02*
X130177676Y-89910476D01*
X130177676Y-89910476D02*
X130368152Y-89862857D01*
X130368152Y-89862857D02*
X130701485Y-89862857D01*
X130701485Y-89862857D02*
X130891961Y-89910476D01*
X130891961Y-89910476D02*
X130987200Y-90005714D01*
X130987200Y-90005714D02*
X131034819Y-90100952D01*
X131034819Y-90100952D02*
X131034819Y-90291428D01*
X130130057Y-89481904D02*
X130082438Y-89434285D01*
X130082438Y-89434285D02*
X130034819Y-89339047D01*
X130034819Y-89339047D02*
X130034819Y-89100952D01*
X130034819Y-89100952D02*
X130082438Y-89005714D01*
X130082438Y-89005714D02*
X130130057Y-88958095D01*
X130130057Y-88958095D02*
X130225295Y-88910476D01*
X130225295Y-88910476D02*
X130320533Y-88910476D01*
X130320533Y-88910476D02*
X130463390Y-88958095D01*
X130463390Y-88958095D02*
X131034819Y-89529523D01*
X131034819Y-89529523D02*
X131034819Y-88910476D01*
D11*
%TO.C,Q7*%
X160130000Y-111940000D02*
X163980000Y-111940000D01*
X160130000Y-111940000D02*
G75*
G02*
X164018611Y-111930122I1940000J1700000D01*
G01*
%TO.C,R13*%
X101500000Y-60230000D02*
X101500000Y-66770000D01*
X101500000Y-66770000D02*
X104240000Y-66770000D01*
X102870000Y-59460000D02*
X102870000Y-60230000D01*
X102870000Y-67540000D02*
X102870000Y-66770000D01*
X104240000Y-60230000D02*
X101500000Y-60230000D01*
X104240000Y-66770000D02*
X104240000Y-60230000D01*
%TO.C,K7*%
X157300000Y-139440000D02*
X157300000Y-119640000D01*
X159050000Y-124590000D02*
X159050000Y-127090000D01*
X160900000Y-135190000D02*
X163350000Y-135190000D01*
X161450000Y-130490000D02*
X161450000Y-123690000D01*
X163250000Y-125090000D02*
X166850000Y-125090000D01*
X163250000Y-127090000D02*
X159050000Y-127090000D01*
X163250000Y-129090000D02*
X163250000Y-125090000D01*
X163250000Y-129090000D02*
X166850000Y-125090000D01*
X163900000Y-119640000D02*
X157300000Y-119640000D01*
X165050000Y-123690000D02*
X161450000Y-123690000D01*
X165050000Y-123690000D02*
X165050000Y-122890000D01*
X165050000Y-130490000D02*
X161450000Y-130490000D01*
X165050000Y-130490000D02*
X165050000Y-131990000D01*
X165050000Y-131990000D02*
X167550000Y-136590000D01*
X166850000Y-125090000D02*
X166850000Y-129090000D01*
X166850000Y-129090000D02*
X163250000Y-129090000D01*
X169300000Y-135190000D02*
X166800000Y-135190000D01*
X171050000Y-127090000D02*
X166850000Y-127090000D01*
X171050000Y-127090000D02*
X171050000Y-124590000D01*
X172900000Y-119640000D02*
X166300000Y-119640000D01*
X172900000Y-119640000D02*
X172900000Y-139440000D01*
X172900000Y-139440000D02*
X157300000Y-139440000D01*
%TO.C,K6*%
X139520000Y-139440000D02*
X139520000Y-119640000D01*
X141270000Y-124590000D02*
X141270000Y-127090000D01*
X143120000Y-135190000D02*
X145570000Y-135190000D01*
X143670000Y-130490000D02*
X143670000Y-123690000D01*
X145470000Y-125090000D02*
X149070000Y-125090000D01*
X145470000Y-127090000D02*
X141270000Y-127090000D01*
X145470000Y-129090000D02*
X145470000Y-125090000D01*
X145470000Y-129090000D02*
X149070000Y-125090000D01*
X146120000Y-119640000D02*
X139520000Y-119640000D01*
X147270000Y-123690000D02*
X143670000Y-123690000D01*
X147270000Y-123690000D02*
X147270000Y-122890000D01*
X147270000Y-130490000D02*
X143670000Y-130490000D01*
X147270000Y-130490000D02*
X147270000Y-131990000D01*
X147270000Y-131990000D02*
X149770000Y-136590000D01*
X149070000Y-125090000D02*
X149070000Y-129090000D01*
X149070000Y-129090000D02*
X145470000Y-129090000D01*
X151520000Y-135190000D02*
X149020000Y-135190000D01*
X153270000Y-127090000D02*
X149070000Y-127090000D01*
X153270000Y-127090000D02*
X153270000Y-124590000D01*
X155120000Y-119640000D02*
X148520000Y-119640000D01*
X155120000Y-119640000D02*
X155120000Y-139440000D01*
X155120000Y-139440000D02*
X139520000Y-139440000D01*
%TO.C,J17*%
X140970000Y-49530000D02*
X140970000Y-57150000D01*
X140970000Y-57150000D02*
X151130000Y-57150000D01*
X151130000Y-49530000D02*
X140970000Y-49530000D01*
X151130000Y-55880000D02*
X140970000Y-55880000D01*
X151130000Y-57150000D02*
X151130000Y-49530000D01*
%TO.C,J1*%
X216280000Y-142750000D02*
X216280000Y-141010000D01*
X216520000Y-133310000D02*
X218520000Y-133310000D01*
X216520000Y-136110000D02*
X216520000Y-133310000D01*
X216520000Y-142510000D02*
X216520000Y-139710000D01*
X218020000Y-142750000D02*
X216280000Y-142750000D01*
X222120000Y-133310000D02*
X231120000Y-133310000D01*
X231120000Y-133310000D02*
X231120000Y-142510000D01*
X231120000Y-142510000D02*
X216520000Y-142510000D01*
%TO.C,J12*%
X90930000Y-132080000D02*
X90930000Y-142240000D01*
X90930000Y-142240000D02*
X98550000Y-142240000D01*
X97280000Y-132080000D02*
X97280000Y-142240000D01*
X98550000Y-132080000D02*
X90930000Y-132080000D01*
X98550000Y-142240000D02*
X98550000Y-132080000D01*
%TO.C,D14*%
X150270000Y-109455000D02*
X150270000Y-112545000D01*
X150270001Y-109455170D02*
G75*
G02*
X155819999Y-111000462I2559999J-1544830D01*
G01*
X155820000Y-110999538D02*
G75*
G02*
X150270000Y-112544830I-2990000J-462D01*
G01*
X155330000Y-111000000D02*
G75*
G02*
X150330000Y-111000000I-2500000J0D01*
G01*
X150330000Y-111000000D02*
G75*
G02*
X155330000Y-111000000I2500000J0D01*
G01*
%TO.C,J11*%
X91220000Y-116750000D02*
X91220000Y-126910000D01*
X91220000Y-126910000D02*
X98840000Y-126910000D01*
X97570000Y-116750000D02*
X97570000Y-126910000D01*
X98840000Y-116750000D02*
X91220000Y-116750000D01*
X98840000Y-126910000D02*
X98840000Y-116750000D01*
%TO.C,R2*%
X130710000Y-74310000D02*
X130710000Y-80850000D01*
X130710000Y-80850000D02*
X133450000Y-80850000D01*
X132080000Y-73540000D02*
X132080000Y-74310000D01*
X132080000Y-81620000D02*
X132080000Y-80850000D01*
X133450000Y-74310000D02*
X130710000Y-74310000D01*
X133450000Y-80850000D02*
X133450000Y-74310000D01*
%TO.C,J2*%
X144725000Y-87690000D02*
X144725000Y-86360000D01*
X146055000Y-87690000D02*
X144725000Y-87690000D01*
X147325000Y-85030000D02*
X195645000Y-85030000D01*
X147325000Y-87690000D02*
X147325000Y-85030000D01*
X147325000Y-87690000D02*
X195645000Y-87690000D01*
X195645000Y-87690000D02*
X195645000Y-85030000D01*
%TO.C,R1*%
X180030000Y-58420000D02*
X180800000Y-58420000D01*
X180800000Y-57050000D02*
X180800000Y-59790000D01*
X180800000Y-59790000D02*
X187340000Y-59790000D01*
X187340000Y-57050000D02*
X180800000Y-57050000D01*
X187340000Y-59790000D02*
X187340000Y-57050000D01*
X188110000Y-58420000D02*
X187340000Y-58420000D01*
%TO.C,Q3*%
X126180000Y-103190000D02*
X126180000Y-107040000D01*
X126180000Y-103190000D02*
G75*
G02*
X126189878Y-107078611I1700000J-1940000D01*
G01*
%TO.C,J20*%
X151130000Y-49530000D02*
X151130000Y-57150000D01*
X151130000Y-57150000D02*
X161290000Y-57150000D01*
X161290000Y-49530000D02*
X151130000Y-49530000D01*
X161290000Y-55880000D02*
X151130000Y-55880000D01*
X161290000Y-57150000D02*
X161290000Y-49530000D01*
%TO.C,J9*%
X90190000Y-85990000D02*
X90190000Y-96150000D01*
X90190000Y-96150000D02*
X97810000Y-96150000D01*
X96540000Y-85990000D02*
X96540000Y-96150000D01*
X97810000Y-85990000D02*
X90190000Y-85990000D01*
X97810000Y-96150000D02*
X97810000Y-85990000D01*
%TO.C,D5*%
X128545000Y-78830000D02*
X125455000Y-78830000D01*
X127000462Y-84380000D02*
G75*
G02*
X125455170Y-78830000I-462J2990000D01*
G01*
X128544830Y-78830001D02*
G75*
G02*
X126999538Y-84379999I-1544830J-2559999D01*
G01*
X129500000Y-81390000D02*
G75*
G02*
X124500000Y-81390000I-2500000J0D01*
G01*
X124500000Y-81390000D02*
G75*
G02*
X129500000Y-81390000I2500000J0D01*
G01*
%TO.C,K2*%
X99340000Y-85810000D02*
X119140000Y-85810000D01*
X99340000Y-101410000D02*
X99340000Y-85810000D01*
X103590000Y-89410000D02*
X103590000Y-91860000D01*
X103590000Y-97810000D02*
X103590000Y-95310000D01*
X106790000Y-93560000D02*
X102190000Y-96060000D01*
X108290000Y-89960000D02*
X115090000Y-89960000D01*
X108290000Y-93560000D02*
X106790000Y-93560000D01*
X108290000Y-93560000D02*
X108290000Y-89960000D01*
X109690000Y-91760000D02*
X113690000Y-91760000D01*
X109690000Y-91760000D02*
X113690000Y-95360000D01*
X109690000Y-95360000D02*
X109690000Y-91760000D01*
X111690000Y-91760000D02*
X111690000Y-87560000D01*
X111690000Y-99560000D02*
X111690000Y-95360000D01*
X111690000Y-99560000D02*
X114190000Y-99560000D01*
X113690000Y-91760000D02*
X113690000Y-95360000D01*
X113690000Y-95360000D02*
X109690000Y-95360000D01*
X114190000Y-87560000D02*
X111690000Y-87560000D01*
X115090000Y-93560000D02*
X115090000Y-89960000D01*
X115090000Y-93560000D02*
X115890000Y-93560000D01*
X119140000Y-92410000D02*
X119140000Y-85810000D01*
X119140000Y-101410000D02*
X99340000Y-101410000D01*
X119140000Y-101410000D02*
X119140000Y-94810000D01*
%TO.C,Q4*%
X126350000Y-118540000D02*
X126350000Y-122390000D01*
X126350000Y-118540000D02*
G75*
G02*
X126359878Y-122428611I1700000J-1940000D01*
G01*
%TO.C,R3*%
X130730000Y-90340000D02*
X130730000Y-96880000D01*
X130730000Y-96880000D02*
X133470000Y-96880000D01*
X132100000Y-89570000D02*
X132100000Y-90340000D01*
X132100000Y-97650000D02*
X132100000Y-96880000D01*
X133470000Y-90340000D02*
X130730000Y-90340000D01*
X133470000Y-96880000D02*
X133470000Y-90340000D01*
%TO.C,D16*%
X185830000Y-109455000D02*
X185830000Y-112545000D01*
X185830001Y-109455170D02*
G75*
G02*
X191379999Y-111000462I2559999J-1544830D01*
G01*
X191380000Y-110999538D02*
G75*
G02*
X185830000Y-112544830I-2990000J-462D01*
G01*
X190890000Y-111000000D02*
G75*
G02*
X185890000Y-111000000I-2500000J0D01*
G01*
X185890000Y-111000000D02*
G75*
G02*
X190890000Y-111000000I2500000J0D01*
G01*
%TO.C,R17*%
X91260000Y-60230000D02*
X91260000Y-66770000D01*
X91260000Y-66770000D02*
X94000000Y-66770000D01*
X92630000Y-59460000D02*
X92630000Y-60230000D01*
X92630000Y-67540000D02*
X92630000Y-66770000D01*
X94000000Y-60230000D02*
X91260000Y-60230000D01*
X94000000Y-66770000D02*
X94000000Y-60230000D01*
%TO.C,R12*%
X121740000Y-60230000D02*
X121740000Y-66770000D01*
X121740000Y-66770000D02*
X124480000Y-66770000D01*
X123110000Y-59460000D02*
X123110000Y-60230000D01*
X123110000Y-67540000D02*
X123110000Y-66770000D01*
X124480000Y-60230000D02*
X121740000Y-60230000D01*
X124480000Y-66770000D02*
X124480000Y-60230000D01*
%TO.C,SW1*%
X217110000Y-125730000D02*
X217110000Y-120590000D01*
X219770000Y-120590000D02*
X217110000Y-120590000D01*
X219770000Y-125730000D02*
X217110000Y-125730000D01*
X219770000Y-125730000D02*
X219770000Y-120590000D01*
X219770000Y-127000000D02*
X219770000Y-128330000D01*
X219770000Y-128330000D02*
X218440000Y-128330000D01*
%TO.C,R16*%
X111660000Y-60230000D02*
X111660000Y-66770000D01*
X111660000Y-66770000D02*
X114400000Y-66770000D01*
X113030000Y-59460000D02*
X113030000Y-60230000D01*
X113030000Y-67540000D02*
X113030000Y-66770000D01*
X114400000Y-60230000D02*
X111660000Y-60230000D01*
X114400000Y-66770000D02*
X114400000Y-60230000D01*
%TO.C,D8*%
X129595000Y-125620000D02*
X126505000Y-125620000D01*
X128050462Y-131170000D02*
G75*
G02*
X126505170Y-125620000I-462J2990000D01*
G01*
X129594830Y-125620001D02*
G75*
G02*
X128049538Y-131169999I-1544830J-2559999D01*
G01*
X130550000Y-128180000D02*
G75*
G02*
X125550000Y-128180000I-2500000J0D01*
G01*
X125550000Y-128180000D02*
G75*
G02*
X130550000Y-128180000I2500000J0D01*
G01*
%TO.C,D7*%
X129425000Y-110270000D02*
X126335000Y-110270000D01*
X127880462Y-115820000D02*
G75*
G02*
X126335170Y-110270000I-462J2990000D01*
G01*
X129424830Y-110270001D02*
G75*
G02*
X127879538Y-115819999I-1544830J-2559999D01*
G01*
X130380000Y-112830000D02*
G75*
G02*
X125380000Y-112830000I-2500000J0D01*
G01*
X125380000Y-112830000D02*
G75*
G02*
X130380000Y-112830000I2500000J0D01*
G01*
%TO.C,R11*%
X142010000Y-58420000D02*
X142780000Y-58420000D01*
X142780000Y-57050000D02*
X142780000Y-59790000D01*
X142780000Y-59790000D02*
X149320000Y-59790000D01*
X149320000Y-57050000D02*
X142780000Y-57050000D01*
X149320000Y-59790000D02*
X149320000Y-57050000D01*
X150090000Y-58420000D02*
X149320000Y-58420000D01*
%TO.C,J15*%
X175260000Y-140210000D02*
X175260000Y-147830000D01*
X175260000Y-141480000D02*
X185420000Y-141480000D01*
X175260000Y-147830000D02*
X185420000Y-147830000D01*
X185420000Y-140210000D02*
X175260000Y-140210000D01*
X185420000Y-147830000D02*
X185420000Y-140210000D01*
%TO.C,K4*%
X99320000Y-116570000D02*
X119120000Y-116570000D01*
X99320000Y-132170000D02*
X99320000Y-116570000D01*
X103570000Y-120170000D02*
X103570000Y-122620000D01*
X103570000Y-128570000D02*
X103570000Y-126070000D01*
X106770000Y-124320000D02*
X102170000Y-126820000D01*
X108270000Y-120720000D02*
X115070000Y-120720000D01*
X108270000Y-124320000D02*
X106770000Y-124320000D01*
X108270000Y-124320000D02*
X108270000Y-120720000D01*
X109670000Y-122520000D02*
X113670000Y-122520000D01*
X109670000Y-122520000D02*
X113670000Y-126120000D01*
X109670000Y-126120000D02*
X109670000Y-122520000D01*
X111670000Y-122520000D02*
X111670000Y-118320000D01*
X111670000Y-130320000D02*
X111670000Y-126120000D01*
X111670000Y-130320000D02*
X114170000Y-130320000D01*
X113670000Y-122520000D02*
X113670000Y-126120000D01*
X113670000Y-126120000D02*
X109670000Y-126120000D01*
X114170000Y-118320000D02*
X111670000Y-118320000D01*
X115070000Y-124320000D02*
X115070000Y-120720000D01*
X115070000Y-124320000D02*
X115870000Y-124320000D01*
X119120000Y-123170000D02*
X119120000Y-116570000D01*
X119120000Y-132170000D02*
X99320000Y-132170000D01*
X119120000Y-132170000D02*
X119120000Y-125570000D01*
%TO.C,R4*%
X131590000Y-105750000D02*
X131590000Y-112290000D01*
X131590000Y-112290000D02*
X134330000Y-112290000D01*
X132960000Y-104980000D02*
X132960000Y-105750000D01*
X132960000Y-113060000D02*
X132960000Y-112290000D01*
X134330000Y-105750000D02*
X131590000Y-105750000D01*
X134330000Y-112290000D02*
X134330000Y-105750000D01*
%TO.C,J23*%
X90170000Y-49530000D02*
X90170000Y-57150000D01*
X90170000Y-57150000D02*
X100330000Y-57150000D01*
X100330000Y-49530000D02*
X90170000Y-49530000D01*
X100330000Y-55880000D02*
X90170000Y-55880000D01*
X100330000Y-57150000D02*
X100330000Y-49530000D01*
%TO.C,J10*%
X91050000Y-101400000D02*
X91050000Y-111560000D01*
X91050000Y-111560000D02*
X98670000Y-111560000D01*
X97400000Y-101400000D02*
X97400000Y-111560000D01*
X98670000Y-101400000D02*
X91050000Y-101400000D01*
X98670000Y-111560000D02*
X98670000Y-101400000D01*
%TO.C,R5*%
X131760000Y-121100000D02*
X131760000Y-127640000D01*
X131760000Y-127640000D02*
X134500000Y-127640000D01*
X133130000Y-120330000D02*
X133130000Y-121100000D01*
X133130000Y-128410000D02*
X133130000Y-127640000D01*
X134500000Y-121100000D02*
X131760000Y-121100000D01*
X134500000Y-127640000D02*
X134500000Y-121100000D01*
%TO.C,J18*%
X120650000Y-49530000D02*
X120650000Y-57150000D01*
X120650000Y-57150000D02*
X130810000Y-57150000D01*
X130810000Y-49530000D02*
X120650000Y-49530000D01*
X130810000Y-55880000D02*
X120650000Y-55880000D01*
X130810000Y-57150000D02*
X130810000Y-49530000D01*
%TO.C,D1*%
X120450000Y-74860000D02*
X120450000Y-80300000D01*
X120450000Y-79280000D02*
X123390000Y-79280000D01*
X120450000Y-79400000D02*
X123390000Y-79400000D01*
X120450000Y-79520000D02*
X123390000Y-79520000D01*
X120450000Y-80300000D02*
X123390000Y-80300000D01*
X121920000Y-73640000D02*
X121920000Y-74860000D01*
X121920000Y-81520000D02*
X121920000Y-80300000D01*
X123390000Y-74860000D02*
X120450000Y-74860000D01*
X123390000Y-80300000D02*
X123390000Y-74860000D01*
%TO.C,J19*%
X100330000Y-49530000D02*
X100330000Y-57150000D01*
X100330000Y-57150000D02*
X110490000Y-57150000D01*
X110490000Y-49530000D02*
X100330000Y-49530000D01*
X110490000Y-55880000D02*
X100330000Y-55880000D01*
X110490000Y-57150000D02*
X110490000Y-49530000D01*
%TO.C,Q6*%
X142350000Y-111940000D02*
X146200000Y-111940000D01*
X142350000Y-111940000D02*
G75*
G02*
X146238611Y-111930122I1940000J1700000D01*
G01*
%TO.C,R9*%
X179700000Y-105160000D02*
X180470000Y-105160000D01*
X180470000Y-103790000D02*
X180470000Y-106530000D01*
X180470000Y-106530000D02*
X187010000Y-106530000D01*
X187010000Y-103790000D02*
X180470000Y-103790000D01*
X187010000Y-106530000D02*
X187010000Y-103790000D01*
X187780000Y-105160000D02*
X187010000Y-105160000D01*
%TO.C,J4*%
X144730000Y-73190000D02*
X144730000Y-71860000D01*
X146060000Y-73190000D02*
X144730000Y-73190000D01*
X147330000Y-70530000D02*
X195650000Y-70530000D01*
X147330000Y-73190000D02*
X147330000Y-70530000D01*
X147330000Y-73190000D02*
X195650000Y-73190000D01*
X195650000Y-73190000D02*
X195650000Y-70530000D01*
%TO.C,R14*%
X154710000Y-58420000D02*
X155480000Y-58420000D01*
X155480000Y-57050000D02*
X155480000Y-59790000D01*
X155480000Y-59790000D02*
X162020000Y-59790000D01*
X162020000Y-57050000D02*
X155480000Y-57050000D01*
X162020000Y-59790000D02*
X162020000Y-57050000D01*
X162790000Y-58420000D02*
X162020000Y-58420000D01*
%TO.C,J13*%
X139700000Y-140210000D02*
X139700000Y-147830000D01*
X139700000Y-141480000D02*
X149860000Y-141480000D01*
X139700000Y-147830000D02*
X149860000Y-147830000D01*
X149860000Y-140210000D02*
X139700000Y-140210000D01*
X149860000Y-147830000D02*
X149860000Y-140210000D01*
%TO.C,D4*%
X121500000Y-121650000D02*
X121500000Y-127090000D01*
X121500000Y-126070000D02*
X124440000Y-126070000D01*
X121500000Y-126190000D02*
X124440000Y-126190000D01*
X121500000Y-126310000D02*
X124440000Y-126310000D01*
X121500000Y-127090000D02*
X124440000Y-127090000D01*
X122970000Y-120430000D02*
X122970000Y-121650000D01*
X122970000Y-128310000D02*
X122970000Y-127090000D01*
X124440000Y-121650000D02*
X121500000Y-121650000D01*
X124440000Y-127090000D02*
X124440000Y-121650000D01*
%TO.C,R15*%
X129310000Y-58420000D02*
X130080000Y-58420000D01*
X130080000Y-57050000D02*
X130080000Y-59790000D01*
X130080000Y-59790000D02*
X136620000Y-59790000D01*
X136620000Y-57050000D02*
X130080000Y-57050000D01*
X136620000Y-59790000D02*
X136620000Y-57050000D01*
X137390000Y-58420000D02*
X136620000Y-58420000D01*
%TO.C,J5*%
X219710000Y-63500000D02*
X219710000Y-83820000D01*
X219710000Y-83820000D02*
X227330000Y-83820000D01*
X220980000Y-83820000D02*
X220980000Y-63500000D01*
X227330000Y-63500000D02*
X219710000Y-63500000D01*
X227330000Y-63500000D02*
X227330000Y-83820000D01*
%TO.C,R7*%
X144140000Y-105160000D02*
X144910000Y-105160000D01*
X144910000Y-103790000D02*
X144910000Y-106530000D01*
X144910000Y-106530000D02*
X151450000Y-106530000D01*
X151450000Y-103790000D02*
X144910000Y-103790000D01*
X151450000Y-106530000D02*
X151450000Y-103790000D01*
X152220000Y-105160000D02*
X151450000Y-105160000D01*
%TO.C,J22*%
X110490000Y-49530000D02*
X110490000Y-57150000D01*
X110490000Y-57150000D02*
X120650000Y-57150000D01*
X120650000Y-49530000D02*
X110490000Y-49530000D01*
X120650000Y-55880000D02*
X110490000Y-55880000D01*
X120650000Y-57150000D02*
X120650000Y-49530000D01*
%TO.C,K1*%
X99320000Y-69780000D02*
X119120000Y-69780000D01*
X99320000Y-85380000D02*
X99320000Y-69780000D01*
X103570000Y-73380000D02*
X103570000Y-75830000D01*
X103570000Y-81780000D02*
X103570000Y-79280000D01*
X106770000Y-77530000D02*
X102170000Y-80030000D01*
X108270000Y-73930000D02*
X115070000Y-73930000D01*
X108270000Y-77530000D02*
X106770000Y-77530000D01*
X108270000Y-77530000D02*
X108270000Y-73930000D01*
X109670000Y-75730000D02*
X113670000Y-75730000D01*
X109670000Y-75730000D02*
X113670000Y-79330000D01*
X109670000Y-79330000D02*
X109670000Y-75730000D01*
X111670000Y-75730000D02*
X111670000Y-71530000D01*
X111670000Y-83530000D02*
X111670000Y-79330000D01*
X111670000Y-83530000D02*
X114170000Y-83530000D01*
X113670000Y-75730000D02*
X113670000Y-79330000D01*
X113670000Y-79330000D02*
X109670000Y-79330000D01*
X114170000Y-71530000D02*
X111670000Y-71530000D01*
X115070000Y-77530000D02*
X115070000Y-73930000D01*
X115070000Y-77530000D02*
X115870000Y-77530000D01*
X119120000Y-76380000D02*
X119120000Y-69780000D01*
X119120000Y-85380000D02*
X99320000Y-85380000D01*
X119120000Y-85380000D02*
X119120000Y-78780000D01*
%TO.C,Q1*%
X125300000Y-71750000D02*
X125300000Y-75600000D01*
X125300000Y-71750000D02*
G75*
G02*
X125309878Y-75638611I1700000J-1940000D01*
G01*
%TO.C,J16*%
X161290000Y-49530000D02*
X161290000Y-57150000D01*
X161290000Y-57150000D02*
X171450000Y-57150000D01*
X171450000Y-49530000D02*
X161290000Y-49530000D01*
X171450000Y-55880000D02*
X161290000Y-55880000D01*
X171450000Y-57150000D02*
X171450000Y-49530000D01*
%TO.C,J14*%
X157480000Y-140210000D02*
X157480000Y-147830000D01*
X157480000Y-141480000D02*
X167640000Y-141480000D01*
X157480000Y-147830000D02*
X167640000Y-147830000D01*
X167640000Y-140210000D02*
X157480000Y-140210000D01*
X167640000Y-147830000D02*
X167640000Y-140210000D01*
%TO.C,J8*%
X90170000Y-69960000D02*
X90170000Y-80120000D01*
X90170000Y-80120000D02*
X97790000Y-80120000D01*
X96520000Y-69960000D02*
X96520000Y-80120000D01*
X97790000Y-69960000D02*
X90170000Y-69960000D01*
X97790000Y-80120000D02*
X97790000Y-69960000D01*
%TO.C,J6*%
X171370000Y-49530000D02*
X186610000Y-49530000D01*
X171370000Y-55880000D02*
X186610000Y-55880000D01*
X171370000Y-57150000D02*
X171370000Y-49530000D01*
X171370000Y-57150000D02*
X186610000Y-57150000D01*
X186610000Y-57150000D02*
X186610000Y-49530000D01*
%TO.C,D15*%
X168050000Y-109455000D02*
X168050000Y-112545000D01*
X168050001Y-109455170D02*
G75*
G02*
X173599999Y-111000462I2559999J-1544830D01*
G01*
X173600000Y-110999538D02*
G75*
G02*
X168050000Y-112544830I-2990000J-462D01*
G01*
X173110000Y-111000000D02*
G75*
G02*
X168110000Y-111000000I-2500000J0D01*
G01*
X168110000Y-111000000D02*
G75*
G02*
X173110000Y-111000000I2500000J0D01*
G01*
%TO.C,R6*%
X132230000Y-138130000D02*
X132230000Y-144670000D01*
X132230000Y-144670000D02*
X134970000Y-144670000D01*
X133600000Y-137360000D02*
X133600000Y-138130000D01*
X133600000Y-145440000D02*
X133600000Y-144670000D01*
X134970000Y-138130000D02*
X132230000Y-138130000D01*
X134970000Y-144670000D02*
X134970000Y-138130000D01*
%TO.C,D13*%
X129305000Y-142650000D02*
X126215000Y-142650000D01*
X127760462Y-148200000D02*
G75*
G02*
X126215170Y-142650000I-462J2990000D01*
G01*
X129304830Y-142650001D02*
G75*
G02*
X127759538Y-148199999I-1544830J-2559999D01*
G01*
X130260000Y-145210000D02*
G75*
G02*
X125260000Y-145210000I-2500000J0D01*
G01*
X125260000Y-145210000D02*
G75*
G02*
X130260000Y-145210000I2500000J0D01*
G01*
%TO.C,K8*%
X175080000Y-139440000D02*
X175080000Y-119640000D01*
X176830000Y-124590000D02*
X176830000Y-127090000D01*
X178680000Y-135190000D02*
X181130000Y-135190000D01*
X179230000Y-130490000D02*
X179230000Y-123690000D01*
X181030000Y-125090000D02*
X184630000Y-125090000D01*
X181030000Y-127090000D02*
X176830000Y-127090000D01*
X181030000Y-129090000D02*
X181030000Y-125090000D01*
X181030000Y-129090000D02*
X184630000Y-125090000D01*
X181680000Y-119640000D02*
X175080000Y-119640000D01*
X182830000Y-123690000D02*
X179230000Y-123690000D01*
X182830000Y-123690000D02*
X182830000Y-122890000D01*
X182830000Y-130490000D02*
X179230000Y-130490000D01*
X182830000Y-130490000D02*
X182830000Y-131990000D01*
X182830000Y-131990000D02*
X185330000Y-136590000D01*
X184630000Y-125090000D02*
X184630000Y-129090000D01*
X184630000Y-129090000D02*
X181030000Y-129090000D01*
X187080000Y-135190000D02*
X184580000Y-135190000D01*
X188830000Y-127090000D02*
X184630000Y-127090000D01*
X188830000Y-127090000D02*
X188830000Y-124590000D01*
X190680000Y-119640000D02*
X184080000Y-119640000D01*
X190680000Y-119640000D02*
X190680000Y-139440000D01*
X190680000Y-139440000D02*
X175080000Y-139440000D01*
%TO.C,D3*%
X121330000Y-106300000D02*
X121330000Y-111740000D01*
X121330000Y-110720000D02*
X124270000Y-110720000D01*
X121330000Y-110840000D02*
X124270000Y-110840000D01*
X121330000Y-110960000D02*
X124270000Y-110960000D01*
X121330000Y-111740000D02*
X124270000Y-111740000D01*
X122800000Y-105080000D02*
X122800000Y-106300000D01*
X122800000Y-112960000D02*
X122800000Y-111740000D01*
X124270000Y-106300000D02*
X121330000Y-106300000D01*
X124270000Y-111740000D02*
X124270000Y-106300000D01*
%TO.C,K5*%
X99320000Y-131900000D02*
X119120000Y-131900000D01*
X99320000Y-147500000D02*
X99320000Y-131900000D01*
X103570000Y-135500000D02*
X103570000Y-137950000D01*
X103570000Y-143900000D02*
X103570000Y-141400000D01*
X106770000Y-139650000D02*
X102170000Y-142150000D01*
X108270000Y-136050000D02*
X115070000Y-136050000D01*
X108270000Y-139650000D02*
X106770000Y-139650000D01*
X108270000Y-139650000D02*
X108270000Y-136050000D01*
X109670000Y-137850000D02*
X113670000Y-137850000D01*
X109670000Y-137850000D02*
X113670000Y-141450000D01*
X109670000Y-141450000D02*
X109670000Y-137850000D01*
X111670000Y-137850000D02*
X111670000Y-133650000D01*
X111670000Y-145650000D02*
X111670000Y-141450000D01*
X111670000Y-145650000D02*
X114170000Y-145650000D01*
X113670000Y-137850000D02*
X113670000Y-141450000D01*
X113670000Y-141450000D02*
X109670000Y-141450000D01*
X114170000Y-133650000D02*
X111670000Y-133650000D01*
X115070000Y-139650000D02*
X115070000Y-136050000D01*
X115070000Y-139650000D02*
X115870000Y-139650000D01*
X119120000Y-138500000D02*
X119120000Y-131900000D01*
X119120000Y-147500000D02*
X99320000Y-147500000D01*
X119120000Y-147500000D02*
X119120000Y-140900000D01*
%TO.C,J7*%
X186610000Y-49530000D02*
X186610000Y-57150000D01*
X186610000Y-49530000D02*
X206930000Y-49530000D01*
X186610000Y-57150000D02*
X206930000Y-57150000D01*
X206930000Y-55880000D02*
X186610000Y-55880000D01*
X206930000Y-57150000D02*
X206930000Y-49530000D01*
%TO.C,J21*%
X130810000Y-49530000D02*
X130810000Y-57150000D01*
X130810000Y-57150000D02*
X140970000Y-57150000D01*
X140970000Y-49530000D02*
X130810000Y-49530000D01*
X140970000Y-55880000D02*
X130810000Y-55880000D01*
X140970000Y-57150000D02*
X140970000Y-49530000D01*
%TO.C,D6*%
X128565000Y-94860000D02*
X125475000Y-94860000D01*
X127020462Y-100410000D02*
G75*
G02*
X125475170Y-94860000I-462J2990000D01*
G01*
X128564830Y-94860001D02*
G75*
G02*
X127019538Y-100409999I-1544830J-2559999D01*
G01*
X129520000Y-97420000D02*
G75*
G02*
X124520000Y-97420000I-2500000J0D01*
G01*
X124520000Y-97420000D02*
G75*
G02*
X129520000Y-97420000I2500000J0D01*
G01*
%TO.C,R8*%
X161920000Y-105160000D02*
X162690000Y-105160000D01*
X162690000Y-103790000D02*
X162690000Y-106530000D01*
X162690000Y-106530000D02*
X169230000Y-106530000D01*
X169230000Y-103790000D02*
X162690000Y-103790000D01*
X169230000Y-106530000D02*
X169230000Y-103790000D01*
X170000000Y-105160000D02*
X169230000Y-105160000D01*
%TO.C,J3*%
X144730000Y-69910000D02*
X144730000Y-68580000D01*
X146060000Y-69910000D02*
X144730000Y-69910000D01*
X147330000Y-67250000D02*
X195650000Y-67250000D01*
X147330000Y-69910000D02*
X147330000Y-67250000D01*
X147330000Y-69910000D02*
X195650000Y-69910000D01*
X195650000Y-69910000D02*
X195650000Y-67250000D01*
%TO.C,D12*%
X180640000Y-116080000D02*
X181860000Y-116080000D01*
X181860000Y-114610000D02*
X181860000Y-117550000D01*
X181860000Y-117550000D02*
X187300000Y-117550000D01*
X186280000Y-117550000D02*
X186280000Y-114610000D01*
X186400000Y-117550000D02*
X186400000Y-114610000D01*
X186520000Y-117550000D02*
X186520000Y-114610000D01*
X187300000Y-114610000D02*
X181860000Y-114610000D01*
X187300000Y-117550000D02*
X187300000Y-114610000D01*
X188520000Y-116080000D02*
X187300000Y-116080000D01*
%TO.C,D11*%
X162860000Y-116080000D02*
X164080000Y-116080000D01*
X164080000Y-114610000D02*
X164080000Y-117550000D01*
X164080000Y-117550000D02*
X169520000Y-117550000D01*
X168500000Y-117550000D02*
X168500000Y-114610000D01*
X168620000Y-117550000D02*
X168620000Y-114610000D01*
X168740000Y-117550000D02*
X168740000Y-114610000D01*
X169520000Y-114610000D02*
X164080000Y-114610000D01*
X169520000Y-117550000D02*
X169520000Y-114610000D01*
X170740000Y-116080000D02*
X169520000Y-116080000D01*
%TO.C,Q8*%
X177910000Y-111940000D02*
X181760000Y-111940000D01*
X177910000Y-111940000D02*
G75*
G02*
X181798611Y-111930122I1940000J1700000D01*
G01*
%TO.C,D10*%
X145080000Y-116080000D02*
X146300000Y-116080000D01*
X146300000Y-114610000D02*
X146300000Y-117550000D01*
X146300000Y-117550000D02*
X151740000Y-117550000D01*
X150720000Y-117550000D02*
X150720000Y-114610000D01*
X150840000Y-117550000D02*
X150840000Y-114610000D01*
X150960000Y-117550000D02*
X150960000Y-114610000D01*
X151740000Y-114610000D02*
X146300000Y-114610000D01*
X151740000Y-117550000D02*
X151740000Y-114610000D01*
X152960000Y-116080000D02*
X151740000Y-116080000D01*
%TO.C,Q5*%
X126820000Y-134730000D02*
X126820000Y-138580000D01*
X126820000Y-134730000D02*
G75*
G02*
X126829878Y-138618611I1700000J-1940000D01*
G01*
%TO.C,K3*%
X99320000Y-101220000D02*
X119120000Y-101220000D01*
X99320000Y-116820000D02*
X99320000Y-101220000D01*
X103570000Y-104820000D02*
X103570000Y-107270000D01*
X103570000Y-113220000D02*
X103570000Y-110720000D01*
X106770000Y-108970000D02*
X102170000Y-111470000D01*
X108270000Y-105370000D02*
X115070000Y-105370000D01*
X108270000Y-108970000D02*
X106770000Y-108970000D01*
X108270000Y-108970000D02*
X108270000Y-105370000D01*
X109670000Y-107170000D02*
X113670000Y-107170000D01*
X109670000Y-107170000D02*
X113670000Y-110770000D01*
X109670000Y-110770000D02*
X109670000Y-107170000D01*
X111670000Y-107170000D02*
X111670000Y-102970000D01*
X111670000Y-114970000D02*
X111670000Y-110770000D01*
X111670000Y-114970000D02*
X114170000Y-114970000D01*
X113670000Y-107170000D02*
X113670000Y-110770000D01*
X113670000Y-110770000D02*
X109670000Y-110770000D01*
X114170000Y-102970000D02*
X111670000Y-102970000D01*
X115070000Y-108970000D02*
X115070000Y-105370000D01*
X115070000Y-108970000D02*
X115870000Y-108970000D01*
X119120000Y-107820000D02*
X119120000Y-101220000D01*
X119120000Y-116820000D02*
X99320000Y-116820000D01*
X119120000Y-116820000D02*
X119120000Y-110220000D01*
%TO.C,R10*%
X167330000Y-58420000D02*
X168100000Y-58420000D01*
X168100000Y-57050000D02*
X168100000Y-59790000D01*
X168100000Y-59790000D02*
X174640000Y-59790000D01*
X174640000Y-57050000D02*
X168100000Y-57050000D01*
X174640000Y-59790000D02*
X174640000Y-57050000D01*
X175410000Y-58420000D02*
X174640000Y-58420000D01*
%TO.C,D9*%
X121210000Y-138680000D02*
X121210000Y-144120000D01*
X121210000Y-143100000D02*
X124150000Y-143100000D01*
X121210000Y-143220000D02*
X124150000Y-143220000D01*
X121210000Y-143340000D02*
X124150000Y-143340000D01*
X121210000Y-144120000D02*
X124150000Y-144120000D01*
X122680000Y-137460000D02*
X122680000Y-138680000D01*
X122680000Y-145340000D02*
X122680000Y-144120000D01*
X124150000Y-138680000D02*
X121210000Y-138680000D01*
X124150000Y-144120000D02*
X124150000Y-138680000D01*
%TO.C,D2*%
X120470000Y-90890000D02*
X120470000Y-96330000D01*
X120470000Y-95310000D02*
X123410000Y-95310000D01*
X120470000Y-95430000D02*
X123410000Y-95430000D01*
X120470000Y-95550000D02*
X123410000Y-95550000D01*
X120470000Y-96330000D02*
X123410000Y-96330000D01*
X121940000Y-89670000D02*
X121940000Y-90890000D01*
X121940000Y-97550000D02*
X121940000Y-96330000D01*
X123410000Y-90890000D02*
X120470000Y-90890000D01*
X123410000Y-96330000D02*
X123410000Y-90890000D01*
%TO.C,Q2*%
X125320000Y-87780000D02*
X125320000Y-91630000D01*
X125320000Y-87780000D02*
G75*
G02*
X125329878Y-91668611I1700000J-1940000D01*
G01*
%TD*%
M02*
